<svg width="58" height="56" viewBox="0 0 58 56" fill="none" xmlns="http://www.w3.org/2000/svg">
<g id="bookshop/bro">
<g id="bookshelf-2">
<path id="Vector" d="M18.5317 1V54.8379" stroke="#676F74" stroke-width="0.152748" stroke-linecap="round" stroke-linejoin="round"/>
<path id="Vector_2" d="M24.72 1V54.8379" stroke="#676F74" stroke-width="0.152748" stroke-linecap="round" stroke-linejoin="round"/>
<path id="Vector_3" d="M28.5566 1V54.8379" stroke="#676F74" stroke-width="0.152748" stroke-linecap="round" stroke-linejoin="round"/>
<path id="Vector_4" d="M55.7849 10.0349H34.0022V54.9616H55.7849V10.0349Z" stroke="#676F74" stroke-width="0.152748" stroke-linecap="round" stroke-linejoin="round"/>
<path id="Vector_5" d="M56.7812 10.0349H55.749V54.9616H56.7812V10.0349Z" fill="#263238" stroke="#676F74" stroke-width="0.152748" stroke-linecap="round" stroke-linejoin="round"/>
<path id="Vector_6" d="M55.7665 14.2082H34.0259V14.8073H55.7665V14.2082Z" stroke="#676F74" stroke-width="0.152748" stroke-linecap="round" stroke-linejoin="round"/>
<path id="Vector_7" d="M34.0679 15.5053H55.6612" stroke="#676F74" stroke-width="0.152748" stroke-linecap="round" stroke-linejoin="round"/>
<path id="Vector_8" d="M37.2201 10.3604H34.4973V14.1971H37.2201V10.3604Z" stroke="#676F74" stroke-width="0.152748" stroke-linecap="round" stroke-linejoin="round"/>
<path id="Vector_9" d="M37.5086 10.3604H37.2202V14.1971H37.5086V10.3604Z" stroke="#676F74" stroke-width="0.152748" stroke-linecap="round" stroke-linejoin="round"/>
<path id="Vector_10" d="M40.5619 10.3604H37.8391V14.1971H40.5619V10.3604Z" stroke="#676F74" stroke-width="0.152748" stroke-linecap="round" stroke-linejoin="round"/>
<path id="Vector_11" d="M40.8504 10.3604H40.562V14.1971H40.8504V10.3604Z" stroke="#676F74" stroke-width="0.152748" stroke-linecap="round" stroke-linejoin="round"/>
<path id="Vector_12" d="M43.6708 11.0448H41.4331V14.1983H43.6708V11.0448Z" stroke="#676F74" stroke-width="0.152748" stroke-linecap="round" stroke-linejoin="round"/>
<path id="Vector_13" d="M43.9085 11.0448H43.6709V14.1983H43.9085V11.0448Z" stroke="#676F74" stroke-width="0.152748" stroke-linecap="round" stroke-linejoin="round"/>
<path id="Vector_14" d="M47.2453 10.3604H44.5225V14.1971H47.2453V10.3604Z" stroke="#676F74" stroke-width="0.152748" stroke-linecap="round" stroke-linejoin="round"/>
<path id="Vector_15" d="M47.5335 10.3604H47.2451V14.1971H47.5335V10.3604Z" stroke="#676F74" stroke-width="0.152748" stroke-linecap="round" stroke-linejoin="round"/>
<path id="Vector_16" d="M50.6376 11.0448H48.3999V14.1983H50.6376V11.0448Z" stroke="#676F74" stroke-width="0.152748" stroke-linecap="round" stroke-linejoin="round"/>
<path id="Vector_17" d="M50.8765 11.0448H50.6389V14.1983H50.8765V11.0448Z" stroke="#676F74" stroke-width="0.152748" stroke-linecap="round" stroke-linejoin="round"/>
<path id="Vector_18" d="M53.9794 11.0448H51.7417V14.1983H53.9794V11.0448Z" stroke="#676F74" stroke-width="0.152748" stroke-linecap="round" stroke-linejoin="round"/>
<path id="Vector_19" d="M54.2181 11.0448H53.9805V14.1983H54.2181V11.0448Z" stroke="#676F74" stroke-width="0.152748" stroke-linecap="round" stroke-linejoin="round"/>
<path id="Vector_20" d="M55.7665 20.644H34.0259V21.243H55.7665V20.644Z" stroke="#676F74" stroke-width="0.152748" stroke-linecap="round" stroke-linejoin="round"/>
<path id="Vector_21" d="M34.0679 21.9411H55.6612" stroke="#676F74" stroke-width="0.152748" stroke-linecap="round" stroke-linejoin="round"/>
<path id="Vector_22" d="M37.1968 16.4831H34.2512V20.6329H37.1968V16.4831Z" stroke="#676F74" stroke-width="0.152748" stroke-linecap="round" stroke-linejoin="round"/>
<path id="Vector_23" d="M37.5087 16.4831H37.1968V20.6329H37.5087V16.4831Z" stroke="#676F74" stroke-width="0.152748" stroke-linecap="round" stroke-linejoin="round"/>
<path id="Vector_24" d="M40.5619 16.7962H37.8391V20.6329H40.5619V16.7962Z" stroke="#676F74" stroke-width="0.152748" stroke-linecap="round" stroke-linejoin="round"/>
<path id="Vector_25" d="M40.8504 16.7962H40.562V20.6329H40.8504V16.7962Z" stroke="#676F74" stroke-width="0.152748" stroke-linecap="round" stroke-linejoin="round"/>
<path id="Vector_26" d="M43.9035 16.7962H41.1807V20.6329H43.9035V16.7962Z" stroke="#676F74" stroke-width="0.152748" stroke-linecap="round" stroke-linejoin="round"/>
<path id="Vector_27" d="M44.1919 16.7962H43.9036V20.6329H44.1919V16.7962Z" stroke="#676F74" stroke-width="0.152748" stroke-linecap="round" stroke-linejoin="round"/>
<path id="Vector_28" d="M47.2057 16.8531H44.5225V20.6341H47.2057V16.8531Z" stroke="#676F74" stroke-width="0.152748" stroke-linecap="round" stroke-linejoin="round"/>
<path id="Vector_29" d="M47.4902 16.8531H47.2056V20.6341H47.4902V16.8531Z" stroke="#676F74" stroke-width="0.152748" stroke-linecap="round" stroke-linejoin="round"/>
<path id="Vector_30" d="M50.6178 17.2058H48.1858V20.6329H50.6178V17.2058Z" stroke="#676F74" stroke-width="0.152748" stroke-linecap="round" stroke-linejoin="round"/>
<path id="Vector_31" d="M50.8751 17.2058H50.6177V20.6329H50.8751V17.2058Z" stroke="#676F74" stroke-width="0.152748" stroke-linecap="round" stroke-linejoin="round"/>
<path id="Vector_32" d="M54.4782 16.0214H51.2058V20.6329H54.4782V16.0214Z" stroke="#676F74" stroke-width="0.152748" stroke-linecap="round" stroke-linejoin="round"/>
<path id="Vector_33" d="M54.8246 16.0214H54.478V20.6329H54.8246V16.0214Z" stroke="#676F74" stroke-width="0.152748" stroke-linecap="round" stroke-linejoin="round"/>
<path id="Vector_34" d="M55.7665 27.0798H34.0259V27.6788H55.7665V27.0798Z" stroke="#676F74" stroke-width="0.152748" stroke-linecap="round" stroke-linejoin="round"/>
<path id="Vector_35" d="M34.0679 28.3769H55.6612" stroke="#676F74" stroke-width="0.152748" stroke-linecap="round" stroke-linejoin="round"/>
<path id="Vector_36" d="M37.2201 23.2319H34.4973V27.0687H37.2201V23.2319Z" stroke="#676F74" stroke-width="0.152748" stroke-linecap="round" stroke-linejoin="round"/>
<path id="Vector_37" d="M37.5086 23.2319H37.2202V27.0687H37.5086V23.2319Z" stroke="#676F74" stroke-width="0.152748" stroke-linecap="round" stroke-linejoin="round"/>
<path id="Vector_38" d="M40.5619 23.2319H37.8391V27.0687H40.5619V23.2319Z" stroke="#676F74" stroke-width="0.152748" stroke-linecap="round" stroke-linejoin="round"/>
<path id="Vector_39" d="M40.8504 23.2319H40.562V27.0687H40.8504V23.2319Z" stroke="#676F74" stroke-width="0.152748" stroke-linecap="round" stroke-linejoin="round"/>
<path id="Vector_40" d="M43.9035 23.2319H41.1807V27.0687H43.9035V23.2319Z" stroke="#676F74" stroke-width="0.152748" stroke-linecap="round" stroke-linejoin="round"/>
<path id="Vector_41" d="M44.1919 23.2319H43.9036V27.0687H44.1919V23.2319Z" stroke="#676F74" stroke-width="0.152748" stroke-linecap="round" stroke-linejoin="round"/>
<path id="Vector_42" d="M47.2749 23.6293H44.833V27.0699H47.2749V23.6293Z" stroke="#676F74" stroke-width="0.152748" stroke-linecap="round" stroke-linejoin="round"/>
<path id="Vector_43" d="M47.5336 23.6293H47.2749V27.0699H47.5336V23.6293Z" stroke="#676F74" stroke-width="0.152748" stroke-linecap="round" stroke-linejoin="round"/>
<path id="Vector_44" d="M50.5868 23.2319H47.864V27.0687H50.5868V23.2319Z" stroke="#676F74" stroke-width="0.152748" stroke-linecap="round" stroke-linejoin="round"/>
<path id="Vector_45" d="M50.8753 23.2319H50.5869V27.0687H50.8753V23.2319Z" stroke="#676F74" stroke-width="0.152748" stroke-linecap="round" stroke-linejoin="round"/>
<path id="Vector_46" d="M53.9286 23.2319H51.2058V27.0687H53.9286V23.2319Z" stroke="#676F74" stroke-width="0.152748" stroke-linecap="round" stroke-linejoin="round"/>
<path id="Vector_47" d="M54.2168 23.2319H53.9285V27.0687H54.2168V23.2319Z" stroke="#676F74" stroke-width="0.152748" stroke-linecap="round" stroke-linejoin="round"/>
<path id="Vector_48" d="M55.7665 33.5156H34.0259V34.1146H55.7665V33.5156Z" stroke="#676F74" stroke-width="0.152748" stroke-linecap="round" stroke-linejoin="round"/>
<path id="Vector_49" d="M34.0679 34.8127H55.6612" stroke="#676F74" stroke-width="0.152748" stroke-linecap="round" stroke-linejoin="round"/>
<path id="Vector_50" d="M37.2201 29.6677H34.4973V33.5044H37.2201V29.6677Z" stroke="#676F74" stroke-width="0.152748" stroke-linecap="round" stroke-linejoin="round"/>
<path id="Vector_51" d="M37.5086 29.6677H37.2202V33.5044H37.5086V29.6677Z" stroke="#676F74" stroke-width="0.152748" stroke-linecap="round" stroke-linejoin="round"/>
<path id="Vector_52" d="M40.5619 29.6677H37.8391V33.5044H40.5619V29.6677Z" stroke="#676F74" stroke-width="0.152748" stroke-linecap="round" stroke-linejoin="round"/>
<path id="Vector_53" d="M40.8504 29.6677H40.562V33.5044H40.8504V29.6677Z" stroke="#676F74" stroke-width="0.152748" stroke-linecap="round" stroke-linejoin="round"/>
<path id="Vector_54" d="M43.9035 29.6677H41.1807V33.5044H43.9035V29.6677Z" stroke="#676F74" stroke-width="0.152748" stroke-linecap="round" stroke-linejoin="round"/>
<path id="Vector_55" d="M44.1919 29.6677H43.9036V33.5044H44.1919V29.6677Z" stroke="#676F74" stroke-width="0.152748" stroke-linecap="round" stroke-linejoin="round"/>
<path id="Vector_56" d="M47.2453 29.6677H44.5225V33.5044H47.2453V29.6677Z" stroke="#676F74" stroke-width="0.152748" stroke-linecap="round" stroke-linejoin="round"/>
<path id="Vector_57" d="M47.5335 29.6677H47.2451V33.5044H47.5335V29.6677Z" stroke="#676F74" stroke-width="0.152748" stroke-linecap="round" stroke-linejoin="round"/>
<path id="Vector_58" d="M50.5868 29.6677H47.864V33.5044H50.5868V29.6677Z" stroke="#676F74" stroke-width="0.152748" stroke-linecap="round" stroke-linejoin="round"/>
<path id="Vector_59" d="M50.8753 29.6677H50.5869V33.5044H50.8753V29.6677Z" stroke="#676F74" stroke-width="0.152748" stroke-linecap="round" stroke-linejoin="round"/>
<path id="Vector_60" d="M53.9286 29.6677H51.2058V33.5044H53.9286V29.6677Z" stroke="#676F74" stroke-width="0.152748" stroke-linecap="round" stroke-linejoin="round"/>
<path id="Vector_61" d="M54.2168 29.6677H53.9285V33.5044H54.2168V29.6677Z" stroke="#676F74" stroke-width="0.152748" stroke-linecap="round" stroke-linejoin="round"/>
<path id="Vector_62" d="M55.7665 39.9514H34.0259V40.5504H55.7665V39.9514Z" stroke="#676F74" stroke-width="0.152748" stroke-linecap="round" stroke-linejoin="round"/>
<path id="Vector_63" d="M34.0679 41.2484H55.6612" stroke="#676F74" stroke-width="0.152748" stroke-linecap="round" stroke-linejoin="round"/>
<path id="Vector_64" d="M37.2201 36.1035H34.4973V39.9403H37.2201V36.1035Z" stroke="#676F74" stroke-width="0.152748" stroke-linecap="round" stroke-linejoin="round"/>
<path id="Vector_65" d="M37.5086 36.1035H37.2202V39.9403H37.5086V36.1035Z" stroke="#676F74" stroke-width="0.152748" stroke-linecap="round" stroke-linejoin="round"/>
<path id="Vector_66" d="M40.5619 36.1035H37.8391V39.9403H40.5619V36.1035Z" stroke="#676F74" stroke-width="0.152748" stroke-linecap="round" stroke-linejoin="round"/>
<path id="Vector_67" d="M40.8504 36.1035H40.562V39.9403H40.8504V36.1035Z" stroke="#676F74" stroke-width="0.152748" stroke-linecap="round" stroke-linejoin="round"/>
<path id="Vector_68" d="M43.9035 36.1035H41.1807V39.9403H43.9035V36.1035Z" stroke="#676F74" stroke-width="0.152748" stroke-linecap="round" stroke-linejoin="round"/>
<path id="Vector_69" d="M44.1919 36.1035H43.9036V39.9403H44.1919V36.1035Z" stroke="#676F74" stroke-width="0.152748" stroke-linecap="round" stroke-linejoin="round"/>
<path id="Vector_70" d="M47.2453 36.1035H44.5225V39.9403H47.2453V36.1035Z" stroke="#676F74" stroke-width="0.152748" stroke-linecap="round" stroke-linejoin="round"/>
<path id="Vector_71" d="M47.5335 36.1035H47.2451V39.9403H47.5335V36.1035Z" stroke="#676F74" stroke-width="0.152748" stroke-linecap="round" stroke-linejoin="round"/>
<path id="Vector_72" d="M50.5868 36.1035H47.864V39.9403H50.5868V36.1035Z" stroke="#676F74" stroke-width="0.152748" stroke-linecap="round" stroke-linejoin="round"/>
<path id="Vector_73" d="M50.8753 36.1035H50.5869V39.9403H50.8753V36.1035Z" stroke="#676F74" stroke-width="0.152748" stroke-linecap="round" stroke-linejoin="round"/>
<path id="Vector_74" d="M53.9286 36.1035H51.2058V39.9403H53.9286V36.1035Z" stroke="#676F74" stroke-width="0.152748" stroke-linecap="round" stroke-linejoin="round"/>
<path id="Vector_75" d="M54.2168 36.1035H53.9285V39.9403H54.2168V36.1035Z" stroke="#676F74" stroke-width="0.152748" stroke-linecap="round" stroke-linejoin="round"/>
<path id="Vector_76" d="M55.7665 46.3872H34.0259V46.9862H55.7665V46.3872Z" stroke="#676F74" stroke-width="0.152748" stroke-linecap="round" stroke-linejoin="round"/>
<path id="Vector_77" d="M34.0679 47.6842H55.6612" stroke="#676F74" stroke-width="0.152748" stroke-linecap="round" stroke-linejoin="round"/>
<path id="Vector_78" d="M37.2201 42.5393H34.4973V46.376H37.2201V42.5393Z" stroke="#676F74" stroke-width="0.152748" stroke-linecap="round" stroke-linejoin="round"/>
<path id="Vector_79" d="M37.5086 42.5393H37.2202V46.376H37.5086V42.5393Z" stroke="#676F74" stroke-width="0.152748" stroke-linecap="round" stroke-linejoin="round"/>
<path id="Vector_80" d="M40.5619 42.5393H37.8391V46.376H40.5619V42.5393Z" stroke="#676F74" stroke-width="0.152748" stroke-linecap="round" stroke-linejoin="round"/>
<path id="Vector_81" d="M40.8504 42.5393H40.562V46.376H40.8504V42.5393Z" stroke="#676F74" stroke-width="0.152748" stroke-linecap="round" stroke-linejoin="round"/>
<path id="Vector_82" d="M43.9035 42.5393H41.1807V46.376H43.9035V42.5393Z" stroke="#676F74" stroke-width="0.152748" stroke-linecap="round" stroke-linejoin="round"/>
<path id="Vector_83" d="M44.1919 42.5393H43.9036V46.376H44.1919V42.5393Z" stroke="#676F74" stroke-width="0.152748" stroke-linecap="round" stroke-linejoin="round"/>
<path id="Vector_84" d="M47.2453 42.5393H44.5225V46.376H47.2453V42.5393Z" stroke="#676F74" stroke-width="0.152748" stroke-linecap="round" stroke-linejoin="round"/>
<path id="Vector_85" d="M47.5335 42.5393H47.2451V46.376H47.5335V42.5393Z" stroke="#676F74" stroke-width="0.152748" stroke-linecap="round" stroke-linejoin="round"/>
<path id="Vector_86" d="M50.5868 42.5393H47.864V46.376H50.5868V42.5393Z" stroke="#676F74" stroke-width="0.152748" stroke-linecap="round" stroke-linejoin="round"/>
<path id="Vector_87" d="M50.8753 42.5393H50.5869V46.376H50.8753V42.5393Z" stroke="#676F74" stroke-width="0.152748" stroke-linecap="round" stroke-linejoin="round"/>
<path id="Vector_88" d="M53.9286 42.5393H51.2058V46.376H53.9286V42.5393Z" stroke="#676F74" stroke-width="0.152748" stroke-linecap="round" stroke-linejoin="round"/>
<path id="Vector_89" d="M54.2168 42.5393H53.9285V46.376H54.2168V42.5393Z" stroke="#676F74" stroke-width="0.152748" stroke-linecap="round" stroke-linejoin="round"/>
<path id="Vector_90" d="M55.7665 52.823H34.0259V53.422H55.7665V52.823Z" stroke="#676F74" stroke-width="0.152748" stroke-linecap="round" stroke-linejoin="round"/>
<path id="Vector_91" d="M34.0679 54.12H55.6612" stroke="#676F74" stroke-width="0.152748" stroke-linecap="round" stroke-linejoin="round"/>
<path id="Vector_92" d="M37.2201 48.9751H34.4973V52.8118H37.2201V48.9751Z" stroke="#676F74" stroke-width="0.152748" stroke-linecap="round" stroke-linejoin="round"/>
<path id="Vector_93" d="M37.5086 48.9751H37.2202V52.8118H37.5086V48.9751Z" stroke="#676F74" stroke-width="0.152748" stroke-linecap="round" stroke-linejoin="round"/>
<path id="Vector_94" d="M40.5619 48.9751H37.8391V52.8118H40.5619V48.9751Z" stroke="#676F74" stroke-width="0.152748" stroke-linecap="round" stroke-linejoin="round"/>
<path id="Vector_95" d="M40.8504 48.9751H40.562V52.8118H40.8504V48.9751Z" stroke="#676F74" stroke-width="0.152748" stroke-linecap="round" stroke-linejoin="round"/>
<path id="Vector_96" d="M43.9035 48.9751H41.1807V52.8118H43.9035V48.9751Z" stroke="#676F74" stroke-width="0.152748" stroke-linecap="round" stroke-linejoin="round"/>
<path id="Vector_97" d="M44.1919 48.9751H43.9036V52.8118H44.1919V48.9751Z" stroke="#676F74" stroke-width="0.152748" stroke-linecap="round" stroke-linejoin="round"/>
<path id="Vector_98" d="M47.2453 48.9751H44.5225V52.8118H47.2453V48.9751Z" stroke="#676F74" stroke-width="0.152748" stroke-linecap="round" stroke-linejoin="round"/>
<path id="Vector_99" d="M47.5335 48.9751H47.2451V52.8118H47.5335V48.9751Z" stroke="#676F74" stroke-width="0.152748" stroke-linecap="round" stroke-linejoin="round"/>
<path id="Vector_100" d="M50.5868 48.9751H47.864V52.8118H50.5868V48.9751Z" stroke="#676F74" stroke-width="0.152748" stroke-linecap="round" stroke-linejoin="round"/>
<path id="Vector_101" d="M50.8753 48.9751H50.5869V52.8118H50.8753V48.9751Z" stroke="#676F74" stroke-width="0.152748" stroke-linecap="round" stroke-linejoin="round"/>
<path id="Vector_102" d="M53.9286 48.9751H51.2058V52.8118H53.9286V48.9751Z" stroke="#676F74" stroke-width="0.152748" stroke-linecap="round" stroke-linejoin="round"/>
<path id="Vector_103" d="M54.2168 48.9751H53.9285V52.8118H54.2168V48.9751Z" stroke="#676F74" stroke-width="0.152748" stroke-linecap="round" stroke-linejoin="round"/>
</g>
<g id="character-2">
<path id="Vector_104" d="M22.507 23.154H20.7446V30.992H22.507V23.154Z" fill="#263238" stroke="#263238" stroke-width="0.152748" stroke-linecap="round" stroke-linejoin="round"/>
<path id="Vector_105" d="M26.8659 20.019H16.3867V27.857H26.8659V20.019Z" fill="#263238" stroke="#263238" stroke-width="0.152748" stroke-linecap="round" stroke-linejoin="round"/>
<path id="Vector_106" d="M26.0665 20.6155H17.1851V27.2592H26.0665V20.6155Z" fill="#E5E5E5" stroke="#263238" stroke-width="0.152748" stroke-linecap="round" stroke-linejoin="round"/>
<path id="Vector_107" d="M32.9232 53.3687L32.7809 54.9616H26.9391C26.9391 54.9616 26.798 54.3242 27.1161 54.0767C27.4342 53.8291 28.6013 53.6163 28.8488 53.5457C29.0964 53.4752 29.5914 53.0853 29.5914 53.0853L32.9232 53.3687Z" fill="#263238" stroke="#263238" stroke-width="0.152748" stroke-linecap="round" stroke-linejoin="round"/>
<path id="Vector_108" d="M32.8117 54.5977L32.7807 54.9616H26.939C26.916 54.8434 26.906 54.723 26.9093 54.6027C28.5839 54.5965 31.7485 54.5903 32.8117 54.5977Z" fill="#919191" stroke="#263238" stroke-width="0.152748" stroke-linecap="round" stroke-linejoin="round"/>
<path id="Vector_109" d="M32.8885 36.7298C32.8885 36.7298 32.7115 40.9068 32.7115 42.0046C32.7115 43.1024 33.5964 45.1557 33.6323 46.3587C33.6682 47.5617 33.0296 52.6608 33.0296 52.6608L30.3748 52.6249C30.3748 52.6249 30.1657 50.5061 30.0902 48.4837C30.0147 46.4614 29.2053 41.5801 29.0283 39.9514C28.8513 38.3226 28.4614 36.5874 28.4614 36.5874L32.8885 36.7298Z" fill="#263238" stroke="#263238" stroke-width="0.152748" stroke-linecap="round" stroke-linejoin="round"/>
<path id="Vector_110" d="M33.3476 52.3068L33.1347 53.4752L30.3735 53.3329V52.0234L33.3476 52.3068Z" fill="#919191" stroke="#263238" stroke-width="0.152748" stroke-linecap="round" stroke-linejoin="round"/>
<path id="Vector_111" d="M33.6311 33.9326C33.6311 33.9326 33.3118 35.5255 33.1707 36.2334C33.0296 36.9414 32.3204 38.8189 32.2858 39.632C32.2511 40.4452 31.9665 43.5269 31.9665 45.2262C31.9665 46.9255 31.8959 47.35 31.5419 48.8018C31.188 50.2536 30.834 52.5903 30.834 52.5903C30.3009 52.6032 29.7678 52.5676 29.2411 52.4838C28.6674 52.3989 28.1149 52.2066 27.6124 51.917L27.5765 51.2449C27.5765 51.2449 27.3995 50.2882 27.329 50.0073C27.2584 49.7263 27.7535 48.4491 27.7535 48.308C27.7535 48.1669 27.3649 47.7052 27.2225 46.9973C27.0802 46.2894 26.5851 42.1123 26.5851 41.5096C26.5851 40.9068 26.3735 36.731 26.3735 36.731C26.3735 36.731 25.9478 34.0403 25.9478 33.721C25.9478 33.4017 31.7189 33.367 32.6744 33.2965C33.6299 33.226 33.9492 33.4017 33.6311 33.9326Z" fill="#919191" stroke="#263238" stroke-width="0.152748" stroke-linecap="round" stroke-linejoin="round"/>
<path id="Vector_112" d="M28.6804 34.7111C28.6804 34.7111 29.4589 35.9859 30.3797 36.3758" stroke="#263238" stroke-width="0.152748" stroke-linecap="round" stroke-linejoin="round"/>
<path id="Vector_113" d="M30.0047 39.4217L29.949 39.7038" stroke="#263238" stroke-width="0.152748" stroke-linecap="round" stroke-linejoin="round"/>
<path id="Vector_114" d="M30.9045 34.8535L30.1038 38.9204" stroke="#263238" stroke-width="0.152748" stroke-linecap="round" stroke-linejoin="round"/>
<path id="Vector_115" d="M31.6508 39.8808C31.1109 39.9578 30.5671 40.0049 30.022 40.0219H27.8598L27.8252 40.8004C28.4195 40.915 29.0248 40.9627 29.6297 40.9427C30.3076 40.909 30.9823 40.8263 31.6483 40.6952L31.6508 39.8808Z" stroke="#263238" stroke-width="0.152748" stroke-linecap="round" stroke-linejoin="round"/>
<path id="Vector_116" d="M31.6507 40.6952C31.6507 40.6952 31.5802 42.0752 31.6148 43.1024C31.6495 44.1297 31.2262 44.3054 30.7658 44.3054C30.3054 44.3054 28.2521 44.553 27.9687 44.3413C27.6853 44.1297 27.5788 43.5628 27.6853 43.1037C27.7917 42.6445 27.8276 40.8016 27.8276 40.8016" stroke="#263238" stroke-width="0.152748" stroke-linecap="round" stroke-linejoin="round"/>
<path id="Vector_117" d="M30.6211 53.7239L30.5147 54.9616H24.6742C24.6742 54.9616 24.5319 54.3242 24.8512 54.0767C25.1705 53.8291 26.3364 53.6163 26.5839 53.5457C26.8314 53.4752 27.3265 53.0853 27.3265 53.0853L30.6211 53.7239Z" fill="#263238" stroke="#263238" stroke-width="0.152748" stroke-linecap="round" stroke-linejoin="round"/>
<path id="Vector_118" d="M30.5468 54.5977L30.5146 54.9616H24.6741C24.6503 54.8435 24.6399 54.7231 24.6432 54.6027C26.3177 54.5965 29.4824 54.5903 30.5468 54.5977Z" fill="white" stroke="#263238" stroke-width="0.152748" stroke-linecap="round" stroke-linejoin="round"/>
<path id="Vector_119" d="M31.2238 52.1299C31.2238 52.1299 31.152 53.7586 30.8686 53.8292C30.5852 53.8997 26.975 53.2982 26.9391 53.0148C26.9032 52.7314 27.2584 52.2004 27.293 52.0247C27.3277 51.8489 27.3289 51.5642 27.47 51.3526C27.6111 51.141 30.303 51.7759 31.2238 52.1299Z" fill="white" stroke="#263238" stroke-width="0.152748" stroke-linecap="round" stroke-linejoin="round"/>
<path id="Vector_120" d="M16.6158 30.1343C16.6158 30.1343 16.044 30.2804 15.8856 30.414C15.7272 30.5477 15.5143 30.9004 15.5824 31.0452C15.6504 31.19 15.7767 31.1306 15.8299 31.0576C15.9668 30.8467 16.1399 30.6615 16.3411 30.5106C16.5562 30.3827 16.7794 30.269 17.0094 30.1702C16.8879 30.1074 16.7467 30.0945 16.6158 30.1343Z" fill="#E5E5E5" stroke="#263238" stroke-width="0.152748" stroke-linecap="round" stroke-linejoin="round"/>
<path id="Vector_121" d="M26.9787 21.5277L24.5157 27.1912C24.5157 27.1912 23.6952 27.5204 22.0528 28.1355C20.4104 28.7506 18.6876 29.5316 18.2767 29.6541C17.8658 29.7766 16.8819 29.9821 16.3893 30.2729C15.8967 30.5638 15.4722 31.1529 15.8002 31.1937C15.9153 31.2086 15.924 31.3274 16.2136 31.2915C16.3308 31.2661 16.4397 31.2116 16.5304 31.1331C16.748 30.9698 16.9915 30.8443 17.2507 30.7618C17.6064 30.6683 17.9775 30.6485 18.3411 30.7036C18.5053 30.7269 18.672 30.7269 18.8362 30.7036C19.0289 30.5738 19.2118 30.4298 19.3832 30.2729C19.3832 30.2729 22.2558 30.0254 23.4056 29.8212C24.5553 29.617 26.2782 29.0415 26.2782 29.0415L28.126 21.571L26.9787 21.5277Z" fill="white" stroke="#263238" stroke-width="0.152748" stroke-linecap="round" stroke-linejoin="round"/>
<path id="Vector_122" d="M17.2098 30.2704C17.2098 30.2704 16.0192 30.6801 15.9375 31.1727" stroke="#263238" stroke-width="0.152748" stroke-linecap="round" stroke-linejoin="round"/>
<g id="Vector_123">
<path d="M19.3856 30.2704C19.2111 30.4416 19.0181 30.5927 18.8101 30.721C18.5229 30.8856 18.1541 30.8039 17.867 30.9685C17.5798 31.1331 17.4957 31.2556 17.1689 31.216C16.8422 31.1764 16.8397 30.888 17.2506 30.7655C17.4362 30.7192 17.6154 30.6502 17.7841 30.5601L18.0316 30.2729" fill="white"/>
<path d="M19.3856 30.2704C19.2111 30.4416 19.0181 30.5927 18.8101 30.721C18.5229 30.8856 18.1541 30.8039 17.867 30.9685C17.5798 31.1331 17.4957 31.2556 17.1689 31.216C16.8422 31.1764 16.8397 30.888 17.2506 30.7655C17.4362 30.7192 17.6154 30.6502 17.7841 30.5601L18.0316 30.2729" stroke="#263238" stroke-width="0.152748" stroke-linecap="round" stroke-linejoin="round"/>
</g>
<path id="Vector_124" d="M21.1863 23.602L12.9473 23.7653L11.8062 31.0143L21.9202 31.096L21.1863 23.602Z" fill="#C1D600" stroke="#263238" stroke-width="0.152748" stroke-linecap="round" stroke-linejoin="round"/>
<path id="Vector_125" d="M20.2098 31.0143L20.5353 23.602L16.3038 28.5996L12.9473 23.7653" stroke="#263238" stroke-width="0.152748" stroke-linecap="round" stroke-linejoin="round"/>
<path id="Vector_126" d="M31.5778 17.1872C31.5778 17.1872 32.2499 17.4348 33.2413 18.3556C34.2326 19.2764 35.0111 21.6836 35.1175 22.9584C35.224 24.2332 34.4455 28.1268 34.4455 29.0823C34.4455 30.0378 34.1621 34.1455 34.0197 34.252C33.8774 34.3584 29.4181 34.7112 27.4354 34.606C25.4527 34.5008 25.3463 33.7198 25.1346 32.9772C24.923 32.2346 24.7794 30.2865 25.0987 28.0563C25.4181 25.826 25.8067 22.9225 26.6916 21.4361C27.5765 19.9497 28.1768 19.17 28.9194 18.4967C29.662 17.8234 31.0469 17.1167 31.5778 17.1872Z" fill="#263238" stroke="#263238" stroke-width="0.152748" stroke-linecap="round" stroke-linejoin="round"/>
<path id="Vector_127" d="M30.2548 25.1293L28.5679 25.0216V22.1861L30.2548 22.2938V25.1293Z" fill="#C1D600"/>
<path id="Vector_128" d="M29.6087 21.7913H29.2856V22.6527H29.6087V21.7913Z" fill="white" stroke="#263238" stroke-width="0.152748" stroke-linecap="round" stroke-linejoin="round"/>
<path id="Vector_129" d="M29.8958 24.5302L28.9268 24.4362V22.9646L29.8958 23.0587V24.5302Z" fill="white"/>
<g id="Vector_130">
<path d="M30.2682 21.5883L32.8339 27.2939L28.158 29.4994C28.158 29.4994 25.4897 29.5143 25.2817 29.4784C25.0738 29.4425 23.2421 30.5922 23.1493 30.6913C23.1368 30.7046 23.1271 30.7203 23.1208 30.7375C23.1146 30.7546 23.1118 30.7729 23.1127 30.7911C23.1137 30.8094 23.1182 30.8273 23.1262 30.8437C23.1342 30.8601 23.1454 30.8748 23.1592 30.8868C23.1592 30.8868 22.9277 31.1046 23.0899 31.2296L23.2508 31.3534C23.2508 31.3534 23.2334 31.4574 23.4686 31.5848C23.7037 31.7123 23.8114 31.6542 23.8114 31.6542C23.9664 31.621 24.1183 31.575 24.2656 31.5168C24.4624 31.4326 25.0602 30.9549 25.1642 30.9734C25.2681 30.992 26.4328 31.1591 26.8969 31.1418C27.361 31.1244 27.7187 30.6702 27.7187 30.6702C27.7187 30.6702 31.7349 30.6195 33.1087 30.2531C34.4824 29.8868 36.1892 28.9016 36.4986 28.5353C36.808 28.1689 35.7139 23.4052 35.324 22.3594C34.9342 21.3136 34.3216 20.1885 34.147 20.019" fill="#263238"/>
<path d="M30.2682 21.5883L32.8339 27.2939L28.158 29.4994C28.158 29.4994 25.4897 29.5143 25.2817 29.4784C25.0738 29.4425 23.2421 30.5922 23.1493 30.6913C23.1368 30.7046 23.1271 30.7203 23.1208 30.7375C23.1146 30.7546 23.1118 30.7729 23.1127 30.7911C23.1137 30.8094 23.1182 30.8273 23.1262 30.8437C23.1342 30.8601 23.1454 30.8748 23.1592 30.8868C23.1592 30.8868 22.9277 31.1046 23.0899 31.2296L23.2508 31.3534C23.2508 31.3534 23.2334 31.4574 23.4686 31.5848C23.7037 31.7123 23.8114 31.6541 23.8114 31.6541C23.9664 31.621 24.1183 31.575 24.2656 31.5168C24.4624 31.4326 25.0602 30.9549 25.1642 30.9734C25.2681 30.992 26.4328 31.1591 26.8969 31.1418C27.361 31.1244 27.7187 30.6702 27.7187 30.6702C27.7187 30.6702 31.7349 30.6195 33.1087 30.2531C34.4824 29.8868 36.1892 28.9016 36.4986 28.5353C36.808 28.1689 35.7139 23.4052 35.324 22.3594C34.9342 21.3136 34.3216 20.1885 34.147 20.019" stroke="#263238" stroke-width="0.152748" stroke-linecap="round" stroke-linejoin="round"/>
</g>
<path id="Vector_131" d="M23.8114 31.6541C23.8114 31.6541 23.705 31.7111 23.4686 31.5848C23.2322 31.4586 23.2508 31.3534 23.2508 31.3534L23.0899 31.2296C22.9277 31.1058 23.1592 30.8868 23.1592 30.8868C23.1454 30.8748 23.1342 30.8601 23.1262 30.8437C23.1182 30.8272 23.1137 30.8093 23.1127 30.7911C23.1118 30.7729 23.1146 30.7546 23.1208 30.7374C23.1271 30.7203 23.1368 30.7046 23.1493 30.6912C23.2421 30.5897 25.0726 29.4424 25.2817 29.4783C25.4909 29.5142 28.158 29.4994 28.158 29.4994L32.8339 27.2939L31.7547 24.8928L35.5914 23.2368C36.0642 24.9757 36.7548 28.2357 36.4998 28.5352C36.1904 28.9065 34.4837 29.8868 33.1099 30.2531C31.7361 30.6194 27.7199 30.6702 27.7199 30.6702C27.7199 30.6702 27.3622 31.1244 26.8981 31.1417C26.434 31.1591 25.2681 30.9907 25.1654 30.9734C25.0627 30.9561 24.4637 31.4326 24.2656 31.5167C24.1183 31.5752 23.9664 31.6211 23.8114 31.6541Z" fill="white" stroke="#263238" stroke-width="0.152748" stroke-linecap="round" stroke-linejoin="round"/>
<path id="Vector_132" d="M23.1592 30.8868L24.6171 30.091" stroke="#263238" stroke-width="0.152748" stroke-linecap="round" stroke-linejoin="round"/>
<path id="Vector_133" d="M23.2954 31.3088L24.6643 30.3942" stroke="#263238" stroke-width="0.152748" stroke-linecap="round" stroke-linejoin="round"/>
<path id="Vector_134" d="M23.6433 31.6492C23.6353 31.6324 23.6309 31.6141 23.6302 31.5955C23.6295 31.5769 23.6327 31.5584 23.6394 31.541C23.6461 31.5236 23.6563 31.5078 23.6693 31.4945C23.6823 31.4812 23.6979 31.4707 23.7151 31.4636C23.8388 31.4066 24.8426 30.6863 24.8426 30.6863" stroke="#263238" stroke-width="0.152748" stroke-linecap="round" stroke-linejoin="round"/>
<path id="Vector_135" d="M27.8375 18.1006L28.4329 18.5561C28.4329 18.5561 27.3474 20.6601 27.8375 20.7628C28.3277 20.8656 30.0096 18.6266 30.6396 17.8902C31.2696 17.1538 31.5777 17.1873 31.5777 17.1873C31.5777 17.1873 30.8153 16.3209 30.5344 15.6489C30.2534 14.9768 30.1148 14.5634 30.1148 14.5634L27.8375 18.1006Z" fill="white" stroke="#263238" stroke-width="0.152748" stroke-linecap="round" stroke-linejoin="round"/>
<path id="Vector_136" d="M25.8263 12.6525C25.8263 12.6525 25.7669 15.4162 25.8449 15.9038C25.9229 16.3914 26.5974 17.7454 26.8536 18.0375C27.1098 18.3296 28.1581 18.3717 28.5393 18.1439C28.9205 17.9162 29.8908 16.6773 30.0628 16.1897C30.167 15.8978 30.2308 15.5929 30.2522 15.2837C30.2522 15.2837 30.8611 15.4372 31.2052 14.7144C31.5492 13.9916 31.2052 13.4198 30.7522 13.4508L30.3648 13.6376C30.3648 13.6376 30.8958 12.2601 30.5616 11.7292C30.2274 11.1982 27.2633 11.4631 26.6531 11.5596C26.0429 11.6562 25.8263 12.6525 25.8263 12.6525Z" fill="white" stroke="#263238" stroke-width="0.152748" stroke-linecap="round" stroke-linejoin="round"/>
<path id="Vector_137" d="M28.0269 14.2428C28.0269 14.2428 28.4415 13.9322 28.8548 14.1735" stroke="#263238" stroke-width="0.152748" stroke-linecap="round" stroke-linejoin="round"/>
<path id="Vector_138" d="M26.0256 14.0349C26.0256 14.0349 26.543 13.8975 26.6445 14.2825" stroke="#263238" stroke-width="0.152748" stroke-linecap="round" stroke-linejoin="round"/>
<path id="Vector_139" d="M26.4822 14.2008C26.4822 14.2365 26.4716 14.2714 26.4518 14.3012C26.4319 14.3309 26.4037 14.354 26.3707 14.3677C26.3377 14.3814 26.3013 14.385 26.2663 14.378C26.2312 14.371 26.199 14.3538 26.1738 14.3285C26.1485 14.3033 26.1313 14.2711 26.1243 14.236C26.1173 14.201 26.1209 14.1646 26.1346 14.1316C26.1483 14.0986 26.1714 14.0704 26.2012 14.0505C26.2309 14.0307 26.2658 14.0201 26.3015 14.0201C26.3494 14.0204 26.3951 14.0395 26.429 14.0733C26.4628 14.1072 26.4819 14.1529 26.4822 14.2008Z" fill="#263238"/>
<path id="Vector_140" d="M28.5418 14.306C28.5418 14.3417 28.5312 14.3767 28.5114 14.4064C28.4915 14.4361 28.4633 14.4593 28.4303 14.4729C28.3972 14.4866 28.3609 14.4902 28.3259 14.4832C28.2908 14.4763 28.2586 14.459 28.2333 14.4338C28.2081 14.4085 28.1909 14.3763 28.1839 14.3413C28.1769 14.3062 28.1805 14.2699 28.1942 14.2369C28.2079 14.2038 28.231 14.1756 28.2607 14.1558C28.2904 14.1359 28.3254 14.1253 28.3611 14.1253C28.409 14.1253 28.455 14.1443 28.4889 14.1782C28.5228 14.2121 28.5418 14.2581 28.5418 14.306Z" fill="#263238"/>
<path id="Vector_141" d="M28.3362 12.8035L29.0318 12.9879C29.056 12.994 29.0786 13.0051 29.0982 13.0205C29.1178 13.0359 29.134 13.0553 29.1457 13.0773C29.1573 13.0994 29.1643 13.1236 29.166 13.1485C29.1677 13.1734 29.1641 13.1983 29.1556 13.2218L29.1382 13.2688C29.122 13.3128 29.0893 13.3488 29.047 13.3691C29.0048 13.3894 28.9562 13.3925 28.9117 13.3777L28.2347 13.1463C28.2121 13.1387 28.1912 13.1266 28.1733 13.1107C28.1554 13.0948 28.1409 13.0755 28.1306 13.0539C28.1203 13.0323 28.1145 13.0089 28.1134 12.985C28.1124 12.9611 28.1162 12.9372 28.1246 12.9148C28.1398 12.8733 28.1699 12.839 28.209 12.8184C28.2481 12.7978 28.2934 12.7925 28.3362 12.8035Z" fill="#263238" stroke="#263238" stroke-width="0.152748" stroke-linecap="round" stroke-linejoin="round"/>
<path id="Vector_142" d="M26.7991 12.8814V12.8926C26.8072 12.9104 26.8116 12.9297 26.8121 12.9492C26.8125 12.9688 26.809 12.9882 26.8017 13.0064C26.7944 13.0246 26.7835 13.041 26.7697 13.0549C26.7558 13.0687 26.7393 13.0796 26.7212 13.0869L26.2385 13.28C26.2182 13.288 26.1963 13.2914 26.1745 13.2899C26.1527 13.2884 26.1315 13.2819 26.1125 13.2711C26.0934 13.2603 26.0771 13.2454 26.0647 13.2274C26.0522 13.2095 26.0439 13.1889 26.0405 13.1673C26.0356 13.1354 26.0415 13.1028 26.0572 13.0746C26.0729 13.0464 26.0974 13.0241 26.1271 13.0114L26.6048 12.8072C26.6224 12.7991 26.6415 12.7947 26.6608 12.7941C26.6802 12.7935 26.6994 12.7967 26.7175 12.8036C26.7356 12.8106 26.7521 12.821 26.7661 12.8343C26.7801 12.8477 26.7914 12.8637 26.7991 12.8814Z" fill="#263238" stroke="#263238" stroke-width="0.152748" stroke-linecap="round" stroke-linejoin="round"/>
<path id="Vector_143" d="M28.5282 15.5003C28.5282 15.5003 28.2311 16.1451 27.3796 16.0907" stroke="#263238" stroke-width="0.152748" stroke-linecap="round" stroke-linejoin="round"/>
<g id="Vector_144">
<path d="M26.9253 13.5869C26.9253 13.5869 26.8127 15.2639 26.8015 15.4C26.7904 15.5362 27.1567 15.9149 27.4364 15.6253C27.5914 15.4843 27.6951 15.2958 27.731 15.0894" fill="white"/>
<path d="M26.9253 13.5869C26.9253 13.5869 26.8127 15.2639 26.8015 15.4C26.7904 15.5362 27.1567 15.9149 27.4364 15.6253C27.5914 15.4843 27.6951 15.2958 27.731 15.0894" stroke="#263238" stroke-width="0.152748" stroke-linecap="round" stroke-linejoin="round"/>
</g>
<path id="Vector_145" d="M26.9056 13.5399C26.8071 13.4147 26.6785 13.3166 26.5317 13.2548C26.3849 13.1929 26.2249 13.1694 26.0665 13.1863C25.9081 13.2032 25.7567 13.2601 25.6263 13.3515C25.4959 13.443 25.3909 13.566 25.3211 13.7092C25.2512 13.8523 25.2189 14.0109 25.2271 14.1699C25.2353 14.329 25.2837 14.4833 25.3678 14.6185C25.452 14.7538 25.5691 14.8654 25.7082 14.943C25.8473 15.0206 26.0038 15.0616 26.163 15.0622C26.2931 15.0695 26.423 15.0444 26.5409 14.9891C26.6589 14.9338 26.7612 14.85 26.8388 14.7453L26.9056 13.5399Z" stroke="#263238" stroke-width="0.152748" stroke-linecap="round" stroke-linejoin="round"/>
<path id="Vector_146" d="M28.4379 15.0622C28.9574 15.0622 29.3785 14.6411 29.3785 14.1216C29.3785 13.6021 28.9574 13.181 28.4379 13.181C27.9184 13.181 27.4973 13.6021 27.4973 14.1216C27.4973 14.6411 27.9184 15.0622 28.4379 15.0622Z" stroke="#263238" stroke-width="0.152748" stroke-linecap="round" stroke-linejoin="round"/>
<path id="Vector_147" d="M29.3821 13.9335L30.8462 13.4792" stroke="#263238" stroke-width="0.152748" stroke-linecap="round" stroke-linejoin="round"/>
<path id="Vector_148" d="M25.2361 14.0164L25.793 13.9124" stroke="#263238" stroke-width="0.152748" stroke-linecap="round" stroke-linejoin="round"/>
<path id="Vector_149" d="M26.9055 13.7478C26.9989 13.6945 27.106 13.6701 27.2133 13.6776C27.3205 13.6851 27.4232 13.7241 27.5083 13.7899" stroke="#263238" stroke-width="0.152748" stroke-linecap="round" stroke-linejoin="round"/>
<path id="Vector_150" d="M30.4701 10.1165C30.4701 10.1165 31.6979 11.0052 31.4343 11.9656C31.1707 12.926 30.4194 14.7565 30.4194 14.7565L30.2152 14.7887L30.1459 14.0906C30.1459 14.0906 29.4553 13.9508 29.4862 13.3616C29.5026 13.0138 29.5903 12.673 29.7436 12.3604C29.7436 12.3604 29.1372 13.0052 28.3092 13.0052C27.4812 13.0052 26.954 12.0943 26.7213 12.4656C26.4886 12.8369 26.0728 13.1116 25.147 12.801C24.2212 12.4903 22.7311 10.4742 23.569 9.71429C24.4069 8.95437 26.0678 9.94078 26.5752 9.98534C27.0827 10.0299 27.3178 9.15735 28.4701 9.3071C29.1913 9.41537 29.8766 9.69273 30.4701 10.1165Z" fill="#263238" stroke="#263238" stroke-width="0.152748" stroke-linecap="round" stroke-linejoin="round"/>
<path id="Vector_151" d="M34.1757 30.6739H7.67505V55H34.1757V30.6739Z" fill="white" stroke="#263238" stroke-width="0.152748" stroke-linecap="round" stroke-linejoin="round"/>
<path id="Vector_152" d="M34.1757 30.6739H7.67505V32.3113H34.1757V30.6739Z" fill="#263238" stroke="#263238" stroke-width="0.152748" stroke-linecap="round" stroke-linejoin="round"/>
<path id="Vector_153" d="M34.1756 30.6739H25.7905V55H34.1756V30.6739Z" stroke="#263238" stroke-width="0.152748" stroke-linecap="round" stroke-linejoin="round"/>
<path id="Vector_154" d="M35.3143 30.6739H6.53638V31.6059H35.3143V30.6739Z" fill="white" stroke="#263238" stroke-width="0.152748" stroke-linecap="round" stroke-linejoin="round"/>
<path id="Vector_155" d="M35.313 30.6739H24.7546V31.6059H35.313V30.6739Z" fill="white" stroke="#263238" stroke-width="0.152748" stroke-linecap="round" stroke-linejoin="round"/>
</g>
<g id="bookshelf-1">
<path id="Vector_156" d="M40.1608 20.0598C40.1608 20.0598 40.1372 19.4286 39.8699 18.9917C39.6026 18.5548 38.6323 18.2392 38.1236 18.4583C37.8655 18.564 37.6142 18.6855 37.3711 18.8222C37.8777 18.981 38.3597 19.2097 38.8031 19.5016C39.2125 19.7789 39.6747 19.9689 40.1608 20.0598Z" fill="#C1D600" stroke="#263238" stroke-width="0.152748" stroke-linecap="round" stroke-linejoin="round"/>
<path id="Vector_157" d="M41.1807 20.3779C41.1807 20.3779 40.5978 19.8197 40.5013 19.0425C40.4047 18.2652 41.229 17.0536 41.229 17.0536C41.5017 17.5717 41.7211 18.1162 41.8837 18.6786C42.1275 19.5524 41.1807 20.3779 41.1807 20.3779Z" fill="#C1D600" stroke="#263238" stroke-width="0.152748" stroke-linecap="round" stroke-linejoin="round"/>
<path id="Vector_158" d="M42.2946 20.1353C42.2946 20.1353 42.1485 19.4076 42.4184 18.8977C42.6882 18.3878 43.3887 18.436 44.0929 18.6501C44.7971 18.8643 45.015 18.868 45.015 18.868C44.5296 19.1932 44.0179 19.4772 43.4852 19.717C43.0982 19.8831 42.7004 20.0228 42.2946 20.1353Z" fill="#C1D600" stroke="#263238" stroke-width="0.152748" stroke-linecap="round" stroke-linejoin="round"/>
<path id="Vector_159" d="M41.1869 22.7505C41.1702 22.7505 41.1541 22.7438 41.1423 22.732C41.1304 22.7202 41.1238 22.7041 41.1238 22.6874V19.2219C41.1267 19.2076 41.1344 19.1948 41.1457 19.1855C41.1569 19.1763 41.1711 19.1712 41.1857 19.1712C41.2002 19.1712 41.2144 19.1763 41.2257 19.1855C41.2369 19.1948 41.2447 19.2076 41.2475 19.2219V22.6874C41.2476 22.7037 41.2412 22.7194 41.2299 22.7311C41.2186 22.7429 41.2032 22.7498 41.1869 22.7505Z" fill="#263238"/>
<path id="Vector_160" d="M41.4789 22.7505H41.469C41.4527 22.748 41.438 22.7393 41.428 22.7261C41.4181 22.7129 41.4137 22.6963 41.4158 22.6799C41.4282 22.5933 41.7215 20.5376 42.7166 19.3952C42.722 19.389 42.7287 19.3838 42.7361 19.3801C42.7435 19.3764 42.7516 19.3742 42.7599 19.3737C42.7681 19.3731 42.7764 19.3742 42.7843 19.3768C42.7922 19.3794 42.7994 19.3836 42.8057 19.389C42.812 19.3945 42.8171 19.4011 42.8208 19.4085C42.8245 19.416 42.8267 19.424 42.8272 19.4323C42.8278 19.4406 42.8268 19.4489 42.8241 19.4568C42.8215 19.4646 42.8173 19.4719 42.8119 19.4781C41.8403 20.592 41.5433 22.6762 41.5408 22.696C41.5385 22.7109 41.531 22.7245 41.5197 22.7345C41.5084 22.7444 41.494 22.7501 41.4789 22.7505Z" fill="#263238"/>
<path id="Vector_161" d="M40.8961 22.701C40.8878 22.701 40.8797 22.6993 40.8721 22.6961C40.8645 22.693 40.8576 22.6883 40.8519 22.6824C40.8461 22.6765 40.8416 22.6696 40.8385 22.6619C40.8355 22.6543 40.834 22.6461 40.8342 22.6378C40.8342 22.618 40.8441 20.6428 39.6683 19.7034C39.6552 19.6929 39.6468 19.6776 39.6449 19.6609C39.6431 19.6442 39.6479 19.6274 39.6584 19.6143C39.6689 19.6011 39.6842 19.5927 39.7009 19.5909C39.7176 19.589 39.7344 19.5939 39.7475 19.6044C40.9703 20.5833 40.9604 22.5562 40.9604 22.6391C40.9603 22.6474 40.9585 22.6556 40.9552 22.6631C40.9518 22.6707 40.947 22.6776 40.9411 22.6834C40.9351 22.6891 40.928 22.6936 40.9203 22.6966C40.9126 22.6997 40.9044 22.7011 40.8961 22.701Z" fill="#263238"/>
<path id="Vector_162" d="M41.8664 22.6775H41.8503C41.8343 22.6731 41.8206 22.6626 41.8122 22.6483C41.8039 22.6339 41.8016 22.6168 41.8057 22.6007C41.9292 22.1772 42.1211 21.7767 42.3738 21.4151C42.3837 21.4017 42.3985 21.3927 42.4149 21.3902C42.4314 21.3876 42.4482 21.3917 42.4617 21.4015C42.4748 21.4115 42.4836 21.4263 42.4861 21.4427C42.4886 21.459 42.4848 21.4757 42.4753 21.4893C42.2323 21.8386 42.0472 22.2247 41.927 22.6329C41.923 22.6459 41.915 22.6572 41.9041 22.6652C41.8931 22.6732 41.8799 22.6775 41.8664 22.6775Z" fill="#263238"/>
<path id="Vector_163" d="M42.2488 21.7121C42.2488 21.7121 42.2241 21.0326 42.5149 20.9361C42.8058 20.8396 43.0731 21.0809 43.2922 21.227C43.5112 21.373 43.7526 21.5178 43.7526 21.9547C43.7276 22.371 43.6709 22.7847 43.583 23.1923C43.583 23.1923 43.3355 22.4399 42.9283 22.1007C42.5211 21.7616 42.2488 21.7121 42.2488 21.7121Z" fill="#C1D600" stroke="#263238" stroke-width="0.152748" stroke-linecap="round" stroke-linejoin="round"/>
<path id="Vector_164" d="M40.459 22.701C40.4457 22.7015 40.4326 22.6975 40.4218 22.6896C40.411 22.6817 40.4032 22.6705 40.3996 22.6576C40.2727 22.2946 40.054 21.9705 39.7647 21.717C39.7542 21.706 39.748 21.6915 39.7474 21.6763C39.7467 21.661 39.7516 21.6461 39.7611 21.6342C39.7706 21.6222 39.7841 21.6142 39.7991 21.6114C39.8141 21.6087 39.8296 21.6115 39.8427 21.6193C40.1525 21.8869 40.3857 22.232 40.5184 22.6193C40.5211 22.6272 40.5222 22.6355 40.5216 22.6438C40.521 22.6521 40.5187 22.6602 40.5149 22.6676C40.511 22.675 40.5058 22.6815 40.4994 22.6868C40.493 22.6921 40.4856 22.6961 40.4776 22.6985C40.4716 22.7005 40.4653 22.7014 40.459 22.701Z" fill="#263238"/>
<path id="Vector_165" d="M40.1607 21.9312C40.1607 21.9312 40.2584 21.4943 40.0159 21.1787C39.7733 20.8631 39.1904 20.9312 38.902 21.2752C38.6136 21.6193 38.1978 22.6366 38.1978 22.6366C38.1978 22.6366 38.7807 22.1762 39.4602 22.1762C40.1396 22.1762 40.1607 21.9312 40.1607 21.9312Z" fill="#C1D600" stroke="#263238" stroke-width="0.152748" stroke-linecap="round" stroke-linejoin="round"/>
<path id="Vector_166" d="M42.0952 26.4214H40.1583L39.1904 23.2183H43.063L42.0952 26.4214Z" fill="white" stroke="#263238" stroke-width="0.152748" stroke-linecap="round" stroke-linejoin="round"/>
<path id="Vector_167" d="M43.0743 22.6874H39.1794V23.2183H43.0743V22.6874Z" fill="white" stroke="#263238" stroke-width="0.152748" stroke-linecap="round" stroke-linejoin="round"/>
<path id="Vector_168" d="M50.5436 26.3942H45.8232V35.9315H50.5436V26.3942Z" fill="#263238" stroke="#263238" stroke-width="0.152748" stroke-linecap="round" stroke-linejoin="round"/>
<path id="Vector_169" d="M46.3739 26.3942H32.2969V35.9315H46.3739V26.3942Z" fill="white" stroke="#263238" stroke-width="0.152748" stroke-linecap="round" stroke-linejoin="round"/>
<path id="Vector_170" d="M45.6621 27.0489H33.0232V35.2124H45.6621V27.0489Z" fill="#E5E5E5" stroke="#263238" stroke-width="0.152748" stroke-linecap="round" stroke-linejoin="round"/>
<path id="Vector_171" d="M45.6621 27.0489H39.2461V35.2124H45.6621V27.0489Z" fill="#E5E5E5" stroke="#263238" stroke-width="0.152748" stroke-linecap="round" stroke-linejoin="round"/>
<path id="Vector_172" d="M45.6621 30.8596H33.0232V31.4004H45.6621V30.8596Z" fill="white" stroke="#263238" stroke-width="0.152748" stroke-linecap="round" stroke-linejoin="round"/>
<path id="Vector_173" d="M53.8059 35.9228H49.0854V45.4602H53.8059V35.9228Z" fill="#263238" stroke="#263238" stroke-width="0.152748" stroke-linecap="round" stroke-linejoin="round"/>
<path id="Vector_174" d="M27.7212 40.0801L29.2534 45.4168H26.2954L27.7212 40.0801Z" fill="#263238" stroke="#263238" stroke-width="0.152748" stroke-linecap="round" stroke-linejoin="round"/>
<path id="Vector_175" d="M27.8387 39.517L27.6432 39.3412L22.5725 45.4169H26.7471L27.8387 39.517Z" fill="white" stroke="#263238" stroke-width="0.152748" stroke-linecap="round" stroke-linejoin="round"/>
<path id="Vector_176" d="M27.6431 39.3412H23.4685L22.3645 45.4169H26.5379L27.6431 39.3412Z" fill="#C1D600" stroke="#263238" stroke-width="0.152748" stroke-linecap="round" stroke-linejoin="round"/>
<path id="Vector_177" d="M23.9822 40.5281H26.653" stroke="#263238" stroke-width="0.152748" stroke-linecap="round" stroke-linejoin="round"/>
<path id="Vector_178" d="M23.8103 41.2175H26.4799" stroke="#263238" stroke-width="0.152748" stroke-linecap="round" stroke-linejoin="round"/>
<path id="Vector_179" d="M23.6382 41.9069H26.3078" stroke="#263238" stroke-width="0.152748" stroke-linecap="round" stroke-linejoin="round"/>
<path id="Vector_180" d="M49.6351 35.9228H28.428V45.4602H49.6351V35.9228Z" fill="white" stroke="#263238" stroke-width="0.152748" stroke-linecap="round" stroke-linejoin="round"/>
<path id="Vector_181" d="M48.9258 36.5775H29.1555V44.7411H48.9258V36.5775Z" fill="#E5E5E5" stroke="#263238" stroke-width="0.152748" stroke-linecap="round" stroke-linejoin="round"/>
<path id="Vector_182" d="M48.926 36.5775H33.8972V44.7411H48.926V36.5775Z" fill="white" stroke="#263238" stroke-width="0.152748" stroke-linecap="round" stroke-linejoin="round"/>
<path id="Vector_183" d="M48.9246 36.5775H34.6062V44.7411H48.9246V36.5775Z" fill="#E5E5E5" stroke="#263238" stroke-width="0.152748" stroke-linecap="round" stroke-linejoin="round"/>
<path id="Vector_184" d="M48.926 36.5775H39.6597V44.7411H48.926V36.5775Z" fill="#E5E5E5" stroke="#263238" stroke-width="0.152748" stroke-linecap="round" stroke-linejoin="round"/>
<path id="Vector_185" d="M48.9246 36.5775H43.2859V44.7411H48.9246V36.5775Z" fill="white" stroke="#263238" stroke-width="0.152748" stroke-linecap="round" stroke-linejoin="round"/>
<path id="Vector_186" d="M48.9259 36.5775H43.9963V44.7411H48.9259V36.5775Z" fill="#E5E5E5" stroke="#263238" stroke-width="0.152748" stroke-linecap="round" stroke-linejoin="round"/>
<path id="Vector_187" d="M57.3557 45.4243H52.6353V54.9616H57.3557V45.4243Z" fill="#263238" stroke="#263238" stroke-width="0.152748" stroke-linecap="round" stroke-linejoin="round"/>
<path id="Vector_188" d="M53.1846 45.4243H21.4636V54.9616H53.1846V45.4243Z" fill="white" stroke="#263238" stroke-width="0.152748" stroke-linecap="round" stroke-linejoin="round"/>
<path id="Vector_189" d="M52.4755 46.079H22.1914V54.2425H52.4755V46.079Z" fill="#E5E5E5" stroke="#263238" stroke-width="0.152748" stroke-linecap="round" stroke-linejoin="round"/>
<path id="Vector_190" d="M52.4753 46.079H30.6902V54.2425H52.4753V46.079Z" fill="#E5E5E5" stroke="#263238" stroke-width="0.152748" stroke-linecap="round" stroke-linejoin="round"/>
<path id="Vector_191" d="M52.4754 46.079H33.22V54.2425H52.4754V46.079Z" fill="white" stroke="#263238" stroke-width="0.152748" stroke-linecap="round" stroke-linejoin="round"/>
<path id="Vector_192" d="M52.4754 46.079H33.9292V54.2425H52.4754V46.079Z" fill="#E5E5E5" stroke="#263238" stroke-width="0.152748" stroke-linecap="round" stroke-linejoin="round"/>
<path id="Vector_193" d="M52.4755 46.079H38.6311V54.2425H52.4755V46.079Z" fill="#E5E5E5" stroke="#263238" stroke-width="0.152748" stroke-linecap="round" stroke-linejoin="round"/>
<path id="Vector_194" d="M52.4743 46.079H42.8911V54.2425H52.4743V46.079Z" fill="white" stroke="#263238" stroke-width="0.152748" stroke-linecap="round" stroke-linejoin="round"/>
<path id="Vector_195" d="M52.4755 46.079H43.6907V54.2425H52.4755V46.079Z" fill="#E5E5E5" stroke="#263238" stroke-width="0.152748" stroke-linecap="round" stroke-linejoin="round"/>
<path id="Vector_196" d="M52.4755 46.079H48.343V54.2425H52.4755V46.079Z" fill="#E5E5E5" stroke="#263238" stroke-width="0.152748" stroke-linecap="round" stroke-linejoin="round"/>
<path id="Vector_197" d="M52.0955 30.544L53.6277 35.8795H50.6697L52.0955 30.544Z" fill="#787878" stroke="#263238" stroke-width="0.152748" stroke-linecap="round" stroke-linejoin="round"/>
<path id="Vector_198" d="M52.213 29.9809L52.0174 29.8039L46.9468 35.8795H51.1214L52.213 29.9809Z" fill="white" stroke="#263238" stroke-width="0.152748" stroke-linecap="round" stroke-linejoin="round"/>
<path id="Vector_199" d="M52.0176 29.8039H47.843L46.7378 35.8795H50.9124L52.0176 29.8039Z" fill="#C1D600" stroke="#263238" stroke-width="0.152748" stroke-linecap="round" stroke-linejoin="round"/>
<path id="Vector_200" d="M48.3975 30.7544H51.0671" stroke="#263238" stroke-width="0.152748" stroke-linecap="round" stroke-linejoin="round"/>
<path id="Vector_201" d="M48.2253 31.4425H50.895" stroke="#263238" stroke-width="0.152748" stroke-linecap="round" stroke-linejoin="round"/>
<path id="Vector_202" d="M48.0532 32.1319H50.7228" stroke="#263238" stroke-width="0.152748" stroke-linecap="round" stroke-linejoin="round"/>
<path id="Vector_203" d="M40.7388 39.3276L42.271 44.6644H39.313L40.7388 39.3276Z" fill="#263238" stroke="#263238" stroke-width="0.152748" stroke-linecap="round" stroke-linejoin="round"/>
<path id="Vector_204" d="M40.8563 38.7645L40.6607 38.5875L35.5901 44.6644H39.7647L40.8563 38.7645Z" fill="white" stroke="#263238" stroke-width="0.152748" stroke-linecap="round" stroke-linejoin="round"/>
<path id="Vector_205" d="M40.6609 38.5875H36.4863L35.3811 44.6644H39.5557L40.6609 38.5875Z" fill="#C1D600" stroke="#263238" stroke-width="0.152748" stroke-linecap="round" stroke-linejoin="round"/>
<path id="Vector_206" d="M36.9924 42.0393L37.0048 42.0282L37.0605 42.0987L37.7128 41.5554L37.5816 41.3908L36.9467 41.918L36.8786 41.7348L36.7548 41.8908L36.365 41.4019L36.1657 41.5665L36.5914 42.1012L36.3439 42.418L35.9219 42.7695L36.0531 42.9341L36.2697 42.7559L36.0852 43.6606H36.8872L37.0754 42.7299L37.2437 42.9416L37.4429 42.7757L37.1113 42.3586L36.9924 42.0393ZM37.2041 42.6495L37.2573 42.6049L37.3229 42.6866L37.2684 42.7312L37.2041 42.6495ZM37.2387 42.7571L37.1843 42.8017L37.1199 42.72L37.1731 42.6755L37.2387 42.7571ZM37.183 42.6247L37.1187 42.543L37.1731 42.4985L37.2375 42.5802L37.183 42.6247ZM36.3538 42.4527H36.4442L36.3897 42.4972H36.3612L36.3365 42.4663L36.3538 42.4527ZM36.4912 42.4527L36.5246 42.4948H36.4405L36.4912 42.4527ZM36.3204 42.5071L36.3093 42.5616L36.2449 42.6161L36.209 42.5715L36.3068 42.4898L36.3204 42.5071ZM36.2994 42.6123L36.287 42.6693L36.2647 42.6408L36.2994 42.6123ZM36.214 42.6408L36.1162 42.7225L36.0803 42.6779L36.1781 42.5962L36.214 42.6408ZM36.2338 42.6668L36.2697 42.7114L36.1719 42.793L36.136 42.7472L36.2338 42.6668ZM36.5568 42.4725L36.5395 42.4502H36.584L36.5568 42.4725ZM36.964 42.4502L36.9293 42.4787L36.9058 42.4502H36.964ZM37.0036 42.4601L37.032 42.4948H36.9603L37.0036 42.4601ZM37.1273 42.4948H37.0865L37.0506 42.4502H37.1397L37.1558 42.4712L37.1273 42.4948ZM37.0395 41.9997L37.1385 41.918L37.1744 41.9626L37.0754 42.0455L37.0395 41.9997ZM37.4256 41.6791L37.5234 41.5975L37.5593 41.642L37.4615 41.7237L37.4256 41.6791ZM37.4256 41.7485L37.3278 41.8301L37.292 41.7856L37.391 41.7039L37.4256 41.7485ZM37.4009 41.6532L37.365 41.6086L37.4627 41.5269L37.4986 41.5727L37.4009 41.6532ZM37.3699 41.6791L37.2722 41.7608L37.2363 41.715L37.334 41.6346L37.3699 41.6791ZM37.2462 41.7856L37.1471 41.8673L37.1125 41.8227L37.2103 41.741L37.2462 41.7856ZM37.266 41.8103L37.3019 41.8561L37.2041 41.9366L37.1682 41.892L37.266 41.8103ZM37.5915 41.6197L37.5556 41.5752L37.6323 41.5108L37.6682 41.5554L37.5915 41.6197ZM37.6113 41.4861L37.5358 41.5492L37.4999 41.5046L37.5766 41.4415L37.6113 41.4861ZM37.084 41.8499L37.1199 41.8945L37.0209 41.9774L36.985 41.9329L37.084 41.8499ZM36.6917 41.9799L36.6323 41.9056L36.6867 41.8611L36.7362 41.923L36.6917 41.9799ZM36.4442 41.6668L36.3786 41.5851L36.433 41.5405L36.4974 41.6222L36.4442 41.6668ZM36.5172 41.647L36.5828 41.7287L36.5283 41.7732L36.464 41.6928L36.5172 41.647ZM36.4132 41.6928L36.3588 41.7373L36.2944 41.6556L36.3489 41.6111L36.4132 41.6928ZM36.433 41.7175L36.4986 41.7992L36.4442 41.8438L36.3798 41.7621L36.433 41.7175ZM36.5184 41.824L36.5828 41.9056L36.5296 41.9502L36.464 41.8685L36.5184 41.824ZM36.5494 41.7992L36.6026 41.7546L36.6682 41.8351L36.6137 41.8809L36.5494 41.7992ZM36.412 41.5158L36.3588 41.5603L36.308 41.4972L36.3612 41.4514L36.412 41.5158ZM36.2771 41.522L36.3278 41.5851L36.2746 41.6309L36.2239 41.5665L36.2771 41.522ZM36.615 42.0591L36.5494 41.9762L36.6038 41.9316L36.6682 42.0121L36.662 42.0195L36.615 42.0591ZM36.0494 42.7089L36.0852 42.7534L36.0085 42.8178L35.9739 42.7732L36.0494 42.7089ZM36.0296 42.8425L36.1063 42.7794L36.1409 42.824L36.0654 42.8883L36.0296 42.8425ZM36.5803 42.501L36.6348 42.4564H36.8551L36.891 42.501H36.5803ZM37.1051 42.5938L37.1533 42.6532L37.0989 42.699L37.0877 42.6829L37.1051 42.5938ZM37.2041 42.8302L37.2585 42.7856L37.3093 42.85L37.2548 42.8945L37.2041 42.8302ZM37.339 42.824L37.2882 42.7609L37.3439 42.7089L37.3947 42.7732L37.339 42.824Z" fill="white"/>
<path id="Vector_207" d="M39.0557 41.4613L39.073 41.4465L39.1498 41.5418L40.0347 40.8054L39.8552 40.5814L38.9889 41.2967L38.8948 41.0492L38.7302 41.2621L38.2104 40.5962L37.9406 40.8202L38.5173 41.5455L38.1819 41.9762L37.6089 42.4515L37.7883 42.6755L38.0804 42.4279L37.8329 43.6557H38.9196L39.1758 42.3933L39.4035 42.6792L39.6733 42.4552L39.224 41.8896L39.0557 41.4613ZM39.3428 42.2893L39.4159 42.2287L39.5037 42.3401L39.4307 42.4007L39.3428 42.2893ZM39.3899 42.4341L39.3168 42.4948L39.229 42.3846L39.302 42.324L39.3899 42.4341ZM39.3156 42.2559L39.2277 42.1445L39.3008 42.0839L39.3886 42.1953L39.3156 42.2559ZM38.1906 42.022H38.3143L38.2413 42.0826H38.203L38.1695 42.0418L38.1906 42.022ZM38.3762 42.022L38.422 42.0789H38.3069L38.3762 42.022ZM38.1448 42.095L38.1299 42.1705L38.0421 42.2435L37.9938 42.1829L38.1262 42.0715L38.1448 42.095ZM38.1151 42.2386L38.1002 42.3165L38.0693 42.2769L38.1151 42.2386ZM38 42.2769L37.8676 42.3883L37.8193 42.3264L37.9517 42.2163L38 42.2769ZM38.0284 42.3116L38.0767 42.3722L37.9431 42.4824L37.8948 42.4217L38.0284 42.3116ZM38.4653 42.0492L38.4418 42.0183H38.5025L38.4653 42.0492ZM39.0173 42.0183L38.9703 42.0579L38.9394 42.0183H39.0173ZM39.0706 42.0306L39.1102 42.0789H39.0124L39.0706 42.0306ZM39.2339 42.0789H39.1782L39.13 42.0183H39.2537L39.276 42.0467L39.2339 42.0789ZM39.1102 41.4081L39.2451 41.2955L39.2933 41.3561L39.1584 41.4688L39.1102 41.4081ZM39.6337 40.9725L39.7673 40.8623L39.8156 40.923L39.6832 41.0331L39.6337 40.9725ZM39.6411 41.0678L39.5087 41.1779L39.4604 41.1173L39.5928 41.0071L39.6411 41.0678ZM39.6065 40.944L39.5582 40.8833L39.6906 40.7732L39.7401 40.8338L39.6065 40.944ZM39.5718 40.9762L39.4394 41.0863L39.3911 41.0257L39.5235 40.9155L39.5718 40.9762ZM39.3973 41.121L39.2649 41.2311L39.2166 41.1705L39.349 41.0603L39.3973 41.121ZM39.4245 41.1544L39.474 41.2163L39.3404 41.3264L39.2921 41.2658L39.4245 41.1544ZM39.8627 40.892L39.8144 40.8314L39.9183 40.7447L39.9666 40.8054L39.8627 40.892ZM39.8911 40.7101L39.7872 40.7967L39.7389 40.7361L39.8428 40.6494L39.8911 40.7101ZM39.1758 41.2051L39.224 41.2658L39.0891 41.3772L39.0408 41.3165L39.1758 41.2051ZM39.052 41.4118H39.0458L39.0359 41.3858L39.052 41.4118ZM38.6485 41.3809L38.5681 41.2806L38.6411 41.22L38.7079 41.3041L38.6485 41.3809ZM38.3094 40.9564L38.2104 40.8524L38.2834 40.7918L38.3713 40.9019L38.3094 40.9564ZM38.4109 40.9304L38.4988 41.0405L38.4257 41.1012L38.3366 40.991L38.4109 40.9304ZM38.2686 40.991L38.1955 41.0517L38.1077 40.9415L38.1807 40.8809L38.2686 40.991ZM38.2958 41.0257L38.3837 41.1358L38.3106 41.1965L38.2228 41.0863L38.2958 41.0257ZM38.4109 41.1692L38.4988 41.2806L38.4257 41.3413L38.3379 41.2311L38.4109 41.1692ZM38.453 41.1358L38.526 41.0752L38.6139 41.1853L38.5408 41.246L38.453 41.1358ZM38.2673 40.7509L38.1943 40.8116L38.1262 40.7262L38.1992 40.6643L38.2673 40.7509ZM38.0841 40.7596L38.1535 40.8462L38.0804 40.9069L38.0111 40.8202L38.0841 40.7596ZM38.5433 41.4873L38.453 41.3747L38.526 41.3141L38.6139 41.4242L38.6052 41.4353L38.5433 41.4873ZM37.7846 42.3648L37.8329 42.4255L37.7289 42.5121L37.6807 42.4515L37.7846 42.3648ZM37.7562 42.5468L37.8601 42.4601L37.9084 42.5208L37.8044 42.6074L37.7562 42.5468ZM38.4988 42.0826L38.5718 42.022H38.8725L38.9208 42.0826H38.4988ZM39.2104 42.2064L39.276 42.2868L39.203 42.3487L39.1857 42.3277L39.2104 42.2064ZM39.3453 42.5269L39.4183 42.4663L39.4876 42.5529L39.4146 42.6136L39.3453 42.5269ZM39.5285 42.5183L39.4592 42.4317L39.5322 42.371L39.6015 42.4576L39.5285 42.5183Z" fill="white"/>
<path id="Vector_208" d="M40.2449 40.0974C40.2375 40.0059 40.1125 39.9316 39.9491 39.9192C39.9549 39.8936 39.9582 39.8675 39.959 39.8412C39.959 39.5652 39.6917 39.3462 39.3613 39.3462C39.2311 39.3384 39.1022 39.3751 38.9956 39.4502C38.889 39.5253 38.8111 39.6344 38.7746 39.7596C38.7536 39.7583 38.7325 39.7583 38.7115 39.7596C38.6335 39.7539 38.5559 39.7755 38.492 39.8206C38.4282 39.8658 38.3819 39.9317 38.3612 40.0071C38.3008 39.9542 38.2231 39.925 38.1428 39.925C38.0624 39.925 37.9848 39.9542 37.9243 40.0071C37.8682 39.99 37.8098 39.9816 37.7511 39.9823C37.61 39.9823 37.4949 40.0232 37.4949 40.0739C37.4961 40.0856 37.5019 40.0962 37.511 40.1036L40.2449 40.0974Z" fill="white"/>
<path id="Vector_209" d="M37.7981 40.5059C37.7981 40.465 37.74 40.4329 37.6682 40.4267C37.6688 40.4155 37.6688 40.4044 37.6682 40.3932C37.6613 40.3298 37.6301 40.2714 37.5812 40.2304C37.5324 40.1893 37.4695 40.1687 37.4058 40.1729C37.3484 40.1695 37.2916 40.1856 37.2446 40.2187C37.1977 40.2517 37.1633 40.2998 37.1471 40.3549H37.1199C37.0855 40.3525 37.0513 40.362 37.0232 40.3818C36.995 40.4017 36.9745 40.4306 36.9652 40.4638C36.9387 40.4404 36.9046 40.4275 36.8693 40.4275C36.8339 40.4275 36.7998 40.4404 36.7733 40.4638C36.7484 40.4568 36.7225 40.4535 36.6966 40.4539C36.6347 40.4539 36.584 40.4712 36.584 40.4935C36.5842 40.4962 36.5849 40.4988 36.5862 40.5011C36.5875 40.5035 36.5893 40.5055 36.5914 40.5071L37.7981 40.5059Z" fill="white"/>
<path id="Vector_210" d="M40.4258 48.865L41.958 54.2017H38.9988L40.4258 48.865Z" fill="#263238" stroke="#263238" stroke-width="0.152748" stroke-linecap="round" stroke-linejoin="round"/>
<path id="Vector_211" d="M40.5421 48.3018L40.3465 48.1248L35.2759 54.2017H39.4505L40.5421 48.3018Z" fill="white" stroke="#263238" stroke-width="0.152748" stroke-linecap="round" stroke-linejoin="round"/>
<path id="Vector_212" d="M40.3465 48.1248H36.1731L35.0679 54.2017H39.2425L40.3465 48.1248Z" fill="white" stroke="#263238" stroke-width="0.152748" stroke-linecap="round" stroke-linejoin="round"/>
<path id="Vector_213" d="M39.3107 49.683H36.4839L35.7351 53.7982H38.5631L39.3107 49.683Z" fill="#C1D600"/>
<path id="Vector_214" d="M36.6881 48.7709L36.5718 49.4071H39.3998L39.5149 48.7709H36.6881Z" fill="#C1D600"/>
<path id="Vector_215" d="M31.3276 48.865L32.8599 54.2017H29.9006L31.3276 48.865Z" fill="#263238" stroke="#263238" stroke-width="0.152748" stroke-linecap="round" stroke-linejoin="round"/>
<path id="Vector_216" d="M31.4442 48.3018L31.2486 48.1248L26.178 54.2017H30.3526L31.4442 48.3018Z" fill="white" stroke="#263238" stroke-width="0.152748" stroke-linecap="round" stroke-linejoin="round"/>
<path id="Vector_217" d="M31.2486 48.1248H27.0752L25.97 54.2017H30.1446L31.2486 48.1248Z" fill="white" stroke="#263238" stroke-width="0.152748" stroke-linecap="round" stroke-linejoin="round"/>
<path id="Vector_218" d="M29.709 50.3056C29.6584 50.483 29.5734 50.6486 29.4587 50.793C29.344 50.9375 29.2019 51.0578 29.0406 51.1472C28.4961 51.4442 27.6545 51.0234 26.9849 51.6188C26.3153 52.2141 26.2918 53.4752 27.704 53.6238C29.1161 53.7723 29.4119 52.7079 29.4119 52.7079C29.4119 52.7079 30.0567 52.8317 30.0307 52.6336C30.0048 52.4356 29.584 52.2871 29.584 52.2871C29.7695 51.9783 29.8802 51.6303 29.907 51.271C29.9231 50.7388 29.907 50.3799 29.907 50.3799C29.907 50.3799 30.2535 50.4541 30.3773 50.3799C30.5011 50.3056 30.7486 49.6125 30.7486 49.6125C30.7486 49.6125 30.3278 49.9096 30.1298 49.9096C29.9317 49.9096 29.4107 49.4888 29.4107 49.4888C29.4107 49.4888 29.3129 50.3056 29.709 50.3056Z" fill="#C1D600"/>
<path id="Vector_219" d="M27.3177 48.7288L27.2026 49.365H30.0294L30.1458 48.7288H27.3177Z" fill="#C1D600"/>
<path id="Vector_220" d="M27.1505 49.6496L27.0354 50.2846H28.7335L28.8486 49.6496H27.1505Z" fill="#C1D600"/>
<path id="Vector_221" d="M49.8369 48.865L51.3691 54.2017H48.4111L49.8369 48.865Z" fill="#263238" stroke="#263238" stroke-width="0.152748" stroke-linecap="round" stroke-linejoin="round"/>
<path id="Vector_222" d="M49.9544 48.3018L49.7589 48.1248L44.6882 54.2017H48.8616L49.9544 48.3018Z" fill="white" stroke="#263238" stroke-width="0.152748" stroke-linecap="round" stroke-linejoin="round"/>
<path id="Vector_223" d="M49.7588 48.1248H45.5842L44.479 54.2017H48.6536L49.7588 48.1248Z" fill="#C1D600" stroke="#263238" stroke-width="0.152748" stroke-linecap="round" stroke-linejoin="round"/>
<path id="Vector_224" d="M46.6883 49.9033C46.6988 50.0105 46.6766 50.1184 46.6246 50.2128C46.5727 50.3071 46.4933 50.3835 46.3971 50.4319C46.3009 50.4803 46.1922 50.4984 46.0855 50.4839C45.9788 50.4693 45.8789 50.4228 45.7991 50.3505C45.7193 50.2781 45.6633 50.1833 45.6384 50.0785C45.6136 49.9737 45.621 49.8638 45.6598 49.7633C45.6985 49.6628 45.7668 49.5764 45.8557 49.5155C45.9445 49.4545 46.0497 49.4219 46.1574 49.4219C46.2916 49.4155 46.4229 49.4626 46.5224 49.5528C46.6219 49.6431 46.6816 49.7691 46.6883 49.9033Z" fill="white"/>
<path id="Vector_225" d="M47.8268 50.7883C47.8378 50.8958 47.816 51.0042 47.7641 51.0991C47.7123 51.1939 47.6329 51.2709 47.5365 51.3197C47.44 51.3686 47.331 51.387 47.2239 51.3727C47.1167 51.3583 47.0165 51.3118 46.9363 51.2393C46.8561 51.1667 46.7998 51.0716 46.7748 50.9664C46.7497 50.8613 46.7572 50.751 46.7961 50.6501C46.8351 50.5493 46.9037 50.4626 46.9929 50.4015C47.0821 50.3405 47.1877 50.3079 47.2959 50.3081C47.4299 50.3017 47.5609 50.3486 47.6604 50.4386C47.7599 50.5286 47.8198 50.6543 47.8268 50.7883Z" fill="white"/>
<path id="Vector_226" d="M48.6067 50.0593C48.6155 50.1486 48.597 50.2384 48.5537 50.3169C48.5105 50.3955 48.4444 50.4591 48.3643 50.4995C48.2842 50.5398 48.1938 50.5549 48.1049 50.5429C48.016 50.5309 47.9329 50.4922 47.8664 50.432C47.7999 50.3719 47.7532 50.293 47.7323 50.2057C47.7115 50.1185 47.7176 50.027 47.7498 49.9433C47.7819 49.8595 47.8387 49.7875 47.9126 49.7367C47.9864 49.6858 48.074 49.6585 48.1637 49.6583C48.2755 49.6529 48.385 49.6921 48.468 49.7673C48.5511 49.8424 48.601 49.9474 48.6067 50.0593Z" fill="white"/>
<path id="Vector_227" d="M46.2463 53.1769C46.798 53.1769 47.2451 52.7724 47.2451 52.2734C47.2451 51.7745 46.798 51.3699 46.2463 51.3699C45.6947 51.3699 45.2476 51.7745 45.2476 52.2734C45.2476 52.7724 45.6947 53.1769 46.2463 53.1769Z" fill="white"/>
<path id="Vector_228" d="M29.9676 38.3759H29.3945V44.7498H29.9676V38.3759Z" fill="#C1D600" stroke="#263238" stroke-width="0.152748" stroke-linecap="round" stroke-linejoin="round"/>
<path id="Vector_229" d="M32.9442 38.3759H29.8142V44.7498H32.9442V38.3759Z" fill="#C1D600" stroke="#263238" stroke-width="0.152748" stroke-linecap="round" stroke-linejoin="round"/>
<path id="Vector_230" d="M30.616 38.3759H30.043V44.7498H30.616V38.3759Z" fill="white" stroke="#263238" stroke-width="0.152748" stroke-linecap="round" stroke-linejoin="round"/>
<path id="Vector_231" d="M33.5939 38.3759H30.4639V44.7498H33.5939V38.3759Z" fill="white" stroke="#263238" stroke-width="0.152748" stroke-linecap="round" stroke-linejoin="round"/>
<path id="Vector_232" d="M31.2659 38.3759H30.6929V44.7498H31.2659V38.3759Z" fill="white" stroke="#263238" stroke-width="0.152748" stroke-linecap="round" stroke-linejoin="round"/>
<path id="Vector_233" d="M33.8599 38.3759H31.1123V44.7498H33.8599V38.3759Z" fill="white" stroke="#263238" stroke-width="0.152748" stroke-linecap="round" stroke-linejoin="round"/>
<path id="Vector_234" d="M31.9143 38.3759H31.3413V44.7498H31.9143V38.3759Z" fill="#C1D600" stroke="#263238" stroke-width="0.152748" stroke-linecap="round" stroke-linejoin="round"/>
<path id="Vector_235" d="M33.8984 38.3759H31.761V44.7498H33.8984V38.3759Z" fill="#C1D600" stroke="#263238" stroke-width="0.152748" stroke-linecap="round" stroke-linejoin="round"/>
<path id="Vector_236" d="M44.6621 38.3759H44.0891V44.7498H44.6621V38.3759Z" fill="white" stroke="#263238" stroke-width="0.152748" stroke-linecap="round" stroke-linejoin="round"/>
<path id="Vector_237" d="M47.64 38.3759H44.51V44.7498H47.64V38.3759Z" fill="white" stroke="#263238" stroke-width="0.152748" stroke-linecap="round" stroke-linejoin="round"/>
<path id="Vector_238" d="M45.312 38.3759H44.739V44.7498H45.312V38.3759Z" fill="#C1D600" stroke="#263238" stroke-width="0.152748" stroke-linecap="round" stroke-linejoin="round"/>
<path id="Vector_239" d="M48.2885 38.3759H45.1584V44.7498H48.2885V38.3759Z" fill="#C1D600" stroke="#263238" stroke-width="0.152748" stroke-linecap="round" stroke-linejoin="round"/>
<path id="Vector_240" d="M45.9605 38.3759H45.3875V44.7498H45.9605V38.3759Z" fill="#C1D600" stroke="#263238" stroke-width="0.152748" stroke-linecap="round" stroke-linejoin="round"/>
<path id="Vector_241" d="M48.5547 38.3759H45.8071V44.7498H48.5547V38.3759Z" fill="#C1D600" stroke="#263238" stroke-width="0.152748" stroke-linecap="round" stroke-linejoin="round"/>
<path id="Vector_242" d="M46.6089 38.3759H46.0359V44.7498H46.6089V38.3759Z" fill="white" stroke="#263238" stroke-width="0.152748" stroke-linecap="round" stroke-linejoin="round"/>
<path id="Vector_243" d="M48.9383 38.3759H46.4568V44.7498H48.9383V38.3759Z" fill="white" stroke="#263238" stroke-width="0.152748" stroke-linecap="round" stroke-linejoin="round"/>
<path id="Vector_244" d="M35.9789 32.0069H33.9182V35.1914H35.9789V32.0069Z" fill="white" stroke="#263238" stroke-width="0.152748" stroke-linecap="round" stroke-linejoin="round"/>
<path id="Vector_245" d="M35.5395 32.0069H33.4788V35.1914H35.5395V32.0069Z" fill="white" stroke="#263238" stroke-width="0.152748" stroke-linecap="round" stroke-linejoin="round"/>
<path id="Vector_246" d="M41.0866 33.9265H36.7783V35.1914H41.0866V33.9265Z" fill="white" stroke="#263238" stroke-width="0.152748" stroke-linecap="round" stroke-linejoin="round"/>
<path id="Vector_247" d="M41.088 33.4438H36.625V34.3337H41.088V33.4438Z" fill="#263238" stroke="#263238" stroke-width="0.152748" stroke-linecap="round" stroke-linejoin="round"/>
<path id="Vector_248" d="M43.7266 33.9265H41.104V35.1914H43.7266V33.9265Z" fill="white" stroke="#263238" stroke-width="0.152748" stroke-linecap="round" stroke-linejoin="round"/>
<path id="Vector_249" d="M43.9481 33.4438H41.104V34.3337H43.9481V33.4438Z" fill="#263238" stroke="#263238" stroke-width="0.152748" stroke-linecap="round" stroke-linejoin="round"/>
<path id="Vector_250" d="M41.2166 30.3744H33.7957V30.8608H41.2166V30.3744Z" fill="#263238" stroke="#263238" stroke-width="0.152748" stroke-linecap="round" stroke-linejoin="round"/>
<path id="Vector_251" d="M41.5246 30.3744H38.3191V30.8608H41.5246V30.3744Z" fill="white" stroke="#263238" stroke-width="0.152748" stroke-linecap="round" stroke-linejoin="round"/>
<path id="Vector_252" d="M41.2166 29.8781H33.7957V30.3645H41.2166V29.8781Z" fill="white" stroke="#263238" stroke-width="0.152748" stroke-linecap="round" stroke-linejoin="round"/>
<path id="Vector_253" d="M41.5246 29.8781H38.3191V30.3645H41.5246V29.8781Z" fill="white" stroke="#263238" stroke-width="0.152748" stroke-linecap="round" stroke-linejoin="round"/>
<path id="Vector_254" d="M41.2166 29.3806H33.7957V29.867H41.2166V29.3806Z" fill="#C1D600" stroke="#263238" stroke-width="0.152748" stroke-linecap="round" stroke-linejoin="round"/>
<path id="Vector_255" d="M41.5246 29.3806H38.3191V29.867H41.5246V29.3806Z" fill="white" stroke="#263238" stroke-width="0.152748" stroke-linecap="round" stroke-linejoin="round"/>
<path id="Vector_256" d="M41.2166 28.8843H33.7957V29.3707H41.2166V28.8843Z" fill="white" stroke="#263238" stroke-width="0.152748" stroke-linecap="round" stroke-linejoin="round"/>
<path id="Vector_257" d="M41.5246 28.8843H38.3191V29.3707H41.5246V28.8843Z" fill="white" stroke="#263238" stroke-width="0.152748" stroke-linecap="round" stroke-linejoin="round"/>
<path id="Vector_258" d="M41.2166 28.3868H33.7957V28.8732H41.2166V28.3868Z" fill="#C1D600" stroke="#263238" stroke-width="0.152748" stroke-linecap="round" stroke-linejoin="round"/>
<path id="Vector_259" d="M41.5246 28.3868H38.3191V28.8732H41.5246V28.3868Z" fill="white" stroke="#263238" stroke-width="0.152748" stroke-linecap="round" stroke-linejoin="round"/>
</g>
<g id="characters-1">
<path id="Vector_260" d="M5.50666 41.0108C5.50666 41.0108 5.86929 42.8537 5.86929 43.5443C5.86929 44.2349 5.4126 45.4849 5.4126 46.9664C5.4126 48.4478 5.83587 52.3625 5.83587 52.3625L7.41512 52.4281C7.41512 52.4281 7.87552 47.6248 8.36935 46.506C8.86317 45.3871 9.05996 43.0504 9.05996 42.392C9.07745 41.9123 9.15478 41.4367 9.29016 40.9761L5.50666 41.0108Z" fill="#263238" stroke="#263238" stroke-width="0.152748" stroke-linecap="round" stroke-linejoin="round"/>
<path id="Vector_261" d="M5.11182 51.1447H7.7443L7.71089 53.1856C7.71089 53.1856 9.22453 54.1398 9.58717 54.271C9.9498 54.4022 10.1466 54.6993 10.1132 54.797C10.0798 54.8948 9.91638 54.9616 9.91638 54.9616H5.37544C5.27951 54.699 5.24562 54.4177 5.27642 54.1398C5.32688 53.8705 5.40399 53.6068 5.50663 53.3527L5.11182 51.1447Z" fill="#C1D600" stroke="#263238" stroke-width="0.152748" stroke-linecap="round" stroke-linejoin="round"/>
<path id="Vector_262" d="M6.35463 41.0108C6.35463 41.0108 6.71602 42.8537 6.71602 43.5443C6.71602 44.2349 6.25562 45.4849 6.25562 46.9664C6.25562 48.4478 6.68384 52.3625 6.68384 52.3625L8.26309 52.4281C8.26309 52.4281 8.72349 47.6248 9.21732 46.506C9.71114 45.3871 9.90793 43.0504 9.90793 42.392C9.92542 41.9123 10.0027 41.4367 10.1381 40.9761L6.35463 41.0108Z" fill="#263238" stroke="#263238" stroke-width="0.152748" stroke-linecap="round" stroke-linejoin="round"/>
<path id="Vector_263" d="M10.1801 25.94C10.1801 25.94 11.1999 32.6864 11.5626 33.9364C11.9252 35.1865 13.3336 40.6482 13.3336 40.6482C12.051 41.2069 10.6822 41.5418 9.28651 41.6383C6.95106 41.8029 3.92377 41.6049 3.03513 41.2101C2.1465 40.8153 1.52148 40.5529 1.52148 40.5529L2.47571 35.6828C2.47571 35.6828 4.54878 29.8584 4.54878 28.5427C4.54878 27.2271 4.42254 25.8768 5.17875 24.8867C5.93495 23.8966 6.82359 23.4387 7.4486 23.6355C8.07361 23.8322 10.1801 25.94 10.1801 25.94Z" fill="#ABABAB"/>
<path id="Vector_264" d="M12.2196 36.3746C12.2097 36.335 12.1986 36.2954 12.1887 36.2508C11.9696 36.3053 11.7518 36.3572 11.5364 36.403L11.8322 35.7941L12.1763 36.2025C12.1503 36.1072 12.1255 36.0132 12.1008 35.9216L11.9065 35.6889C11.9473 35.6802 11.9894 35.6691 12.0302 35.658C12.0191 35.6184 12.0092 35.5788 11.9981 35.5342C7.70589 36.5701 4.29492 35.9785 2.54241 35.4872C2.50156 35.6047 2.47805 35.6703 2.47805 35.6703L2.46196 35.752L2.73424 36.2966C2.61048 36.2632 2.48671 36.2285 2.37532 36.1963L2.35181 36.3201C3.95073 36.7767 5.60617 37.0051 7.269 36.9983C8.93858 36.9949 10.6014 36.7854 12.2196 36.3746ZM11.7245 35.7359L11.4213 36.3548L10.9077 35.8968C11.1783 35.8514 11.4506 35.7978 11.7245 35.7359ZM11.3359 36.4513C10.9646 36.528 10.602 36.5924 10.2456 36.6468L10.8248 35.9958L11.3359 36.4513ZM10.7084 35.9401L10.1144 36.6085L9.71955 36.0887C10.0446 36.0466 10.3751 35.9971 10.7109 35.9401H10.7084ZM10.0141 36.6827C9.60445 36.7397 9.20716 36.783 8.81978 36.8139L9.62054 36.1493L10.0141 36.6827ZM9.45964 36.1196L8.69106 36.7607L8.03387 36.2273C8.49427 36.2087 8.97077 36.1728 9.46212 36.1184L9.45964 36.1196ZM2.52879 35.6245C2.81716 35.705 3.14762 35.7879 3.51891 35.8659L2.85677 36.2867L2.52879 35.6245ZM2.96197 36.3671L3.55109 35.9958L3.98798 36.5912C3.61545 36.5206 3.27262 36.4414 2.96692 36.3659L2.96197 36.3671ZM3.62659 35.8857C3.99788 35.9612 4.41126 36.0317 4.86424 36.0899L4.14021 36.5788L3.62659 35.8857ZM4.2714 36.6357L4.93355 36.1889L5.54247 36.7978C5.09197 36.7545 4.66993 36.6988 4.27636 36.6345L4.2714 36.6357ZM5.04122 36.1097C5.41252 36.1543 5.80486 36.1889 6.21947 36.2124L5.66005 36.731L5.04122 36.1097ZM5.75535 36.8139L6.30611 36.3015L6.97567 36.8721C6.54373 36.8659 6.13655 36.8449 5.7504 36.8139H5.75535ZM6.40264 36.2211C6.68483 36.2335 6.97567 36.2421 7.27642 36.2421C7.41752 36.2421 7.56108 36.2421 7.70713 36.2359L7.0586 36.7805L6.40264 36.2211ZM7.87916 36.2545L8.58957 36.83C8.08461 36.8647 7.59945 36.877 7.13904 36.8746L7.87916 36.2545Z" fill="white"/>
<path id="Vector_265" d="M12.9822 39.2744C12.9637 39.2026 12.9439 39.1296 12.9253 39.0553L12.5763 38.6308L12.7978 38.5677C12.7867 38.5281 12.7768 38.4885 12.7669 38.4439C12.6666 38.4712 12.5664 38.5009 12.4674 38.5269C12.4612 38.5256 12.4549 38.5256 12.4488 38.5269C12.4418 38.5298 12.4352 38.5336 12.429 38.538C7.36453 39.8722 3.46221 38.9192 1.94485 38.4142L1.92009 38.538C2.06242 38.585 2.22332 38.6358 2.40525 38.6878L1.82356 39.1333H1.80747L1.78271 39.2571C1.79034 39.2643 1.79975 39.2693 1.80996 39.2717C1.82018 39.2741 1.83085 39.2738 1.84088 39.2707C2.77655 39.5888 4.68748 40.1036 7.27418 40.1036C9.20647 40.0982 11.1283 39.819 12.9822 39.2744ZM12.4946 38.7274L12.8659 39.1779C12.6951 39.2274 12.5243 39.2744 12.356 39.3177L12.4946 38.7274ZM12.3783 38.6828L12.2545 39.21L11.9079 38.7991C12.0639 38.762 12.2198 38.7236 12.3783 38.6828ZM12.2124 39.3536C11.9859 39.4118 11.7607 39.4638 11.5379 39.5133L11.8337 38.9031L12.2124 39.3536ZM11.7248 38.84L11.4215 39.4662L10.9079 39.0083C11.179 38.9588 11.4513 38.9019 11.7248 38.84ZM11.3362 39.5553C10.9649 39.6321 10.6022 39.6977 10.2458 39.7509L10.825 39.0999L11.3362 39.5553ZM10.7087 39.0442L10.1146 39.7125L9.71978 39.1927C10.0449 39.1523 10.3753 39.1028 10.7111 39.0442H10.7087ZM10.0143 39.7868C9.60468 39.8437 9.20739 39.887 8.82 39.918L9.62077 39.2558L10.0143 39.7868ZM9.45987 39.2237L8.69376 39.8623L8.03657 39.3301C8.4945 39.3128 8.971 39.2769 9.46235 39.2224L9.45987 39.2237ZM1.9597 39.1828L2.44238 38.8177L2.73818 39.4105C2.43496 39.3313 2.17629 39.2521 1.96217 39.1816L1.9597 39.1828ZM2.53149 38.7286C2.81987 38.8078 3.15032 38.8907 3.52162 38.9687L2.85947 39.3895L2.53149 38.7286ZM2.96467 39.4712L3.55379 39.0999L3.99069 39.6952C3.61568 39.6209 3.27285 39.5467 2.96715 39.4699L2.96467 39.4712ZM3.62929 38.9897C4.00059 39.0665 4.41396 39.1358 4.86694 39.194L4.14292 39.689L3.62929 38.9897ZM4.27658 39.7385L4.93873 39.2917L5.54765 39.9007C5.0922 39.8623 4.67016 39.8029 4.27658 39.7385ZM5.04145 39.2138C5.41275 39.2583 5.80508 39.2942 6.2197 39.3165L5.66028 39.8351L5.04145 39.2138ZM5.75558 39.918L6.30633 39.4056L6.9759 39.9774C6.54396 39.97 6.13677 39.9489 5.75063 39.918H5.75558ZM6.40287 39.3251C6.68505 39.3383 6.97632 39.3454 7.27665 39.3462C7.41774 39.3462 7.56131 39.3462 7.70736 39.3462L7.05883 39.8895L6.40287 39.3251ZM7.87939 39.3586L8.5898 39.9341C8.08484 39.9687 7.59968 39.9811 7.13927 39.9786L7.87939 39.3586Z" fill="white"/>
<path id="Vector_266" d="M13.2508 40.3079L13.2198 40.1841C8.44127 41.8549 3.05501 40.5999 1.59458 40.2014L1.56982 40.3252C3.59973 40.8644 5.69 41.143 7.79026 41.1544C9.53288 41.1557 11.4351 40.9403 13.2508 40.3079Z" fill="white"/>
<path id="Vector_267" d="M1.66121 39.8623L1.6377 39.986C3.6464 40.5131 5.7134 40.7854 7.79006 40.7967C9.50545 40.7967 11.3793 40.5875 13.1639 39.9786C13.154 39.9402 13.1441 39.8994 13.133 39.8548C8.44726 41.4576 3.20456 40.2756 1.66121 39.8623Z" fill="white"/>
<path id="Vector_268" d="M12.591 37.783C12.5799 37.7434 12.57 37.7038 12.5601 37.6592C8.36693 39.0578 3.52524 38.1394 2.06233 37.804L2.03882 37.9278C3.80782 38.3247 5.6146 38.5288 7.42756 38.5367C9.07735 38.5392 10.888 38.3511 12.591 37.783Z" fill="white"/>
<path id="Vector_269" d="M12.5254 37.5293C12.5155 37.4897 12.5044 37.4501 12.4945 37.4055C8.36446 38.7583 3.63044 37.8833 2.11556 37.5404L2.09204 37.6642C3.84449 38.0536 5.63363 38.254 7.4288 38.262C9.05631 38.2645 10.841 38.0801 12.5254 37.5293Z" fill="white"/>
<path id="Vector_270" d="M10.1801 25.94C10.1801 25.94 11.1999 32.6864 11.5626 33.9364C11.9252 35.1865 13.3336 40.6482 13.3336 40.6482C12.051 41.2069 10.6822 41.5418 9.28651 41.6383C6.95106 41.803 3.92377 41.6049 3.03513 41.2101C2.1465 40.8153 1.52148 40.5529 1.52148 40.5529L2.47571 35.6828C2.47571 35.6828 4.54878 29.8584 4.54878 28.5427C4.54878 27.2271 4.42254 25.8768 5.17875 24.8867C5.93495 23.8966 6.82359 23.4387 7.4486 23.6355C8.07361 23.8322 10.1801 25.94 10.1801 25.94Z" stroke="#263238" stroke-width="0.152748" stroke-linecap="round" stroke-linejoin="round"/>
<path id="Vector_271" d="M5.95972 51.1447H8.5922L8.55879 53.1856C8.55879 53.1856 10.0724 54.1398 10.4351 54.271C10.7977 54.4022 10.9945 54.6993 10.9611 54.797C10.9277 54.8948 10.7643 54.9616 10.7643 54.9616H6.22334C6.12741 54.699 6.09352 54.4177 6.12432 54.1398C6.17478 53.8705 6.25189 53.6068 6.35453 53.3527L5.95972 51.1447Z" fill="#C1D600" stroke="#263238" stroke-width="0.152748" stroke-linecap="round" stroke-linejoin="round"/>
<path id="Vector_272" d="M6.46209 23.0451C6.46209 23.0451 4.65264 24.3285 4.22441 25.7431C3.79619 27.1578 3.66499 29.7903 3.56598 30.3831C3.46697 30.9759 1.92114 36.4365 1.92114 36.4365C1.92114 36.4365 3.20459 37.3251 5.47444 37.5503C7.7443 37.7756 10.2456 37.2211 10.3446 37.2211C10.4436 37.2211 9.52156 25.8768 9.55498 25.7766C9.5884 25.6763 7.71212 23.5055 7.3829 23.2097C7.05369 22.9139 6.46209 23.0451 6.46209 23.0451Z" fill="white" stroke="#263238" stroke-width="0.152748" stroke-linecap="round" stroke-linejoin="round"/>
<path id="Vector_273" d="M10.5229 20.8619C10.5229 20.8619 10.5674 22.0859 10.7939 22.4943C11.0204 22.9028 10.9759 23.3099 10.3867 23.1738C9.79762 23.0377 9.02532 21.8124 8.93621 21.0884C8.8471 20.3643 10.1602 20.0005 10.5229 20.8619Z" fill="#263238" stroke="#263238" stroke-width="0.152748" stroke-linecap="round" stroke-linejoin="round"/>
<path id="Vector_274" d="M9.49683 24.659L10.5575 33.5812L12.4858 33.3547L10.2246 24.6194C10.2246 24.6194 9.76911 24.0377 9.49683 24.659Z" fill="#C1D600" stroke="#263238" stroke-width="0.152748" stroke-linecap="round" stroke-linejoin="round"/>
<path id="Vector_275" d="M10.5451 17.0573C10.6838 17.3168 10.8053 17.5851 10.909 17.8605C11.0167 18.186 10.9981 18.79 11.0328 18.889C11.0674 18.988 11.5514 19.571 11.5538 19.6885C11.5563 19.8061 11.1145 20.0375 11.1145 20.0375C11.1145 20.0375 10.9981 20.8433 10.914 21.1836C10.8298 21.524 10.8447 21.7146 10.3979 21.7071C9.95108 21.6997 9.34339 21.5227 8.58595 21.1304C7.8285 20.7381 7.26537 20.1663 7.11933 19.3853C6.97328 18.6043 9.0018 17.0895 9.30007 16.8865C9.59835 16.6835 10.5451 17.0573 10.5451 17.0573Z" fill="white" stroke="#263238" stroke-width="0.152748" stroke-linecap="round" stroke-linejoin="round"/>
<path id="Vector_276" d="M10.7409 18.9064C10.7335 19.0599 10.6765 19.1824 10.6171 19.1799C10.5577 19.1774 10.5082 19.0487 10.5156 18.8952C10.5231 18.7418 10.5812 18.618 10.6394 18.6205C10.6976 18.623 10.7483 18.7517 10.7409 18.9064Z" fill="#263238"/>
<path id="Vector_277" d="M10.2073 18.5314C10.2073 18.5314 10.4288 17.9645 10.7741 18.1601" stroke="#263238" stroke-width="0.152748" stroke-linecap="round" stroke-linejoin="round"/>
<path id="Vector_278" d="M10.9956 20.3284C10.9956 20.3284 10.5773 20.5004 10.3557 20.1564" stroke="#263238" stroke-width="0.152748" stroke-linecap="round" stroke-linejoin="round"/>
<path id="Vector_279" d="M6.80634 21.6366C6.80634 21.6366 10.674 22.6366 10.6109 23.0896C10.5478 23.5426 10.4537 24.8632 9.9475 24.93C9.4413 24.9969 5.59467 23.5253 5.3063 23.4325C5.01793 23.3396 5.54022 22.0178 5.82983 21.6849C6.11944 21.352 6.80634 21.6366 6.80634 21.6366Z" fill="#C1D600" stroke="#263238" stroke-width="0.152748" stroke-linecap="round" stroke-linejoin="round"/>
<path id="Vector_280" d="M8.83859 18.1551C8.83859 18.1551 9.26929 21.0017 9.77673 22.1465C10.2842 23.2914 10.8089 23.607 10.6159 23.8297C10.4228 24.0525 9.3089 23.3347 9.3089 23.3347C9.3089 23.3347 10.2594 24.6862 9.62821 25.0538C8.99701 25.4214 7.39301 24.6317 7.05266 24.3421L6.71973 24.0525C6.71973 24.0525 6.61329 24.9189 5.51426 25.4412C4.41522 25.9635 2.90034 25.0624 3.88798 23.8322C4.87563 22.602 5.28653 21.1886 5.11202 20.3359C4.93751 19.4831 7.8002 17.1959 8.83859 18.1551Z" fill="#263238" stroke="#263238" stroke-width="0.152748" stroke-linecap="round" stroke-linejoin="round"/>
<g id="Vector_281">
<path d="M5.73706 27.5192C5.98459 28.0761 6.53287 28.5811 6.94872 29.0192C7.6121 29.7185 8.40173 30.2569 9.09481 30.9203C9.21858 31.044 10.5874 32.2285 10.7508 32.1579C10.7508 32.1579 12.1122 31.5391 13.0714 30.6554C14.0306 29.7717 16.413 27.039 16.413 27.039C17.0071 26.8843 17.9552 26.0848 17.9552 26.0848L18.8364 25.9684C18.8639 25.9626 18.8883 25.9468 18.9048 25.924C18.9214 25.9013 18.9289 25.8732 18.926 25.8452C18.9231 25.8172 18.9099 25.7913 18.889 25.7725C18.8681 25.7536 18.841 25.7432 18.8129 25.7432L17.9948 25.8075L19.1087 25.2271C19.1215 25.2204 19.1329 25.2113 19.1422 25.2002C19.1515 25.1891 19.1586 25.1763 19.1629 25.1625C19.1673 25.1488 19.1689 25.1342 19.1677 25.1198C19.1664 25.1054 19.1623 25.0914 19.1557 25.0785C19.1439 25.0572 19.1254 25.0402 19.103 25.0304C19.0806 25.0205 19.0557 25.0183 19.0319 25.0241L17.8388 25.3335L18.8525 24.7778C18.8822 24.7614 18.9041 24.7338 18.9135 24.7012C18.9229 24.6686 18.919 24.6336 18.9026 24.6039C18.8862 24.5742 18.8586 24.5522 18.826 24.5428C18.7934 24.5334 18.7584 24.5374 18.7287 24.5538L17.5653 25.1355L18.142 24.6404L18.3351 24.3991C18.3464 24.3815 18.3515 24.3607 18.3497 24.34C18.3479 24.3192 18.3392 24.2996 18.325 24.2843C18.3109 24.269 18.292 24.2588 18.2714 24.2554C18.2508 24.252 18.2297 24.2555 18.2114 24.2654L17.9812 24.4362C17.5616 24.7543 16.5566 25.5191 16.4626 25.6442C16.3388 25.8026 15.741 26.4882 15.741 26.4882C15.741 26.4882 14.7175 27.3063 13.3523 28.2618C12.7124 28.7278 12.0385 29.1453 11.3362 29.5106C10.9203 28.9871 9.67032 27.3806 9.17773 26.3966C8.80581 25.6773 8.18781 25.1155 7.43636 24.8137" fill="white"/>
<path d="M5.73706 27.5192C5.98459 28.0761 6.53287 28.5811 6.94872 29.0192C7.6121 29.7185 8.40173 30.2569 9.09481 30.9203C9.21858 31.044 10.5874 32.2285 10.7508 32.1579C10.7508 32.1579 12.1122 31.5391 13.0714 30.6554C14.0306 29.7717 16.413 27.039 16.413 27.039C17.0071 26.8843 17.9552 26.0848 17.9552 26.0848L18.8364 25.9684C18.8639 25.9626 18.8883 25.9468 18.9048 25.924C18.9214 25.9013 18.9289 25.8732 18.926 25.8452C18.9231 25.8172 18.9099 25.7913 18.889 25.7725C18.8681 25.7536 18.841 25.7432 18.8129 25.7432L17.9948 25.8075L19.1087 25.2271C19.1215 25.2204 19.1329 25.2113 19.1422 25.2002C19.1515 25.1891 19.1586 25.1763 19.1629 25.1625C19.1673 25.1488 19.1689 25.1342 19.1677 25.1198C19.1664 25.1054 19.1623 25.0914 19.1557 25.0785C19.1439 25.0572 19.1254 25.0402 19.103 25.0304C19.0806 25.0205 19.0557 25.0183 19.0319 25.0241L17.8388 25.3335L18.8525 24.7778C18.8822 24.7614 18.9041 24.7338 18.9135 24.7012C18.9229 24.6686 18.919 24.6336 18.9026 24.6039C18.8862 24.5742 18.8586 24.5522 18.826 24.5428C18.7934 24.5334 18.7584 24.5374 18.7287 24.5538L17.5653 25.1355L18.142 24.6404L18.3351 24.3991C18.3464 24.3815 18.3515 24.3607 18.3497 24.34C18.3479 24.3192 18.3392 24.2996 18.325 24.2843C18.3109 24.269 18.292 24.2588 18.2714 24.2554C18.2508 24.252 18.2297 24.2555 18.2114 24.2654L17.9812 24.4362C17.5616 24.7543 16.5566 25.5191 16.4626 25.6442C16.3388 25.8026 15.741 26.4882 15.741 26.4882C15.741 26.4882 14.7175 27.3063 13.3523 28.2618C12.7124 28.7278 12.0385 29.1453 11.3362 29.5106C10.9203 28.9871 9.67032 27.3806 9.17773 26.3966C8.80581 25.6773 8.18781 25.1155 7.43636 24.8137" stroke="#263238" stroke-width="0.152748" stroke-linecap="round" stroke-linejoin="round"/>
</g>
<path id="Vector_282" d="M19.0269 25.0216L17.8338 25.331L18.8475 24.7753C18.8772 24.7589 18.8991 24.7314 18.9085 24.6987C18.9179 24.6661 18.914 24.6311 18.8976 24.6014C18.8812 24.5717 18.8536 24.5497 18.821 24.5403C18.7884 24.5309 18.7534 24.5349 18.7237 24.5513L17.5603 25.133L18.1371 24.6379L18.3301 24.3966C18.3414 24.379 18.3465 24.3582 18.3447 24.3375C18.3429 24.3167 18.3342 24.2971 18.32 24.2818C18.3059 24.2665 18.287 24.2563 18.2664 24.2529C18.2459 24.2495 18.2247 24.253 18.2064 24.2629L17.9762 24.4337C17.5566 24.7518 16.5516 25.5167 16.4576 25.6417C16.3338 25.8001 15.736 26.4857 15.736 26.4857C15.736 26.4857 14.7125 27.3038 13.3473 28.2593C12.8213 28.6306 12.3956 28.9004 12.0688 29.0972L12.9018 30.8027C12.96 30.7519 13.0181 30.7012 13.0751 30.648C14.0305 29.7618 16.4167 27.0316 16.4167 27.0316C17.0108 26.8768 17.9588 26.0773 17.9588 26.0773L18.84 25.961C18.8676 25.9551 18.892 25.9393 18.9085 25.9166C18.9251 25.8938 18.9326 25.8658 18.9297 25.8378C18.9268 25.8098 18.9136 25.7839 18.8927 25.765C18.8718 25.7462 18.8447 25.7358 18.8165 25.7357L17.9984 25.8001L19.1123 25.2196C19.1252 25.213 19.1366 25.2038 19.1459 25.1928C19.1552 25.1817 19.1622 25.1689 19.1666 25.1551C19.171 25.1413 19.1726 25.1268 19.1713 25.1124C19.1701 25.098 19.166 25.0839 19.1594 25.0711C19.1464 25.0488 19.1262 25.0317 19.102 25.0227C19.0779 25.0136 19.0513 25.0133 19.0269 25.0216Z" fill="white" stroke="#263238" stroke-width="0.152748" stroke-linecap="round" stroke-linejoin="round"/>
<g id="Vector_283">
<path d="M5.11197 20.3383C5.11197 20.3383 4.27655 20.4695 3.82481 19.9806C3.37307 19.4918 4.08101 18.8767 4.80503 17.6155C5.52906 16.3543 5.99813 15.1637 7.4041 14.8667C8.81007 14.5696 10.4982 15.7219 10.877 16.0301C11.2557 16.3382 11.2619 16.6179 11.0799 16.6934C11.0799 16.6934 6.61572 18.4682 5.15405 20.5302" fill="#C1D600"/>
<path d="M5.11197 20.3383C5.11197 20.3383 4.27655 20.4695 3.82481 19.9806C3.37307 19.4918 4.08101 18.8767 4.80503 17.6155C5.52906 16.3543 5.99813 15.1637 7.4041 14.8667C8.81007 14.5696 10.4982 15.7219 10.877 16.0301C11.2557 16.3382 11.2619 16.6179 11.0799 16.6934C11.0799 16.6934 6.61572 18.4682 5.15405 20.5302" stroke="#263238" stroke-width="0.152748" stroke-linecap="round" stroke-linejoin="round"/>
</g>
<path id="Vector_284" d="M7.2976 18.4571L5.06982 19.4323" stroke="#263238" stroke-width="0.152748" stroke-linecap="round" stroke-linejoin="round"/>
<path id="Vector_285" d="M5.11064 20.7653C5.11064 20.7653 7.02158 19.087 8.84092 18.3333C10.6603 17.5796 11.3534 17.509 11.3534 17.259C11.3534 17.009 11.0835 16.6934 11.0835 16.6934C11.0835 16.6934 8.1268 17.8073 6.95722 18.6848C5.78764 19.5623 4.42251 20.2294 5.11064 20.7653Z" fill="#C1D600" stroke="#263238" stroke-width="0.152748" stroke-linecap="round" stroke-linejoin="round"/>
</g>
<g id="Floor">
<path id="Vector_286" d="M1.20459 54.9616H58.8792" stroke="#263238" stroke-width="0.152748" stroke-linecap="round" stroke-linejoin="round"/>
</g>
</g>
</svg>
