<svg width="20" height="20" viewBox="0 0 20 20" fill="none" xmlns="http://www.w3.org/2000/svg">
<g id="Calendar">
<g id="Group">
<path id="Vector" d="M13.8333 2.5V4.25M6.83325 2.5V4.25M3.33325 9.5H17.3333M3.33325 6C3.33325 5.53587 3.51763 5.09075 3.84582 4.76256C4.174 4.43437 4.61912 4.25 5.08325 4.25H15.5833C16.0474 4.25 16.4925 4.43437 16.8207 4.76256C17.1489 5.09075 17.3333 5.53587 17.3333 6V16.5C17.3333 16.9641 17.1489 17.4092 16.8207 17.7374C16.4925 18.0656 16.0474 18.25 15.5833 18.25H5.08325C4.61912 18.25 4.174 18.0656 3.84582 17.7374C3.51763 17.4092 3.33325 16.9641 3.33325 16.5V6Z" stroke="#6B7280" stroke-linecap="round" stroke-linejoin="round"/>
</g>
</g>
</svg>
