<svg width="20" height="20" viewBox="0 0 20 20" fill="none" xmlns="http://www.w3.org/2000/svg">
<g id="Calendar">
<g id="Group">
<path id="Vector" d="M3.33301 6C3.33301 5.53587 3.51738 5.09075 3.84557 4.76256C4.17376 4.43437 4.61888 4.25 5.08301 4.25H15.583C16.0471 4.25 16.4923 4.43437 16.8204 4.76256C17.1486 5.09075 17.333 5.53587 17.333 6V16.5C17.333 16.9641 17.1486 17.4092 16.8204 17.7374C16.4923 18.0656 16.0471 18.25 15.583 18.25H5.08301C4.61888 18.25 4.17376 18.0656 3.84557 17.7374C3.51738 17.4092 3.33301 16.9641 3.33301 16.5V6Z" fill="#003057"/>
<path id="Vector 2" d="M3 10L18 10" stroke="#C1D600" stroke-linecap="round"/>
<path id="Vector 3" d="M7 5L7 3" stroke="#003057" stroke-linecap="round"/>
<path id="Vector 4" d="M14 5V3" stroke="#003057" stroke-linecap="round"/>
</g>
</g>
</svg>
