<svg width="58" height="52" viewBox="0 0 58 52" fill="none" xmlns="http://www.w3.org/2000/svg">
<g id="job-hunt/rafiki">
<g id="background-complete">
<path id="Vector" d="M69.7874 45.6968H0V45.7317H69.7874V45.6968Z" fill="#EBEBEB"/>
<path id="Vector_2" d="M11.9447 47.0256H7.32202V47.0605H11.9447V47.0256Z" fill="#EBEBEB"/>
<path id="Vector_3" d="M31.4042 47.0437H23.8867V47.0786H31.4042V47.0437Z" fill="#EBEBEB"/>
<path id="Vector_4" d="M17.4411 47.7457H14.7627V47.7806H17.4411V47.7457Z" fill="#EBEBEB"/>
<path id="Vector_5" d="M58.3227 47.729H54.095V47.7639H58.3227V47.729Z" fill="#EBEBEB"/>
<path id="Vector_6" d="M51.767 47.4987H45.8267V47.5336H51.767V47.4987Z" fill="#EBEBEB"/>
<path id="Vector_7" d="M33.0791 39.4718H6.12858C5.91746 39.4714 5.7151 39.3873 5.56594 39.2378C5.41678 39.0884 5.33301 38.8859 5.33301 38.6748V0.789993C5.33485 0.580076 5.41943 0.379361 5.56839 0.231446C5.71735 0.0835297 5.91866 0.000359599 6.12858 0H33.0791C33.2905 0 33.4932 0.0839665 33.6426 0.233428C33.7921 0.382889 33.8761 0.585602 33.8761 0.796972V38.6748C33.8761 38.8862 33.7921 39.0889 33.6426 39.2383C33.4932 39.3878 33.2905 39.4718 33.0791 39.4718ZM6.12858 0.0279151C5.92671 0.0282848 5.73323 0.108738 5.59062 0.251615C5.448 0.394493 5.3679 0.588119 5.3679 0.789993V38.6748C5.3679 38.8767 5.448 39.0703 5.59062 39.2132C5.73323 39.356 5.92671 39.4365 6.12858 39.4369H33.0791C33.2811 39.4365 33.4747 39.3561 33.6176 39.2132C33.7604 39.0704 33.8408 38.8768 33.8412 38.6748V0.789993C33.8408 0.587991 33.7604 0.394368 33.6176 0.25153C33.4747 0.108693 33.2811 0.028284 33.0791 0.0279151H6.12858Z" fill="#EBEBEB"/>
<path id="Vector_8" d="M63.2706 39.4718H36.3187C36.1074 39.4714 35.9049 39.3873 35.7556 39.2379C35.6062 39.0885 35.5221 38.886 35.5217 38.6748V0.789993C35.5239 0.579949 35.6088 0.379236 35.758 0.231358C35.9072 0.0834809 36.1086 0.000355677 36.3187 0H63.2706C63.4803 0.000726417 63.6812 0.0840588 63.8299 0.231935C63.9786 0.379812 64.0629 0.580318 64.0648 0.789993V38.6748C64.0648 38.8857 63.9812 39.088 63.8323 39.2373C63.6835 39.3867 63.4815 39.471 63.2706 39.4718ZM36.3187 0.0279151C36.1167 0.028284 35.9231 0.108693 35.7802 0.25153C35.6374 0.394368 35.557 0.587991 35.5566 0.789993V38.6748C35.557 38.8768 35.6374 39.0704 35.7802 39.2132C35.9231 39.3561 36.1167 39.4365 36.3187 39.4369H63.2706C63.4726 39.4365 63.6662 39.3561 63.8091 39.2132C63.9519 39.0704 64.0323 38.8768 64.0327 38.6748V0.789993C64.0323 0.587991 63.9519 0.394368 63.8091 0.25153C63.6662 0.108693 63.4726 0.028284 63.2706 0.0279151H36.3187Z" fill="#EBEBEB"/>
<path id="Vector_9" d="M42.1822 45.6968H46.135V26.0307H42.1822V45.6968Z" fill="#E6E6E6"/>
<path id="Vector_10" d="M42.9318 45.6968H42.1809V43.5613H43.719L42.9318 45.6968Z" fill="#F0F0F0"/>
<path id="Vector_11" d="M56.955 45.6968H60.9077V26.0307H56.955V45.6968Z" fill="#E6E6E6"/>
<path id="Vector_12" d="M42.1822 44.3862H57.6108V26.0307L42.1822 26.0307V44.3862Z" fill="#F0F0F0"/>
<path id="Vector_13" d="M42.7642 38.1472V41.7161H49.6438V38.1472H42.7642Z" fill="#E6E6E6"/>
<path id="Vector_14" d="M50.1479 38.1472V41.7161H57.0276V38.1472H50.1479Z" fill="#E6E6E6"/>
<path id="Vector_15" d="M52.9072 38.7446H54.2681C54.5607 38.7448 54.8503 38.6852 55.1191 38.5695C55.3879 38.4538 55.6303 38.2845 55.8313 38.0718H51.344C51.545 38.2845 51.7874 38.4538 52.0562 38.5695C52.325 38.6852 52.6146 38.7448 52.9072 38.7446Z" fill="#F0F0F0"/>
<path id="Vector_16" d="M45.4539 38.7446H46.8147C47.1074 38.7448 47.397 38.6852 47.6658 38.5695C47.9346 38.4538 48.1769 38.2845 48.378 38.0718H43.8906C44.0917 38.2845 44.334 38.4538 44.6028 38.5695C44.8716 38.6852 45.1612 38.7448 45.4539 38.7446Z" fill="#F0F0F0"/>
<path id="Vector_17" d="M42.7629 32.5991V36.168H49.6426V32.5991H42.7629Z" fill="#E6E6E6"/>
<path id="Vector_18" d="M50.1479 32.6005V36.1694H57.0276V32.6005H50.1479Z" fill="#E6E6E6"/>
<path id="Vector_19" d="M52.9072 33.1965H54.2681C54.5607 33.1959 54.85 33.1357 55.1186 33.0195C55.3871 32.9034 55.6291 32.7337 55.8299 32.5209H51.344C51.545 32.7339 51.7872 32.9036 52.056 33.0198C52.3248 33.1359 52.6144 33.1961 52.9072 33.1965Z" fill="#F0F0F0"/>
<path id="Vector_20" d="M45.4539 33.1965H46.8147C47.1072 33.1966 47.3967 33.1371 47.6654 33.0217C47.9342 32.9063 48.1766 32.7373 48.378 32.5251H43.8906C44.0919 32.7373 44.3344 32.9063 44.6031 33.0217C44.8719 33.1371 45.1614 33.1966 45.4539 33.1965Z" fill="#F0F0F0"/>
<path id="Vector_21" d="M42.7642 27.0524V30.6213H49.6438V27.0524H42.7642Z" fill="#E6E6E6"/>
<path id="Vector_22" d="M50.1479 27.0524V30.6213H57.0276V27.0524H50.1479Z" fill="#E6E6E6"/>
<path id="Vector_23" d="M52.9072 27.6498H54.2681C54.5607 27.65 54.8503 27.5904 55.1191 27.4747C55.3879 27.359 55.6303 27.1897 55.8313 26.977H51.344C51.545 27.1897 51.7874 27.359 52.0562 27.4747C52.325 27.5904 52.6146 27.65 52.9072 27.6498Z" fill="#F0F0F0"/>
<path id="Vector_24" d="M45.4539 27.6498H46.8147C47.1074 27.65 47.397 27.5904 47.6658 27.4747C47.9346 27.359 48.1769 27.1897 48.378 26.977H43.8906C44.0917 27.1897 44.334 27.359 44.6028 27.4747C44.8716 27.5904 45.1612 27.65 45.4539 27.6498Z" fill="#F0F0F0"/>
<path id="Vector_25" d="M56.86 45.6968H57.6109V43.5613H56.0728L56.86 45.6968Z" fill="#F0F0F0"/>
<path id="Vector_26" d="M57.5105 12.5296L58.1149 14.1822H57.5105L53.802 12.5296H57.5105Z" fill="#F5F5F5"/>
<path id="Vector_27" d="M58.1146 12.5296V14.1822L54.4075 12.5296H58.1146Z" fill="#E6E6E6"/>
<path id="Vector_28" d="M42.9708 12.5296L43.5751 14.1822H42.9708L39.2637 12.5296H42.9708Z" fill="#F5F5F5"/>
<path id="Vector_29" d="M43.5753 12.5296V14.1822L39.8682 12.5296H43.5753Z" fill="#E6E6E6"/>
<path id="Vector_30" d="M60.8363 11.3488H56.804V12.6064H60.8363V11.3488Z" fill="#E6E6E6"/>
<path id="Vector_31" d="M36.7568 12.6078L56.804 12.6078V11.3502L36.7568 11.3502V12.6078Z" fill="#F5F5F5"/>
<path id="Vector_32" d="M52.7329 6.97873C52.7329 6.97873 52.7734 11.3502 54.2822 11.3502C55.791 11.3502 55.8301 6.97873 55.8301 6.97873H52.7329Z" fill="#F0F0F0"/>
<path id="Vector_33" d="M43.377 9.92377C43.377 9.92377 43.483 11.3488 47.5419 11.3488C51.6007 11.3488 51.7068 9.92377 51.7068 9.92377H43.377Z" fill="#F0F0F0"/>
<path id="Vector_34" d="M31.3149 45.6968H31.5843L32.3562 41.8934L32.4957 41.2262L33.3332 37.0808H36.5685L38.3174 45.6968H38.5882L36.8058 36.9231C36.8 36.8931 36.7838 36.866 36.7601 36.8466C36.7364 36.8273 36.7066 36.8168 36.676 36.817H33.2257C33.1953 36.8169 33.1657 36.8274 33.1423 36.8468C33.1188 36.8662 33.1029 36.8932 33.0973 36.9231L32.3576 40.5632L32.218 41.229L31.3149 45.6968Z" fill="#F0F0F0"/>
<path id="Vector_35" d="M26.1326 45.6968H26.4019L28.1522 37.0808H31.3792L32.2166 41.229L32.3562 41.8934L33.1295 45.6968H33.3988L32.4916 41.2304L32.352 40.5674L31.6123 36.9273C31.605 36.898 31.5885 36.8717 31.5651 36.8526C31.5417 36.8335 31.5127 36.8225 31.4825 36.8212H28.0447C28.0141 36.821 27.9844 36.8315 27.9607 36.8508C27.937 36.8702 27.9208 36.8973 27.9149 36.9273L26.1326 45.6968Z" fill="#F0F0F0"/>
<path id="Vector_36" d="M37.0516 35.8121H27.6624C27.4471 35.8125 27.2407 35.8982 27.0884 36.0505C26.9362 36.2027 26.8505 36.4091 26.8501 36.6245V36.6524C26.8501 36.7312 26.8814 36.8068 26.9372 36.8626C26.9929 36.9183 27.0685 36.9497 27.1474 36.9497H37.5667C37.6455 36.9497 37.7211 36.9183 37.7769 36.8626C37.8326 36.8068 37.8639 36.7312 37.8639 36.6524V36.6245C37.8636 36.4091 37.7779 36.2027 37.6256 36.0505C37.4734 35.8982 37.2669 35.8125 37.0516 35.8121Z" fill="#F0F0F0"/>
<path id="Vector_37" d="M21.8923 45.6968H22.1617L22.9336 41.8934L23.0731 41.2262L23.9106 37.0808H27.1376L28.892 45.6968H29.1628L27.3804 36.9231C27.3746 36.8931 27.3584 36.866 27.3347 36.8466C27.311 36.8273 27.2812 36.8168 27.2506 36.817H23.8031C23.7727 36.8169 23.7431 36.8274 23.7197 36.8468C23.6962 36.8662 23.6803 36.8932 23.6747 36.9231L22.935 40.5632L22.7954 41.229L21.8923 45.6968Z" fill="#F0F0F0"/>
<path id="Vector_38" d="M16.71 45.6968H16.9807L18.7296 37.0808H21.958L22.7954 41.229L22.935 41.8934L23.7082 45.6968H23.9776L23.0704 41.2304L22.9308 40.5674L22.1925 36.9231C22.1852 36.8938 22.1687 36.8675 22.1453 36.8484C22.1218 36.8293 22.0929 36.8183 22.0627 36.817H18.6221C18.5915 36.8168 18.5618 36.8273 18.5381 36.8466C18.5144 36.866 18.4982 36.8931 18.4923 36.9231L16.71 45.6968Z" fill="#F0F0F0"/>
<path id="Vector_39" d="M27.6357 35.8121H18.2396C18.0242 35.8125 17.8178 35.8982 17.6656 36.0505C17.5133 36.2027 17.4276 36.4091 17.4272 36.6245V36.6524C17.4272 36.7312 17.4586 36.8068 17.5143 36.8626C17.5701 36.9183 17.6457 36.9497 17.7245 36.9497H28.1452C28.1842 36.9497 28.2228 36.942 28.2588 36.927C28.2947 36.9121 28.3274 36.8901 28.3549 36.8625C28.3824 36.8349 28.4042 36.8021 28.419 36.766C28.4338 36.73 28.4413 36.6914 28.4411 36.6524V36.6245C28.4407 36.4103 28.356 36.205 28.2052 36.0529C28.0545 35.9009 27.8499 35.8143 27.6357 35.8121Z" fill="#F0F0F0"/>
<path id="Vector_40" d="M11.7703 24.7885H25.2603L25.2603 3.17812H11.7703L11.7703 24.7885Z" fill="#E6E6E6"/>
<path id="Vector_41" d="M10.8895 24.7885H24.8484L24.8484 3.17812H10.8895L10.8895 24.7885Z" fill="#F0F0F0"/>
<path id="Vector_42" d="M11.7703 26.4257H25.2603V24.7871H11.7703V26.4257Z" fill="#E6E6E6"/>
<path id="Vector_43" d="M9.42125 26.4257H23.3801V24.7871H9.42125V26.4257Z" fill="#F0F0F0"/>
<path id="Vector_44" d="M23.6133 23.5546V4.41196L12.1221 4.41196L12.1221 23.5546H23.6133Z" fill="#FAFAFA"/>
<path id="Vector_45" d="M23.7124 23.5533L19.6703 4.41196H16.2507L20.2928 23.5533H23.7124Z" fill="white"/>
<path id="Vector_46" d="M22.7813 21.267C22.8046 21.267 22.827 21.2578 22.8435 21.2413C22.86 21.2248 22.8692 21.2024 22.8692 21.1791V5.21452C22.8692 5.1912 22.86 5.16883 22.8435 5.15234C22.827 5.13585 22.8046 5.12659 22.7813 5.12659C22.758 5.12659 22.7356 5.13585 22.7191 5.15234C22.7026 5.16883 22.6934 5.1912 22.6934 5.21452V21.1791C22.6934 21.2024 22.7026 21.2248 22.7191 21.2413C22.7356 21.2578 22.758 21.267 22.7813 21.267Z" fill="#F0F0F0"/>
<path id="Vector_47" d="M19.5586 23.5533L15.5165 4.41196H14.1836L18.2243 23.5533H19.5586Z" fill="white"/>
<path id="Vector_48" d="M12.2798 23.5546L12.2798 4.41196H12.1235L12.1235 23.5546H12.2798Z" fill="#E6E6E6"/>
<path id="Vector_49" opacity="0.6" d="M10.5964 5.35966H24.0863L24.2008 4.89069H10.7109L10.5964 5.35966Z" fill="#F0F0F0"/>
<path id="Vector_50" opacity="0.6" d="M10.5964 6.44975H24.0863L24.2008 5.98218H10.7109L10.5964 6.44975Z" fill="#F0F0F0"/>
<path id="Vector_51" opacity="0.6" d="M10.5964 7.54122H24.0863L24.2008 7.07225H10.7109L10.5964 7.54122Z" fill="#F0F0F0"/>
<path id="Vector_52" opacity="0.6" d="M10.5964 8.63132H24.0863L24.2008 8.16374H10.7109L10.5964 8.63132Z" fill="#F0F0F0"/>
<path id="Vector_53" opacity="0.6" d="M10.5964 9.72278H24.0863L24.2008 9.2552H10.7109L10.5964 9.72278Z" fill="#F0F0F0"/>
<path id="Vector_54" opacity="0.6" d="M10.5964 10.8143H24.0863L24.2008 10.3453H10.7109L10.5964 10.8143Z" fill="#F0F0F0"/>
</g>
<g id="Shadow">
<path id="path" d="M34.8937 52C49.8397 52 61.9559 51.2926 61.9559 50.42C61.9559 49.5474 49.8397 48.84 34.8937 48.84C19.9477 48.84 7.83154 49.5474 7.83154 50.42C7.83154 51.2926 19.9477 52 34.8937 52Z" fill="#F5F5F5"/>
</g>
<g id="Briefcases">
<path id="Vector_55" d="M33.9333 28.9939H25.4067C25.2864 28.9939 25.189 29.0913 25.189 29.2116V32.768C25.189 32.8882 25.2864 32.9857 25.4067 32.9857H33.9333C34.0536 32.9857 34.1511 32.8882 34.1511 32.768V29.2116C34.1511 29.0913 34.0536 28.9939 33.9333 28.9939Z" fill="#C1D600"/>
<path id="Vector_56" opacity="0.6" d="M33.9333 28.9939H25.4067C25.2864 28.9939 25.189 29.0913 25.189 29.2116V32.768C25.189 32.8882 25.2864 32.9857 25.4067 32.9857H33.9333C34.0536 32.9857 34.1511 32.8882 34.1511 32.768V29.2116C34.1511 29.0913 34.0536 28.9939 33.9333 28.9939Z" fill="white"/>
<path id="Vector_57" opacity="0.1" d="M33.932 28.9939H25.4026C25.3448 28.9939 25.2894 29.0168 25.2486 29.0576C25.2078 29.0985 25.1848 29.1538 25.1848 29.2116V30.3519L29.6233 31.2257C29.6505 31.2312 29.6785 31.2312 29.7056 31.2257L34.1455 30.3519V29.2116C34.1455 29.1546 34.1232 29.0998 34.0832 29.0591C34.0433 29.0184 33.989 28.9949 33.932 28.9939Z" fill="black"/>
<path id="Vector_58" d="M34.1188 27.5339H31.5143V27.097C31.5139 26.9165 31.4421 26.7435 31.3144 26.6158C31.1867 26.4881 31.0137 26.4163 30.8332 26.4159H28.5065C28.3259 26.4163 28.1529 26.4881 28.0252 26.6158C27.8976 26.7435 27.8257 26.9165 27.8253 27.097V27.5339H25.2223C25.1653 27.5339 25.1106 27.5565 25.0703 27.5968C25.03 27.6372 25.0073 27.6918 25.0073 27.7488V29.8997C25.0076 29.9493 25.025 29.9974 25.0565 30.0358C25.088 30.0741 25.1317 30.1005 25.1804 30.1104L29.6286 30.9856C29.6559 30.9898 29.6837 30.9898 29.711 30.9856L34.1592 30.1104C34.208 30.1006 34.252 30.0742 34.2837 30.0359C34.3155 29.9975 34.3331 29.9495 34.3337 29.8997V27.7488C34.3337 27.6918 34.3111 27.6372 34.2708 27.5968C34.2304 27.5565 34.1758 27.5339 34.1188 27.5339ZM28.3432 27.097C28.3435 27.0537 28.3608 27.0122 28.3913 26.9814C28.4218 26.9507 28.4631 26.933 28.5065 26.9323H30.8332C30.8765 26.933 30.9178 26.9507 30.9483 26.9814C30.9788 27.0122 30.9961 27.0537 30.9965 27.097V27.5339H28.3446L28.3432 27.097Z" fill="#C1D600"/>
<path id="Vector_59" opacity="0.6" d="M34.1188 27.5339H31.5143V27.097C31.5139 26.9165 31.4421 26.7435 31.3144 26.6158C31.1867 26.4881 31.0137 26.4163 30.8332 26.4159H28.5065C28.3259 26.4163 28.1529 26.4881 28.0252 26.6158C27.8976 26.7435 27.8257 26.9165 27.8253 27.097V27.5339H25.2223C25.1653 27.5339 25.1106 27.5565 25.0703 27.5968C25.03 27.6372 25.0073 27.6918 25.0073 27.7488V29.8997C25.0076 29.9493 25.025 29.9974 25.0565 30.0358C25.088 30.0741 25.1317 30.1005 25.1804 30.1104L29.6286 30.9856C29.6559 30.9898 29.6837 30.9898 29.711 30.9856L34.1592 30.1104C34.208 30.1006 34.252 30.0742 34.2837 30.0359C34.3155 29.9975 34.3331 29.9495 34.3337 29.8997V27.7488C34.3337 27.6918 34.3111 27.6372 34.2708 27.5968C34.2304 27.5565 34.1758 27.5339 34.1188 27.5339ZM28.3432 27.097C28.3435 27.0537 28.3608 27.0122 28.3913 26.9814C28.4218 26.9507 28.4631 26.933 28.5065 26.9323H30.8332C30.8765 26.933 30.9178 26.9507 30.9483 26.9814C30.9788 27.0122 30.9961 27.0537 30.9965 27.097V27.5339H28.3446L28.3432 27.097Z" fill="white"/>
<path id="Vector_60" d="M30.1299 30.398H29.2115C29.0974 30.398 29.0049 30.4905 29.0049 30.6045V31.1852C29.0049 31.2993 29.0974 31.3918 29.2115 31.3918H30.1299C30.2439 31.3918 30.3364 31.2993 30.3364 31.1852V30.6045C30.3364 30.4905 30.2439 30.398 30.1299 30.398Z" fill="#C1D600"/>
<path id="Vector_61" opacity="0.3" d="M30.1299 30.398H29.2115C29.0974 30.398 29.0049 30.4905 29.0049 30.6045V31.1852C29.0049 31.2993 29.0974 31.3918 29.2115 31.3918H30.1299C30.2439 31.3918 30.3364 31.2993 30.3364 31.1852V30.6045C30.3364 30.4905 30.2439 30.398 30.1299 30.398Z" fill="white"/>
<path id="Vector_62" d="M33.9333 3.31767H25.4067C25.2864 3.31767 25.189 3.41516 25.189 3.53541V7.09178C25.189 7.21203 25.2864 7.30951 25.4067 7.30951H33.9333C34.0536 7.30951 34.1511 7.21203 34.1511 7.09178V3.53541C34.1511 3.41516 34.0536 3.31767 33.9333 3.31767Z" fill="#C1D600"/>
<path id="Vector_63" opacity="0.6" d="M33.9333 3.31767H25.4067C25.2864 3.31767 25.189 3.41516 25.189 3.53541V7.09178C25.189 7.21203 25.2864 7.30951 25.4067 7.30951H33.9333C34.0536 7.30951 34.1511 7.21203 34.1511 7.09178V3.53541C34.1511 3.41516 34.0536 3.31767 33.9333 3.31767Z" fill="white"/>
<path id="Vector_64" opacity="0.1" d="M33.932 3.31767H25.4026C25.3448 3.31767 25.2894 3.34061 25.2486 3.38145C25.2078 3.42228 25.1848 3.47766 25.1848 3.53541V4.67574L29.6233 5.54947C29.6505 5.55504 29.6785 5.55504 29.7056 5.54947L34.1455 4.67574V3.53541C34.1455 3.47838 34.1232 3.42362 34.0832 3.38291C34.0433 3.34219 33.989 3.31877 33.932 3.31767Z" fill="black"/>
<path id="Vector_65" d="M34.1188 1.85771H31.5143V1.42084C31.5139 1.24031 31.4421 1.06728 31.3144 0.93962C31.1867 0.811964 31.0137 0.740084 30.8332 0.739716H28.5065C28.3259 0.740084 28.1529 0.811964 28.0252 0.93962C27.8976 1.06728 27.8257 1.24031 27.8253 1.42084V1.85771H25.2223C25.1653 1.85771 25.1106 1.88036 25.0703 1.92067C25.03 1.96098 25.0073 2.01565 25.0073 2.07266V4.2235C25.0073 4.27323 25.0246 4.32141 25.0562 4.35984C25.0877 4.39827 25.1316 4.42457 25.1804 4.43426L29.6286 5.30381C29.6558 5.30938 29.6838 5.30938 29.711 5.30381L34.1592 4.42868C34.2075 4.41952 34.2512 4.39421 34.2832 4.35693C34.3151 4.31964 34.3334 4.27259 34.3351 4.2235V2.07266C34.3351 2.04431 34.3295 2.01625 34.3186 1.99008C34.3077 1.96391 34.2918 1.94015 34.2717 1.92017C34.2516 1.90019 34.2277 1.88439 34.2015 1.87367C34.1752 1.86295 34.1471 1.85753 34.1188 1.85771ZM28.3432 1.42084C28.3432 1.3774 28.3603 1.33572 28.3909 1.30487C28.4215 1.27403 28.463 1.25651 28.5065 1.25614H30.8332C30.8764 1.25651 30.9177 1.27383 30.9482 1.30438C30.9788 1.33492 30.9961 1.37625 30.9965 1.41944V1.85631H28.3446L28.3432 1.42084Z" fill="#C1D600"/>
<path id="Vector_66" opacity="0.6" d="M34.1188 1.85771H31.5143V1.42084C31.5139 1.24031 31.4421 1.06728 31.3144 0.93962C31.1867 0.811964 31.0137 0.740084 30.8332 0.739716H28.5065C28.3259 0.740084 28.1529 0.811964 28.0252 0.93962C27.8976 1.06728 27.8257 1.24031 27.8253 1.42084V1.85771H25.2223C25.1653 1.85771 25.1106 1.88036 25.0703 1.92067C25.03 1.96098 25.0073 2.01565 25.0073 2.07266V4.2235C25.0073 4.27323 25.0246 4.32141 25.0562 4.35984C25.0877 4.39827 25.1316 4.42457 25.1804 4.43426L29.6286 5.30381C29.6558 5.30938 29.6838 5.30938 29.711 5.30381L34.1592 4.42868C34.2075 4.41952 34.2512 4.39421 34.2832 4.35693C34.3151 4.31964 34.3334 4.27259 34.3351 4.2235V2.07266C34.3351 2.04431 34.3295 2.01625 34.3186 1.99008C34.3077 1.96391 34.2918 1.94015 34.2717 1.92017C34.2516 1.90019 34.2277 1.88439 34.2015 1.87367C34.1752 1.86295 34.1471 1.85753 34.1188 1.85771ZM28.3432 1.42084C28.3432 1.3774 28.3603 1.33572 28.3909 1.30487C28.4215 1.27403 28.463 1.25651 28.5065 1.25614H30.8332C30.8764 1.25651 30.9177 1.27383 30.9482 1.30438C30.9788 1.33492 30.9961 1.37625 30.9965 1.41944V1.85631H28.3446L28.3432 1.42084Z" fill="white"/>
<path id="Vector_67" d="M30.1299 4.72321H29.2115C29.0974 4.72321 29.0049 4.81569 29.0049 4.92978V5.51041C29.0049 5.62449 29.0974 5.71698 29.2115 5.71698H30.1299C30.2439 5.71698 30.3364 5.62449 30.3364 5.51041V4.92978C30.3364 4.81569 30.2439 4.72321 30.1299 4.72321Z" fill="#C1D600"/>
<path id="Vector_68" opacity="0.3" d="M30.1299 4.72321H29.2115C29.0974 4.72321 29.0049 4.81569 29.0049 4.92978V5.51041C29.0049 5.62449 29.0974 5.71698 29.2115 5.71698H30.1299C30.2439 5.71698 30.3364 5.62449 30.3364 5.51041V4.92978C30.3364 4.81569 30.2439 4.72321 30.1299 4.72321Z" fill="white"/>
<path id="Vector_69" d="M20.6513 28.9939H12.1247C12.0045 28.9939 11.907 29.0913 11.907 29.2116V32.768C11.907 32.8882 12.0045 32.9857 12.1247 32.9857H20.6513C20.7716 32.9857 20.8691 32.8882 20.8691 32.768V29.2116C20.8691 29.0913 20.7716 28.9939 20.6513 28.9939Z" fill="#C1D600"/>
<path id="Vector_70" opacity="0.6" d="M20.6513 28.9939H12.1247C12.0045 28.9939 11.907 29.0913 11.907 29.2116V32.768C11.907 32.8882 12.0045 32.9857 12.1247 32.9857H20.6513C20.7716 32.9857 20.8691 32.8882 20.8691 32.768V29.2116C20.8691 29.0913 20.7716 28.9939 20.6513 28.9939Z" fill="white"/>
<path id="Vector_71" opacity="0.1" d="M20.6569 28.9939H12.1247C12.067 28.9939 12.0116 29.0168 11.9708 29.0576C11.9299 29.0985 11.907 29.1538 11.907 29.2116V30.3519L16.3455 31.2257C16.3731 31.2312 16.4016 31.2312 16.4292 31.2257L20.8691 30.3519V29.2116C20.8691 29.1548 20.8469 29.1002 20.8073 29.0596C20.7677 29.0189 20.7137 28.9953 20.6569 28.9939Z" fill="black"/>
<path id="Vector_72" d="M20.8356 27.5339H18.2311V27.097C18.2307 26.9165 18.1589 26.7435 18.0312 26.6158C17.9035 26.4881 17.7305 26.4163 17.55 26.4159H15.2247C15.0441 26.4163 14.8711 26.4881 14.7434 26.6158C14.6158 26.7435 14.5439 26.9165 14.5435 27.097V27.5339H11.9391C11.8821 27.5339 11.8274 27.5565 11.7871 27.5968C11.7468 27.6372 11.7241 27.6918 11.7241 27.7488V29.8997C11.7244 29.9493 11.7418 29.9974 11.7733 30.0358C11.8048 30.0741 11.8485 30.1005 11.8972 30.1104L16.3454 30.9856C16.3732 30.9898 16.4014 30.9898 16.4292 30.9856L20.8774 30.1104C20.9261 30.1005 20.9699 30.0741 21.0014 30.0358C21.0329 29.9974 21.0502 29.9493 21.0505 29.8997V27.7488C21.0505 27.6918 21.0279 27.6372 20.9876 27.5968C20.9472 27.5565 20.8926 27.5339 20.8356 27.5339ZM15.06 27.097C15.0607 27.0536 15.0783 27.0121 15.109 26.9814C15.1397 26.9506 15.1812 26.933 15.2247 26.9323H17.55C17.5934 26.933 17.6349 26.9506 17.6656 26.9814C17.6964 27.0121 17.714 27.0536 17.7147 27.097V27.5339H15.0628L15.06 27.097Z" fill="#C1D600"/>
<path id="Vector_73" opacity="0.6" d="M20.8356 27.5339H18.2311V27.097C18.2307 26.9165 18.1589 26.7435 18.0312 26.6158C17.9035 26.4881 17.7305 26.4163 17.55 26.4159H15.2247C15.0441 26.4163 14.8711 26.4881 14.7434 26.6158C14.6158 26.7435 14.5439 26.9165 14.5435 27.097V27.5339H11.9391C11.8821 27.5339 11.8274 27.5565 11.7871 27.5968C11.7468 27.6372 11.7241 27.6918 11.7241 27.7488V29.8997C11.7244 29.9493 11.7418 29.9974 11.7733 30.0358C11.8048 30.0741 11.8485 30.1005 11.8972 30.1104L16.3454 30.9856C16.3732 30.9898 16.4014 30.9898 16.4292 30.9856L20.8774 30.1104C20.9261 30.1005 20.9699 30.0741 21.0014 30.0358C21.0329 29.9974 21.0502 29.9493 21.0505 29.8997V27.7488C21.0505 27.6918 21.0279 27.6372 20.9876 27.5968C20.9472 27.5565 20.8926 27.5339 20.8356 27.5339ZM15.06 27.097C15.0607 27.0536 15.0783 27.0121 15.109 26.9814C15.1397 26.9506 15.1812 26.933 15.2247 26.9323H17.55C17.5934 26.933 17.6349 26.9506 17.6656 26.9814C17.6964 27.0121 17.714 27.0536 17.7147 27.097V27.5339H15.0628L15.06 27.097Z" fill="white"/>
<path id="Vector_74" d="M16.8464 30.398H15.928C15.8139 30.398 15.7214 30.4905 15.7214 30.6045V31.1852C15.7214 31.2993 15.8139 31.3918 15.928 31.3918H16.8464C16.9605 31.3918 17.053 31.2993 17.053 31.1852V30.6045C17.053 30.4905 16.9605 30.398 16.8464 30.398Z" fill="#C1D600"/>
<path id="Vector_75" opacity="0.3" d="M16.8464 30.398H15.928C15.8139 30.398 15.7214 30.4905 15.7214 30.6045V31.1852C15.7214 31.2993 15.8139 31.3918 15.928 31.3918H16.8464C16.9605 31.3918 17.053 31.2993 17.053 31.1852V30.6045C17.053 30.4905 16.9605 30.398 16.8464 30.398Z" fill="white"/>
<path id="Vector_76" d="M20.6513 3.31767H12.1247C12.0045 3.31767 11.907 3.41516 11.907 3.53541V7.09178C11.907 7.21203 12.0045 7.30951 12.1247 7.30951H20.6513C20.7716 7.30951 20.8691 7.21203 20.8691 7.09178V3.53541C20.8691 3.41516 20.7716 3.31767 20.6513 3.31767Z" fill="#C1D600"/>
<path id="Vector_77" opacity="0.6" d="M20.6513 3.31767H12.1247C12.0045 3.31767 11.907 3.41516 11.907 3.53541V7.09178C11.907 7.21203 12.0045 7.30951 12.1247 7.30951H20.6513C20.7716 7.30951 20.8691 7.21203 20.8691 7.09178V3.53541C20.8691 3.41516 20.7716 3.31767 20.6513 3.31767Z" fill="white"/>
<path id="Vector_78" opacity="0.1" d="M20.6569 3.31767H12.1247C12.067 3.31767 12.0116 3.34061 11.9708 3.38145C11.9299 3.42228 11.907 3.47766 11.907 3.53541V4.67574L16.3455 5.54948C16.3731 5.55508 16.4016 5.55508 16.4292 5.54948L20.8691 4.67574V3.53541C20.8691 3.47862 20.8469 3.42406 20.8073 3.38339C20.7677 3.34271 20.7137 3.31913 20.6569 3.31767Z" fill="black"/>
<path id="Vector_79" d="M20.8356 1.8578H18.2311V1.42093C18.2307 1.2404 18.1589 1.06737 18.0312 0.939712C17.9035 0.812056 17.7305 0.740176 17.55 0.739807H15.2247C15.0441 0.740176 14.8711 0.812056 14.7434 0.939712C14.6158 1.06737 14.5439 1.2404 14.5435 1.42093V1.8578H11.9391C11.8821 1.8578 11.8274 1.88045 11.7871 1.92076C11.7468 1.96107 11.7241 2.01574 11.7241 2.07275V4.2236C11.7241 4.27332 11.7414 4.32151 11.773 4.35994C11.8045 4.39837 11.8484 4.42467 11.8972 4.43435L16.3454 5.3039C16.3731 5.30951 16.4016 5.30951 16.4292 5.3039L20.8774 4.42877C20.9262 4.41908 20.9701 4.39278 21.0017 4.35435C21.0332 4.31592 21.0505 4.26774 21.0505 4.21801V2.07275C21.0505 2.01574 21.0279 1.96107 20.9876 1.92076C20.9472 1.88045 20.8926 1.8578 20.8356 1.8578ZM15.06 1.42093C15.0603 1.37736 15.0778 1.33568 15.1086 1.30488C15.1394 1.27407 15.1811 1.2566 15.2247 1.25623H17.55C17.5933 1.25659 17.6348 1.27387 17.6655 1.30438C17.6963 1.33489 17.7139 1.37621 17.7147 1.41954V1.85641H15.0628L15.06 1.42093Z" fill="#C1D600"/>
<path id="Vector_80" opacity="0.6" d="M20.8356 1.8578H18.2311V1.42093C18.2307 1.2404 18.1589 1.06737 18.0312 0.939712C17.9035 0.812056 17.7305 0.740176 17.55 0.739807H15.2247C15.0441 0.740176 14.8711 0.812056 14.7434 0.939712C14.6158 1.06737 14.5439 1.2404 14.5435 1.42093V1.8578H11.9391C11.8821 1.8578 11.8274 1.88045 11.7871 1.92076C11.7468 1.96107 11.7241 2.01574 11.7241 2.07275V4.2236C11.7241 4.27332 11.7414 4.32151 11.773 4.35994C11.8045 4.39837 11.8484 4.42467 11.8972 4.43435L16.3454 5.3039C16.3731 5.30951 16.4016 5.30951 16.4292 5.3039L20.8774 4.42877C20.9262 4.41908 20.9701 4.39278 21.0017 4.35435C21.0332 4.31592 21.0505 4.26774 21.0505 4.21801V2.07275C21.0505 2.01574 21.0279 1.96107 20.9876 1.92076C20.9472 1.88045 20.8926 1.8578 20.8356 1.8578ZM15.06 1.42093C15.0603 1.37736 15.0778 1.33568 15.1086 1.30488C15.1394 1.27407 15.1811 1.2566 15.2247 1.25623H17.55C17.5933 1.25659 17.6348 1.27387 17.6655 1.30438C17.6963 1.33489 17.7139 1.37621 17.7147 1.41954V1.85641H15.0628L15.06 1.42093Z" fill="white"/>
<path id="Vector_81" d="M16.8464 4.72321H15.928C15.8139 4.72321 15.7214 4.81569 15.7214 4.92978V5.51041C15.7214 5.62449 15.8139 5.71698 15.928 5.71698H16.8464C16.9605 5.71698 17.053 5.62449 17.053 5.51041V4.92978C17.053 4.81569 16.9605 4.72321 16.8464 4.72321Z" fill="#C1D600"/>
<path id="Vector_82" opacity="0.3" d="M16.8464 4.72321H15.928C15.8139 4.72321 15.7214 4.81569 15.7214 4.92978V5.51041C15.7214 5.62449 15.8139 5.71698 15.928 5.71698H16.8464C16.9605 5.71698 17.053 5.62449 17.053 5.51041V4.92978C17.053 4.81569 16.9605 4.72321 16.8464 4.72321Z" fill="white"/>
<path id="Vector_83" d="M19.5403 20.1476H12.1247C12.0665 20.1476 12.0108 20.1245 11.9697 20.0834C11.9286 20.0423 11.9055 19.9866 11.9055 19.9285V16.3735C11.9057 16.3442 11.9119 16.3152 11.9237 16.2884C11.9293 16.2758 11.9359 16.2637 11.9432 16.2521C11.951 16.2401 11.9604 16.2293 11.9711 16.22C12.0118 16.1791 12.067 16.156 12.1247 16.1558H19.1439C19.0855 16.6429 19.0663 17.1339 19.0866 17.6241C19.0866 17.7036 19.0866 17.7832 19.0992 17.8614C19.109 18.0079 19.1201 18.1559 19.1369 18.3024C19.2087 18.9295 19.3439 19.5477 19.5403 20.1476Z" fill="#C1D600"/>
<path id="Vector_84" opacity="0.6" d="M19.5403 20.1476H12.1247C12.0665 20.1476 12.0108 20.1245 11.9697 20.0834C11.9286 20.0423 11.9055 19.9866 11.9055 19.9285V16.3735C11.9057 16.3442 11.9119 16.3152 11.9237 16.2884C11.9293 16.2758 11.9359 16.2637 11.9432 16.2521C11.951 16.2401 11.9604 16.2293 11.9711 16.22C12.0118 16.1791 12.067 16.156 12.1247 16.1558H19.1439C19.0855 16.6429 19.0663 17.1339 19.0866 17.6241C19.0866 17.7036 19.0866 17.7832 19.0992 17.8614C19.109 18.0079 19.1201 18.1559 19.1369 18.3024C19.2087 18.9295 19.3439 19.5477 19.5403 20.1476Z" fill="white"/>
<path id="Vector_85" opacity="0.1" d="M19.1439 16.1558C19.0855 16.6429 19.0664 17.1339 19.0867 17.6241C19.0867 17.7036 19.0867 17.7832 19.0993 17.8614L17.0531 18.2633L16.4278 18.3862C16.4008 18.3931 16.3725 18.3931 16.3455 18.3862L15.7216 18.2647L11.907 17.5138V16.3721C11.9074 16.3434 11.9131 16.315 11.9237 16.2884C11.9294 16.2758 11.9359 16.2637 11.9433 16.2521C11.951 16.2401 11.9604 16.2293 11.9712 16.22C12.0118 16.1791 12.0671 16.156 12.1247 16.1558H19.1439Z" fill="black"/>
<path id="Vector_86" d="M19.4356 14.6958H18.2325V14.2589C18.2318 14.0783 18.1596 13.9052 18.0317 13.7776C17.9038 13.65 17.7306 13.5782 17.55 13.5778H15.2247C15.044 13.5778 14.8708 13.6496 14.743 13.7773C14.6153 13.905 14.5435 14.0783 14.5435 14.2589V14.6958H11.9391C11.9108 14.6958 11.8829 14.7014 11.8568 14.7122C11.8307 14.723 11.807 14.7388 11.7871 14.7588C11.7671 14.7787 11.7513 14.8024 11.7405 14.8285C11.7297 14.8546 11.7241 14.8825 11.7241 14.9107V17.0602C11.7241 17.1103 11.7415 17.1588 11.7734 17.1975C11.8052 17.2362 11.8494 17.2627 11.8986 17.2724H11.907L15.7215 18.0247L16.3454 18.1461C16.3726 18.1517 16.4006 18.1517 16.4278 18.1461L17.0531 18.0233L19.0867 17.6227C19.0664 17.1325 19.0855 16.6415 19.1439 16.1544C19.2019 15.6611 19.2994 15.1734 19.4356 14.6958ZM15.06 14.2589C15.0607 14.2156 15.0783 14.1743 15.1091 14.1438C15.1399 14.1133 15.1813 14.096 15.2247 14.0956H17.55C17.5932 14.096 17.6345 14.1133 17.665 14.1439C17.6956 14.1744 17.7129 14.2157 17.7133 14.2589V14.6958H15.0614L15.06 14.2589Z" fill="#C1D600"/>
<path id="Vector_87" opacity="0.6" d="M19.4356 14.6958H18.2325V14.2589C18.2318 14.0783 18.1596 13.9052 18.0317 13.7776C17.9038 13.65 17.7306 13.5782 17.55 13.5778H15.2247C15.044 13.5778 14.8708 13.6496 14.743 13.7773C14.6153 13.905 14.5435 14.0783 14.5435 14.2589V14.6958H11.9391C11.9108 14.6958 11.8829 14.7014 11.8568 14.7122C11.8307 14.723 11.807 14.7388 11.7871 14.7588C11.7671 14.7787 11.7513 14.8024 11.7405 14.8285C11.7297 14.8546 11.7241 14.8825 11.7241 14.9107V17.0602C11.7241 17.1103 11.7415 17.1588 11.7734 17.1975C11.8052 17.2362 11.8494 17.2627 11.8986 17.2724H11.907L15.7215 18.0247L16.3454 18.1461C16.3726 18.1517 16.4006 18.1517 16.4278 18.1461L17.0531 18.0233L19.0867 17.6227C19.0664 17.1325 19.0855 16.6415 19.1439 16.1544C19.2019 15.6611 19.2994 15.1734 19.4356 14.6958ZM15.06 14.2589C15.0607 14.2156 15.0783 14.1743 15.1091 14.1438C15.1399 14.1133 15.1813 14.096 15.2247 14.0956H17.55C17.5932 14.096 17.6345 14.1133 17.665 14.1439C17.6956 14.1744 17.7129 14.2157 17.7133 14.2589V14.6958H15.0614L15.06 14.2589Z" fill="white"/>
<path id="Vector_88" d="M16.8464 17.5599H15.928C15.8139 17.5599 15.7214 17.6524 15.7214 17.7665V18.3471C15.7214 18.4612 15.8139 18.5537 15.928 18.5537H16.8464C16.9605 18.5537 17.053 18.4612 17.053 18.3471V17.7665C17.053 17.6524 16.9605 17.5599 16.8464 17.5599Z" fill="#C1D600"/>
<path id="Vector_89" opacity="0.3" d="M16.8464 17.5599H15.928C15.8139 17.5599 15.7214 17.6524 15.7214 17.7665V18.3471C15.7214 18.4612 15.8139 18.5537 15.928 18.5537H16.8464C16.9605 18.5537 17.053 18.4612 17.053 18.3471V17.7665C17.053 17.6524 16.9605 17.5599 16.8464 17.5599Z" fill="white"/>
<path id="Vector_90" d="M38.6885 32.9843H47.2151C47.3354 32.9843 47.4329 32.8868 47.4329 32.7665V29.2102C47.4329 29.0899 47.3354 28.9924 47.2151 28.9924H38.6885C38.5682 28.9924 38.4708 29.0899 38.4708 29.2102V32.7665C38.4708 32.8868 38.5682 32.9843 38.6885 32.9843Z" fill="#C1D600"/>
<path id="Vector_91" opacity="0.6" d="M38.6885 32.9843H47.2151C47.3354 32.9843 47.4329 32.8868 47.4329 32.7665V29.2102C47.4329 29.0899 47.3354 28.9924 47.2151 28.9924H38.6885C38.5682 28.9924 38.4708 29.0899 38.4708 29.2102V32.7665C38.4708 32.8868 38.5682 32.9843 38.6885 32.9843Z" fill="white"/>
<path id="Vector_92" opacity="0.1" d="M38.6899 28.9939H47.2151C47.2728 28.9939 47.3282 29.0168 47.3691 29.0576C47.4099 29.0985 47.4328 29.1539 47.4328 29.2116V30.3519L42.9888 31.2257C42.9616 31.2312 42.9336 31.2312 42.9064 31.2257L38.4666 30.3519V29.2116C38.4665 29.1825 38.4724 29.1537 38.4836 29.127C38.4949 29.1002 38.5115 29.0759 38.5323 29.0556C38.5531 29.0353 38.5778 29.0194 38.6048 29.0088C38.6319 28.9982 38.6608 28.9931 38.6899 28.9939Z" fill="black"/>
<path id="Vector_93" d="M38.5045 27.5339H41.1089V27.097C41.1093 26.9165 41.1812 26.7435 41.3088 26.6158C41.4365 26.4881 41.6095 26.4163 41.7901 26.4159H44.1168C44.2973 26.4163 44.4703 26.4881 44.598 26.6158C44.7256 26.7435 44.7975 26.9165 44.7979 27.097V27.5339H47.401C47.4292 27.5339 47.4571 27.5394 47.4832 27.5502C47.5093 27.5611 47.533 27.5769 47.5529 27.5968C47.5729 27.6168 47.5887 27.6405 47.5995 27.6666C47.6103 27.6927 47.6159 27.7206 47.6159 27.7488V29.8997C47.6156 29.9493 47.5983 29.9974 47.5668 30.0358C47.5352 30.0741 47.4915 30.1005 47.4428 30.1104L42.989 30.9856C42.9612 30.9898 42.933 30.9898 42.9053 30.9856L38.457 30.1104C38.4084 30.1005 38.3646 30.0741 38.3331 30.0358C38.3016 29.9974 38.2842 29.9493 38.2839 29.8997V27.7488C38.2839 27.7201 38.2897 27.6917 38.3008 27.6653C38.312 27.6388 38.3283 27.6149 38.3489 27.5948C38.3694 27.5748 38.3938 27.5591 38.4205 27.5486C38.4472 27.5382 38.4758 27.5331 38.5045 27.5339ZM44.2801 27.097C44.2797 27.0537 44.2624 27.0122 44.2319 26.9814C44.2014 26.9507 44.1601 26.933 44.1168 26.9323H41.7901C41.7466 26.933 41.7051 26.9506 41.6744 26.9814C41.6437 27.0121 41.6261 27.0536 41.6254 27.097V27.5339H44.2773L44.2801 27.097Z" fill="#C1D600"/>
<path id="Vector_94" opacity="0.6" d="M38.5045 27.5339H41.1089V27.097C41.1093 26.9165 41.1812 26.7435 41.3088 26.6158C41.4365 26.4881 41.6095 26.4163 41.7901 26.4159H44.1168C44.2973 26.4163 44.4703 26.4881 44.598 26.6158C44.7256 26.7435 44.7975 26.9165 44.7979 27.097V27.5339H47.401C47.4292 27.5339 47.4571 27.5394 47.4832 27.5502C47.5093 27.5611 47.533 27.5769 47.5529 27.5968C47.5729 27.6168 47.5887 27.6405 47.5995 27.6666C47.6103 27.6927 47.6159 27.7206 47.6159 27.7488V29.8997C47.6156 29.9493 47.5983 29.9974 47.5668 30.0358C47.5352 30.0741 47.4915 30.1005 47.4428 30.1104L42.989 30.9856C42.9612 30.9898 42.933 30.9898 42.9053 30.9856L38.457 30.1104C38.4084 30.1005 38.3646 30.0741 38.3331 30.0358C38.3016 29.9974 38.2842 29.9493 38.2839 29.8997V27.7488C38.2839 27.7201 38.2897 27.6917 38.3008 27.6653C38.312 27.6388 38.3283 27.6149 38.3489 27.5948C38.3694 27.5748 38.3938 27.5591 38.4205 27.5486C38.4472 27.5382 38.4758 27.5331 38.5045 27.5339ZM44.2801 27.097C44.2797 27.0537 44.2624 27.0122 44.2319 26.9814C44.2014 26.9507 44.1601 26.933 44.1168 26.9323H41.7901C41.7466 26.933 41.7051 26.9506 41.6744 26.9814C41.6437 27.0121 41.6261 27.0536 41.6254 27.097V27.5339H44.2773L44.2801 27.097Z" fill="white"/>
<path id="Vector_95" d="M42.4934 31.3918H43.4118C43.5259 31.3918 43.6184 31.2993 43.6184 31.1852V30.6046C43.6184 30.4905 43.5259 30.398 43.4118 30.398H42.4934C42.3793 30.398 42.2869 30.4905 42.2869 30.6046V31.1852C42.2869 31.2993 42.3793 31.3918 42.4934 31.3918Z" fill="#C1D600"/>
<path id="Vector_96" opacity="0.3" d="M42.4934 31.3918H43.4118C43.5259 31.3918 43.6184 31.2993 43.6184 31.1852V30.6046C43.6184 30.4905 43.5259 30.398 43.4118 30.398H42.4934C42.3793 30.398 42.2869 30.4905 42.2869 30.6046V31.1852C42.2869 31.2993 42.3793 31.3918 42.4934 31.3918Z" fill="white"/>
<path id="Vector_97" d="M38.6885 7.30811L47.2151 7.30811C47.3354 7.30811 47.4329 7.21062 47.4329 7.09037V3.534C47.4329 3.41375 47.3354 3.31626 47.2151 3.31626L38.6885 3.31626C38.5682 3.31626 38.4708 3.41375 38.4708 3.534V7.09037C38.4708 7.21062 38.5682 7.30811 38.6885 7.30811Z" fill="#C1D600"/>
<path id="Vector_98" opacity="0.6" d="M38.6885 7.30811L47.2151 7.30811C47.3354 7.30811 47.4329 7.21062 47.4329 7.09037V3.534C47.4329 3.41375 47.3354 3.31626 47.2151 3.31626L38.6885 3.31626C38.5682 3.31626 38.4708 3.41375 38.4708 3.534V7.09037C38.4708 7.21062 38.5682 7.30811 38.6885 7.30811Z" fill="white"/>
<path id="Vector_99" opacity="0.1" d="M38.6899 3.31767H47.2151C47.2729 3.31767 47.3283 3.34061 47.3691 3.38145C47.4099 3.42228 47.4329 3.47766 47.4329 3.53541V4.67574L42.9888 5.54947C42.9616 5.55504 42.9336 5.55504 42.9065 5.54947L38.4722 4.67574V3.53541C38.4722 3.47766 38.4951 3.42228 38.5359 3.38145C38.5768 3.34061 38.6322 3.31767 38.6899 3.31767Z" fill="black"/>
<path id="Vector_100" d="M38.5045 1.85772H41.1089V1.42085C41.1093 1.24032 41.1812 1.06729 41.3088 0.939633C41.4365 0.811977 41.6095 0.740097 41.7901 0.739728H44.1168C44.2066 0.739177 44.2957 0.756378 44.3789 0.790343C44.4621 0.824309 44.5378 0.874371 44.6016 0.937656C44.6654 1.00094 44.7161 1.0762 44.7507 1.15912C44.7854 1.24204 44.8033 1.33099 44.8035 1.42085V1.85772H47.4065C47.4636 1.85772 47.5182 1.88037 47.5585 1.92068C47.5988 1.96099 47.6215 2.01566 47.6215 2.07267V4.22352C47.6215 4.27324 47.6042 4.32143 47.5727 4.35986C47.5411 4.39829 47.4972 4.42459 47.4484 4.43427L42.989 5.30383C42.9614 5.30943 42.9329 5.30943 42.9053 5.30383L38.457 4.42869C38.4082 4.419 38.3643 4.3927 38.3328 4.35427C38.3012 4.31584 38.284 4.26766 38.2839 4.21793V2.07267C38.2839 2.04396 38.2897 2.01555 38.3008 1.9891C38.312 1.96265 38.3283 1.9387 38.3489 1.91867C38.3694 1.89864 38.3938 1.88292 38.4205 1.87245C38.4472 1.86199 38.4758 1.85698 38.5045 1.85772ZM44.2801 1.42085C44.2801 1.37741 44.2629 1.33573 44.2323 1.30488C44.2017 1.27404 44.1602 1.25652 44.1168 1.25616H41.7901C41.7467 1.25651 41.7053 1.27379 41.6745 1.3043C41.6437 1.33481 41.6261 1.37613 41.6254 1.41946V1.85633H44.2773L44.2801 1.42085Z" fill="#C1D600"/>
<path id="Vector_101" opacity="0.6" d="M38.5045 1.85772H41.1089V1.42085C41.1093 1.24032 41.1812 1.06729 41.3088 0.939633C41.4365 0.811977 41.6095 0.740097 41.7901 0.739728H44.1168C44.2066 0.739177 44.2957 0.756378 44.3789 0.790343C44.4621 0.824309 44.5378 0.874371 44.6016 0.937656C44.6654 1.00094 44.7161 1.0762 44.7507 1.15912C44.7854 1.24204 44.8033 1.33099 44.8035 1.42085V1.85772H47.4065C47.4636 1.85772 47.5182 1.88037 47.5585 1.92068C47.5988 1.96099 47.6215 2.01566 47.6215 2.07267V4.22352C47.6215 4.27324 47.6042 4.32143 47.5727 4.35986C47.5411 4.39829 47.4972 4.42459 47.4484 4.43427L42.989 5.30383C42.9614 5.30943 42.9329 5.30943 42.9053 5.30383L38.457 4.42869C38.4082 4.419 38.3643 4.3927 38.3328 4.35427C38.3012 4.31584 38.284 4.26766 38.2839 4.21793V2.07267C38.2839 2.04396 38.2897 2.01555 38.3008 1.9891C38.312 1.96265 38.3283 1.9387 38.3489 1.91867C38.3694 1.89864 38.3938 1.88292 38.4205 1.87245C38.4472 1.86199 38.4758 1.85698 38.5045 1.85772ZM44.2801 1.42085C44.2801 1.37741 44.2629 1.33573 44.2323 1.30488C44.2017 1.27404 44.1602 1.25652 44.1168 1.25616H41.7901C41.7467 1.25651 41.7053 1.27379 41.6745 1.3043C41.6437 1.33481 41.6261 1.37613 41.6254 1.41946V1.85633H44.2773L44.2801 1.42085Z" fill="white"/>
<path id="Vector_102" d="M42.4934 5.71556H43.4118C43.5259 5.71556 43.6184 5.62308 43.6184 5.50899V4.92836C43.6184 4.81427 43.5259 4.72179 43.4118 4.72179H42.4934C42.3793 4.72179 42.2869 4.81427 42.2869 4.92836V5.50899C42.2869 5.62308 42.3793 5.71556 42.4934 5.71556Z" fill="#C1D600"/>
<path id="Vector_103" opacity="0.3" d="M42.4934 5.71556H43.4118C43.5259 5.71556 43.6184 5.62308 43.6184 5.50899V4.92836C43.6184 4.81427 43.5259 4.72179 43.4118 4.72179H42.4934C42.3793 4.72179 42.2869 4.81427 42.2869 4.92836V5.50899C42.2869 5.62308 42.3793 5.71556 42.4934 5.71556Z" fill="white"/>
<path id="Vector_104" d="M39.8052 20.1476H47.2166C47.2745 20.1472 47.3299 20.124 47.3706 20.0829C47.4114 20.0419 47.4343 19.9863 47.4343 19.9285V16.3735C47.4341 16.3442 47.4279 16.3152 47.4162 16.2884C47.4111 16.2756 47.4045 16.2634 47.3966 16.2521C47.3889 16.2401 47.3795 16.2293 47.3687 16.22C47.3487 16.1996 47.3248 16.1834 47.2984 16.1724C47.2721 16.1614 47.2438 16.1557 47.2152 16.1558H40.1974C40.2558 16.6429 40.2749 17.1339 40.2546 17.6241C40.2546 17.7036 40.2546 17.7832 40.242 17.8614C40.2337 18.0079 40.2211 18.1559 40.2044 18.3024C40.1339 18.9294 40.0001 19.5476 39.8052 20.1476Z" fill="#C1D600"/>
<path id="Vector_105" opacity="0.6" d="M39.8052 20.1476H47.2166C47.2745 20.1472 47.3299 20.124 47.3706 20.0829C47.4114 20.0419 47.4343 19.9863 47.4343 19.9285V16.3735C47.4341 16.3442 47.4279 16.3152 47.4162 16.2884C47.4111 16.2756 47.4045 16.2634 47.3966 16.2521C47.3889 16.2401 47.3795 16.2293 47.3687 16.22C47.3487 16.1996 47.3248 16.1834 47.2984 16.1724C47.2721 16.1614 47.2438 16.1557 47.2152 16.1558H40.1974C40.2558 16.6429 40.2749 17.1339 40.2546 17.6241C40.2546 17.7036 40.2546 17.7832 40.242 17.8614C40.2337 18.0079 40.2211 18.1559 40.2044 18.3024C40.1339 18.9294 40.0001 19.5476 39.8052 20.1476Z" fill="white"/>
<path id="Vector_106" opacity="0.1" d="M40.1975 16.1558C40.2559 16.6429 40.275 17.1339 40.2547 17.6241C40.2547 17.7036 40.2547 17.7832 40.2422 17.8614L42.2911 18.2633L42.9164 18.3862C42.9434 18.3931 42.9718 18.3931 42.9988 18.3862L43.6227 18.2647L47.4373 17.5138V16.3721C47.4368 16.3434 47.4311 16.315 47.4205 16.2884C47.4154 16.2756 47.4088 16.2634 47.401 16.2521C47.3932 16.2401 47.3838 16.2293 47.3731 16.22C47.353 16.1996 47.3291 16.1834 47.3027 16.1724C47.2764 16.1614 47.2481 16.1557 47.2195 16.1558H40.1975Z" fill="black"/>
<path id="Vector_107" d="M39.9043 14.6958H41.1088V14.2589C41.1092 14.0784 41.181 13.9054 41.3087 13.7777C41.4364 13.6501 41.6094 13.5782 41.7899 13.5778H44.1152C44.296 13.5778 44.4694 13.6495 44.5974 13.7772C44.7253 13.9049 44.7974 14.0782 44.7978 14.2589V14.6958H47.4008C47.4578 14.6958 47.5125 14.7184 47.5528 14.7588C47.5931 14.7991 47.6158 14.8537 47.6158 14.9107V17.0602C47.6158 17.1101 47.5986 17.1585 47.5671 17.1971C47.5355 17.2358 47.4916 17.2624 47.4427 17.2724H47.4329L43.6184 18.0247L42.9889 18.1447C42.9617 18.1503 42.9337 18.1503 42.9065 18.1447L42.2812 18.0219L40.2476 17.6213C40.2872 16.632 40.1694 15.6426 39.8987 14.6902L39.9043 14.6958ZM44.2799 14.2589C44.2792 14.2156 44.2616 14.1743 44.2308 14.1438C44.2 14.1133 44.1586 14.096 44.1152 14.0956H41.7899C41.7467 14.096 41.7054 14.1133 41.6749 14.1439C41.6443 14.1744 41.627 14.2157 41.6266 14.2589V14.6958H44.2785L44.2799 14.2589Z" fill="#C1D600"/>
<path id="Vector_108" opacity="0.6" d="M39.9043 14.6958H41.1088V14.2589C41.1092 14.0784 41.181 13.9054 41.3087 13.7777C41.4364 13.6501 41.6094 13.5782 41.7899 13.5778H44.1152C44.296 13.5778 44.4694 13.6495 44.5974 13.7772C44.7253 13.9049 44.7974 14.0782 44.7978 14.2589V14.6958H47.4008C47.4578 14.6958 47.5125 14.7184 47.5528 14.7588C47.5931 14.7991 47.6158 14.8537 47.6158 14.9107V17.0602C47.6158 17.1101 47.5986 17.1585 47.5671 17.1971C47.5355 17.2358 47.4916 17.2624 47.4427 17.2724H47.4329L43.6184 18.0247L42.9889 18.1447C42.9617 18.1503 42.9337 18.1503 42.9065 18.1447L42.2812 18.0219L40.2476 17.6213C40.2872 16.632 40.1694 15.6426 39.8987 14.6902L39.9043 14.6958ZM44.2799 14.2589C44.2792 14.2156 44.2616 14.1743 44.2308 14.1438C44.2 14.1133 44.1586 14.096 44.1152 14.0956H41.7899C41.7467 14.096 41.7054 14.1133 41.6749 14.1439C41.6443 14.1744 41.627 14.2157 41.6266 14.2589V14.6958H44.2785L44.2799 14.2589Z" fill="white"/>
<path id="Vector_109" d="M42.4934 18.5551H43.4118C43.5259 18.5551 43.6184 18.4626 43.6184 18.3485V17.7679C43.6184 17.6538 43.5259 17.5613 43.4118 17.5613H42.4934C42.3793 17.5613 42.2869 17.6538 42.2869 17.7679V18.3485C42.2869 18.4626 42.3793 18.5551 42.4934 18.5551Z" fill="#C1D600"/>
<path id="Vector_110" opacity="0.3" d="M42.4934 18.5551H43.4118C43.5259 18.5551 43.6184 18.4626 43.6184 18.3485V17.7679C43.6184 17.6538 43.5259 17.5613 43.4118 17.5613H42.4934C42.3793 17.5613 42.2869 17.6538 42.2869 17.7679V18.3485C42.2869 18.4626 42.3793 18.5551 42.4934 18.5551Z" fill="white"/>
<path id="Vector_111" d="M36.2474 15.289H23.9955C23.8228 15.289 23.6829 15.429 23.6829 15.6017V20.7115C23.6829 20.8842 23.8228 21.0242 23.9955 21.0242H36.2474C36.4201 21.0242 36.56 20.8842 36.56 20.7115V15.6017C36.56 15.429 36.4201 15.289 36.2474 15.289Z" fill="#C1D600"/>
<path id="Vector_112" d="M31.7921 14.3762H28.4493C28.1958 14.3758 27.9528 14.275 27.7736 14.0958C27.5944 13.9165 27.4935 13.6736 27.4932 13.4201V12.5617C27.4935 12.3083 27.5944 12.0653 27.7736 11.8861C27.9528 11.7069 28.1958 11.606 28.4493 11.6056H31.7921C32.0456 11.6056 32.2888 11.7064 32.4681 11.8857C32.6474 12.065 32.7482 12.3082 32.7482 12.5617V13.4159C32.7487 13.5418 32.7244 13.6666 32.6766 13.7831C32.6288 13.8996 32.5584 14.0055 32.4696 14.0947C32.3808 14.1839 32.2752 14.2547 32.1589 14.303C32.0426 14.3513 31.918 14.3762 31.7921 14.3762ZM28.4493 12.3077C28.382 12.3084 28.3176 12.3354 28.2699 12.3828C28.2222 12.4303 28.1949 12.4945 28.1938 12.5617V13.4159C28.1938 13.4844 28.221 13.5501 28.2695 13.5985C28.3179 13.6469 28.3836 13.6741 28.452 13.6741H31.7949C31.8633 13.6741 31.929 13.6469 31.9774 13.5985C32.0259 13.5501 32.0531 13.4844 32.0531 13.4159V12.5617C32.0531 12.4932 32.0259 12.4276 31.9774 12.3791C31.929 12.3307 31.8633 12.3035 31.7949 12.3035L28.4493 12.3077Z" fill="#C1D600"/>
<path id="Vector_113" opacity="0.2" d="M36.246 15.289H23.9969C23.9557 15.2889 23.9149 15.2968 23.8768 15.3124C23.8387 15.3281 23.8041 15.3511 23.7749 15.3801C23.7457 15.4092 23.7226 15.4437 23.7068 15.4817C23.691 15.5197 23.6829 15.5605 23.6829 15.6017V17.2417L30.0614 18.4979C30.1005 18.5064 30.141 18.5064 30.1801 18.4979L36.56 17.2417V15.6017C36.56 15.5605 36.5519 15.5197 36.5361 15.4817C36.5203 15.4437 36.4972 15.4092 36.468 15.3801C36.4388 15.3511 36.4042 15.3281 36.3661 15.3124C36.328 15.2968 36.2872 15.2889 36.246 15.289Z" fill="black"/>
<path id="Vector_114" d="M36.5684 16.8885L30.1773 18.1447C30.1376 18.1517 30.0969 18.1517 30.0572 18.1447L23.6661 16.8885C23.5959 16.8747 23.5326 16.8369 23.4871 16.7817C23.4415 16.7265 23.4165 16.6572 23.4163 16.5857V13.5011C23.4163 13.4605 23.4242 13.4204 23.4397 13.383C23.4552 13.3456 23.478 13.3116 23.5066 13.2829C23.5352 13.2543 23.5693 13.2316 23.6067 13.2161C23.6441 13.2006 23.6842 13.1926 23.7247 13.1926H36.5126C36.5531 13.1926 36.5932 13.2006 36.6306 13.2161C36.668 13.2316 36.702 13.2543 36.7307 13.2829C36.7593 13.3116 36.782 13.3456 36.7975 13.383C36.8131 13.4204 36.821 13.4605 36.821 13.5011V16.5912C36.8196 16.6623 36.7937 16.7307 36.7477 16.7849C36.7016 16.8391 36.6383 16.8757 36.5684 16.8885Z" fill="#C1D600"/>
<path id="Vector_115" d="M30.783 17.3087H29.4612C29.2978 17.3087 29.1653 17.4411 29.1653 17.6046V18.4406C29.1653 18.604 29.2978 18.7365 29.4612 18.7365H30.783C30.9464 18.7365 31.0789 18.604 31.0789 18.4406V17.6046C31.0789 17.4411 30.9464 17.3087 30.783 17.3087Z" fill="#C1D600"/>
<path id="Vector_116" opacity="0.4" d="M30.783 17.3087H29.4612C29.2978 17.3087 29.1653 17.4411 29.1653 17.6046V18.4406C29.1653 18.604 29.2978 18.7365 29.4612 18.7365H30.783C30.9464 18.7365 31.0789 18.604 31.0789 18.4406V17.6046C31.0789 17.4411 30.9464 17.3087 30.783 17.3087Z" fill="black"/>
</g>
<g id="Character">
<path id="Vector_117" d="M53.164 18.4532C53.3245 18.784 53.4431 19.0966 53.5827 19.4232C53.7223 19.7498 53.8242 20.075 53.9331 20.4086C54.1538 21.085 54.3167 21.7788 54.4202 22.4827C54.4341 22.5706 54.4411 22.6656 54.4509 22.7619L54.4648 22.9014C54.4648 22.9266 54.4648 22.9447 54.4648 22.974V23.0647C54.4695 23.2764 54.4513 23.4879 54.4104 23.6956C54.3412 24.0566 54.2427 24.4114 54.1159 24.7564C53.8776 25.4122 53.5805 26.0452 53.2282 26.6476L52.5192 26.3475C52.6769 25.7111 52.836 25.0621 52.956 24.4354C53.0147 24.1351 53.0562 23.8317 53.0803 23.5267C53.0885 23.402 53.0857 23.2769 53.0719 23.1527L53.0565 23.0647L53.037 22.9531C53.0216 22.8791 53.0119 22.8051 52.9937 22.7298C52.8546 22.1137 52.6746 21.5075 52.455 20.9153C52.3489 20.6124 52.2316 20.3109 52.1144 20.008C51.9972 19.7052 51.8673 19.4009 51.7473 19.1217L53.164 18.4532Z" fill="#7F3E3B"/>
<path id="Vector_118" d="M52.5497 26.1619L52.0054 26.6923L53.1931 27.2506C53.1931 27.2506 53.4807 26.7481 53.2825 26.2931L52.5497 26.1619Z" fill="#7F3E3B"/>
<path id="Vector_119" d="M51.5674 27.4837L52.5695 27.894L53.1934 27.245L52.0056 26.6923L51.5674 27.4837Z" fill="#7F3E3B"/>
<path id="Vector_120" opacity="0.2" d="M31.2382 26.9114C33.2133 26.6902 35.0784 25.8884 36.5978 24.6072C38.1171 23.3261 39.2225 21.6233 39.7742 19.714C40.3258 17.8047 40.299 15.7747 39.697 13.8806C39.0951 11.9866 37.945 10.3136 36.3923 9.07308C34.8396 7.83259 32.954 7.08034 30.9738 6.91144C28.9935 6.74254 27.0077 7.16458 25.2674 8.12419C23.527 9.0838 22.1102 10.5379 21.1962 12.3026C20.2822 14.0674 19.9119 16.0635 20.1323 18.0386C20.2786 19.3506 20.682 20.6208 21.3194 21.7768C21.9568 22.9328 22.8157 23.9519 23.8471 24.7759C24.8784 25.5998 26.062 26.2125 27.3302 26.5789C28.5984 26.9454 29.9264 27.0583 31.2382 26.9114Z" fill="#C1D600"/>
<path id="Vector_121" opacity="0.1" d="M23.9258 9.00815L39.2092 21.2154C39.2748 21.0758 39.3362 20.9362 39.3963 20.7966C39.7793 19.8853 40.0239 18.9218 40.122 17.9382L26.9211 7.39746C25.8377 7.75875 24.8245 8.30358 23.9258 9.00815Z" fill="white"/>
<path id="Vector_122" opacity="0.1" d="M20.4001 14.3581L34.768 25.8381C36.1332 25.1261 37.3165 24.1099 38.2266 22.868L22.5356 10.3286C21.5244 11.4903 20.7938 12.869 20.4001 14.3581Z" fill="white"/>
<path id="Vector_123" d="M54.8766 28.2109C54.8582 27.9569 54.7751 27.7118 54.6351 27.499C54.5334 27.3426 54.3911 27.2166 54.2233 27.1348L53.2701 26.6672C52.6364 26.3531 51.9985 26.0475 51.3607 25.7418C50.7228 25.4361 50.0808 25.136 49.4415 24.8332C48.8023 24.5303 48.1574 24.2358 47.5112 23.9469C46.2215 23.3625 44.9235 22.794 43.6171 22.2413C42.9638 21.9621 42.3092 21.6941 41.649 21.4317C41.4563 21.3558 41.2996 21.2095 41.2107 21.0224C41.1218 20.8353 41.1074 20.6214 41.1703 20.424C42.054 17.6378 41.8528 14.6207 40.6069 11.9765C39.361 9.33242 37.1624 7.25642 34.4512 6.16412C31.74 5.07183 28.7163 5.04386 25.9854 6.0858C23.2544 7.12774 21.0178 9.16271 19.7232 11.7833C18.4286 14.404 18.1716 17.4169 19.0036 20.2189C19.8356 23.021 21.6952 25.4054 24.2102 26.8948C26.7252 28.3843 29.7099 28.8689 32.567 28.2516C35.424 27.6343 37.9425 25.9607 39.6182 23.5658C39.7369 23.3956 39.9157 23.2768 40.1187 23.2335C40.3216 23.1903 40.5334 23.2257 40.7111 23.3327C41.3215 23.6956 41.9347 24.0525 42.5507 24.4033C43.7817 25.1049 45.0221 25.7888 46.2718 26.455C46.8957 26.7928 47.5279 27.118 48.149 27.4488C48.7702 27.7796 49.4052 28.102 50.0375 28.4258C50.6698 28.7496 51.2937 29.0665 51.9343 29.3791L52.8848 29.8509C53.0518 29.9349 53.2386 29.9715 53.425 29.957C53.6786 29.939 53.9233 29.8558 54.1354 29.7155C54.3883 29.5602 54.5921 29.3364 54.7233 29.0702C54.8544 28.804 54.9075 28.506 54.8766 28.2109ZM26.0725 25.1235C24.45 24.3228 23.1013 23.059 22.197 21.4918C21.2928 19.9247 20.8736 18.1245 20.9925 16.3191C21.1113 14.5137 21.7629 12.7841 22.8648 11.349C23.9668 9.91391 25.4695 8.83783 27.183 8.25683C28.8965 7.67583 30.7438 7.61602 32.4913 8.08496C34.2388 8.5539 35.808 9.53053 37.0005 10.8913C38.1929 12.2521 38.955 13.936 39.1904 15.7299C39.4258 17.5239 39.124 19.3474 38.323 20.9697C37.7914 22.0469 37.0528 23.0088 36.1495 23.8005C35.2461 24.5922 34.1956 25.1982 33.0581 25.5839C31.9205 25.9697 30.7181 26.1275 29.5195 26.0485C28.3209 25.9695 27.1496 25.6552 26.0725 25.1235Z" fill="#C1D600"/>
<path id="Vector_124" d="M47.9007 14.1389C47.9007 14.2213 47.8575 14.2883 47.803 14.2883C47.7486 14.2883 47.7053 14.2213 47.7053 14.1389C47.7053 14.0566 47.7486 13.9882 47.803 13.9882C47.8575 13.9882 47.9007 14.0552 47.9007 14.1389Z" fill="#263238"/>
<path id="Vector_125" d="M47.8643 14.2883C47.7662 14.5411 47.6338 14.7792 47.4707 14.9959C47.5272 15.0363 47.5918 15.0639 47.66 15.0766C47.7282 15.0894 47.7985 15.0871 47.8657 15.0699L47.8643 14.2883Z" fill="#630F0F"/>
<path id="Vector_126" d="M48.1937 13.6783C48.2039 13.6781 48.2137 13.6746 48.2218 13.6685C48.2299 13.6624 48.2359 13.654 48.2389 13.6443C48.242 13.6346 48.242 13.6243 48.2389 13.6146C48.2358 13.6049 48.2298 13.5965 48.2217 13.5904C48.16 13.5442 48.0882 13.5133 48.0123 13.5001C47.9364 13.487 47.8584 13.4922 47.7848 13.515C47.7782 13.5168 47.7721 13.52 47.7668 13.5243C47.7615 13.5286 47.7571 13.534 47.7541 13.5401C47.751 13.5462 47.7492 13.5529 47.7488 13.5597C47.7485 13.5665 47.7496 13.5733 47.752 13.5797C47.7545 13.5861 47.7583 13.5919 47.7631 13.5967C47.7679 13.6015 47.7737 13.6053 47.7801 13.6078C47.7864 13.6102 47.7933 13.6113 47.8001 13.611C47.8069 13.6106 47.8136 13.6088 47.8197 13.6058C47.8783 13.5883 47.9401 13.5849 48.0003 13.5959C48.0604 13.6068 48.1171 13.6317 48.1658 13.6686C48.1737 13.675 48.1836 13.6785 48.1937 13.6783Z" fill="#263238"/>
<path id="Vector_127" d="M50.7243 14.7614C50.5764 15.5124 50.4298 16.8872 50.9546 17.3868C50.9546 17.3868 50.7494 18.1475 49.3565 18.1475C47.8212 18.1475 48.6237 17.3868 48.6237 17.3868C49.4612 17.1873 49.4388 16.5661 49.2923 15.9911L50.7243 14.7614Z" fill="#7F3E3B"/>
<path id="Vector_128" d="M51.224 16.9165C51.3399 16.9542 51.1891 17.6437 51.1891 17.6437C51.1891 17.6437 50.9979 18.1252 48.6223 17.9577C48.4395 17.9438 48.5093 17.2822 48.6838 17.1859C49.2462 16.8788 50.85 16.7937 51.224 16.9165Z" fill="#263238"/>
<path id="Vector_129" d="M56.0488 45.754C56.1773 45.7415 56.3643 45.5056 56.4173 45.419C56.4197 45.4153 56.4209 45.4109 56.4209 45.4065C56.4209 45.402 56.4197 45.3977 56.4173 45.3939C56.415 45.3898 56.4115 45.3865 56.4073 45.3845C56.403 45.3825 56.3982 45.3819 56.3936 45.3827C56.3796 45.3827 56.0419 45.447 55.9595 45.5782C55.9508 45.5919 55.9451 45.6073 55.9427 45.6234C55.9403 45.6395 55.9413 45.656 55.9456 45.6717C55.9637 45.7331 55.9986 45.7498 56.0265 45.754H56.0488ZM56.3433 45.4428C56.2526 45.5684 56.1033 45.7149 56.0321 45.7052C56.0251 45.7052 56.0042 45.7052 55.9916 45.6577C55.9889 45.6486 55.9882 45.639 55.9897 45.6295C55.9911 45.6201 55.9946 45.6112 56 45.6033C56.0962 45.5172 56.2156 45.4614 56.3433 45.4428Z" fill="#C1D600"/>
<path id="Vector_130" d="M56.3296 45.4428C56.3546 45.4406 56.3793 45.4364 56.4036 45.4302C56.4077 45.4289 56.4114 45.4265 56.4143 45.4233C56.4173 45.4202 56.4193 45.4163 56.4203 45.4121C56.4211 45.4077 56.4208 45.4032 56.4193 45.3991C56.4179 45.3949 56.4153 45.3912 56.412 45.3883C56.4036 45.38 56.1775 45.1873 56.0239 45.2027C56.0055 45.2039 55.9875 45.209 55.9711 45.2177C55.9547 45.2263 55.9404 45.2384 55.929 45.2529C55.9159 45.2656 55.9077 45.2825 55.9059 45.3007C55.9041 45.3189 55.9088 45.3371 55.9193 45.352C55.9695 45.4316 56.19 45.4567 56.3296 45.4428ZM56.3408 45.3939C56.2012 45.4107 55.9974 45.3828 55.9583 45.3255C55.9583 45.3255 55.9472 45.3074 55.9667 45.2823C55.9746 45.273 55.9841 45.2655 55.9949 45.26C56.0057 45.2545 56.0175 45.2511 56.0295 45.2502C56.1452 45.2662 56.2536 45.3162 56.3408 45.3939Z" fill="#C1D600"/>
<path id="Vector_131" d="M46.4532 49.4249C46.5589 49.4245 46.6645 49.4151 46.7686 49.3969C46.7733 49.3957 46.7776 49.3932 46.781 49.3898C46.7844 49.3863 46.7869 49.3821 46.7882 49.3774C46.789 49.3724 46.7883 49.3673 46.786 49.3628C46.7837 49.3583 46.7801 49.3546 46.7756 49.3523C46.7603 49.3425 46.4029 49.1387 46.2313 49.1848C46.1991 49.193 46.1715 49.2136 46.1545 49.242C46.1436 49.2575 46.1377 49.2761 46.1377 49.2951C46.1377 49.314 46.1436 49.3326 46.1545 49.3481C46.1992 49.4095 46.322 49.4249 46.4532 49.4249ZM46.6905 49.3607C46.4992 49.3872 46.2396 49.3858 46.1922 49.3202C46.1852 49.3118 46.1796 49.2964 46.1922 49.2657C46.1973 49.2571 46.2042 49.2497 46.2123 49.2439C46.2205 49.2382 46.2298 49.2342 46.2396 49.2322C46.3499 49.2029 46.5648 49.2964 46.6905 49.3607Z" fill="#C1D600"/>
<path id="Vector_132" d="M46.7576 49.3969C46.7626 49.3984 46.7679 49.3984 46.7729 49.3969C46.7761 49.3942 46.7787 49.3908 46.7804 49.3869C46.7821 49.383 46.7829 49.3788 46.7827 49.3746C46.7827 49.3634 46.7534 49.0871 46.6236 48.9796C46.6043 48.9636 46.5821 48.9516 46.5581 48.9444C46.5341 48.9372 46.5089 48.9349 46.484 48.9377C46.417 48.9447 46.3989 48.9782 46.3933 49.0061C46.3751 49.122 46.6208 49.3439 46.7436 49.3997L46.7576 49.3969ZM46.5077 48.9782C46.5389 48.9791 46.5689 48.9904 46.5929 49.0103C46.6704 49.0988 46.719 49.2089 46.7325 49.3257C46.6054 49.2504 46.4393 49.0759 46.4533 49.0061C46.4533 49.0061 46.4533 48.9838 46.5008 48.9796L46.5077 48.9782Z" fill="#C1D600"/>
<path id="Vector_133" d="M47.8909 49.3732H46.8665L46.7632 46.9976H47.7891L47.8909 49.3732Z" fill="#7F3E3B"/>
<path id="Vector_134" d="M57.3135 44.6681L56.5138 45.3088L54.4788 43.8963L55.2799 43.2556L57.3135 44.6681Z" fill="#7F3E3B"/>
<path id="Vector_135" d="M56.3673 45.2683L57.1852 44.4574C57.1998 44.4432 57.2188 44.4345 57.2391 44.4324C57.2593 44.4304 57.2797 44.4353 57.2968 44.4462L58.0826 44.9515C58.1017 44.9638 58.1177 44.9803 58.1294 44.9997C58.1411 45.0191 58.1483 45.041 58.1503 45.0636C58.1523 45.0862 58.1492 45.109 58.1411 45.1302C58.133 45.1514 58.1201 45.1704 58.1036 45.1859C57.8133 45.4651 57.6583 45.5851 57.2982 45.941C57.0777 46.1616 56.5375 46.8176 56.2319 47.1204C55.9262 47.4233 55.5856 47.1609 55.6847 47.0088C56.1244 46.3305 56.2737 45.7708 56.2933 45.4302C56.2975 45.369 56.3238 45.3115 56.3673 45.2683Z" fill="#263238"/>
<path id="Vector_136" d="M46.8719 49.2546H47.9885C48.0087 49.2544 48.0284 49.2613 48.0442 49.274C48.0599 49.2868 48.0708 49.3045 48.075 49.3244L48.2774 50.2358C48.2825 50.2577 48.2825 50.2804 48.2775 50.3024C48.2725 50.3243 48.2625 50.3448 48.2484 50.3623C48.2343 50.3797 48.2163 50.3938 48.196 50.4033C48.1756 50.4128 48.1533 50.4176 48.1308 50.4172C47.7261 50.4172 47.1427 50.3879 46.6346 50.3879C46.0414 50.3879 45.5292 50.42 44.8327 50.42C44.414 50.42 44.2953 49.9943 44.4712 49.9552C45.2737 49.7808 45.9284 49.7612 46.6206 49.3341C46.6953 49.2847 46.7824 49.2571 46.8719 49.2546Z" fill="#263238"/>
<path id="Vector_137" d="M52.9756 17.6939C53.8647 18.1126 54.2318 20.9823 54.2318 20.9823L52.187 21.7849C51.8696 21.0079 51.6125 20.2076 51.418 19.3911C51.1318 18.0959 52.0614 17.2584 52.9756 17.6939Z" fill="#C1D600"/>
<path id="Vector_138" opacity="0.3" d="M52.9756 17.6939C53.8647 18.1126 54.2318 20.9823 54.2318 20.9823L52.187 21.7849C51.8696 21.0079 51.6125 20.2076 51.418 19.3911C51.1318 18.0959 52.0614 17.2584 52.9756 17.6939Z" fill="white"/>
<path id="Vector_139" opacity="0.2" d="M51.651 18.5355C51.5813 18.5017 51.5083 18.475 51.4333 18.456C51.3517 18.762 51.3488 19.0837 51.4249 19.3911C51.6186 20.2076 51.8753 21.0079 52.1925 21.7848L52.8667 21.521C52.7425 20.7715 52.3614 18.8761 51.651 18.5355Z" fill="black"/>
<path id="Vector_140" d="M47.0463 17.6716C47.0463 17.6716 45.9548 18.904 46.9849 26.5346H52.4702C52.5079 25.6971 51.9789 21.5852 52.7912 17.6185C52.1846 17.5019 51.571 17.4245 50.9544 17.3868C50.1781 17.3421 49.3998 17.3421 48.6235 17.3868C48.0911 17.4405 47.5638 17.5357 47.0463 17.6716Z" fill="#C1D600"/>
<path id="Vector_141" opacity="0.3" d="M47.0463 17.6716C47.0463 17.6716 45.9548 18.904 46.9849 26.5346H52.4702C52.5079 25.6971 51.9789 21.5852 52.7912 17.6185C52.1846 17.5019 51.571 17.4245 50.9544 17.3868C50.1781 17.3421 49.3998 17.3421 48.6235 17.3868C48.0911 17.4405 47.5638 17.5357 47.0463 17.6716Z" fill="white"/>
<path id="Vector_142" opacity="0.2" d="M48.1531 19.3074C47.9047 18.5621 47.3073 18.3234 46.6988 18.7658C46.576 19.4888 46.4894 20.6543 46.5885 22.5023L47.6591 22.4925C47.6591 22.4925 48.5202 20.417 48.1531 19.3074Z" fill="black"/>
<path id="Vector_143" d="M47.9521 19.0017C47.9075 19.3758 47.8461 19.7149 47.7777 20.0681C47.7093 20.4212 47.6297 20.7659 47.539 21.1135C47.3599 21.8238 47.116 22.5162 46.8104 23.182C46.7308 23.3537 46.6387 23.5225 46.541 23.6914C46.4908 23.7766 46.4405 23.8617 46.3833 23.9455C46.3091 24.0618 46.2215 24.1691 46.1223 24.2651C45.9297 24.4437 45.7013 24.5793 45.4523 24.6629C45.2502 24.7337 45.041 24.7828 44.8284 24.8094C44.4491 24.8565 44.0657 24.8611 43.6853 24.8234C43.4992 24.8085 43.3178 24.7848 43.141 24.7522C42.9595 24.7201 42.7879 24.6866 42.6008 24.6377L42.6916 23.8729C43.3286 23.8461 43.9611 23.7526 44.5786 23.5937C44.7042 23.5565 44.8261 23.508 44.9429 23.4486C45.0196 23.4134 45.0866 23.3603 45.1383 23.2936C45.1271 23.3034 45.229 23.1345 45.289 23.0145C45.3491 22.8945 45.4161 22.7353 45.4733 22.5958C45.5905 22.3082 45.691 22.004 45.7831 21.6927C45.8753 21.3815 45.9562 21.0646 46.0316 20.7436C46.1069 20.4226 46.1712 20.0988 46.2409 19.7666C46.3107 19.4344 46.361 19.105 46.4112 18.7965L47.9521 19.0017Z" fill="#7F3E3B"/>
<path id="Vector_144" d="M48.417 18.4239C48.706 19.3604 47.5335 22.1519 47.5335 22.1519L45.0645 21.5308C45.2156 20.6485 45.47 19.787 45.8223 18.964C46.6179 17.2221 48.0695 17.2947 48.417 18.4239Z" fill="#C1D600"/>
<path id="Vector_145" opacity="0.3" d="M48.417 18.4239C48.706 19.3604 47.5335 22.1519 47.5335 22.1519L45.0645 21.5308C45.2156 20.6485 45.47 19.787 45.8223 18.964C46.6179 17.2221 48.0695 17.2947 48.417 18.4239Z" fill="white"/>
<path id="Vector_146" d="M42.7267 23.8771L41.5654 23.8478L42.1237 25.0551C42.1237 25.0551 42.5955 25.1179 42.9835 24.48L43.3925 23.9929L42.9221 23.898C42.8577 23.8855 42.7923 23.8785 42.7267 23.8771Z" fill="#7F3E3B"/>
<path id="Vector_147" d="M40.8325 24.0725L41.4983 25.0732L42.125 25.0551L41.5653 23.8478L40.8325 24.0725Z" fill="#7F3E3B"/>
<path id="Vector_148" opacity="0.2" d="M46.7644 46.999L46.8161 48.2231H47.8419L47.7889 46.999H46.7644Z" fill="black"/>
<path id="Vector_149" opacity="0.2" d="M55.2799 43.2556L54.4788 43.8963L55.5284 44.6249L56.3295 43.9842L55.2799 43.2556Z" fill="black"/>
<path id="Vector_150" d="M50.6656 13.9575C50.6042 14.9736 50.6209 15.571 50.1073 16.093C49.3369 16.8774 48.0821 16.414 47.8392 15.3951C47.6201 14.4823 47.7583 12.9749 48.752 12.5687C48.9712 12.4781 49.2099 12.4451 49.4454 12.473C49.6809 12.5008 49.9053 12.5886 50.0972 12.7279C50.2892 12.8672 50.4422 13.0533 50.5417 13.2686C50.6412 13.4839 50.6839 13.721 50.6656 13.9575Z" fill="#7F3E3B"/>
<path id="Vector_151" d="M51.4862 13.0139C51.4862 13.0139 52.0208 13.1731 51.8533 13.783C51.6007 14.7098 51.0061 15.7761 50.2384 15.8431C49.2823 15.9283 48.8511 14.9415 48.7254 13.9212C48.1532 13.529 47.7289 13.1619 47.8657 12.7543C48.075 12.1262 48.8343 11.5847 50.043 11.7243C51.2517 11.8638 51.8533 12.6455 51.4862 13.0139Z" fill="#263238"/>
<path id="Vector_152" d="M49.3074 14.1306C49.2889 14.3826 49.1878 14.6215 49.0199 14.8103C48.7966 15.0559 48.5621 14.9024 48.523 14.6037C48.4881 14.333 48.5607 13.8793 48.8343 13.7439C49.1078 13.6086 49.3256 13.8263 49.3074 14.1306Z" fill="#7F3E3B"/>
<path id="Vector_153" d="M48.9306 26.5346C48.9306 26.5346 48.5845 33.4463 49.2586 36.3746C50.3264 41.0113 55.0203 44.7267 55.0203 44.7267L56.5277 43.5194C56.5277 43.5194 52.6657 40.6456 52.3181 36.7849C52.0069 33.3179 52.4675 29.3358 52.4675 26.5346H48.9306Z" fill="#C1D600"/>
<path id="Vector_154" opacity="0.2" d="M48.9306 26.5346C48.9306 26.5346 48.5845 33.4463 49.2586 36.3746C50.3264 41.0113 55.0203 44.7267 55.0203 44.7267L56.5277 43.5194C56.5277 43.5194 52.6657 40.6456 52.3181 36.7849C52.0069 33.3179 52.4675 29.3358 52.4675 26.5346H48.9306Z" fill="black"/>
<path id="Vector_155" opacity="0.2" d="M49.4458 28.5822C49.3062 28.3128 49.0341 29.1153 48.8442 30.1454C48.8442 31.5663 48.8694 33.1825 48.9936 34.5518C49.9413 32.8001 49.7403 29.1405 49.4458 28.5822Z" fill="black"/>
<path id="Vector_156" d="M54.3364 44.4295L54.9087 44.8733L56.6492 43.4622L56.1272 42.9891L54.3364 44.4295Z" fill="#2C6BDB"/>
<path id="Vector_157" opacity="0.4" d="M54.3364 44.4295L54.9087 44.8733L56.6492 43.4622L56.1272 42.9891L54.3364 44.4295Z" fill="#FAFAFA"/>
<path id="Vector_158" d="M46.985 26.5346C46.985 26.5346 45.4413 33.0806 45.3325 36.2071C45.211 39.7146 46.4337 47.9858 46.4337 47.9858H48.1714C48.1714 47.9858 48.385 39.6504 48.4631 36.4555C48.5469 32.9731 50.5902 26.5346 50.5902 26.5346H46.985Z" fill="#C1D600"/>
<path id="Vector_159" opacity="0.2" d="M46.985 26.5346C46.985 26.5346 45.4413 33.0806 45.3325 36.2071C45.211 39.7146 46.4337 47.9858 46.4337 47.9858H48.1714C48.1714 47.9858 48.385 39.6504 48.4631 36.4555C48.5469 32.9731 50.5902 26.5346 50.5902 26.5346H46.985Z" fill="black"/>
<path id="Vector_160" d="M46.1001 47.2935C46.0917 47.2935 46.1978 48.0151 46.1978 48.0151H48.3109L48.3682 47.3717L46.1001 47.2935Z" fill="#2C6BDB"/>
<path id="Vector_161" opacity="0.4" d="M46.1001 47.2935C46.0917 47.2935 46.1978 48.0151 46.1978 48.0151H48.3109L48.3682 47.3717L46.1001 47.2935Z" fill="#FAFAFA"/>
</g>
</g>
</svg>
