<svg width="20" height="20" viewBox="0 0 20 20" fill="none" xmlns="http://www.w3.org/2000/svg">
<g id="hugeicons:contact">
<g id="Group">
<path id="Vector" d="M6.6665 3.33332V1.66666M13.3332 3.33332V1.66666M9.99984 18.3333C6.66067 18.3333 4.9915 18.3333 3.954 17.235C2.9165 16.1367 2.9165 14.3683 2.9165 10.8333C2.9165 7.29832 2.9165 5.52999 3.954 4.43166C4.9915 3.33332 6.66067 3.33332 9.99984 3.33332C13.339 3.33332 15.0082 3.33332 16.0457 4.43166C17.0832 5.52999 17.0832 7.29832 17.0832 10.8333C17.0832 14.3683 17.0832 16.1367 16.0457 17.235C15.0082 18.3333 13.339 18.3333 9.99984 18.3333Z" stroke="#003057" stroke-linecap="round" stroke-linejoin="round"/>
<path id="Vector_2" d="M11.6814 7.91084C11.6814 8.35287 11.5058 8.77679 11.1932 9.08935C10.8806 9.40191 10.4567 9.5775 10.0147 9.5775C9.57267 9.5775 9.14874 9.40191 8.83618 9.08935C8.52362 8.77679 8.34803 8.35287 8.34803 7.91084C8.34803 7.46881 8.52362 7.04489 8.83618 6.73233C9.14874 6.41977 9.57267 6.24417 10.0147 6.24417C10.4567 6.24417 10.8806 6.41977 11.1932 6.73233C11.5058 7.04489 11.6814 7.46881 11.6814 7.91084ZM6.71886 13.93C7.60053 12.5717 9.00136 12.0633 10.0147 12.0642C11.028 12.065 12.388 12.5725 13.2697 13.9308C13.3264 14.0183 13.3422 14.1258 13.2905 14.2175C13.0847 14.5833 12.4439 15.3092 11.9822 15.3583C11.4505 15.4142 10.0597 15.4225 10.0155 15.4225C9.97136 15.4225 8.53886 15.4142 8.00719 15.3583C7.54386 15.3083 6.90386 14.5833 6.69719 14.2167C6.64636 14.1258 6.66219 14.0183 6.71886 13.93Z" stroke="#003057" stroke-linecap="round" stroke-linejoin="round"/>
</g>
</g>
</svg>
