<?xml version="1.0" encoding="UTF-8"?>
<svg width="131px" height="80px" viewBox="0 0 131 80" version="1.1" xmlns="http://www.w3.org/2000/svg" xmlns:xlink="http://www.w3.org/1999/xlink">
    <title>Logo</title>
    <defs>
        <polygon id="path-1" points="0 0 50.7142267 0 50.7142267 79.9999232 0 79.9999232"></polygon>
        <polygon id="path-3" points="0 80 130.673757 80 130.673757 0 0 0"></polygon>
    </defs>
    <g id="_export" stroke="none" stroke-width="1" fill="none" fill-rule="evenodd">
        <g id="Logo">
            <g id="Group-3" transform="translate(0.000000, 0.000077)">
                <mask id="mask-2" fill="white">
                    <use xlink:href="#path-1"></use>
                </mask>
                <g id="Clip-2"></g>
                <path d="M15.1125104,66.3440107 C18.2103151,71.7770717 21.6006988,76.4038127 25.1316125,80 C40.388723,72.2524166 50.3325686,60.3065936 50.6965645,46.9170738 L50.7142267,46.9170738 L50.7142267,44.6609136 L50.7142267,44.6540023 L50.7142267,36.0939555 L50.7142267,36.0732215 L50.7142267,33.5551993 L50.7134588,33.5551993 L50.7134588,10.8077599 L50.7134588,0 L-0.000230377147,15.886808 C0.418288106,20.4452038 1.94568859,29.4183937 1.89577354,29.1557637 C1.94568859,29.4183937 1.99253194,29.6756482 2.04475076,29.9382781 C2.91020091,34.3016213 3.96609616,38.5228985 5.17404034,42.5729288 L5.17020072,42.5729288 C5.20629314,42.6950287 5.24161763,42.8178965 5.27847797,42.9392284 C5.35910998,43.2072338 5.44281367,43.4721676 5.52651737,43.7394051 C5.61252484,44.0227689 5.69853231,44.3076687 5.78761147,44.5887288 C5.84290198,44.7622796 5.89665665,44.9365983 5.95117924,45.1101491 C5.95962641,45.1347226 5.96730564,45.1600641 5.97652073,45.1854056 C6.42652409,46.5907062 6.89726139,47.9714332 7.38412509,49.3275867 C7.40485904,49.3882527 7.42559298,49.4504545 7.44786277,49.5103526 C7.50084952,49.6585619 7.55537211,49.8052353 7.60912677,49.9519088 C7.71740403,50.2498632 7.82952091,50.5424422 7.93933402,50.8373249 C8.04530751,51.1214568 8.15051307,51.4094282 8.2580224,51.6904883 C8.31100915,51.8294825 8.36322797,51.9677088 8.41621471,52.1051672 C8.42619772,52.1320445 8.43771658,52.1581539 8.44769959,52.1850312 C8.70495407,52.8500533 8.96604817,53.5089319 9.23328566,54.1608992 C9.26016299,54.2284765 9.28704033,54.2952859 9.31545351,54.3620953 C9.55965328,54.9580042 9.80615683,55.5470017 10.0565,56.1298559 C10.1025754,56.2342936 10.1463471,56.3394991 10.1908867,56.4431688 C10.4658034,57.0782418 10.7453277,57.7071714 11.0294595,58.3284218 C11.0486576,58.3737293 11.0693915,58.417501 11.0901255,58.4612726 C11.1170028,58.5219386 11.1438801,58.5803008 11.1715254,58.639431 C11.3550592,59.0402872 11.5439684,59.4326963 11.7305739,59.8274091 C11.7996871,59.9740826 11.8672644,60.1230598 11.9379134,60.2689653 C12.0001152,60.4002803 12.0630849,60.5315953 12.1260547,60.6613744 C12.4240091,61.2757134 12.7258032,61.8839091 13.0291331,62.4813538 C13.0414199,62.5020878 13.0514029,62.5228217 13.0621538,62.5427878 C13.3148008,63.0380986 13.5720553,63.5241944 13.8300777,64.0079864 C13.8707776,64.0855467 13.9114776,64.1638749 13.9514096,64.2398994 C14.0258982,64.3788936 14.1011548,64.5171199 14.1748755,64.6545783 C14.472062,65.2028759 14.7723202,65.7442622 15.0748822,66.2772013 C15.087169,66.2987032 15.0994557,66.3217409 15.1125104,66.3440107" id="Fill-1" fill="#FFFFFF" mask="url(#mask-2)"></path>
            </g>
            <path d="M42.5508126,53.1832554 C45.2239554,51.1275233 47.6413796,48.9458518 49.784655,46.6989067 L49.784655,11.4926711 C40.6071974,9.08446202 27.0471985,12.1016347 14.3802951,20.2301084 C10.03615,23.0215115 6.19499506,26.1561765 2.95435653,29.4513376 C3.69079547,33.2840454 4.70599077,37.7349319 6.08211025,42.481469 C19.5184734,42.481469 32.0356317,46.413239 42.5508126,53.1832554" id="Fill-4" fill="#C4D82E"></path>
            <path d="M42.5508126,53.1832554 C32.0356317,46.413239 19.5184734,42.481469 6.08211025,42.481469 C8.23306488,49.8788792 11.2740432,57.9835472 15.550611,65.5514365 C22.5341102,64.3634583 30.2755503,61.3570366 37.707517,56.5889976 C39.4000211,55.5016174 41.0188045,54.3635543 42.5508126,53.1832554" id="Fill-6" fill="#5F7795"></path>
            <path d="M14.3806022,20.2292637 C27.0467378,12.1015579 40.6067366,9.08361731 49.7849621,11.4925943 L49.7849621,1.04959828 L1.09398428,16.4787237 C1.09398428,16.4787237 1.46565941,21.7036774 2.95389577,29.4504929 C6.19530223,26.1553318 10.0364572,23.0206667 14.3806022,20.2292637" id="Fill-8" fill="#002A4E"></path>
            <path d="M37.7092832,56.5890744 C30.2750127,61.3571134 22.5343406,64.3635351 15.5516093,65.5522812 C18.2554691,70.3356787 21.4500322,74.9048254 25.2289853,78.9456406 C40.2211621,70.7042821 49.7856533,60.0178542 49.7856533,46.7081985 L49.7856533,46.6989835 C46.4090922,50.2360406 42.3498469,53.6102979 37.7092832,56.5890744" id="Fill-10" fill="#002A4E"></path>
            <path d="M29.8177909,23.054609 C27.12545,23.054609 25.8568398,25.5058218 25.8568398,29.3116523 C25.8568398,32.4010098 26.8589804,35.2707411 29.8177909,35.2707411 C32.2620924,35.2707411 33.8010117,33.1574148 33.8010117,29.1526921 C33.8010117,25.3706672 32.3964791,23.054609 29.8177909,23.054609 L29.8177909,23.054609 Z M38.2603454,40.413527 C37.5016366,40.6078117 36.802826,40.6761569 35.9780758,40.6761569 C33.8463192,40.6761569 32.3542433,40.0111349 30.6863127,38.3186308 L28.9485011,36.5616211 C27.7490041,35.3383184 26.4358544,35.7852501 24.6158749,33.9583593 C23.5891608,32.9370206 22.7459804,31.1769392 22.7459804,29.1526921 C22.7459804,25.191741 25.6994154,22.3227776 29.8177909,22.3227776 C33.9576682,22.3227776 36.9126391,25.191741 36.9126391,29.1526921 C36.9126391,32.3342004 35.0005087,34.8468472 32.0655039,35.6946351 L31.9963908,35.7169049 L35.0005087,38.6718757 C35.9780758,39.6555862 36.6768865,39.9888651 38.2603454,40.0111349 L38.2603454,40.413527 Z" id="Fill-12" fill="#FFFFFF"></path>
            <path d="M49.7845782,33.68183 L46.9117752,33.68183 L46.9117752,44.0249959 C45.7122781,45.2736401 44.6894036,45.828849 43.5759141,45.828849 C42.0654079,45.828849 41.1277729,44.8720159 41.1277729,43.2739664 L41.1277729,33.68183 L36.6116129,33.68183 L36.6116129,34.0573447 C37.9700702,34.3929274 38.2595774,34.730046 38.2595774,35.8850034 L38.2595774,42.7172217 C38.2595774,45.3419853 39.9958532,47.0321856 42.729662,47.0321856 C44.3545888,47.0321856 45.3121898,46.56452 46.9117752,44.961863 L46.9117752,46.6989067 L49.7845782,46.6989067 L49.7845782,33.68183 Z" id="Fill-14" fill="#002A4E"></path>
            <path d="M21.6931568,32.7942636 C20.3846146,34.141202 19.1674554,34.7378788 17.6362153,34.7378788 C15.1642685,34.7378788 12.941897,33.0922181 12.941897,28.7089089 C12.941897,25.2593951 14.4777446,23.0546858 16.902848,23.0546858 C18.7673671,23.0546858 20.2149035,24.1451376 20.9820594,26.076466 L21.6893172,26.076466 L21.6893172,22.3228544 L16.8590764,22.3228544 C12.8520499,22.3228544 9.82796587,25.3492422 9.82796587,29.3547328 C9.82796587,33.2918782 12.5656143,36.006489 16.5472993,36.006489 C18.7427935,36.006489 20.3976694,35.2017048 21.6931568,33.5130403 L21.6931568,32.7942636 Z" id="Fill-16" fill="#002A4E"></path>
            <path d="M56.2826728,54.4333586 L55.2989623,52.1771984 L54.3006614,54.4333586 L56.2826728,54.4333586 Z M52.3340085,56.3739021 L55.3081774,50.1260739 L55.3941849,50.1260739 L58.2631483,56.3739021 L57.1435154,56.3739021 L56.6581875,55.2972729 L53.9067165,55.2972729 L53.4091018,56.3739021 L52.3340085,56.3739021 Z" id="Fill-18" fill="#002A4E"></path>
            <path d="M60.5610067,53.8537297 C60.5610067,55.0217418 61.0647648,55.6214903 62.0323488,55.6214903 C62.9807347,55.6214903 63.4867965,55.0125268 63.4867965,53.8268524 L63.4867965,50.3243518 L64.4313428,50.3243518 L64.4313428,53.8437467 C64.4313428,55.6115073 63.451472,56.5683404 62.0070073,56.5683404 C60.4227805,56.5683404 59.4843775,55.6299375 59.4843775,53.8614089 L59.4843775,50.3243518 L60.5610067,50.3243518 L60.5610067,53.8537297 Z" id="Fill-20" fill="#002A4E"></path>
            <path d="M68.0430421,55.646755 C68.7003849,55.646755 69.11276,55.2781516 69.11276,54.7989671 C69.11276,54.3489638 68.8324678,54.0571527 68.2212005,53.6969965 L67.7711971,53.4236156 C66.935696,52.9275368 66.4964436,52.4598712 66.4964436,51.7149851 C66.4964436,50.7857972 67.2267391,50.1169356 68.3333173,50.1169356 C68.8662565,50.1169356 69.3515843,50.2367317 69.8561103,50.4847711 L69.8207858,51.4500514 C69.2594335,51.1428818 68.7979112,50.9724027 68.4101097,50.9724027 C67.8372385,50.9724027 67.5139426,51.251927 67.5139426,51.66507 C67.5139426,52.0390489 67.7896273,52.2786412 68.3425324,52.6034729 L68.7794811,52.8607274 C69.7032934,53.4082571 70.1809421,53.9396604 70.1809421,54.7720898 C70.1809421,55.8241454 69.3961239,56.5774787 68.094493,56.5774787 C67.520086,56.5774787 66.9687167,56.4584505 66.4641908,56.2180904 L66.371272,55.0301122 C66.9971299,55.4317364 67.5285332,55.646755 68.0430421,55.646755" id="Fill-22" fill="#002A4E"></path>
            <polygon id="Fill-24" fill="#002A4E" points="74.5823742 56.3734414 73.5134243 56.3734414 73.5134243 51.2414065 71.469979 51.2414065 71.469979 50.3245054 76.6166044 50.3245054 76.6166044 51.2414065 74.5823742 51.2414065"></polygon>
            <path d="M79.7823704,53.0835021 C80.7215412,53.0835021 81.1930464,52.7333289 81.1930464,52.1182219 C81.1930464,51.4501281 80.6885205,51.1828907 79.6871478,51.1828907 L79.2939708,51.1828907 L79.2939708,53.0835021 L79.7823704,53.0835021 Z M78.2518982,50.3243518 L79.6533592,50.3243518 C80.4228189,50.3243518 81.0233353,50.3758027 81.5455235,50.7436382 C81.9962948,51.0607908 82.2512455,51.5345998 82.2512455,52.0314465 C82.2512455,52.8262476 81.7812761,53.4244603 80.9288807,53.7139676 L82.8824789,56.3732878 L81.6468894,56.3732878 L79.8084798,53.8614089 L79.2939708,53.8614089 L79.2939708,56.3732878 L78.2518982,56.3732878 L78.2518982,50.3243518 Z" id="Fill-26" fill="#002A4E"></path>
            <path d="M87.5575991,54.4333586 L86.5761924,52.1771984 L85.5771235,54.4333586 L87.5575991,54.4333586 Z M83.6097027,56.3739021 L86.5838717,50.1260739 L86.671415,50.1260739 L89.5388425,56.3739021 L88.4215134,56.3739021 L87.9323459,55.2972729 L85.1824107,55.2972729 L84.6886357,56.3739021 L83.6097027,56.3739021 Z" id="Fill-28" fill="#002A4E"></path>
            <polygon id="Fill-30" fill="#002A4E" points="90.9907561 50.3241982 92.0527948 50.3241982 92.0527948 55.4239803 94.6453056 55.4239803 94.6453056 56.3731342 90.9907561 56.3731342"></polygon>
            <mask id="mask-4" fill="white">
                <use xlink:href="#path-3"></use>
            </mask>
            <g id="Clip-33"></g>
            <polygon id="Fill-32" fill="#002A4E" mask="url(#mask-4)" points="96.3083982 56.3732878 97.3781161 56.3732878 97.3781161 50.3243518 96.3083982 50.3243518"></polygon>
            <path d="M102.796049,54.4333586 L101.813107,52.1771984 L100.81327,54.4333586 L102.796049,54.4333586 Z M98.8466168,56.3739021 L101.82309,50.1260739 L101.908329,50.1260739 L104.777292,56.3739021 L103.656892,56.3739021 L103.170028,55.2972729 L100.418557,55.2972729 L99.9240139,56.3739021 L98.8466168,56.3739021 Z" id="Fill-34" fill="#002A4E" mask="url(#mask-4)"></path>
            <path d="M61.2329401,44.8695585 C61.2329401,45.96385 61.4686927,46.296361 62.6597426,46.296361 L62.6597426,46.7002889 L58.1742995,46.7002889 L58.1742995,46.296361 C59.3100588,46.296361 59.621068,46.0352669 59.621068,45.2496808 L59.621068,40.8571566 C59.621068,39.5048427 58.6481085,38.937347 57.745798,38.937347 C56.9149044,38.937347 56.1776976,39.4564635 55.3491078,40.5722568 L55.3491078,44.6821851 C55.3491078,45.96385 55.5134435,46.296361 56.7743744,46.296361 L56.7743744,46.7002889 L52.3334709,46.7002889 L52.3334709,46.296361 C53.4484963,46.296361 53.734164,46.2003705 53.734164,44.6821851 L53.734164,39.9594536 C53.734164,38.937347 53.4738378,38.7223283 52.3334709,38.7223283 L52.3334709,38.3176325 L54.9459478,38.0550025 L55.3491078,38.0550025 L55.3491078,39.7413633 C56.3466408,38.6040681 57.3188324,38.0550025 58.3862465,38.0550025 C59.7869395,38.0550025 61.2329401,39.0509997 61.2329401,41.0737111 L61.2329401,44.8695585 Z" id="Fill-35" fill="#002A4E" mask="url(#mask-4)"></path>
            <path d="M67.6950958,34.7354982 C67.6950958,35.3037619 67.2412529,35.7791067 66.6714534,35.7791067 C66.100886,35.7791067 65.6263091,35.3037619 65.6263091,34.7354982 C65.6263091,34.1618591 66.100886,33.7110879 66.6714534,33.7110879 C67.2412529,33.7110879 67.6950958,34.1618591 67.6950958,34.7354982 L67.6950958,34.7354982 Z M67.4547357,45.1316509 C67.4547357,45.9640804 67.6728261,46.2973593 68.8554287,46.2973593 L68.8554287,46.7005193 L64.2532613,46.7005193 L64.2532613,46.2973593 C65.5310865,46.2973593 65.8413277,46.1314878 65.8413277,45.1316509 L65.8413277,39.9842576 C65.8413277,38.8177813 65.485779,38.719487 64.2532613,38.719487 L64.2532613,38.3186308 L67.0492719,38.0560008 L67.4547357,38.0560008 L67.4547357,45.1316509 Z" id="Fill-36" fill="#002A4E" mask="url(#mask-4)"></path>
            <path d="M75.0210891,44.6592242 L76.6590706,40.4126055 C77.0622306,39.3175461 77.0622306,38.8176277 75.8297129,38.7193334 L75.8297129,38.3184772 L78.9159987,38.3184772 L78.9159987,38.7193334 C77.9461109,38.8176277 77.7065187,39.0303426 77.3018229,39.9349569 L74.5941235,46.8900429 L74.1917314,46.8900429 L71.5078376,40.2912735 C70.9380381,38.9120823 70.7245553,38.7707843 69.7285581,38.7193334 L69.7285581,38.3184772 L73.7885714,38.3184772 L73.7885714,38.7193334 C72.9807155,38.7930541 72.7649289,39.2461292 73.147355,40.1707095 L75.0210891,44.6592242 Z" id="Fill-37" fill="#002A4E" mask="url(#mask-4)"></path>
            <path d="M86.1349434,41.1675514 C86.2048245,39.3176229 84.9477332,38.5566104 83.8803191,38.5566104 C82.4780902,38.5566104 81.6464287,39.6025226 81.5489023,41.1675514 L86.1349434,41.1675514 Z M81.5489023,41.5707114 C81.5074345,45.3465928 83.760523,46.2972825 84.9016578,46.2972825 C86.0627586,46.2972825 86.6578995,45.8933546 87.8689154,44.5395049 L87.8689154,45.1553798 C86.844505,46.4646899 85.8723135,46.9607687 84.4017393,46.9607687 C81.7646889,46.9607687 79.8679171,45.1315741 79.8679171,42.5920501 C79.8679171,40.0555977 81.7170777,38.0559241 84.0914981,38.0559241 C86.0389529,38.0559241 87.8466456,39.6255603 87.7245457,41.5707114 L81.5489023,41.5707114 Z" id="Fill-38" fill="#002A4E" mask="url(#mask-4)"></path>
            <path d="M92.9938086,45.1076917 C92.9938086,46.0353437 93.2787084,46.2972057 94.3945017,46.2972057 L94.3945017,46.7003657 L89.9582057,46.7003657 L89.9582057,46.2972057 C91.2375668,46.2972057 91.3811686,45.9639268 91.3811686,44.6822619 L91.3811686,40.1008284 C91.3811686,38.865239 91.0724632,38.7224051 89.6487324,38.7224051 L89.6487324,38.3177093 L92.5914165,38.0550793 L92.9938086,38.0550793 L92.9938086,39.8858097 C94.5603732,38.5311921 95.2968122,38.0550793 95.8673796,38.0550793 C96.3411886,38.0550793 96.981637,38.3415149 97.4078347,38.7224051 L96.76969,40.2190887 C96.0777907,39.8374305 95.3444234,39.4811139 94.773856,39.4811139 C94.229398,39.4811139 93.7548211,39.7667815 92.9938086,40.5009167 L92.9938086,45.1076917 Z" id="Fill-39" fill="#002A4E" mask="url(#mask-4)"></path>
            <path d="M104.151204,40.6445185 C103.984565,39.2453613 103.056913,38.5311921 102.062451,38.5311921 C101.229254,38.5311921 100.66099,38.9834992 100.66099,39.6738628 C100.66099,41.8094589 105.078088,41.2373557 105.078088,44.3704848 C105.078088,45.7757854 103.867072,46.9606919 102.418,46.9606919 C101.492652,46.9606919 100.685564,46.3440491 100.280868,46.3440491 C99.9713948,46.3440491 99.757912,46.6036073 99.7341064,46.9138485 L99.3286426,46.9138485 L99.3286426,44.0372059 L99.7341064,44.0372059 C100.091959,45.7965194 101.395894,46.4884187 102.44027,46.4884187 C103.271931,46.4884187 103.91238,45.8679363 103.91238,45.0385786 C103.91238,42.68566 99.4484387,43.3276443 99.4484387,40.4763431 C99.4484387,39.1739443 100.613379,38.0550793 102.014072,38.0550793 C102.889505,38.0550793 103.152135,38.4590073 103.721935,38.4590073 C103.935418,38.4590073 104.104361,38.3415149 104.221853,38.0550793 L104.626549,38.0550793 L104.626549,40.6445185 L104.151204,40.6445185 Z" id="Fill-40" fill="#002A4E" mask="url(#mask-4)"></path>
            <path d="M110.92076,34.7354982 C110.92076,35.3037619 110.468453,35.7791067 109.902493,35.7791067 C109.331158,35.7791067 108.855813,35.3037619 108.855813,34.7354982 C108.855813,34.1618591 109.331158,33.7110879 109.902493,33.7110879 C110.468453,33.7110879 110.92076,34.1618591 110.92076,34.7354982 L110.92076,34.7354982 Z M110.683471,45.1316509 C110.683471,45.9640804 110.896954,46.2973593 112.0857,46.2973593 L112.0857,46.7005193 L107.480461,46.7005193 L107.480461,46.2973593 C108.761358,46.2973593 109.070831,46.1314878 109.070831,45.1316509 L109.070831,39.9842576 C109.070831,38.8177813 108.714515,38.719487 107.480461,38.719487 L107.480461,38.3186308 L110.281847,38.0560008 L110.683471,38.0560008 L110.683471,45.1316509 Z" id="Fill-41" fill="#002A4E" mask="url(#mask-4)"></path>
            <path d="M117.000413,38.2724786 L119.920059,38.2724786 L119.920059,38.8883535 L117.000413,38.8883535 L117.000413,44.3029843 C117.000413,45.4640852 117.595554,46.059994 118.520134,46.059994 C119.136009,46.059994 119.587548,45.8204018 120.086699,45.2498344 L120.348561,45.5600756 C119.610586,46.4892635 118.756655,46.9607687 117.804429,46.9607687 C116.383002,46.9607687 115.383933,45.9640036 115.383933,44.5133955 L115.383933,38.8883535 L113.792795,38.8883535 L113.792795,38.4836576 C114.933162,37.9161619 115.885387,36.8917515 116.598021,35.4472868 L117.000413,35.4472868 L117.000413,38.2724786 Z" id="Fill-42" fill="#002A4E" mask="url(#mask-4)"></path>
            <path d="M126.89872,44.7514519 L128.371598,40.3151559 C128.702574,39.3176229 128.634228,38.7708611 127.707344,38.7224819 L127.707344,38.318554 L130.673834,38.318554 L130.673834,38.7224819 C129.770756,38.7224819 129.224762,39.2953531 128.748649,40.6922065 L125.402805,50.5930484 C124.738551,52.5374315 123.648867,53.6547606 122.625992,53.6547606 C122.269676,53.6547606 122.007046,53.5618419 121.58008,53.2969081 L122.12761,51.8501397 C122.458585,51.9906697 122.648262,52.0375131 122.93393,52.0375131 C123.956036,52.0375131 124.548874,51.4462117 125.070294,49.9764055 L126.164585,46.9392668 L123.150484,39.9841808 C122.720447,39.0089175 122.411742,38.7455196 121.437246,38.7224819 L121.437246,38.318554 L125.473454,38.318554 L125.473454,38.7224819 C124.835309,38.8177045 124.573447,39.2953531 124.880617,40.0064506 L126.89872,44.7514519 Z" id="Fill-43" fill="#002A4E" mask="url(#mask-4)"></path>
        </g>
    </g>
</svg>