<svg width="58" height="66" viewBox="0 0 58 66" fill="none" xmlns="http://www.w3.org/2000/svg">
<g id="monitor/amico">
<g id="Floor">
<path id="Vector" d="M54.5527 34.3206C42.0147 27.082 21.754 27.082 9.29917 34.3206C-3.15568 41.5592 -3.09183 53.2954 9.44469 60.534C21.9812 67.7726 42.2449 67.7726 54.7012 60.534C67.1575 53.2954 67.0907 41.5651 54.5527 34.3206Z" fill="#F5F5F5"/>
</g>
<g id="Shadows">
<path id="Vector_2" d="M38.509 33.9612L36.5787 32.8521C36.2831 32.6811 35.9477 32.591 35.6062 32.591C35.2646 32.591 34.9292 32.6811 34.6336 32.8521L23.9576 39.0409L23.0147 38.4989L15.2831 43.0232L16.174 43.537L3.53208 50.838C3.4334 50.8949 3.35146 50.9768 3.29449 51.0755C3.23751 51.1741 3.20752 51.286 3.20752 51.4C3.20752 51.5139 3.23751 51.6258 3.29449 51.7245C3.35146 51.8231 3.4334 51.905 3.53208 51.962L5.47871 53.0845C5.77468 53.2552 6.11035 53.3451 6.45202 53.3451C6.79369 53.3451 7.12936 53.2552 7.42533 53.0845L20.0613 45.7761L21.5462 46.6269C22.1376 46.9677 22.8081 47.147 23.4906 47.147C24.1731 47.147 24.8436 46.9677 25.435 46.6269L29.9771 44.0032C30.1088 43.9275 30.2182 43.8183 30.2943 43.6868C30.3704 43.5553 30.4104 43.4061 30.4104 43.2541C30.4104 43.1022 30.3704 42.9529 30.2943 42.8214C30.2182 42.6899 30.1088 42.5808 29.9771 42.505L27.8419 41.2771L29.6356 40.2377L33.707 42.5897C33.8964 42.699 34.0536 42.8563 34.1629 43.0456C34.2721 43.235 34.3297 43.4498 34.3297 43.6684C34.3297 43.887 34.2721 44.1018 34.1629 44.2912C34.0536 44.4805 33.8964 44.6378 33.707 44.7471L26.9347 48.6597C26.3414 49.0012 25.6689 49.1809 24.9843 49.1809C24.2998 49.1809 23.6273 49.0012 23.034 48.6597C22.3487 48.265 21.572 48.0565 20.7812 48.0549C19.9903 48.0534 19.2129 48.2588 18.526 48.6508L15.2371 50.5336C15.0229 50.6561 14.845 50.833 14.7212 51.0464C14.5974 51.2599 14.5322 51.5022 14.5322 51.7489C14.5322 51.9956 14.5974 52.238 14.7212 52.4514C14.845 52.6648 15.0229 52.8417 15.2371 52.9642L17.1243 54.0512L16.4086 54.458C16.3606 54.4853 16.3204 54.5245 16.2918 54.5719C16.2632 54.6192 16.2472 54.673 16.2453 54.7282V54.7431C16.245 54.7998 16.2599 54.8556 16.2884 54.9046C16.3168 54.9537 16.3578 54.9943 16.4071 55.0222L17.8593 55.8641L17.6618 55.9785C17.6508 55.9851 17.6416 55.9944 17.6352 56.0056C17.6288 56.0168 17.6255 56.0294 17.6255 56.0423C17.6255 56.0552 17.6288 56.0679 17.6352 56.0791C17.6416 56.0903 17.6508 56.0996 17.6618 56.1062L17.984 56.2888C18.0281 56.3133 18.0777 56.3261 18.1281 56.3261C18.1785 56.3261 18.228 56.3133 18.2721 56.2888L18.8868 55.9339L20.0643 56.6125C20.1079 56.6377 20.1573 56.6509 20.2076 56.6509C20.2579 56.6509 20.3073 56.6377 20.3509 56.6125L20.4726 56.5457C20.4837 56.5391 20.4929 56.5298 20.4993 56.5186C20.5056 56.5074 20.509 56.4947 20.509 56.4818C20.509 56.469 20.5056 56.4563 20.4993 56.4451C20.4929 56.4339 20.4837 56.4246 20.4726 56.418L19.258 55.7171L20.0762 55.245L21.2641 55.9339C21.3078 55.9595 21.3575 55.973 21.4081 55.973C21.4587 55.973 21.5084 55.9595 21.5521 55.9339L21.6724 55.8671C21.6835 55.8607 21.6927 55.8516 21.6991 55.8405C21.7056 55.8294 21.7089 55.8168 21.7089 55.804C21.7089 55.7912 21.7056 55.7786 21.6991 55.7675C21.6927 55.7565 21.6835 55.7473 21.6724 55.7409L20.4415 55.0297L21.0606 54.6733L20.4845 54.3437L19.8683 54.6985L18.8423 54.1046L18.7814 54.1388L18.3567 53.8923C18.2085 53.8072 18.0406 53.7625 17.8697 53.7625C17.6988 53.7625 17.5309 53.8072 17.3827 53.8923L17.1124 54.0408L17.4228 53.5018L15.5341 52.4149C15.4153 52.3465 15.3167 52.2481 15.2481 52.1295C15.1795 52.0109 15.1434 51.8763 15.1434 51.7393C15.1434 51.6022 15.1795 51.4677 15.2481 51.3491C15.3167 51.2304 15.4153 51.132 15.5341 51.0637L18.8245 49.1794C19.4168 48.8414 20.0873 48.6644 20.7693 48.666C21.4513 48.6676 22.121 48.8476 22.7118 49.1883C23.3994 49.5844 24.1789 49.7929 24.9725 49.7929C25.766 49.7929 26.5455 49.5844 27.2331 49.1883L34.007 45.2772C34.2913 45.1132 34.5274 44.8772 34.6915 44.5929C34.8557 44.3087 34.9421 43.9862 34.9421 43.658C34.9421 43.3298 34.8557 43.0073 34.6915 42.7231C34.5274 42.4388 34.2913 42.2028 34.007 42.0388L30.2444 39.8665L38.4986 35.0749C38.5954 35.0182 38.6759 34.9373 38.7321 34.8403C38.7884 34.7432 38.8185 34.6332 38.8196 34.521C38.8206 34.4088 38.7925 34.2983 38.7381 34.2002C38.6837 34.1021 38.6048 34.0197 38.509 33.9612Z" fill="#E6E6E6"/>
<path id="Vector_3" d="M50.5317 47.8089C48.0298 46.3641 43.9895 46.3641 41.5039 47.8089C39.0183 49.2536 39.0331 51.5937 41.5336 53.037C44.0341 54.4803 48.0758 54.4818 50.5614 53.037C53.0471 51.5923 53.0322 49.2521 50.5317 47.8089Z" fill="#E6E6E6"/>
<path id="Vector_4" d="M58.1476 43.3143C57.0399 42.6743 55.2522 42.6743 54.1519 43.3143C53.0516 43.9542 53.0576 44.9892 54.1652 45.6276C55.2729 46.2661 57.0607 46.2676 58.161 45.6276C59.2612 44.9877 59.2538 43.9527 58.1476 43.3143Z" fill="#E6E6E6"/>
</g>
<g id="Window">
<path id="Vector_5" d="M50.4874 7.75378L50.4458 22.8621L51.2862 23.3476L51.3293 8.23933L50.4874 7.75378Z" fill="#E0E0E0"/>
<path id="Vector_6" d="M51.3292 8.23933L51.2861 23.3476L52.0167 22.9229L52.0568 8.65954L51.3292 8.23933Z" fill="#F0F0F0"/>
<path id="Vector_7" opacity="0.2" d="M51.3263 8.9179L51.3292 8.23933L50.4873 7.75378L50.4858 8.43236L51.3263 8.9179Z" fill="black"/>
<path id="Vector_8" opacity="0.2" d="M51.3262 8.91791L51.9157 8.57936L51.3291 8.23933L51.3262 8.91791Z" fill="black"/>
<path id="Vector_9" d="M40.3712 1.91241L41.1017 1.48775L41.0587 16.596L40.3281 17.0207L40.3712 1.91241Z" fill="#F0F0F0"/>
<path id="Vector_10" d="M40.3281 17.0207L41.0587 16.596L62.1345 28.7643L61.404 29.189L40.3281 17.0207Z" fill="#F5F5F5"/>
<path id="Vector_11" d="M39.5336 0.461731L62.2903 13.5996L62.2413 30.6397L39.4846 17.5018L39.5336 0.461731ZM61.3994 29.189L61.4425 14.0807L40.3711 1.91985L40.328 17.0266L61.4039 29.2023" fill="#E0E0E0"/>
<path id="Vector_12" d="M39.5337 0.461729L40.2642 0.0370636L63.0209 13.1764L62.2904 13.6011L39.5337 0.461729Z" fill="#F5F5F5"/>
</g>
<g id="Plant">
<path id="Vector_13" d="M58.6777 39.9556L56.1535 40.0298L53.6293 39.9556C53.5209 41.6587 53.8535 43.3945 54.3108 44.2423C54.4195 44.4603 54.5948 44.6382 54.8112 44.7501C55.5536 45.1807 56.7563 45.1807 57.4958 44.7501C57.7156 44.6369 57.8912 44.4535 57.9947 44.2289C58.4565 43.3766 58.7861 41.6498 58.6777 39.9556Z" fill="#37474F"/>
<path id="Vector_14" d="M57.9338 38.9236C58.9213 39.4938 58.9257 40.4188 57.9457 40.989C56.9657 41.5592 55.3665 41.5592 54.3821 40.989C53.3976 40.4188 53.3887 39.4938 54.3702 38.9236C55.3517 38.3534 56.9449 38.3534 57.9338 38.9236Z" fill="#455A64"/>
<path id="Vector_15" d="M57.5388 39.1508C58.3094 39.5962 58.3124 40.3164 57.5477 40.7618C56.783 41.2073 55.5357 41.2073 54.7651 40.7618C53.9945 40.3164 53.99 39.5947 54.7562 39.1508C55.5224 38.7068 56.7726 38.7053 57.5388 39.1508Z" fill="#263238"/>
<path id="Vector_16" d="M55.9455 40.0268C56.1483 40.1972 56.3889 40.3166 56.6471 40.3753C56.9054 40.4339 57.1739 40.43 57.4304 40.3639C57.6772 40.2895 57.9015 40.1546 58.083 39.9716C58.2645 39.7885 58.3975 39.563 58.4698 39.3156C58.1713 39.1738 57.8979 38.9842 57.6605 38.7543C58.0388 38.6599 58.4361 38.6738 58.8068 38.7944C58.9097 38.6333 58.9714 38.4493 58.9864 38.2588C59.0014 38.0682 58.9693 37.8768 58.893 37.7016C58.4625 37.5098 57.9782 37.4761 57.5254 37.6065C57.7135 37.4429 57.9334 37.3197 58.1712 37.2449C58.4091 37.17 58.6598 37.145 58.9078 37.1715C58.9436 36.4485 58.8309 35.7259 58.5767 35.0482C57.6368 35.0972 56.7251 35.5025 56.4177 35.7906C56.3658 36.1662 56.5217 36.7884 56.5217 36.7884C56.4003 36.7263 56.2966 36.6345 56.2203 36.5216C56.144 36.4087 56.0975 36.2782 56.0851 36.1425C55.4912 36.291 55.2447 36.5879 55.1526 36.8077C55.2374 37.2257 55.4293 37.6146 55.7095 37.9362C55.1571 37.7699 54.9329 37.1537 54.9329 37.1537C54.382 38.447 54.4845 39.9021 55.9455 40.0268Z" fill="#C1D600"/>
<path id="Vector_17" opacity="0.2" d="M55.9455 40.0268C56.1483 40.1972 56.3889 40.3166 56.6471 40.3753C56.9054 40.4339 57.1739 40.43 57.4304 40.3639C57.6772 40.2895 57.9015 40.1546 58.083 39.9716C58.2645 39.7885 58.3975 39.563 58.4698 39.3156C58.1713 39.1738 57.8979 38.9842 57.6605 38.7543C58.0388 38.6599 58.4361 38.6738 58.8068 38.7944C58.9097 38.6333 58.9714 38.4493 58.9864 38.2588C59.0014 38.0682 58.9693 37.8768 58.893 37.7016C58.4625 37.5098 57.9782 37.4761 57.5254 37.6065C57.7135 37.4429 57.9334 37.3197 58.1712 37.2449C58.4091 37.17 58.6598 37.145 58.9078 37.1715C58.9436 36.4485 58.8309 35.7259 58.5767 35.0482C57.6368 35.0972 56.7251 35.5025 56.4177 35.7906C56.3658 36.1662 56.5217 36.7884 56.5217 36.7884C56.4003 36.7263 56.2966 36.6345 56.2203 36.5216C56.144 36.4087 56.0975 36.2782 56.0851 36.1425C55.4912 36.291 55.2447 36.5879 55.1526 36.8077C55.2374 37.2257 55.4293 37.6146 55.7095 37.9362C55.1571 37.7699 54.9329 37.1537 54.9329 37.1537C54.382 38.447 54.4845 39.9021 55.9455 40.0268Z" fill="black"/>
<path id="Vector_18" d="M55.9129 40.1664C55.8986 40.1653 55.8853 40.1586 55.8758 40.1477C55.8664 40.1369 55.8616 40.1228 55.8624 40.1085C55.953 38.9206 56.6315 36.9606 58.2515 35.3451C58.2621 35.3367 58.2754 35.3324 58.2888 35.3332C58.3023 35.334 58.3151 35.3397 58.3246 35.3492C58.3342 35.3588 58.3399 35.3715 58.3406 35.385C58.3414 35.3985 58.3371 35.4118 58.3287 35.4223C56.7295 37.0171 56.0599 38.9473 55.9708 40.1159C55.9706 40.1231 55.969 40.1303 55.9659 40.1368C55.9628 40.1434 55.9584 40.1492 55.953 40.1539C55.9475 40.1587 55.9411 40.1623 55.9342 40.1644C55.9273 40.1666 55.9201 40.1672 55.9129 40.1664Z" fill="#F5F5F5"/>
<path id="Vector_19" d="M56.3509 40.6623C56.1623 40.8162 55.9401 40.9233 55.7023 40.9749C55.4645 41.0265 55.2178 41.0212 54.9825 40.9594C54.7471 40.8976 54.5297 40.781 54.3479 40.6192C54.1661 40.4574 54.0252 40.2549 53.9365 40.0283C54.2069 39.9051 54.4544 39.7369 54.6686 39.5309C54.3109 39.4452 53.9368 39.456 53.5846 39.5621C53.4788 39.4259 53.4095 39.2649 53.3835 39.0944C53.3575 38.9239 53.3756 38.7495 53.4362 38.588C53.8458 38.4197 54.2997 38.3926 54.7265 38.5108C54.347 38.2147 53.8697 38.0731 53.3901 38.1144C53.3093 37.4772 53.3712 36.83 53.5713 36.2197C54.4622 36.2746 55.3531 36.6458 55.6619 36.9087C55.6974 37.2056 55.6853 37.5064 55.6263 37.7996C55.7348 37.7481 55.8269 37.6675 55.8924 37.5669C55.9579 37.4663 55.9943 37.3494 55.9975 37.2294C56.5588 37.3645 56.8112 37.6273 56.9107 37.8233C56.8594 38.1909 56.7049 38.5363 56.4652 38.8197C56.9716 38.6712 57.1438 38.1322 57.1438 38.1322C57.7214 39.2696 57.7125 40.554 56.3509 40.6623Z" fill="#C1D600"/>
<path id="Vector_20" d="M56.3925 40.7915C56.3796 40.7913 56.3672 40.7866 56.3574 40.7782C56.3476 40.7698 56.3411 40.7582 56.339 40.7455C56.1905 39.7061 55.4347 37.9956 53.8252 36.5627C53.815 36.5524 53.8093 36.5385 53.8093 36.5241C53.8093 36.5096 53.815 36.4958 53.8252 36.4855C53.8355 36.4753 53.8493 36.4696 53.8638 36.4696C53.8782 36.4696 53.8921 36.4753 53.9024 36.4855C55.5357 37.9391 56.2945 39.6823 56.4519 40.7336C56.454 40.748 56.4503 40.7626 56.4417 40.7743C56.4331 40.786 56.4202 40.7938 56.4058 40.796L56.3925 40.7915Z" fill="white"/>
</g>
<g id="Picture">
<path id="Vector_21" d="M14.033 7.45236L14.0448 11.7376L14.5645 12.0405L14.5512 7.15242L14.033 7.45236Z" fill="#F0F0F0"/>
<path id="Vector_22" d="M8.43799 14.976L8.43947 15.5759L14.5644 12.0405L14.0448 11.7376L8.43799 14.976Z" fill="#F5F5F5"/>
<path id="Vector_23" d="M15.1763 6.07739L7.79663 10.3315L7.81445 16.6599L15.1956 12.3984L15.1763 6.07739ZM8.43957 15.5804V14.9864L8.4262 10.6997L14.033 7.45236L14.5512 7.15539L14.5645 12.042L8.43957 15.5804Z" fill="#E0E0E0"/>
<path id="Vector_24" d="M15.1762 6.06998L14.6565 5.76855L7.27539 10.0301L7.79509 10.3315L15.1762 6.06998Z" fill="#F5F5F5"/>
<path id="Vector_25" d="M7.27539 10.03L7.29321 16.3584L7.8129 16.6599L7.79509 10.3315L7.27539 10.03Z" fill="#F0F0F0"/>
<path id="Vector_26" d="M23.4246 2.15742L23.4364 6.44267L23.9561 6.74558L23.9413 1.85748L23.4246 2.15742Z" fill="#F0F0F0"/>
<path id="Vector_27" d="M17.8281 9.68111L17.8296 10.281L23.9561 6.74558L23.4364 6.44267L17.8281 9.68111Z" fill="#F5F5F5"/>
<path id="Vector_28" d="M24.5753 0.775024L17.1868 5.03801L17.2046 11.3664L24.5857 7.10491L24.5753 0.775024ZM17.8371 10.278V9.68408L17.8252 5.39734L23.4335 2.16038L23.9502 1.86341L23.9651 6.75151L17.8371 10.278Z" fill="#E0E0E0"/>
<path id="Vector_29" d="M24.5678 0.775026L24.0481 0.473602L16.667 4.7351L17.1867 5.03652L24.5678 0.775026Z" fill="#F5F5F5"/>
<path id="Vector_30" d="M16.667 4.73509L16.6848 11.0635L17.2045 11.3649L17.1867 5.03651L16.667 4.73509Z" fill="#F0F0F0"/>
<path id="Vector_31" d="M12.251 9.07974L13.7804 10.2839L13.7834 11.4599L8.69781 14.397L8.69336 13.2195L9.66296 11.2951L10.5331 11.9707L10.2257 12.927L10.6727 12.0776L12.251 9.07974Z" fill="#E0E0E0"/>
<path id="Vector_32" d="M10.5808 9.6722C10.8198 9.53411 11.0143 9.64548 11.0158 9.92017C11.0067 10.069 10.9629 10.2137 10.8878 10.3426C10.8128 10.4715 10.7087 10.5811 10.5837 10.6626C10.3447 10.8007 10.1487 10.6893 10.1487 10.4146C10.1575 10.2657 10.2012 10.1209 10.2762 9.9919C10.3513 9.86293 10.4556 9.75342 10.5808 9.6722Z" fill="#E0E0E0"/>
<path id="Vector_33" d="M21.6426 3.78481L23.172 4.98901L23.175 6.16501L18.0879 9.10202L18.085 7.92454L19.0546 6.00019L19.9247 6.67579L19.6173 7.63203L20.0643 6.7827L21.6426 3.78481Z" fill="#E0E0E0"/>
<path id="Vector_34" d="M19.9724 4.37725C20.2129 4.23916 20.4074 4.35052 20.4074 4.62522C20.3986 4.77418 20.355 4.91898 20.2799 5.04795C20.2048 5.17691 20.1005 5.28642 19.9753 5.36764C19.7363 5.50573 19.5418 5.39437 19.5403 5.11967C19.5494 4.9708 19.5932 4.82612 19.6683 4.69721C19.7433 4.5683 19.8474 4.45873 19.9724 4.37725Z" fill="#E0E0E0"/>
</g>
<g id="Monitor">
<path id="Vector_35" d="M17.1214 53.775L15.2341 52.6866C15.02 52.5641 14.842 52.3871 14.7183 52.1737C14.5945 51.9603 14.5293 51.718 14.5293 51.4712C14.5293 51.2245 14.5945 50.9822 14.7183 50.7688C14.842 50.5554 15.02 50.3784 15.2341 50.2559L18.5231 48.3716C19.2099 47.9796 19.9874 47.7742 20.7783 47.7758C21.5691 47.7774 22.3458 47.9858 23.0311 48.3805C23.6243 48.722 24.2969 48.9018 24.9814 48.9018C25.6659 48.9018 26.3385 48.722 26.9317 48.3805L33.7041 44.468C33.8934 44.3586 34.0506 44.2014 34.1599 44.012C34.2692 43.8227 34.3267 43.6079 34.3267 43.3893C34.3267 43.1706 34.2692 42.9558 34.1599 42.7665C34.0506 42.5771 33.8934 42.4199 33.7041 42.3105L26.8486 38.3519C26.6123 38.2148 26.4162 38.0182 26.2796 37.7816C26.1431 37.5451 26.071 37.2768 26.0705 37.0037V36.1009H26.6927V37.0052C26.6931 37.1692 26.7366 37.3302 26.8186 37.4722C26.9007 37.6142 27.0185 37.7322 27.1604 37.8144L34.0144 41.7715C34.2987 41.9356 34.5348 42.1716 34.699 42.4558C34.8632 42.74 34.9496 43.0625 34.9496 43.3907C34.9496 43.719 34.8632 44.0414 34.699 44.3257C34.5348 44.6099 34.2987 44.8459 34.0144 45.01L27.248 48.921C26.5606 49.3176 25.7809 49.5263 24.9873 49.5263C24.1937 49.5263 23.4141 49.3176 22.7267 48.921C22.135 48.582 21.4649 48.4036 20.783 48.4036C20.1011 48.4036 19.431 48.582 18.8393 48.921L15.5489 50.8053C15.4302 50.8736 15.3316 50.9721 15.263 51.0907C15.1944 51.2093 15.1583 51.3439 15.1583 51.4809C15.1583 51.6179 15.1944 51.7525 15.263 51.8711C15.3316 51.9897 15.4302 52.0881 15.5489 52.1565L17.4377 53.2434L17.1214 53.775Z" fill="#455A64"/>
<path id="Vector_36" opacity="0.3" d="M26.6956 37.0052V36.1009H26.0735V37.0052C26.0738 37.2807 26.147 37.5512 26.2858 37.7892L26.8248 37.4774C26.7411 37.334 26.6966 37.1712 26.6956 37.0052Z" fill="black"/>
<path id="Vector_37" d="M17.9515 54.504L16.4845 53.6547C16.4355 53.626 16.3947 53.5851 16.3663 53.5359C16.338 53.4866 16.3229 53.4309 16.3227 53.3741V54.3734C16.3209 54.4316 16.3348 54.4892 16.363 54.5402C16.3913 54.5911 16.4327 54.6335 16.483 54.6629L17.9501 55.5122L19.9056 54.3838L19.0325 53.8789L17.9515 54.504Z" fill="#37474F"/>
<path id="Vector_38" d="M16.4843 53.6547L17.9514 54.504L19.0338 53.8789L19.9069 53.3756L18.4414 52.5292C18.2935 52.4438 18.1258 52.3989 17.9551 52.3989C17.7844 52.3989 17.6166 52.4438 17.4688 52.5292L16.4858 53.092C16.4381 53.1191 16.3981 53.1581 16.3698 53.2052C16.3415 53.2523 16.3257 53.3058 16.324 53.3607C16.324 53.3607 16.324 53.3681 16.324 53.3711C16.3236 53.4283 16.3381 53.4846 16.3663 53.5343C16.3944 53.5841 16.4351 53.6256 16.4843 53.6547Z" fill="#455A64"/>
<path id="Vector_39" d="M18.0984 56.0616V54.5679C18.0985 54.5109 18.1136 54.4549 18.1423 54.4056C18.171 54.3563 18.2122 54.3155 18.2617 54.2873L20.3643 53.0727C20.3826 53.062 20.4036 53.057 20.4248 53.0583C20.4459 53.0596 20.4662 53.0672 20.483 53.0801L20.1935 52.8781C20.1769 52.8648 20.1567 52.8569 20.1355 52.8553C20.1143 52.8537 20.0931 52.8586 20.0747 52.8692L17.9707 54.0838C17.9214 54.1126 17.8806 54.1538 17.8522 54.2033C17.8238 54.2528 17.8088 54.3089 17.8088 54.3659V55.8597C17.8088 55.8782 17.8135 55.8965 17.8227 55.9126C17.8318 55.9287 17.8449 55.9422 17.8608 55.9518L18.1459 56.1507C18.1311 56.1411 18.1189 56.1279 18.1106 56.1123C18.1023 56.0968 18.0981 56.0793 18.0984 56.0616Z" fill="#455A64"/>
<path id="Vector_40" opacity="0.2" d="M18.0984 56.0616V54.5679C18.0985 54.5109 18.1136 54.4549 18.1423 54.4056C18.171 54.3563 18.2122 54.3155 18.2617 54.2873L20.3643 53.0727C20.3826 53.062 20.4036 53.057 20.4248 53.0583C20.4459 53.0596 20.4662 53.0672 20.483 53.0801L20.1935 52.8781C20.1769 52.8648 20.1567 52.8569 20.1355 52.8553C20.1143 52.8537 20.0931 52.8586 20.0747 52.8692L17.9707 54.0838C17.9214 54.1126 17.8806 54.1538 17.8522 54.2033C17.8238 54.2528 17.8088 54.3089 17.8088 54.3659V55.8597C17.8088 55.8782 17.8135 55.8965 17.8227 55.9126C17.8318 55.9287 17.8449 55.9422 17.8608 55.9518L18.1459 56.1507C18.1311 56.1411 18.1189 56.1279 18.1106 56.1123C18.1023 56.0968 18.0981 56.0793 18.0984 56.0616Z" fill="white"/>
<path id="Vector_41" d="M20.4831 53.0801C20.4662 53.0672 20.4459 53.0596 20.4248 53.0583C20.4036 53.057 20.3826 53.062 20.3643 53.0726L18.2617 54.2872C18.2122 54.3155 18.171 54.3563 18.1423 54.4056C18.1137 54.4549 18.0985 54.5109 18.0984 54.5679V56.0616C18.0981 56.0793 18.1023 56.0967 18.1106 56.1123C18.1189 56.1279 18.1311 56.1411 18.1459 56.1507C18.1632 56.1617 18.1833 56.1675 18.2038 56.1675C18.2243 56.1675 18.2444 56.1617 18.2617 56.1507L20.3643 54.9361C20.4138 54.9075 20.455 54.8664 20.4836 54.8169C20.5123 54.7674 20.5275 54.7112 20.5276 54.654V53.1662C20.5276 53.1493 20.5236 53.1327 20.5158 53.1177C20.5081 53.1027 20.4968 53.0898 20.4831 53.0801Z" fill="#455A64"/>
<path id="Vector_42" d="M20.6672 55.9547C20.6598 55.8128 20.6189 55.6747 20.5479 55.5516C20.477 55.4285 20.3779 55.324 20.2588 55.2465L18.7844 54.3971L18.6597 54.4699V55.4142L20.1311 56.2636C20.1734 56.295 20.2234 56.3141 20.2759 56.3189C20.3283 56.3236 20.381 56.3137 20.4281 56.2903L20.5499 56.219C20.5903 56.1886 20.6223 56.1484 20.6429 56.1021C20.6634 56.0559 20.6718 56.0051 20.6672 55.9547ZM20.2826 55.9191C20.2635 55.9146 20.245 55.9076 20.2277 55.8983C20.1729 55.8624 20.1273 55.8141 20.0945 55.7574C20.0618 55.7007 20.0428 55.637 20.0391 55.5716C20.0375 55.5588 20.0375 55.5459 20.0391 55.533C20.0588 55.5371 20.0778 55.5441 20.0955 55.5538C20.1508 55.5895 20.1968 55.6379 20.2296 55.695C20.2624 55.7521 20.2811 55.8162 20.2841 55.882C20.2853 55.8944 20.2848 55.9068 20.2826 55.9191Z" fill="#C1D600"/>
<path id="Vector_43" opacity="0.5" d="M20.6672 55.9547C20.6598 55.8128 20.6189 55.6747 20.5479 55.5516C20.477 55.4285 20.3779 55.324 20.2588 55.2465L18.7844 54.3971L18.6597 54.4699V55.4142L20.1311 56.2636C20.1734 56.295 20.2234 56.3141 20.2759 56.3189C20.3283 56.3236 20.381 56.3137 20.4281 56.2903L20.5499 56.219C20.5903 56.1886 20.6223 56.1484 20.6429 56.1021C20.6634 56.0559 20.6718 56.0051 20.6672 55.9547ZM20.2826 55.9191C20.2635 55.9146 20.245 55.9076 20.2277 55.8983C20.1729 55.8624 20.1273 55.8141 20.0945 55.7574C20.0618 55.7007 20.0428 55.637 20.0391 55.5716C20.0375 55.5588 20.0375 55.5459 20.0391 55.533C20.0588 55.5371 20.0778 55.5441 20.0955 55.5538C20.1508 55.5895 20.1968 55.6379 20.2296 55.695C20.2624 55.7521 20.2811 55.8162 20.2841 55.882C20.2853 55.8944 20.2848 55.9068 20.2826 55.9191Z" fill="white"/>
<path id="Vector_44" opacity="0.2" d="M20.6672 55.9547C20.6598 55.8128 20.6189 55.6747 20.5479 55.5516C20.477 55.4285 20.3779 55.324 20.2588 55.2465L18.7844 54.3971L18.6597 54.4699L20.1297 55.3192C20.2489 55.3967 20.3482 55.5012 20.4194 55.6243C20.4906 55.7473 20.5318 55.8855 20.5395 56.0275C20.5445 56.0779 20.5362 56.1287 20.5153 56.1748C20.4945 56.221 20.4618 56.2608 20.4207 56.2903L20.5424 56.219C20.5843 56.1895 20.6177 56.1496 20.6396 56.1033C20.6614 56.057 20.6709 56.0058 20.6672 55.9547Z" fill="black"/>
<g id="Group" opacity="0.2">
<path id="Vector_45" d="M20.0392 55.5716C20.0376 55.5588 20.0376 55.5459 20.0392 55.533C19.9619 55.5167 19.907 55.5657 19.9055 55.6637C19.9092 55.7289 19.9282 55.7923 19.961 55.8488C19.9937 55.9053 20.0393 55.9533 20.0941 55.9889C20.1876 56.0423 20.2648 56.0111 20.2812 55.9206C20.2608 55.9162 20.2413 55.9087 20.2233 55.8983C20.1693 55.8619 20.1246 55.8134 20.0926 55.7567C20.0606 55.7 20.0423 55.6366 20.0392 55.5716Z" fill="black"/>
</g>
<path id="Vector_46" d="M21.8119 55.3237C21.8045 55.1818 21.7636 55.0437 21.6927 54.9206C21.6217 54.7975 21.5226 54.6929 21.4036 54.6154L19.9321 53.7661L19.8074 53.8388V54.7847L21.2789 55.634C21.3212 55.6651 21.3713 55.6841 21.4236 55.6888C21.476 55.6935 21.5286 55.6838 21.5758 55.6607L21.6976 55.5895C21.7377 55.5586 21.7693 55.5179 21.7893 55.4714C21.8093 55.4249 21.8171 55.374 21.8119 55.3237ZM21.4288 55.2895C21.409 55.2851 21.3899 55.2776 21.3724 55.2672C21.3176 55.2317 21.272 55.1837 21.2393 55.1272C21.2065 55.0707 21.1875 55.0073 21.1838 54.9421C21.1823 54.9287 21.1823 54.9153 21.1838 54.902C21.2037 54.9064 21.2227 54.9139 21.2402 54.9242C21.2955 54.9598 21.3415 55.0079 21.3745 55.0647C21.4076 55.1215 21.4267 55.1853 21.4303 55.2509C21.4307 55.2638 21.4302 55.2767 21.4288 55.2895Z" fill="#C1D600"/>
<path id="Vector_47" opacity="0.5" d="M21.8119 55.3237C21.8045 55.1818 21.7636 55.0437 21.6927 54.9206C21.6217 54.7975 21.5226 54.6929 21.4036 54.6154L19.9321 53.7661L19.8074 53.8388V54.7847L21.2789 55.634C21.3212 55.6651 21.3713 55.6841 21.4236 55.6888C21.476 55.6935 21.5286 55.6838 21.5758 55.6607L21.6976 55.5895C21.7377 55.5586 21.7693 55.5179 21.7893 55.4714C21.8093 55.4249 21.8171 55.374 21.8119 55.3237ZM21.4288 55.2895C21.409 55.2851 21.3899 55.2776 21.3724 55.2672C21.3176 55.2317 21.272 55.1837 21.2393 55.1272C21.2065 55.0707 21.1875 55.0073 21.1838 54.9421C21.1823 54.9287 21.1823 54.9153 21.1838 54.902C21.2037 54.9064 21.2227 54.9139 21.2402 54.9242C21.2955 54.9598 21.3415 55.0079 21.3745 55.0647C21.4076 55.1215 21.4267 55.1853 21.4303 55.2509C21.4307 55.2638 21.4302 55.2767 21.4288 55.2895Z" fill="white"/>
<path id="Vector_48" opacity="0.2" d="M21.8119 55.3237C21.8045 55.1818 21.7636 55.0437 21.6927 54.9206C21.6217 54.7975 21.5226 54.6929 21.4036 54.6154L19.9321 53.7661L19.8074 53.8388L21.2789 54.6882C21.3979 54.7657 21.497 54.8702 21.5679 54.9933C21.6389 55.1164 21.6798 55.2545 21.6872 55.3964C21.6916 55.447 21.683 55.4978 21.6622 55.544C21.6414 55.5903 21.6091 55.6305 21.5684 55.6607L21.6902 55.5895C21.7316 55.5594 21.7647 55.5192 21.786 55.4726C21.8073 55.426 21.8163 55.3747 21.8119 55.3237Z" fill="black"/>
<g id="Group_2" opacity="0.2">
<path id="Vector_49" d="M21.1839 54.9421C21.1823 54.9287 21.1823 54.9153 21.1839 54.902C21.1082 54.8856 21.0518 54.9361 21.0518 55.0326C21.0548 55.098 21.0734 55.1617 21.1059 55.2185C21.1384 55.2753 21.184 55.3236 21.2388 55.3593C21.3324 55.4128 21.4096 55.3801 21.4259 55.2895C21.4057 55.2849 21.3862 55.2774 21.368 55.2672C21.3141 55.2312 21.2693 55.183 21.2374 55.1265C21.2054 55.07 21.1871 55.0069 21.1839 54.9421Z" fill="black"/>
</g>
<path id="Vector_50" d="M29.0759 41.8621C29.0408 41.6672 28.9641 41.4821 28.8511 41.3194C28.7382 41.1567 28.5915 41.0202 28.4211 40.9192L25.3816 39.1003C25.2001 38.9907 25.0501 38.836 24.946 38.6513C24.8419 38.4666 24.7874 38.2581 24.7877 38.046V36.5983L17.9203 40.5688L17.3472 40.8999V42.5332C17.3472 42.749 17.404 42.961 17.5119 43.1479C17.6198 43.3348 17.775 43.49 17.9619 43.5979L21.2285 45.4777C21.7524 45.7786 22.3461 45.9369 22.9502 45.9369C23.5544 45.9369 24.148 45.7786 24.6719 45.4777L28.3959 43.3469C28.6505 43.2019 28.8531 42.9805 28.9751 42.7141C29.0971 42.4477 29.1324 42.1496 29.0759 41.8621Z" fill="#C1D600"/>
<path id="Vector_51" opacity="0.3" d="M28.3959 42.8243L24.6927 44.9431C24.1606 45.2484 23.5578 45.4091 22.9443 45.4091C22.3308 45.4091 21.728 45.2484 21.1959 44.9431L18.4474 43.3603C18.2877 43.2675 18.1549 43.1346 18.0625 42.9746C17.97 42.8147 17.921 42.6333 17.9203 42.4486V40.5688L17.3472 40.8999V42.5332C17.3472 42.749 17.404 42.961 17.5119 43.1479C17.6198 43.3348 17.775 43.49 17.9619 43.5979L21.2285 45.4777C21.7524 45.7786 22.3461 45.9369 22.9502 45.9369C23.5544 45.9369 24.148 45.7786 24.6719 45.4777L28.3959 43.3469C28.6505 43.2019 28.8531 42.9805 28.9751 42.7141C29.0971 42.4476 29.1324 42.1496 29.0759 41.8621C29.0403 42.0626 28.9608 42.2528 28.8433 42.4191C28.7257 42.5854 28.573 42.7237 28.3959 42.8243Z" fill="black"/>
<path id="Vector_52" opacity="0.4" d="M18.4474 43.3543C18.2877 43.2616 18.1549 43.1286 18.0625 42.9687C17.97 42.8088 17.921 42.6274 17.9203 42.4427V40.5688L17.3472 40.8999V42.5332C17.3472 42.749 17.404 42.961 17.5119 43.1479C17.6198 43.3348 17.775 43.49 17.9619 43.5979L19.1186 44.2646V43.7449L18.4474 43.3543Z" fill="black"/>
<path id="Vector_53" opacity="0.3" d="M18.4473 43.3544L19.117 43.7404L26.2873 39.6423L25.3815 39.1003C25.2 38.9907 25.0499 38.836 24.9459 38.6513C24.8418 38.4666 24.7873 38.2581 24.7876 38.046V36.5983L17.9202 40.5688V42.4427C17.9208 42.6274 17.9699 42.8088 18.0623 42.9687C18.1548 43.1286 18.2875 43.2616 18.4473 43.3544Z" fill="black"/>
<path id="Vector_54" d="M37.2277 5.82349C37.2277 5.49534 37.1119 5.2637 36.9308 5.15382L35.8305 4.51683C35.6375 4.39507 35.3672 4.40547 35.0658 4.57919L5.85749 21.3832C5.81888 21.4054 5.78027 21.4307 5.74315 21.4559L5.709 21.4826C5.68376 21.5019 5.65703 21.5212 5.63327 21.542L5.59467 21.5747L5.52488 21.6371C5.513 21.6489 5.50112 21.6623 5.48776 21.6742L5.42243 21.744L5.38827 21.7826C5.36749 21.8078 5.34521 21.8331 5.32443 21.8598L5.29473 21.8969C5.27394 21.9251 5.25167 21.9548 5.23088 21.986L5.20861 22.0187C5.18485 22.0528 5.16406 22.087 5.14179 22.1226L5.12694 22.1464C5.1017 22.1894 5.07794 22.2325 5.05419 22.277C5.04082 22.3038 5.02746 22.3305 5.01558 22.3587C5.0037 22.3869 5.00222 22.3839 4.99628 22.3973L4.9651 22.4715L4.94579 22.5205L4.92055 22.5903L4.90125 22.6453C4.90125 22.6675 4.88788 22.6898 4.88194 22.7106C4.876 22.7314 4.87155 22.7522 4.86561 22.773C4.85967 22.7938 4.85522 22.8131 4.85076 22.8338L4.8374 22.9007L4.82849 22.9556C4.82406 22.9816 4.82108 23.0079 4.81958 23.0343C4.81958 23.0477 4.81958 23.0625 4.81958 23.0774C4.81958 23.1174 4.81958 23.1575 4.81958 23.1961L4.87303 46.6834C4.87303 46.9982 4.97994 47.2224 5.15219 47.3382C5.17084 47.3502 5.19017 47.3611 5.21009 47.3709L6.29551 48.0034L6.31185 48.0123C6.50191 48.1118 6.7573 48.0925 7.0409 47.9292L36.2329 31.1252C36.5383 30.9265 36.7924 30.6584 36.9746 30.3428C37.1568 30.0272 37.2618 29.6731 37.2812 29.3092L37.2277 5.82349ZM35.4459 6.83764L17.8803 16.9524L12.7278 19.9221L7.49972 22.9333L36.1928 6.40852L35.4459 6.83764Z" fill="#C1D600"/>
<path id="Vector_55" d="M5.98508 47.3352L5.93162 23.8495C5.95064 23.4857 6.05555 23.1317 6.23776 22.8163C6.41997 22.5009 6.6743 22.2332 6.97992 22.035L36.1734 5.22213C36.4615 5.05582 36.7228 5.03949 36.9158 5.14491L35.8156 4.50792C35.6225 4.38616 35.3523 4.39655 35.0509 4.57028L5.85738 21.3831C5.55209 21.5817 5.29801 21.8495 5.11585 22.1648C4.93368 22.4801 4.82857 22.834 4.80908 23.1976L4.86254 46.6849C4.86254 46.9996 4.96945 47.2239 5.14169 47.3397C5.16034 47.3517 5.17967 47.3626 5.1996 47.3723L6.28502 48.0049C6.1009 47.895 5.98508 47.6634 5.98508 47.3352Z" fill="#C1D600"/>
<path id="Vector_56" opacity="0.3" d="M35.8142 4.50792C35.6212 4.38616 35.3509 4.39655 35.0495 4.57028L5.8575 21.3831C5.5127 21.6004 5.23468 21.9087 5.0542 22.2741L6.17822 22.9229C6.35739 22.5571 6.63508 22.2486 6.98004 22.032L36.1735 5.22213C36.4616 5.05582 36.7229 5.03949 36.9159 5.14491L35.8142 4.50792Z" fill="white"/>
<path id="Vector_57" opacity="0.2" d="M4.80908 23.1976L4.86254 46.6849C4.86254 46.9996 4.96945 47.2239 5.14169 47.3397C5.16034 47.3517 5.17967 47.3626 5.1996 47.3723L6.28502 48.0049C6.09941 47.8935 5.98805 47.6619 5.98805 47.3337L5.93459 23.848C5.94314 23.5255 6.02758 23.2096 6.18108 22.9259L5.05705 22.277C4.90419 22.5605 4.8193 22.8757 4.80908 23.1976Z" fill="black"/>
<path id="Vector_58" d="M37.2277 5.82349C37.2277 5.49534 37.1118 5.2637 36.9307 5.15382C36.7391 5.0484 36.4778 5.06473 36.1883 5.23103L6.97994 22.035C6.67432 22.2331 6.41999 22.5009 6.23777 22.8163C6.05556 23.1317 5.95065 23.4857 5.93164 23.8495L5.9851 47.3352C5.9851 47.6634 6.10091 47.895 6.28206 48.0064L6.2984 48.0153C6.48846 48.1148 6.74385 48.0955 7.02745 47.9321L36.2328 31.1252C36.5382 30.9264 36.7924 30.6584 36.9745 30.3428C37.1567 30.0272 37.2617 29.6731 37.2811 29.3092L37.2277 5.82349ZM35.7116 30.2254L7.02003 46.7502L6.96955 23.8465C6.98906 23.6657 7.04633 23.4909 7.13764 23.3336C7.22895 23.1763 7.35228 23.0399 7.49963 22.9333L36.1927 6.40851L36.2432 29.3122C36.2235 29.4932 36.166 29.668 36.0744 29.8253C35.9829 29.9826 35.8593 30.1189 35.7116 30.2254Z" fill="#C1D600"/>
<path id="Vector_59" d="M36.1927 6.40852L35.4503 6.83764L35.4993 28.944C35.4793 29.1247 35.4219 29.2992 35.3306 29.4565C35.2393 29.6137 35.1162 29.7502 34.9692 29.8571L7.01855 45.9588V46.7502L35.7116 30.2254C35.8587 30.1186 35.9818 29.9822 36.0728 29.8249C36.1639 29.6676 36.2209 29.4929 36.2402 29.3122L36.1927 6.40852Z" fill="#C1D600"/>
<path id="Vector_60" opacity="0.3" d="M36.1927 6.40852L35.4503 6.83764L35.4993 28.944C35.4793 29.1247 35.4219 29.2992 35.3306 29.4565C35.2393 29.6137 35.1162 29.7502 34.9692 29.8571L7.01855 45.9588V46.7502L35.7116 30.2254C35.8587 30.1186 35.9818 29.9822 36.0728 29.8249C36.1639 29.6676 36.2209 29.4929 36.2402 29.3122L36.1927 6.40852Z" fill="black"/>
<path id="Vector_61" d="M35.4992 28.944L35.4487 6.8317L7.49955 22.9333C7.35247 23.0401 7.22943 23.1765 7.13837 23.3338C7.04732 23.4911 6.99028 23.6658 6.97095 23.8465L7.01995 45.9588L34.9691 29.8631C35.1168 29.7555 35.2404 29.6181 35.3317 29.4597C35.423 29.3014 35.4801 29.1257 35.4992 28.944Z" fill="#455A64"/>
<g id="Group_3" opacity="0.2">
<path id="Vector_62" d="M29.3744 10.3359L19.5374 38.7499L22.902 36.8136L32.7391 8.39819L29.3744 10.3359Z" fill="white"/>
<path id="Vector_63" d="M21.4157 14.9181L11.5786 43.3321L13.5356 42.2066L23.3727 13.7926L21.4157 14.9181Z" fill="white"/>
<path id="Vector_64" d="M12.7308 19.9191L6.9978 36.4825L7.01859 45.9588L8.0461 45.3678L17.8832 16.9524L12.7308 19.9191Z" fill="white"/>
<path id="Vector_65" d="M35.4725 16.9761L30.0247 32.711L31.854 31.6583L35.4815 21.1782L35.4725 16.9761Z" fill="white"/>
<path id="Vector_66" d="M35.4504 6.83763L34.8149 7.2029L24.9778 35.6168L26.2859 34.864L35.4533 8.38335L35.4504 6.83763Z" fill="white"/>
</g>
</g>
<g id="Sparkles">
<path id="Vector_67" d="M10.7394 27.7561L10.8879 28.6663C10.8906 28.7322 10.91 28.7964 10.9443 28.8527C10.9786 28.9091 11.0267 28.9558 11.084 28.9884C11.1413 29.0211 11.206 29.0387 11.2719 29.0395C11.3379 29.0402 11.403 29.0243 11.4611 28.993L12.3237 28.6574L11.4625 29.3196C11.1565 29.566 10.9532 29.9175 10.8924 30.3056L10.7528 31.3791L10.6043 30.4704C10.6016 30.4045 10.5822 30.3403 10.5479 30.284C10.5136 30.2276 10.4655 30.1809 10.4082 30.1483C10.3509 30.1156 10.2862 30.098 10.2203 30.0973C10.1543 30.0965 10.0892 30.1125 10.0312 30.1437L9.16846 30.4778L10.0297 29.8171C10.3358 29.5702 10.5391 29.2182 10.5998 28.8296L10.7394 27.7561Z" fill="#C1D600"/>
<path id="Vector_68" d="M11.2278 24.9824L11.3214 25.5615C11.3231 25.6035 11.3355 25.6443 11.3574 25.6802C11.3793 25.716 11.4099 25.7458 11.4465 25.7665C11.483 25.7873 11.5242 25.7985 11.5662 25.799C11.6082 25.7995 11.6496 25.7893 11.6866 25.7694L12.236 25.5556L11.6866 25.9743C11.4917 26.1311 11.3625 26.3551 11.3243 26.6024L11.2352 27.2869L11.1432 26.7078C11.1416 26.6657 11.1294 26.6247 11.1076 26.5886C11.0858 26.5525 11.0552 26.5226 11.0187 26.5017C10.9821 26.4807 10.9408 26.4694 10.8987 26.4689C10.8566 26.4683 10.815 26.4785 10.7779 26.4984L10.2285 26.7122L10.7764 26.2906C10.9715 26.1336 11.1011 25.9097 11.1402 25.6625L11.2278 24.9824Z" fill="#C1D600"/>
<path id="Vector_69" d="M34.7492 8.88226L34.8977 9.79099C34.9006 9.85694 34.9203 9.92107 34.9547 9.97738C34.9892 10.0337 35.0374 10.0803 35.0948 10.113C35.1522 10.1456 35.2169 10.1631 35.2829 10.164C35.349 10.1648 35.4141 10.1488 35.4723 10.1177L36.335 9.78356L35.4723 10.4443C35.1666 10.6914 34.9639 11.0434 34.9036 11.4317L34.764 12.5053L34.6155 11.5966C34.6131 11.5305 34.5939 11.4662 34.5597 11.4096C34.5255 11.3531 34.4774 11.3062 34.4201 11.2734C34.3627 11.2405 34.298 11.2228 34.2319 11.222C34.1658 11.2211 34.1006 11.2371 34.0424 11.2684L33.1782 11.604L34.0409 10.9432C34.347 10.6963 34.5503 10.3443 34.6111 9.9558L34.7492 8.88226Z" fill="#C1D600"/>
<path id="Vector_70" d="M35.7544 6.1368L35.8465 6.71588C35.8479 6.75803 35.86 6.79911 35.8818 6.83522C35.9036 6.87132 35.9343 6.90123 35.9709 6.92208C36.0076 6.94294 36.049 6.95405 36.0911 6.95434C36.1333 6.95463 36.1748 6.9441 36.2118 6.92376L36.7612 6.71143L36.2133 7.13164C36.0185 7.28941 35.8889 7.51365 35.8495 7.76121L35.7619 8.44424L35.6683 7.86515C35.667 7.82301 35.6548 7.78192 35.633 7.74582C35.6112 7.70972 35.5805 7.67981 35.5439 7.65895C35.5072 7.63809 35.4659 7.62699 35.4237 7.6267C35.3815 7.6264 35.34 7.63693 35.3031 7.65727L34.7537 7.86961L35.3031 7.44939C35.498 7.29194 35.6271 7.06745 35.6654 6.81982L35.7544 6.1368Z" fill="#C1D600"/>
<path id="Vector_71" d="M29.3177 29.1325L29.4097 29.7116C29.4113 29.7537 29.4235 29.7947 29.4453 29.8308C29.4671 29.8669 29.4977 29.8968 29.5342 29.9177C29.5708 29.9387 29.6121 29.95 29.6542 29.9506C29.6963 29.9511 29.7379 29.9409 29.775 29.921L30.3244 29.7072L29.772 30.1318C29.5773 30.2888 29.4482 30.5128 29.4097 30.7599L29.3206 31.443L29.2286 30.8639C29.2268 30.8219 29.2144 30.7811 29.1925 30.7452C29.1706 30.7093 29.14 30.6796 29.1035 30.6588C29.067 30.638 29.0258 30.6269 28.9838 30.6264C28.9418 30.6259 28.9003 30.6361 28.8633 30.656L28.3169 30.8743L28.8663 30.4526C29.0609 30.2955 29.19 30.0716 29.2286 29.8245L29.3177 29.1325Z" fill="#C1D600"/>
<path id="Vector_72" d="M8.769 27.3329L8.84176 27.7784C8.84123 27.8126 8.84984 27.8465 8.86671 27.8763C8.88357 27.9062 8.90808 27.931 8.93772 27.9482C8.96735 27.9654 9.00105 27.9745 9.03533 27.9744C9.06962 27.9743 9.10326 27.9651 9.13279 27.9476L9.56339 27.7813L9.13279 28.111C8.98043 28.2338 8.87931 28.4091 8.84918 28.6025L8.78088 29.137L8.70813 28.6841C8.70678 28.6512 8.69708 28.6191 8.67993 28.5909C8.66278 28.5627 8.63875 28.5394 8.61009 28.5231C8.58143 28.5067 8.5491 28.4979 8.51611 28.4976C8.48313 28.4972 8.45059 28.5052 8.42155 28.5208L7.99243 28.6886L8.42155 28.3589C8.57436 28.2365 8.67558 28.061 8.70516 27.8675L8.769 27.3329Z" fill="#C1D600"/>
<g id="Group_4" opacity="0.8">
<path id="Vector_73" d="M10.7394 27.7561L10.8879 28.6663C10.8906 28.7322 10.91 28.7964 10.9443 28.8527C10.9786 28.9091 11.0267 28.9558 11.084 28.9884C11.1413 29.0211 11.206 29.0387 11.2719 29.0395C11.3379 29.0402 11.403 29.0243 11.4611 28.993L12.3237 28.6574L11.4625 29.3196C11.1565 29.566 10.9532 29.9175 10.8924 30.3056L10.7528 31.3791L10.6043 30.4704C10.6016 30.4045 10.5822 30.3403 10.5479 30.284C10.5136 30.2276 10.4655 30.1809 10.4082 30.1483C10.3509 30.1156 10.2862 30.098 10.2203 30.0973C10.1543 30.0965 10.0892 30.1125 10.0312 30.1437L9.16846 30.4778L10.0297 29.8171C10.3358 29.5702 10.5391 29.2182 10.5998 28.8296L10.7394 27.7561Z" fill="white"/>
<path id="Vector_74" d="M11.2278 24.9824L11.3214 25.5615C11.3231 25.6035 11.3355 25.6443 11.3574 25.6802C11.3793 25.716 11.4099 25.7458 11.4465 25.7665C11.483 25.7873 11.5242 25.7985 11.5662 25.799C11.6082 25.7995 11.6496 25.7893 11.6866 25.7694L12.236 25.5556L11.6866 25.9743C11.4917 26.1311 11.3625 26.3551 11.3243 26.6024L11.2352 27.2869L11.1432 26.7078C11.1416 26.6657 11.1294 26.6247 11.1076 26.5886C11.0858 26.5525 11.0552 26.5226 11.0187 26.5017C10.9821 26.4807 10.9408 26.4694 10.8987 26.4689C10.8566 26.4683 10.815 26.4785 10.7779 26.4984L10.2285 26.7122L10.7764 26.2906C10.9715 26.1336 11.1011 25.9097 11.1402 25.6625L11.2278 24.9824Z" fill="white"/>
<path id="Vector_75" d="M34.7492 8.88226L34.8977 9.79099C34.9006 9.85694 34.9203 9.92107 34.9547 9.97738C34.9892 10.0337 35.0374 10.0803 35.0948 10.113C35.1522 10.1456 35.2169 10.1631 35.2829 10.164C35.349 10.1648 35.4141 10.1488 35.4723 10.1177L36.335 9.78356L35.4723 10.4443C35.1666 10.6914 34.9639 11.0434 34.9036 11.4317L34.764 12.5053L34.6155 11.5966C34.6131 11.5305 34.5939 11.4662 34.5597 11.4096C34.5255 11.3531 34.4774 11.3062 34.4201 11.2734C34.3627 11.2405 34.298 11.2228 34.2319 11.222C34.1658 11.2211 34.1006 11.2371 34.0424 11.2684L33.1782 11.604L34.0409 10.9432C34.347 10.6963 34.5503 10.3443 34.6111 9.9558L34.7492 8.88226Z" fill="white"/>
<path id="Vector_76" d="M35.7544 6.1368L35.8465 6.71588C35.8479 6.75803 35.86 6.79911 35.8818 6.83522C35.9036 6.87132 35.9343 6.90123 35.9709 6.92208C36.0076 6.94294 36.049 6.95405 36.0911 6.95434C36.1333 6.95463 36.1748 6.9441 36.2118 6.92376L36.7612 6.71143L36.2133 7.13164C36.0185 7.28941 35.8889 7.51365 35.8495 7.76121L35.7619 8.44424L35.6683 7.86515C35.667 7.82301 35.6548 7.78192 35.633 7.74582C35.6112 7.70972 35.5805 7.67981 35.5439 7.65895C35.5072 7.63809 35.4659 7.62699 35.4237 7.6267C35.3815 7.6264 35.34 7.63693 35.3031 7.65727L34.7537 7.86961L35.3031 7.44939C35.498 7.29194 35.6271 7.06745 35.6654 6.81982L35.7544 6.1368Z" fill="white"/>
<path id="Vector_77" d="M29.3177 29.1325L29.4097 29.7116C29.4113 29.7537 29.4235 29.7947 29.4453 29.8308C29.4671 29.8669 29.4977 29.8968 29.5342 29.9177C29.5708 29.9387 29.6121 29.95 29.6542 29.9506C29.6963 29.9511 29.7379 29.9409 29.775 29.921L30.3244 29.7072L29.772 30.1318C29.5773 30.2888 29.4482 30.5128 29.4097 30.7599L29.3206 31.443L29.2286 30.8639C29.2268 30.8219 29.2144 30.7811 29.1925 30.7452C29.1706 30.7093 29.14 30.6796 29.1035 30.6588C29.067 30.638 29.0258 30.6269 28.9838 30.6264C28.9418 30.6259 28.9003 30.6361 28.8633 30.656L28.3169 30.8743L28.8663 30.4526C29.0609 30.2955 29.19 30.0716 29.2286 29.8245L29.3177 29.1325Z" fill="white"/>
<path id="Vector_78" d="M8.769 27.3329L8.84176 27.7784C8.84123 27.8126 8.84984 27.8465 8.86671 27.8763C8.88357 27.9062 8.90808 27.931 8.93772 27.9482C8.96735 27.9654 9.00105 27.9745 9.03533 27.9744C9.06962 27.9743 9.10326 27.9651 9.13279 27.9476L9.56339 27.7813L9.13279 28.111C8.98043 28.2338 8.87931 28.4091 8.84918 28.6025L8.78088 29.137L8.70813 28.6841C8.70678 28.6512 8.69708 28.6191 8.67993 28.5909C8.66278 28.5627 8.63875 28.5394 8.61009 28.5231C8.58143 28.5067 8.5491 28.4979 8.51611 28.4976C8.48313 28.4972 8.45059 28.5052 8.42155 28.5208L7.99243 28.6886L8.42155 28.3589C8.57436 28.2365 8.67558 28.061 8.70516 27.8675L8.769 27.3329Z" fill="white"/>
</g>
</g>
<g id="Character">
<path id="Vector_79" d="M38.258 27.4591C37.6136 27.0642 37.2275 25.8614 36.8771 26.004C36.5267 26.1465 37.0835 26.7835 36.935 26.886C36.7865 26.9884 36.1926 26.6202 35.9639 26.3796C35.7353 26.1391 35.3358 25.8213 35.0433 26.4999C34.7508 27.1785 35.2928 27.7977 36.0753 28.1852C36.7851 28.5356 37.2409 28.6084 37.7695 28.8578C38.0932 28.4811 38.3151 28.0276 38.4139 27.5408C38.3605 27.5164 38.3085 27.4891 38.258 27.4591Z" fill="#FFA8A7"/>
<path id="Vector_80" d="M45.1225 23.7649C44.0682 23.4679 43.3407 23.9831 42.9576 24.923L41.547 28.3842C41.547 28.3842 39.2455 27.9194 38.414 27.5364C38.3151 28.0232 38.0933 28.4766 37.7695 28.8534C37.823 28.8786 37.8764 28.9039 37.9314 28.9336C38.3471 29.1533 40.3532 30.1051 41.5559 30.6278C41.809 30.7381 42.0943 30.7491 42.3551 30.6586C42.616 30.5681 42.8332 30.3827 42.9635 30.1393C44.2227 27.7992 45.4833 24.8176 45.1225 23.7649Z" fill="#455A64"/>
<path id="Vector_81" d="M41.1489 49.5833C41.2833 49.7107 41.4423 49.8092 41.6162 49.8728C41.7902 49.9364 41.9752 49.9637 42.1601 49.953C42.5307 49.9295 42.8939 49.8389 43.2322 49.6857C43.5737 49.5462 44.0043 49.1542 44.374 49.1616C44.736 49.1597 45.0975 49.1354 45.4565 49.0888C45.4708 48.5999 45.4209 48.1111 45.308 47.6352L43.5811 47.5906C43.1149 48.2246 42.2076 48.7518 41.5216 48.9493C41.4168 48.9781 41.3217 49.0347 41.2464 49.1131C41.1712 49.1915 41.1185 49.2888 41.094 49.3947C41.0948 49.3981 41.0948 49.4017 41.094 49.4051C41.1045 49.4666 41.123 49.5265 41.1489 49.5833Z" fill="#37474F"/>
<path id="Vector_82" d="M44.374 49.1631C44.0043 49.1557 43.5737 49.5477 43.2322 49.6872C42.894 49.8404 42.5307 49.931 42.1601 49.9545C41.9753 49.9652 41.7902 49.9379 41.6163 49.8743C41.4424 49.8107 41.2833 49.7122 41.149 49.5848C41.1213 49.5297 41.1009 49.4713 41.0881 49.411C41.0889 49.4076 41.0889 49.4041 41.0881 49.4006C41.0725 49.4756 41.0725 49.5529 41.0881 49.6278C41.101 49.6885 41.1214 49.7474 41.149 49.803C41.2832 49.9306 41.4423 50.0291 41.6162 50.0924C41.7902 50.1558 41.9754 50.1826 42.1601 50.1713C42.5307 50.1477 42.894 50.0572 43.2322 49.904C43.5737 49.7644 44.0043 49.3739 44.374 49.3813C44.7304 49.384 45.0865 49.3636 45.4402 49.3205C45.4491 49.2433 45.4535 49.172 45.4565 49.0903C45.0975 49.1369 44.736 49.1612 44.374 49.1631Z" fill="#263238"/>
<path id="Vector_83" d="M49.7001 50.5395C49.7014 50.7271 49.6825 50.9143 49.6437 51.0978C49.5835 51.4247 49.3995 51.7157 49.1299 51.91C48.8808 52.0511 48.5996 52.1258 48.3133 52.1268C48.0631 52.152 47.8104 52.1258 47.5708 52.0496C47.3884 51.9851 47.2338 51.8598 47.1328 51.6947C47.1334 51.6982 47.1334 51.7017 47.1328 51.7051C47.1689 51.826 47.2337 51.9363 47.3216 52.0268C47.4095 52.1173 47.5179 52.1852 47.6377 52.2248C47.8772 52.3014 48.13 52.3272 48.3801 52.3005C48.6668 52.3009 48.9488 52.2267 49.1982 52.0852C49.4678 51.8909 49.6519 51.5999 49.712 51.273C49.7495 51.0893 49.7679 50.9022 49.7669 50.7147C49.7676 50.5869 49.7943 50.4606 49.8454 50.3435C49.8964 50.2263 49.9708 50.1207 50.0639 50.0332C50.1109 49.9911 50.155 49.946 50.196 49.8981C50.2252 49.8653 50.2473 49.8269 50.2611 49.7853C50.2749 49.7437 50.28 49.6997 50.2762 49.656C50.2762 49.6204 50.2762 49.5862 50.2658 49.5536C50.1975 49.6323 50.0372 49.8209 49.9971 49.858C49.9034 49.9451 49.8287 50.0506 49.7776 50.1678C49.7265 50.2851 49.7001 50.4116 49.7001 50.5395Z" fill="#263238"/>
<path id="Vector_84" d="M48.2806 48.5973C48.3409 48.9804 48.2894 49.3728 48.1321 49.7273C47.9758 50.0811 47.7725 50.4122 47.5278 50.7118C47.4085 50.8533 47.3031 51.0059 47.213 51.1676C47.1241 51.3281 47.0922 51.5138 47.1224 51.6947C47.2234 51.8598 47.378 51.9851 47.5604 52.0496C47.8 52.1258 48.0527 52.152 48.3029 52.1268C48.5892 52.1258 48.8704 52.0511 49.1195 51.91C49.3891 51.7157 49.5731 51.4247 49.6333 51.0978C49.6721 50.9143 49.691 50.7271 49.6897 50.5395C49.6897 50.4116 49.7161 50.2851 49.7672 50.1678C49.8183 50.0506 49.893 49.9451 49.9867 49.858C50.0268 49.8209 50.1871 49.6323 50.2554 49.5536C50.2181 49.2745 50.1236 49.006 49.9778 48.7651L48.2806 48.5973Z" fill="#37474F"/>
<path id="Vector_85" d="M43.5025 32.567C43.5025 32.567 43.0659 38.2599 43.1031 39.8427C43.1402 41.4256 43.302 47.6842 43.302 47.6842C44.1929 48.2024 45.4892 47.8163 45.4892 47.8163C45.5946 42.8213 46.0698 41.7463 45.7461 39.9184C45.9748 38.5613 46.2895 35.3986 46.2895 35.3986C46.735 39.2028 47.0587 41.1627 47.0587 41.1627L48.1233 48.777C48.9979 49.2299 50.0996 48.777 50.0996 48.777C50.0996 44.4368 50.1947 42.6001 49.7388 39.7358C49.7371 37.2051 49.5884 34.6766 49.2934 32.1631L43.5025 32.567Z" fill="#455A64"/>
<path id="Vector_86" opacity="0.2" d="M44.5596 34.037C44.8654 34.7794 45.8217 34.7794 45.8217 34.7794L45.9939 35.6228L45.9301 38.6207C46.1127 37.1626 46.2894 35.3986 46.2894 35.3986L46.1706 34.4958C45.5971 34.53 45.029 34.3682 44.5596 34.037Z" fill="black"/>
<path id="Vector_87" d="M48.5049 19.0995C48.3314 18.8991 48.0895 18.7705 47.8264 18.7387L44.282 19.0683C43.8737 19.934 44.2004 20.5056 44.2004 20.5056C44.1454 21.8271 44.0994 22.6661 44.68 22.9452C45.0907 23.109 45.535 23.1706 45.9748 23.1249C46.388 23.1004 46.792 22.9929 47.1626 22.8086L47.1819 22.7982C47.31 22.7307 47.4218 22.6361 47.5095 22.521C47.5972 22.4058 47.6587 22.2729 47.6897 22.1315C47.7496 21.8745 47.7902 21.6135 47.8115 21.3505C47.818 21.2011 47.8344 21.0523 47.8605 20.905C47.8885 20.7569 47.9574 20.6195 48.0595 20.5086C48.1113 20.4544 48.1756 20.4136 48.2467 20.3898C48.3179 20.366 48.3938 20.3599 48.4678 20.372C48.4934 20.3789 48.5183 20.3884 48.542 20.4002C48.6415 19.8137 48.6712 19.3044 48.5049 19.0995Z" fill="#37474F"/>
<path id="Vector_88" d="M47.2071 19.2004C47.1457 19.4469 47.1623 19.7063 47.2546 19.9429C47.3461 20.1774 47.421 20.418 47.4789 20.663C47.525 20.9096 47.4912 21.1645 47.3823 21.3906C47.3259 21.5013 47.246 21.5985 47.1484 21.6754C47.0507 21.7523 46.9375 21.8071 46.8166 21.836C46.4365 21.9162 46.0638 21.695 45.6822 21.6207C45.3163 21.5603 44.9407 21.6296 44.6205 21.8167C44.5932 21.8328 44.5622 21.8415 44.5305 21.8422C44.4988 21.8429 44.4675 21.8354 44.4395 21.8205C44.4115 21.8056 44.3878 21.7838 44.3706 21.7571C44.3534 21.7305 44.3434 21.6999 44.3414 21.6682C44.2954 20.908 44.2968 19.7157 44.4097 19.1574L47.2071 19.2004Z" fill="#FFA8A7"/>
<path id="Vector_89" d="M47.8784 21.7306C47.8784 21.7306 47.8709 22.0395 47.8635 22.4077C48.0209 22.2726 48.1354 22.0946 48.1932 21.8954C48.071 21.883 47.9582 21.8239 47.8784 21.7306Z" fill="#37474F"/>
<path id="Vector_90" d="M44.4722 18.5115L44.0267 18.2056C43.9814 18.3529 43.9732 18.5091 44.0027 18.6604C44.0322 18.8116 44.0986 18.9533 44.196 19.0727C44.3973 19.3067 44.6703 19.4675 44.9725 19.5301C45.2729 19.5914 45.581 19.6054 45.8857 19.5717C46.3321 19.5354 46.7738 19.4548 47.2043 19.3311C47.399 19.2906 47.5785 19.1965 47.7225 19.0594C47.8119 18.9449 47.8626 18.805 47.8674 18.6599C47.8722 18.5147 47.8308 18.3718 47.7492 18.2516C47.6645 18.134 47.5559 18.0356 47.4305 17.9629C47.3051 17.8903 47.1658 17.8449 47.0216 17.8299C46.7273 17.8059 46.4311 17.829 46.1441 17.8982C45.8571 17.9675 45.5606 17.989 45.2665 17.9621C45.1196 17.9466 44.9786 17.8959 44.8556 17.8142C44.7325 17.7325 44.631 17.6223 44.5598 17.4929C44.3088 17.8953 44.4722 18.5115 44.4722 18.5115Z" fill="#37474F"/>
<path id="Vector_91" d="M45.5768 20.5472L44.9309 21.3312L45.5234 21.5406L45.5768 20.5472Z" fill="#F28F8F"/>
<path id="Vector_92" d="M46.0653 21.9296L45.5664 22.0781C45.599 22.1359 45.6495 22.1816 45.7102 22.2084C45.771 22.2352 45.8388 22.2415 45.9035 22.2265C45.9597 22.2022 46.0062 22.1597 46.0355 22.1059C46.0648 22.0521 46.0753 21.99 46.0653 21.9296Z" fill="#F28F8F"/>
<path id="Vector_93" opacity="0.3" d="M46.0653 21.9296L45.5664 22.0781C45.599 22.1359 45.6495 22.1816 45.7102 22.2084C45.771 22.2352 45.8388 22.2415 45.9035 22.2265C45.9597 22.2022 46.0062 22.1597 46.0355 22.1059C46.0648 22.0521 46.0753 21.99 46.0653 21.9296Z" fill="black"/>
<path id="Vector_94" d="M45.7402 22.2265C45.7923 22.2469 45.8494 22.2505 45.9036 22.2369C45.9498 22.2194 45.9898 22.1887 46.0186 22.1485C46.0474 22.1084 46.0637 22.0606 46.0654 22.0112C45.9989 22.0009 45.9308 22.0135 45.8724 22.0469C45.8067 22.0873 45.7593 22.1518 45.7402 22.2265Z" fill="#F28F8F"/>
<path id="Vector_95" d="M46.4557 20.7194C46.4539 20.7547 46.4417 20.7886 46.4206 20.8168C46.3995 20.8451 46.3704 20.8665 46.3372 20.8782C46.3039 20.89 46.2679 20.8916 46.2337 20.8829C46.1995 20.8742 46.1687 20.8555 46.1451 20.8292C46.1216 20.8029 46.1064 20.7703 46.1014 20.7353C46.0964 20.7004 46.1019 20.6648 46.1172 20.633C46.1325 20.6012 46.1569 20.5747 46.1873 20.5567C46.2177 20.5388 46.2527 20.5303 46.2879 20.5323C46.335 20.535 46.379 20.5562 46.4104 20.5913C46.4419 20.6263 46.4582 20.6724 46.4557 20.7194Z" fill="#263238"/>
<path id="Vector_96" d="M44.9711 20.5828C44.968 20.6297 44.9467 20.6735 44.9117 20.7049C44.8768 20.7362 44.8309 20.7527 44.784 20.7506C44.7487 20.7488 44.7148 20.7366 44.6866 20.7155C44.6583 20.6943 44.6369 20.6653 44.6252 20.6321C44.6134 20.5988 44.6118 20.5628 44.6205 20.5286C44.6293 20.4944 44.6479 20.4636 44.6742 20.44C44.7005 20.4165 44.7331 20.4012 44.7681 20.3963C44.803 20.3913 44.8386 20.3968 44.8704 20.4121C44.9022 20.4274 44.9287 20.4518 44.9467 20.4822C44.9646 20.5126 44.9731 20.5476 44.9711 20.5828Z" fill="#263238"/>
<path id="Vector_97" d="M44.836 19.8671L44.4291 20.1181C44.4145 20.0685 44.4153 20.0157 44.4315 19.9666C44.4477 19.9175 44.4784 19.8745 44.5197 19.8434C44.5693 19.817 44.6253 19.8053 44.6813 19.8095C44.7372 19.8137 44.7909 19.8337 44.836 19.8671Z" fill="#263238"/>
<path id="Vector_98" d="M46.355 19.928L46.7336 20.225C46.7536 20.1773 46.7583 20.1246 46.7471 20.074C46.7359 20.0235 46.7095 19.9777 46.6713 19.9429C46.6253 19.9108 46.5712 19.8924 46.5153 19.8898C46.4593 19.8871 46.4037 19.9004 46.355 19.928Z" fill="#263238"/>
<path id="Vector_99" d="M49.2235 23.848L48.4811 23.7693L44.8804 23.747C43.6153 23.747 43.4534 25.3046 43.3807 26.6826C43.3079 28.0605 43.541 30.8327 43.2322 32.6843L44.7378 33.6569L45.161 33.2025L45.8366 33.8306C48.1277 33.8306 49.4759 32.5596 49.6497 32.3457L49.2235 23.848Z" fill="#C1D600"/>
<path id="Vector_100" opacity="0.2" d="M49.2235 23.848L48.4811 23.7693L44.8804 23.747C43.6153 23.747 43.4534 25.3046 43.3807 26.6826C43.3079 28.0605 43.541 30.8327 43.2322 32.6843L44.7378 33.6569L45.161 33.2025L45.8366 33.8306C48.1277 33.8306 49.4759 32.5596 49.6497 32.3457L49.2235 23.848Z" fill="white"/>
<path id="Vector_101" d="M45.4713 24.2251C45.1342 25.3002 45.3451 26.7984 45.4713 27.4725C46.3265 26.2965 47.1269 25.116 47.3778 24.6513L46.1899 24.0722L45.4713 24.2251Z" fill="#455A64"/>
<path id="Vector_102" d="M48.7854 20.6571C48.7376 20.5446 48.6505 20.4533 48.5404 20.4002C48.5167 20.3884 48.4918 20.3789 48.4662 20.372C48.3922 20.3599 48.3163 20.366 48.2451 20.3898C48.174 20.4136 48.1097 20.4544 48.0579 20.5086C47.9558 20.6195 47.8868 20.7569 47.8589 20.905C47.8328 21.0523 47.8164 21.2011 47.8099 21.3505C47.7879 21.62 47.7457 21.8876 47.6837 22.1508C47.6512 22.2889 47.5893 22.4184 47.5021 22.5304C47.415 22.6424 47.3047 22.7342 47.1788 22.7997L47.161 22.8086C46.7904 22.9929 46.3863 23.1004 45.9731 23.1249V24.3127L47.6481 23.4857C47.7072 23.4511 47.7565 23.402 47.7913 23.343C47.8261 23.284 47.8453 23.2171 47.847 23.1486C47.847 22.9586 47.8559 22.5992 47.8604 22.4062C47.8678 22.038 47.8752 21.7291 47.8752 21.7291C47.9551 21.8225 48.0678 21.8815 48.19 21.8939C48.245 21.9023 48.3011 21.8993 48.3548 21.885C48.4345 21.8602 48.5083 21.8195 48.5718 21.7654C48.6354 21.7113 48.6873 21.6449 48.7246 21.5702C48.7978 21.4207 48.8378 21.2571 48.8419 21.0906C48.8559 20.9437 48.8366 20.7955 48.7854 20.6571Z" fill="#FFA8A7"/>
<path id="Vector_103" d="M47.4001 22.7848C47.4989 22.6583 47.5693 22.5119 47.6065 22.3557C47.5147 22.5458 47.365 22.7017 47.1788 22.8012L47.161 22.8101C46.7904 22.9943 46.3863 23.1019 45.9731 23.1264V23.4233C46.2118 23.4017 46.4471 23.3518 46.674 23.2748C46.9574 23.1833 47.2091 23.0134 47.4001 22.7848Z" fill="#F28F8F"/>
<path id="Vector_104" d="M45.9703 25.2126L45.6733 25.1413C45.5295 25.517 45.4095 25.9013 45.314 26.292C45.3453 26.6904 45.3974 27.0869 45.4699 27.4799C45.6377 27.2498 45.8025 27.0181 45.9628 26.7924C45.9121 26.2669 45.9146 25.7376 45.9703 25.2126Z" fill="#C1D600"/>
<path id="Vector_105" opacity="0.2" d="M45.9569 25.2734C45.9569 25.2541 45.9569 25.2319 45.9569 25.2126L45.6599 25.1413L45.6436 25.1858C45.6907 25.2287 45.7479 25.2588 45.8099 25.2734C45.8583 25.2836 45.9084 25.2836 45.9569 25.2734Z" fill="black"/>
<path id="Vector_106" d="M46.1277 24.4404L46.3593 24.292L46.8998 24.5889C46.7151 24.7307 46.4945 24.8182 46.2628 24.8414L46.1277 24.4404Z" fill="#C1D600"/>
<path id="Vector_107" d="M45.7698 24.3825L45.7 24.2251L45.4268 24.3959C45.4563 24.4988 45.5183 24.5894 45.6035 24.6543L45.7698 24.3825Z" fill="#C1D600"/>
<path id="Vector_108" opacity="0.2" d="M46.1277 24.4404L46.3593 24.292L46.8998 24.5889C46.7151 24.7307 46.4945 24.8182 46.2628 24.8414L46.1277 24.4404Z" fill="black"/>
<path id="Vector_109" opacity="0.2" d="M45.7698 24.3825L45.7 24.2251L45.4268 24.3959C45.4563 24.4988 45.5183 24.5894 45.6035 24.6543L45.7698 24.3825Z" fill="black"/>
<path id="Vector_110" d="M46.2628 24.8384C46.2391 24.6994 46.1935 24.5651 46.1277 24.4404L45.7699 24.3825C45.7044 24.4666 45.6486 24.5577 45.6036 24.6543C45.5955 24.8197 45.6197 24.9851 45.6748 25.1413C45.7666 25.1886 45.8685 25.2131 45.9718 25.2126C46.1054 25.1212 46.2072 24.9904 46.2628 24.8384Z" fill="#C1D600"/>
<path id="Vector_111" d="M46.0015 24.3142C46.5687 24.3053 46.9161 24.7597 47.4343 24.9082L48.4915 23.7663L48.0817 23.1575C48.0001 23.0358 47.9763 22.9333 47.8531 22.8606V23.0818C47.8531 23.2125 47.6957 23.3328 47.5828 23.3981L46.0015 24.3142Z" fill="#37474F"/>
<path id="Vector_112" d="M46.0015 24.3142C45.6868 24.2162 45.2161 24.6112 45.2161 24.6112C45.3809 23.6995 45.8783 23.3402 46.0001 23.3402L46.0015 24.3142Z" fill="#37474F"/>
<path id="Vector_113" opacity="0.2" d="M45.363 27.5527L44.9755 28.0739C44.8688 28.2164 44.8162 28.3921 44.827 28.5698L45.0869 32.9011L44.6414 28.6039C44.629 28.483 44.646 28.3608 44.691 28.2478C44.7359 28.1348 44.8076 28.0344 44.8998 27.9551L45.363 27.5527Z" fill="black"/>
<path id="Vector_114" d="M51.1272 32.564C50.8698 32.4439 50.6467 32.2611 50.4783 32.0325L50.2244 32.4779C49.8903 32.3428 49.5384 32.2255 49.2058 32.0904C49.1267 32.0515 49.04 32.0307 48.9519 32.0295C48.9076 32.0297 48.8645 32.0443 48.8291 32.0711C48.7938 32.0978 48.7681 32.1353 48.7559 32.178C48.7543 32.224 48.7641 32.2697 48.7843 32.3112C48.8044 32.3526 48.8345 32.3884 48.8717 32.4155C49.0448 32.5844 49.2457 32.722 49.4656 32.8224C49.1633 33.1049 48.8108 33.3285 48.4263 33.4817C48.3049 33.5234 48.1876 33.5761 48.0758 33.639C47.9639 33.7049 47.8815 33.8112 47.8457 33.936C47.8344 34.0181 47.8419 34.1016 47.8676 34.1803C47.8933 34.259 47.9366 34.3308 47.9942 34.3904C48.1214 34.5269 48.2765 34.6345 48.4489 34.7059C48.6213 34.7774 48.807 34.8111 48.9935 34.8047C49.3679 34.7889 49.7313 34.6736 50.0462 34.4706C50.3599 34.2688 50.6533 34.037 50.9223 33.7786C51.2793 33.4582 51.6036 33.1031 51.8904 32.7184C51.6274 32.727 51.3661 32.6742 51.1272 32.564Z" fill="#FFA8A7"/>
<path id="Vector_115" d="M53.4273 30.5402C53.5526 30.3623 53.6284 30.1544 53.6472 29.9376C53.666 29.7209 53.627 29.503 53.5342 29.3063C52.526 27.1829 51.2475 25.0418 51.2475 25.0418C50.7308 24.1509 50.3566 23.7693 49.2103 23.8465C48.7649 25.3685 49.1702 26.1911 50.2809 27.9328L51.6173 30.0294L50.4724 32.0324C50.6349 32.2557 50.8505 32.4349 51.0996 32.5539C51.3488 32.6728 51.6236 32.7279 51.8994 32.714L51.9603 32.6338L53.4273 30.5402Z" fill="#455A64"/>
</g>
</g>
</svg>
