<svg width="20" height="20" viewBox="0 0 20 20" fill="none" xmlns="http://www.w3.org/2000/svg">
<g id="tabler:credit-card-pay">
<path id="Vector" d="M9.58803 14.5294H4.64686C3.99162 14.5294 3.36321 14.2691 2.89989 13.8058C2.43656 13.3425 2.17627 12.7141 2.17627 12.0588V5.47059C2.17627 4.81535 2.43656 4.18694 2.89989 3.72362C3.36321 3.26029 3.99162 3 4.64686 3H14.5292C15.1845 3 15.8129 3.26029 16.2762 3.72362C16.7395 4.18694 16.9998 4.81535 16.9998 5.47059V9.17647M2.17627 7.11765H16.9998M12.8822 14.5294H17.8233M17.8233 14.5294L15.3527 12.0588M17.8233 14.5294L15.3527 17M5.4745 11.2353H5.47862M8.7645 11.2353H10.4116" stroke="#003057" stroke-linecap="round" stroke-linejoin="round"/>
</g>
</svg>
