<svg width="20" height="20" viewBox="0 0 20 20" fill="none" xmlns="http://www.w3.org/2000/svg">
<g id="Home">
<g id="Home Icon">
<path id="Vector" d="M17.4992 9.18308L17.4993 9.19441L17.4999 9.20572C17.5007 9.22024 17.4963 9.23465 17.4874 9.24636L17.5031 9.25837L17.4874 9.24636C17.4839 9.25091 17.4798 9.25495 17.4753 9.25837H17.475H17.4732H17.4714H17.4695H17.4677H17.4658H17.4639H17.462H17.4601H17.4582H17.4562H17.4543H17.4523H17.4503H17.4483H17.4463H17.4442H17.4422H17.4401H17.438H17.4359H17.4338H17.4316H17.4295H17.4273H17.4251H17.423H17.4207H17.4185H17.4163H17.414H17.4118H17.4095H17.4072H17.4049H17.4026H17.4002H17.3979H17.3955H17.3932H17.3908H17.3884H17.386H17.3835H17.3811H17.3786H17.3762H17.3737H17.3712H17.3687H17.3662H17.3637H17.3611H17.3586H17.356H17.3534H17.3508H17.3482H17.3456H17.343H17.3404H17.3377H17.3351H17.3324H17.3297H17.327H17.3243H17.3216H17.3189H17.3162H17.3134H17.3107H17.3079H17.3051H17.3024H17.2996H17.2968H17.294H17.2911H17.2883H17.2855H17.2826H17.2798H17.2769H17.274H17.2711H17.2682H17.2653H17.2624H17.2595H17.2566H17.2536H17.2507H17.2477H17.2448H17.2418H17.2388H17.2358H17.2328H17.2298H17.2268H17.2238H17.2208H17.2177H17.2147H17.2117H17.2086H17.2055H17.2025H17.1994H17.1963H17.1932H17.1901H17.187H17.1839H17.1808H17.1777H17.1746H17.1715H17.1683H17.1652H17.162H17.1589H17.1557H17.1526H17.1494H17.1462H17.143H17.1399H17.1367H17.1335H17.1303H17.1271H17.1239H17.1207H17.1175H17.1142H17.111H17.1078H17.1046H17.1013H17.0981H17.0948H17.0916H17.0884H17.0851H17.0819H17.0786H17.0753H17.0721H17.0688H17.0655H17.0623H17.059H17.0557H17.0524H17.0492H17.0459H17.0426H17.0393H17.036H17.0327H17.0295H17.0262H17.0229H17.0196H17.0163H17.013H17.0097H17.0064H17.0031H16.9998H16.9965H16.9932H16.9899H16.9866H16.9833H16.98H16.9767H16.9734H16.9701H16.9668H16.9634H16.9601H16.9568H16.9535H16.9502H16.9469H16.9436H16.9403H16.937H16.9338H16.9305H16.9272H16.9239H16.9206H16.9173H16.914H16.9107H16.9074H16.9042H16.9009H16.8976H16.8943H16.8911H16.8878H16.8845H16.8813H16.878H16.8747H16.8715H16.8682H16.865H16.8617H16.8585H16.8553H16.852H16.8488H16.8456H16.8423H16.8391H16.8359H16.8327H16.8295H16.8263H16.8231H16.8199H16.8167H16.8135H16.8103H16.8072H16.804H16.8008H16.7977H16.7945H16.7914H16.7882H16.7851H16.7819H16.7788H16.7757H16.7726H16.7695H16.7664H16.7633H16.7602H16.7571H16.754H16.751H16.7479H16.7448H16.7418H16.7387H16.7357H16.7327H16.7296H16.7266H16.7236H16.7206H16.7176H16.7147H16.7117H16.7087H16.7058H16.7028H16.6999H16.6969H16.694H16.6911H16.6882H16.6853H16.6824H16.6795H16.6766H16.6738H16.6709H16.6681H16.6652H16.6624H16.6596H16.6568H16.654H16.6512H16.6484H16.6456H16.6429H16.6401H16.6374H16.6347H16.6319H16.6292H16.6265H16.6239H16.6212H16.6185H16.6159H16.6132H16.6106H16.608H16.6054H16.6028H16.6002H16.5976H16.5951H16.5925H16.59H16.5875H16.585H16.5825H16.58H16.5775H16.575H16.5726H16.5702H16.5677H16.5653H16.5629H16.5606H16.5582H16.5558H16.5535H16.5512H16.5488H16.5465H16.5443H16.542H16.5397H16.5375H16.5353H16.533H16.5308H16.5287H16.5265H16.5243H16.5222H16.5201H16.5179H16.5158H16.5138H16.5117H16.5096H16.5076H16.5056H16.5036H16.5016H16.4996H16.4977H16.4957H16.4938H16.4919H16.49H16.4881H16.4863H16.4844H16.4826H16.4808H16.479H16.4772H16.4755H16.4737H16.472H16.4703H16.4686H16.4669H16.4653H16.4637H16.462H16.4604H16.4589H16.4573H16.4558H16.4542H16.4527H16.4512H16.4498H16.4483H16.4469H16.4455H16.4441H16.4427H16.4414H16.44H16.4387H16.4374H16.4361H16.4349H16.4336H16.4324H16.4312H16.43H16.4289H16.4277H16.4266H16.4255H16.4245H16.4234H16.4224H16.4214H16.4204H16.4194H16.4184H16.4175H16.4166H16.4157H16.4149H16.414H16.4132H16.4124H16.4116H16.4109H16.4101H16.4094H16.4087H16.4081H16.4074H16.4068H16.4062H16.4056H16.4051H16.4046H16.404H16.4036H16.4031H16.4027H16.4023H16.4019H16.4015H16.4012H16.4008H15.9008V9.75837V17.4416C15.9008 17.4568 15.8948 17.4715 15.8838 17.4824C15.8729 17.4934 15.8578 17.4997 15.842 17.4997H12.094C12.0782 17.4997 12.0632 17.4934 12.0522 17.4824C12.0412 17.4715 12.0352 17.4568 12.0352 17.4416V12.8131V12.3131H11.5352H8.51746H8.01746V12.8131V17.4416V17.4419C8.01746 17.4496 8.01591 17.4572 8.01289 17.4643L8.47321 17.6596L8.01289 17.4643C8.00987 17.4715 8.00542 17.478 7.99977 17.4834C7.99412 17.4889 7.9874 17.4932 7.97999 17.496L8.15957 17.9627L7.97998 17.496C7.97256 17.4989 7.96462 17.5002 7.95663 17.5L7.94831 17.4997H7.93999H4.15849C4.14267 17.4997 4.12763 17.4934 4.11665 17.4824C4.10569 17.4715 4.09965 17.4568 4.09965 17.4416V9.7472V9.2472H3.59965C3.59393 9.2472 3.56325 9.24762 3.5158 9.24827C3.40313 9.2498 3.19594 9.25263 3.00412 9.2542C2.86265 9.25535 2.72515 9.25591 2.62407 9.25507C2.58794 9.25477 2.55891 9.25431 2.53721 9.25375C2.52768 9.24915 2.51938 9.24234 2.51303 9.23387C2.50441 9.22236 2.49989 9.20846 2.5 9.19432C2.50225 9.17876 2.50953 9.16424 2.52088 9.15302L4.1324 7.72534L4.13383 7.72406L9.96814 2.51509L9.96823 2.51501C9.97899 2.5054 9.99303 2.5 10.0077 2.5C10.0224 2.5 10.0364 2.5054 10.0472 2.51501L10.0477 2.51552L15.8962 7.72381L15.8969 7.72448L17.4848 9.14429C17.494 9.15522 17.499 9.16892 17.4992 9.18308Z" stroke="#6B7280"/>
</g>
</g>
</svg>
