<svg width="20" height="20" viewBox="0 0 20 20" fill="none" xmlns="http://www.w3.org/2000/svg">
<g id="Home">
<g id="Home Icon">
<path id="Vector" d="M17.9991 9.17794C17.9976 9.02952 17.9373 8.88773 17.8315 8.78355L16.2295 7.35108L10.3803 2.14212C10.2778 2.0506 10.1452 2 10.0077 2C9.87024 2 9.7376 2.0506 9.63514 2.14212L3.80083 7.35108L2.18392 8.78355C2.07873 8.88049 2.01361 9.01319 2.00136 9.15561C1.99194 9.29093 2.03153 9.42512 2.11292 9.53372C2.1943 9.64231 2.31206 9.71808 2.44471 9.7472C2.44471 9.76581 3.5624 9.7472 3.59965 9.7472V17.4416C3.59965 17.5896 3.65853 17.7316 3.76333 17.8362C3.86814 17.9409 4.01028 17.9997 4.15849 17.9997H7.93999C8.01493 18.0022 8.0896 17.9896 8.15957 17.9627C8.22954 17.9357 8.29336 17.895 8.34725 17.843C8.40113 17.7909 8.44397 17.7285 8.47321 17.6596C8.50245 17.5906 8.5175 17.5165 8.51746 17.4416V12.8131H11.5352V17.4416C11.5352 17.5896 11.5941 17.7316 11.6989 17.8362C11.8037 17.9409 11.9458 17.9997 12.094 17.9997H15.842C15.9902 17.9997 16.1324 17.9409 16.2372 17.8362C16.342 17.7316 16.4008 17.5896 16.4008 17.4416V9.75837C16.453 9.75837 17.5521 9.75837 17.5558 9.75837C17.6868 9.73021 17.8034 9.65627 17.8847 9.54986C17.966 9.44346 18.0066 9.31157 17.9991 9.17794Z" fill="#003057"/>
</g>
</g>
</svg>
