<svg width="20" height="20" viewBox="0 0 20 20" fill="none" xmlns="http://www.w3.org/2000/svg">
<g id="hugeicons:security-lock">
<g id="Group">
<path id="Vector" d="M10.4983 2C8.12362 2 6.58416 3.59393 4.76365 4.17498C4.02313 4.41182 3.65287 4.52945 3.50287 4.69603C3.35287 4.86182 3.30945 5.10577 3.22182 5.59208C2.28235 10.7994 4.33497 15.6136 9.22967 17.4878C9.75466 17.6891 10.0176 17.7894 10.5007 17.7894C10.9839 17.7894 11.2475 17.6883 11.7733 17.487C16.6672 15.6136 18.7175 10.7994 17.778 5.59208C17.6904 5.10577 17.6462 4.86182 17.4962 4.69524C17.3462 4.52866 16.9767 4.41103 16.2362 4.17498C14.4149 3.59393 12.8731 2 10.4983 2Z" stroke="#003057" stroke-linecap="round" stroke-linejoin="round"/>
<path id="Vector_2" d="M9.11849 8.28335C9.11849 8.23598 9.12481 7.96283 9.12639 7.6202C9.12639 7.30599 9.09955 7.00441 9.24954 6.7281C9.81007 5.61179 11.4206 5.72548 11.8185 6.86231C11.8872 7.04941 11.8919 7.34546 11.8895 7.6202C11.8872 7.96993 11.8943 8.28335 11.8943 8.28335M9.18718 8.61572C8.33455 8.61572 7.90824 9.2315 7.8135 9.61045C7.71877 9.98939 7.71877 11.3631 7.77561 11.9315C7.96508 12.642 8.43876 12.9357 8.90297 13.0304C9.32928 13.0683 11.1293 13.0541 11.6503 13.0541C12.4082 13.0683 12.9766 12.7841 13.2135 11.9315C13.2608 11.6473 13.3082 10.0841 13.1898 9.61045C12.9387 8.85256 12.3135 8.61572 11.8398 8.61572H9.18718Z" stroke="#003057" stroke-linecap="round" stroke-linejoin="round"/>
</g>
</g>
</svg>
