<svg width="20" height="20" viewBox="0 0 20 20" fill="none" xmlns="http://www.w3.org/2000/svg">
<g id="tabler:logout-2">
<g id="Group">
<path id="Vector" d="M8.22217 6.55556V4.77778C8.22217 4.30628 8.40947 3.8541 8.74287 3.5207C9.07627 3.1873 9.52845 3 9.99995 3H16.2222C16.6937 3 17.1458 3.1873 17.4792 3.5207C17.8126 3.8541 17.9999 4.30628 17.9999 4.77778V15.4444C17.9999 15.9159 17.8126 16.3681 17.4792 16.7015C17.1458 17.0349 16.6937 17.2222 16.2222 17.2222H9.99995C9.52845 17.2222 9.07627 17.0349 8.74287 16.7015C8.40947 16.3681 8.22217 15.9159 8.22217 15.4444V13.6667" stroke="#EF4444" stroke-linecap="round" stroke-linejoin="round"/>
<path id="Vector_2" d="M12.6667 10.1111H2M2 10.1111L4.66667 7.44444M2 10.1111L4.66667 12.7778" stroke="#EF4444" stroke-linecap="round" stroke-linejoin="round"/>
</g>
</g>
</svg>
