<svg width="152" height="43" viewBox="0 0 152 43" fill="none" xmlns="http://www.w3.org/2000/svg">
<mask id="mask0_18137_1947" style="mask-type:luminance" maskUnits="userSpaceOnUse" x="1" y="0" width="150" height="43">
<path d="M150.197 0.351257H1.2113V42.6427H150.197V0.351257Z" fill="white"/>
</mask>
<g mask="url(#mask0_18137_1947)">
<mask id="mask1_18137_1947" style="mask-type:luminance" maskUnits="userSpaceOnUse" x="1" y="0" width="150" height="43">
<path d="M150.197 0.351257H1.2113V42.6427H150.197V0.351257Z" fill="white"/>
</mask>
<g mask="url(#mask1_18137_1947)">
<path d="M4.18497 22.869C2.35595 17.6181 1.21736 11.3256 1.2113 3.64614C1.2113 3.55529 1.27792 3.48262 1.36877 3.4705L31.4264 0.351489C31.5717 0.339376 31.6686 0.496841 31.5899 0.617968C29.876 3.22219 27.9016 5.70529 25.6729 8.05515C18.6536 15.456 10.4714 20.1799 4.42116 22.9659C4.33032 23.0082 4.2213 22.9659 4.18497 22.8629" fill="#BFD961"/>
<path d="M16.546 28.0045C19.8467 29.1794 23.0202 30.7117 26.0362 32.5831C26.115 32.6316 26.1453 32.7406 26.0968 32.8254C23.965 36.332 21.2639 39.6811 17.8541 42.6003C17.7875 42.6608 17.6846 42.6548 17.624 42.6003C13.1423 38.4275 8.48498 33.2251 5.28723 25.697C5.23272 25.5759 5.33568 25.4366 5.46892 25.4548C9.29047 25.8909 13.003 26.7448 16.552 28.0106" fill="#BFD961"/>
<path d="M27.3565 30.6148C27.3081 30.7056 27.1991 30.7359 27.1143 30.6814C23.9892 28.7494 20.7067 27.1627 17.2849 25.9454C14.4929 24.9521 11.6101 24.2011 8.65458 23.6985C8.49106 23.6682 8.45472 23.4501 8.60613 23.3714C14.3415 20.4038 21.2215 15.9524 27.2778 9.56902C29.7427 6.97085 31.9109 4.21521 33.7702 1.31423C33.8611 1.16888 34.0851 1.22944 34.0912 1.40507C34.1457 5.5355 33.7642 18.6596 27.3687 30.6148" fill="#BFD961"/>
<path d="M45.6769 11.7917C44.7321 11.7917 43.9509 11.9794 43.3271 12.361C42.7093 12.7365 42.2369 13.2997 41.9099 14.0507C41.5889 14.8017 41.4254 15.7223 41.4254 16.8124C41.4254 17.9025 41.5889 18.7928 41.922 19.5256C42.2551 20.2524 42.7335 20.7975 43.3695 21.1669C44.0054 21.5303 44.8048 21.712 45.7799 21.712C46.6157 21.712 47.5423 21.5908 48.5537 21.3486L48.7959 21.5485V23.1292C47.6755 23.4501 46.5369 23.6137 45.3741 23.6137C44.0114 23.6137 42.8365 23.3411 41.8554 22.8021C40.8682 22.2631 40.1172 21.4879 39.5903 20.4765C39.0634 19.4651 38.803 18.2538 38.803 16.8366C38.803 15.4194 39.0755 14.1718 39.6206 13.1362C40.1657 12.1006 40.9409 11.3011 41.9462 10.7379C42.9516 10.1807 44.1386 9.89606 45.5195 9.89606C46.5309 9.89606 47.5241 10.0354 48.4931 10.32V11.937L48.2327 12.1611C47.3303 11.9189 46.4764 11.7977 45.683 11.7977" fill="white"/>
<path d="M51.2549 21.8028C50.1345 20.6036 49.5773 18.9139 49.5773 16.7457C49.5773 14.5776 50.1284 12.8697 51.2367 11.6766C52.345 10.4835 53.9076 9.88391 55.9304 9.88391C57.9532 9.88391 59.4733 10.4835 60.5756 11.6766C61.6718 12.8697 62.2229 14.5594 62.2229 16.7457C62.2229 18.9321 61.6718 20.6036 60.5756 21.8028C59.4733 23.0019 57.935 23.6015 55.9546 23.6015C53.9742 23.6015 52.3814 23.0019 51.2609 21.8028M58.6436 20.3977C59.2916 19.5256 59.6126 18.3083 59.6126 16.7457C59.6126 15.1832 59.2916 13.9477 58.6436 13.0817C57.9956 12.2217 57.0932 11.7856 55.9304 11.7856C54.7676 11.7856 53.8046 12.2156 53.1566 13.0695C52.5085 13.9235 52.1876 15.1529 52.1876 16.7397C52.1876 18.3264 52.5206 19.5195 53.1808 20.3917C53.8409 21.2638 54.7615 21.6938 55.9304 21.6938C57.0992 21.6938 57.9956 21.2577 58.6436 20.3917" fill="white"/>
<path d="M73.4695 21.3304C73.0759 22.0935 72.5005 22.6628 71.7314 23.0383C70.9622 23.4138 70.0114 23.6076 68.8788 23.6076C67.2194 23.6076 65.9597 23.1776 65.1057 22.3237C64.2518 21.4697 63.8218 20.2039 63.8218 18.5324V10.1383H66.3109V18.7565C66.3109 19.7679 66.529 20.5189 66.959 21.0034C67.389 21.4879 68.0491 21.7301 68.9394 21.7301C69.8297 21.7301 70.5201 21.4818 70.9198 20.9913C71.3256 20.5007 71.5254 19.7558 71.5254 18.7565V10.1383H74.057V18.5324C74.057 19.6407 73.8632 20.5734 73.4695 21.3365" fill="white"/>
<path d="M78.2903 23.4077H75.8617V16.7579C75.8617 16.0493 75.8375 15.4073 75.7891 14.8319C75.7406 14.2566 75.6619 13.7176 75.5529 13.2331L77.4485 12.8455L78.2843 15.1105V23.4138L78.2903 23.4077ZM79.1745 13.2089C79.8468 12.9121 80.5433 12.7607 81.264 12.7607C82.4874 12.7607 83.4079 13.0817 84.0196 13.7176C84.6313 14.3596 84.9402 15.3225 84.9402 16.6125V23.4017H82.5116V16.7942C82.5116 16.1159 82.3602 15.6132 82.0513 15.2862C81.7424 14.9591 81.2519 14.7956 80.5736 14.7956C80.1678 14.7956 79.7317 14.8562 79.2654 14.9712C78.8051 15.0863 78.4175 15.2559 78.1026 15.4739L77.3455 14.62C77.8906 13.9841 78.4962 13.5117 79.1685 13.2149" fill="white"/>
<path d="M86.6117 11.0286C86.315 10.7439 86.1636 10.3805 86.1636 9.95053C86.1636 9.52053 86.315 9.13898 86.6117 8.86039C86.9085 8.5818 87.29 8.4425 87.7564 8.4425C88.2227 8.4425 88.6224 8.5818 88.9192 8.86039C89.216 9.13898 89.3674 9.50236 89.3674 9.95053C89.3674 10.3987 89.216 10.7439 88.9192 11.0286C88.6224 11.3132 88.2348 11.4586 87.7564 11.4586C87.2779 11.4586 86.9146 11.3132 86.6117 11.0286ZM86.5269 13.0272H88.9555V23.4077H86.5269V13.0272Z" fill="white"/>
<path d="M100.396 13.0272V13.6994L96.7259 23.4077H94.1156L90.4454 13.6994V13.0272H92.9346L95.7871 22.1056H95.0967L98.0098 13.0272H100.396Z" fill="white"/>
<path d="M102.364 22.2692C101.444 21.3425 100.99 19.9859 100.99 18.1933C100.99 17.091 101.177 16.1341 101.559 15.3286C101.94 14.5171 102.498 13.8933 103.242 13.4451C103.981 12.9969 104.878 12.7728 105.925 12.7728C107.312 12.7728 108.372 13.1483 109.105 13.9054C109.838 14.6624 110.207 15.7404 110.207 17.1394V19.0593H102.843V17.5513H108.469L107.918 17.9389V17.1818C107.918 16.3279 107.742 15.6799 107.397 15.2559C107.052 14.8259 106.531 14.614 105.835 14.614C105.09 14.614 104.496 14.9228 104.072 15.5406C103.642 16.1583 103.43 16.9699 103.43 17.9752V18.5687C103.473 19.671 103.769 20.4825 104.32 21.0034C104.872 21.5242 105.671 21.7907 106.719 21.7907C107.767 21.7907 108.699 21.6696 109.596 21.4213L109.904 21.6635V23.2563C109.426 23.3896 108.881 23.4925 108.263 23.5652C107.645 23.6318 106.991 23.6682 106.295 23.6682C104.593 23.6682 103.285 23.2079 102.37 22.2813" fill="white"/>
<path d="M111.739 14.8319C111.691 14.2566 111.612 13.7176 111.503 13.2331L113.399 12.8455L114.071 14.7653L114.235 15.1529V23.4138H111.806V16.7639C111.806 16.0553 111.782 15.4134 111.733 14.838M114.913 13.4027C115.591 12.9727 116.318 12.7607 117.093 12.7607C117.42 12.7607 117.753 12.8091 118.093 12.906V14.62L117.808 14.9046C117.481 14.838 117.13 14.8017 116.748 14.8017C116.191 14.8017 115.664 14.8925 115.167 15.0742C114.671 15.2559 114.301 15.5224 114.053 15.8615L113.096 15.371C113.629 14.4867 114.229 13.8327 114.913 13.4027Z" fill="white"/>
<path d="M124.47 14.7411C124.064 14.6624 123.676 14.62 123.307 14.62C122.75 14.62 122.326 14.7169 122.041 14.9167C121.757 15.1166 121.611 15.4073 121.611 15.8009C121.611 16.0432 121.69 16.2552 121.847 16.4248C122.005 16.5943 122.199 16.7397 122.441 16.8548C122.677 16.9698 122.992 17.0849 123.392 17.1939C124.004 17.3998 124.506 17.5997 124.9 17.8056C125.294 18.0115 125.639 18.3204 125.929 18.7322C126.22 19.1501 126.365 19.7073 126.365 20.4159C126.365 21.4636 125.984 22.2631 125.215 22.8202C124.446 23.3774 123.368 23.656 121.981 23.656C120.975 23.656 119.982 23.5228 119.001 23.2502V21.4939L119.225 21.3122C119.704 21.4878 120.152 21.609 120.582 21.6817C121.012 21.7483 121.478 21.7846 121.981 21.7846C123.216 21.7846 123.834 21.3849 123.834 20.5794C123.834 20.319 123.755 20.107 123.598 19.9374C123.44 19.7678 123.24 19.6225 122.998 19.5074C122.756 19.3924 122.429 19.2712 122.017 19.1501C121.417 18.9442 120.921 18.7443 120.527 18.5384C120.134 18.3325 119.794 18.0297 119.516 17.6179C119.237 17.2121 119.098 16.6731 119.098 16.0069C119.098 14.9894 119.461 14.19 120.188 13.6207C120.915 13.0514 121.938 12.7667 123.259 12.7667C123.707 12.7667 124.161 12.8031 124.615 12.8697C125.069 12.9363 125.524 13.0393 125.972 13.1786V14.9349L125.748 15.1166C125.3 14.9531 124.87 14.8319 124.464 14.7471" fill="white"/>
<path d="M127.916 11.0286C127.619 10.7439 127.468 10.3805 127.468 9.95053C127.468 9.52053 127.619 9.13898 127.916 8.86039C128.213 8.5818 128.594 8.4425 129.061 8.4425C129.527 8.4425 129.927 8.5818 130.223 8.86039C130.52 9.13898 130.672 9.50236 130.672 9.95053C130.672 10.3987 130.52 10.7439 130.223 11.0286C129.927 11.3132 129.539 11.4586 129.061 11.4586C128.582 11.4586 128.219 11.3132 127.916 11.0286ZM127.831 13.0272H130.26V23.4077H127.831V13.0272Z" fill="white"/>
<path d="M131.707 13.336L133.361 13.0332H138.926V14.9107H131.707V13.3421V13.336ZM136.092 21.4939C136.298 21.6817 136.607 21.7786 137.031 21.7786C137.509 21.7786 138.079 21.7241 138.745 21.615L138.951 21.7967V23.329C138.121 23.547 137.346 23.656 136.625 23.656C135.565 23.656 134.754 23.3956 134.196 22.8808C133.639 22.366 133.361 21.5726 133.361 20.5128V10.4169H135.789V20.5128C135.789 20.9731 135.892 21.3001 136.092 21.4939Z" fill="white"/>
<path d="M150.197 13.0272V13.7236L144.831 27.9742H142.487V27.3262L144.692 22.6143L144.916 23.4077H143.893L140.222 13.7236V13.0272H142.712L145.57 22.3055H144.892L147.811 13.0272H150.197Z" fill="white"/>
<path d="M43.0788 27.0597L41.3104 32.2318L41.2195 32.4801L40.3111 35.1449H39.3602V35.0541L42.4247 26.5146H43.4967L46.5612 35.0541V35.1449H45.5437L44.6595 32.5468L44.5566 32.2197L42.8245 27.1748L43.0909 27.0537L43.0788 27.0597ZM40.7956 32.0259H45.0714V32.8072H40.7956V32.0259Z" fill="white"/>
<path d="M53.4351 33.8549C53.1989 34.3334 52.8537 34.6907 52.3934 34.9329C51.9331 35.1691 51.3578 35.2903 50.6734 35.2903C49.6378 35.2903 48.8626 35.0238 48.3538 34.4969C47.8451 33.97 47.5968 33.1645 47.5968 32.0804V26.5207H48.5719V32.0925C48.5719 32.9283 48.7415 33.546 49.0867 33.9397C49.4319 34.3334 49.9648 34.5332 50.6855 34.5332C51.4062 34.5332 51.9513 34.3334 52.2965 33.9397C52.6417 33.546 52.8113 32.9283 52.8113 32.0925V26.5207H53.7864V32.0804C53.7864 32.7829 53.6713 33.3765 53.4351 33.8549Z" fill="white"/>
<path d="M59.3279 27.2232C58.9827 27.1687 58.6617 27.1445 58.3529 27.1445C57.7169 27.1445 57.2324 27.2717 56.8933 27.5321C56.5541 27.7925 56.3845 28.1741 56.3845 28.6767C56.3845 29.028 56.4754 29.3127 56.651 29.5367C56.8267 29.7548 57.0447 29.9243 57.2991 30.0394C57.5534 30.1545 57.9047 30.2877 58.3529 30.4331C58.8737 30.5905 59.2916 30.748 59.6126 30.9055C59.9336 31.0629 60.2061 31.2991 60.4302 31.6201C60.6543 31.9351 60.7693 32.3651 60.7693 32.898C60.7693 33.6793 60.4907 34.2728 59.9396 34.6786C59.3824 35.0843 58.583 35.2842 57.5231 35.2842C57.1295 35.2842 56.7419 35.26 56.3603 35.2176C55.9848 35.1752 55.6275 35.1086 55.3065 35.0177V34.3031L55.4398 34.2243C55.7486 34.3212 56.0817 34.3939 56.4512 34.4484C56.8145 34.5029 57.19 34.5272 57.5776 34.5272C58.3226 34.5272 58.8798 34.4 59.2371 34.1456C59.5944 33.8912 59.77 33.4915 59.77 32.9465C59.77 32.5952 59.6792 32.3045 59.5036 32.0804C59.3279 31.8563 59.1099 31.6867 58.8555 31.5717C58.6012 31.4566 58.2438 31.3234 57.7836 31.1598C57.2748 30.9903 56.8569 30.8328 56.536 30.6693C56.215 30.5118 55.9424 30.2756 55.7244 29.9607C55.5064 29.6458 55.3974 29.2339 55.3974 28.7131C55.3974 27.9682 55.6638 27.3867 56.1907 26.9749C56.7176 26.5631 57.4565 26.3632 58.4074 26.3632C58.7344 26.3632 59.0675 26.3874 59.4188 26.4359C59.764 26.4843 60.091 26.551 60.3999 26.6418V27.3443L60.2788 27.4231C59.9881 27.3322 59.6731 27.2656 59.3279 27.2111" fill="white"/>
<path d="M61.8595 26.5207H68.2065V27.302H61.8595V26.5207ZM65.5175 35.151H64.5546V27.0597H65.5175V35.151Z" fill="white"/>
<path d="M70.3747 31.4445V30.7056H71.9978C72.658 30.7056 73.1485 30.536 73.4756 30.1969C73.8026 29.8577 73.9661 29.4277 73.9661 28.9069C73.9661 28.386 73.8147 27.9803 73.5059 27.7077C73.197 27.4352 72.6761 27.2959 71.9373 27.2959H70.5504L70.7199 27.0476V35.151H69.7449V26.5207H71.8949C73.0153 26.5207 73.8026 26.7205 74.269 27.1203C74.7353 27.52 74.9715 28.1135 74.9715 28.8948C74.9715 29.5489 74.7716 30.0939 74.378 30.536C73.9843 30.9782 73.4392 31.2446 72.7549 31.3234L72.3975 31.4445H70.3808H70.3747ZM72.8033 30.7965L75.6801 35.0722V35.151H74.596L72.0342 31.2446L72.7973 30.7965H72.8033Z" fill="white"/>
<path d="M80.6462 27.0597L78.8778 32.2318L78.7869 32.4801L77.8785 35.1449H76.9276V35.0541L79.9921 26.5146H81.0641L84.1286 35.0541V35.1449H83.1111L82.2269 32.5468L82.124 32.2197L80.3918 27.1748L80.6583 27.0537L80.6462 27.0597ZM78.363 32.0259H82.6387V32.8072H78.363V32.0259Z" fill="white"/>
<path d="M85.9758 34.3758H90.4757V35.151H85.4731V26.5207H86.4543V34.8239L85.9758 34.3758Z" fill="white"/>
<path d="M93.2495 26.5207H92.2744V35.151H93.2495V26.5207Z" fill="white"/>
<path d="M98.585 27.0597L96.8166 32.2318L96.7258 32.4801L95.8173 35.1449H94.8665V35.0541L97.931 26.5146H99.0029L102.067 35.0541V35.1449H101.05L100.166 32.5468L100.063 32.2197L98.3307 27.1748L98.5972 27.0537L98.585 27.0597ZM96.3018 32.0259H100.578V32.8072H96.3018V32.0259Z" fill="white"/>
<path d="M56.7964 22.9656L62.3198 23.8377L62.3319 21.6938L59.8548 21.3668" fill="white"/>
</g>
</g>
</svg>
