<svg width="58" height="56" viewBox="0 0 58 56" fill="none" xmlns="http://www.w3.org/2000/svg">
<g id="Microsoft Teams">
<g id="background-complete">
<path id="Vector" d="M48.6028 51.7504H47.3276V51.787H48.6028V51.7504Z" fill="#EBEBEB"/>
<path id="Vector_2" d="M14.0354 50.236H7.69775V50.2727H14.0354V50.236Z" fill="#EBEBEB"/>
<path id="Vector_3" d="M16.2716 50.236H15.3428V50.2727H16.2716V50.236Z" fill="#EBEBEB"/>
<path id="Vector_4" d="M33.038 50.8553H19.2915V50.8919H33.038V50.8553Z" fill="#EBEBEB"/>
<path id="Vector_5" d="M34.9826 42.4457H6.64745C6.42523 42.4457 6.21211 42.3574 6.05498 42.2003C5.89785 42.0431 5.80957 41.83 5.80957 41.6078V1.77857C5.81151 1.55762 5.90063 1.34639 6.05756 1.19084C6.21448 1.03529 6.42649 0.94802 6.64745 0.948029H34.9826C35.0927 0.948029 35.2016 0.969701 35.3033 1.01181C35.4049 1.05392 35.4973 1.11563 35.5751 1.19344C35.6529 1.27124 35.7146 1.36361 35.7567 1.46526C35.7989 1.56692 35.8205 1.67587 35.8205 1.78591V41.6078C35.8205 41.7178 35.7989 41.8268 35.7567 41.9284C35.7146 42.0301 35.6529 42.1225 35.5751 42.2003C35.4973 42.2781 35.4049 42.3398 35.3033 42.3819C35.2016 42.424 35.0927 42.4457 34.9826 42.4457ZM6.64745 0.977376C6.43508 0.977764 6.23152 1.0623 6.08135 1.21247C5.93118 1.36264 5.84664 1.5662 5.84625 1.77857V41.6078C5.84664 41.8202 5.93118 42.0237 6.08135 42.1739C6.23152 42.3241 6.43508 42.4086 6.64745 42.409H34.9826C35.195 42.4086 35.3986 42.3241 35.5487 42.1739C35.6989 42.0237 35.7835 41.8202 35.7838 41.6078V1.77857C35.7835 1.5662 35.6989 1.36264 35.5487 1.21247C35.3986 1.0623 35.195 0.977764 34.9826 0.977376H6.64745Z" fill="#EBEBEB"/>
<path id="Vector_6" d="M66.7219 42.4457H38.3867C38.1645 42.4457 37.9514 42.3574 37.7942 42.2003C37.6371 42.0431 37.5488 41.83 37.5488 41.6078V1.77857C37.5508 1.55762 37.6399 1.34639 37.7968 1.19084C37.9537 1.03529 38.1658 0.94802 38.3867 0.948029H66.7219C66.9441 0.948029 67.1572 1.0363 67.3144 1.19344C67.4715 1.35057 67.5598 1.56369 67.5598 1.78591V41.6078C67.5598 41.83 67.4715 42.0431 67.3144 42.2003C67.1572 42.3574 66.9441 42.4457 66.7219 42.4457ZM38.3867 0.977376C38.1743 0.977764 37.9708 1.0623 37.8206 1.21247C37.6704 1.36264 37.5859 1.5662 37.5855 1.77857V41.6078C37.5859 41.8202 37.6704 42.0237 37.8206 42.1739C37.9708 42.3241 38.1743 42.4086 38.3867 42.409H66.7219C66.9343 42.4086 67.1378 42.3241 67.288 42.1739C67.4382 42.0237 67.5227 41.8202 67.5231 41.6078V1.77857C67.5227 1.5662 67.4382 1.36264 67.288 1.21247C67.1378 1.0623 66.9343 0.977764 66.7219 0.977376H38.3867Z" fill="#EBEBEB"/>
<path id="Vector_7" d="M73.3692 48.9902H0V49.0269H73.3692V48.9902Z" fill="#EBEBEB"/>
<path id="Vector_8" d="M58.6953 30.6083L56.4531 29.9157C56.4207 29.9039 56.3935 29.8811 56.3762 29.8512C56.3589 29.8214 56.3527 29.7864 56.3586 29.7524C56.3646 29.7184 56.3823 29.6876 56.4087 29.6654C56.4351 29.6432 56.4685 29.631 56.503 29.631L59.0885 29.7675C58.4781 28.7065 58.1171 28.0433 57.7063 27.2127C57.6926 27.1813 57.6904 27.1461 57.7 27.1132C57.7095 27.0803 57.7303 27.0518 57.7587 27.0326C57.7872 27.0134 57.8214 27.0048 57.8555 27.0082C57.8896 27.0116 57.9214 27.0269 57.9455 27.0513C58.4972 27.672 58.9594 28.1754 59.699 28.9692C59.8751 27.942 60.0805 26.9956 60.3358 26.0462C60.3468 26.0126 60.3695 25.9842 60.3997 25.966C60.43 25.9479 60.4657 25.9412 60.5005 25.9472C60.5352 25.9533 60.5667 25.9717 60.589 25.999C60.6113 26.0263 60.623 26.0608 60.622 26.0961C60.5534 26.861 60.5284 27.6292 60.5471 28.3969L60.6176 28.4219C61.2378 27.7136 61.8888 27.0332 62.5706 26.3807C62.5981 26.3592 62.6323 26.3482 62.6671 26.3496C62.7019 26.3511 62.7351 26.3648 62.7607 26.3885C62.7863 26.4121 62.8027 26.4441 62.8068 26.4788C62.811 26.5134 62.8027 26.5483 62.7834 26.5774C62.124 27.4135 61.515 28.2882 60.9595 29.1967C61.8458 28.8621 62.737 28.5378 63.633 28.2238C63.6668 28.2141 63.703 28.2169 63.7349 28.2316C63.7668 28.2463 63.7924 28.272 63.807 28.304C63.8215 28.336 63.8242 28.3722 63.8143 28.4059C63.8045 28.4397 63.7828 28.4688 63.7534 28.4879C62.8245 29.0147 61.9074 29.5532 60.9888 30.1108L63.3528 30.8636C63.3854 30.8754 63.4129 30.8985 63.4301 30.9287C63.4474 30.9588 63.4534 30.9942 63.4471 31.0283C63.4407 31.0625 63.4224 31.0933 63.3955 31.1153C63.3686 31.1373 63.3347 31.1489 63.2999 31.1483L60.8714 31.0015C61.3513 31.5635 61.6858 31.9495 62.0732 32.3853C62.0951 32.412 62.1069 32.4457 62.1064 32.4803C62.1059 32.5148 62.0933 32.5482 62.0706 32.5743C62.048 32.6005 62.0168 32.6178 61.9827 32.6232C61.9485 32.6286 61.9135 32.6218 61.8839 32.6039C61.3953 32.2796 60.9668 31.992 60.3402 31.5768C60.4048 32.0757 60.4591 32.4572 60.5251 32.8416C60.5288 32.8762 60.5201 32.9109 60.5006 32.9396C60.4811 32.9683 60.4521 32.9892 60.4186 32.9985C60.3852 33.0079 60.3495 33.005 60.318 32.9905C60.2864 32.976 60.261 32.9508 60.2463 32.9194C60.0834 32.5041 59.9352 32.0918 59.7474 31.543C59.0416 34.918 59.2235 38.1947 59.9073 41.552L59.0607 41.4053C58.5625 38.1075 58.697 34.745 59.4569 31.4975C59.0328 31.9377 58.7232 32.265 58.4297 32.5966C58.4048 32.621 58.3721 32.6357 58.3373 32.6382C58.3026 32.6406 58.2681 32.6306 58.24 32.61C58.212 32.5893 58.1922 32.5594 58.1842 32.5255C58.1762 32.4915 58.1805 32.4559 58.1964 32.4249C58.3959 32.0933 58.6116 31.7572 58.9022 31.3214C58.1465 31.4872 57.63 31.6017 57.0592 31.7308C57.0249 31.737 56.9896 31.7308 56.9595 31.7133C56.9294 31.6959 56.9065 31.6683 56.8948 31.6355C56.8832 31.6027 56.8836 31.5668 56.8959 31.5343C56.9083 31.5018 56.9318 31.4747 56.9623 31.4579C57.4891 31.1835 57.9777 30.9487 58.6953 30.6083Z" fill="#EBEBEB"/>
<path id="Vector_9" d="M57.5022 31.7749L59.2249 30.8621C59.2681 30.8403 59.3016 30.8033 59.319 30.7581C59.3363 30.713 59.3364 30.6631 59.319 30.6179C59.3016 30.5728 59.2682 30.5357 59.225 30.5139C59.1819 30.492 59.1322 30.487 59.0855 30.4997L56.9593 31.0294C57.3056 30.0316 57.5257 29.3595 57.7385 28.62C57.7516 28.5744 57.7477 28.5256 57.7275 28.4827C57.7073 28.4398 57.6721 28.4058 57.6286 28.3869C57.5851 28.368 57.5363 28.3656 57.4911 28.3802C57.446 28.3947 57.4077 28.4252 57.3834 28.4659C57.0341 29.0529 56.701 29.5811 56.2095 30.3603C55.9072 29.562 55.6137 28.8195 55.2733 28.0947C55.2523 28.0514 55.216 28.0174 55.1715 27.9992C55.127 27.981 55.0773 27.9799 55.032 27.9961C54.9868 28.0123 54.949 28.0447 54.9261 28.0869C54.9032 28.1292 54.8967 28.1785 54.9079 28.2252C55.0546 28.8005 55.1764 29.3801 55.2703 29.948L55.2058 29.9861C54.6482 29.5518 54.0779 29.1355 53.4948 28.7374C53.4542 28.7093 53.4045 28.6976 53.3556 28.7047C53.3067 28.7118 53.2624 28.7372 53.2315 28.7757C53.2006 28.8143 53.1855 28.8631 53.1891 28.9123C53.1928 28.9616 53.215 29.0076 53.2512 29.0411C53.8656 29.6036 54.4525 30.1935 55.0121 30.8108C54.2579 30.6807 53.5021 30.5564 52.745 30.4381C52.6971 30.4314 52.6485 30.4427 52.6085 30.4699C52.5686 30.497 52.5401 30.538 52.5286 30.5849C52.5171 30.6318 52.5234 30.6813 52.5463 30.7239C52.5692 30.7664 52.607 30.799 52.6525 30.8152C53.4889 31.1087 54.3195 31.4021 55.1471 31.7147L53.3143 32.7066C53.2694 32.728 53.2343 32.7658 53.2163 32.8122C53.1983 32.8587 53.1987 32.9102 53.2174 32.9563C53.2362 33.0025 53.2719 33.0397 53.3171 33.0604C53.3624 33.0811 53.4139 33.0837 53.4611 33.0676L55.4347 32.5672C55.1486 33.0676 54.9299 33.4477 54.701 33.8263C54.676 33.8671 54.6668 33.9157 54.6753 33.9628C54.6838 34.01 54.7093 34.0524 54.747 34.0819C54.7847 34.1115 54.8319 34.1261 54.8797 34.1231C54.9275 34.12 54.9726 34.0995 55.0062 34.0654L56.0583 33.0295C56.0759 33.3229 56.0906 33.5841 56.0994 33.8248C56.1014 33.873 56.1211 33.9188 56.1548 33.9533C56.1885 33.9878 56.2338 34.0086 56.2819 34.0117C56.33 34.0148 56.3776 34 56.4154 33.97C56.4533 33.9401 56.4787 33.8973 56.4868 33.8497C56.5352 33.5563 56.5822 33.251 56.6335 32.8857C57.9542 36.0714 58.3944 39.3216 58.3445 42.748L59.1472 42.4398C59.0211 39.1069 58.2611 35.8285 56.9079 32.78C57.2132 32.9942 57.4685 33.1762 57.7018 33.3479C57.7407 33.3821 57.7916 33.3995 57.8434 33.3962C57.8951 33.3929 57.9434 33.3692 57.9777 33.3303C58.0119 33.2914 58.0293 33.2404 58.026 33.1887C58.0227 33.137 57.999 33.0887 57.9601 33.0544C57.8016 32.8857 57.627 32.7066 57.4259 32.5012C58.0129 32.5174 58.4619 32.5306 58.8933 32.5452C58.9408 32.5463 58.9871 32.53 59.0234 32.4994C59.0598 32.4688 59.0837 32.426 59.0907 32.379C59.0978 32.332 59.0874 32.284 59.0616 32.2441C59.0358 32.2042 58.9963 32.1751 58.9505 32.1622C58.5353 32.0463 58.0907 31.9275 57.5022 31.7749Z" fill="#F0F0F0"/>
<path id="Vector_10" d="M56.9213 48.9653H61.297C61.4445 48.9655 61.5864 48.9095 61.6939 48.8086C61.8014 48.7076 61.8662 48.5695 61.8752 48.4223L62.3389 40.8741C62.3594 40.541 55.8589 40.541 55.8824 40.8741L56.3476 48.4223C56.3565 48.5687 56.4207 48.7063 56.5272 48.8071C56.6338 48.9079 56.7746 48.9644 56.9213 48.9653Z" fill="#E0E0E0"/>
<path id="Vector_11" d="M56.6556 31.5254C56.5987 31.4785 56.5545 31.418 56.527 31.3495C56.4996 31.2811 56.4898 31.2068 56.4986 31.1336L56.5969 30.2972L56.3724 30.6861C56.3413 30.7407 56.2989 30.788 56.248 30.8249C56.1971 30.8618 56.1389 30.8873 56.0774 30.8998C56.0158 30.9123 55.9522 30.9115 55.891 30.8974C55.8297 30.8833 55.7722 30.8563 55.7223 30.8181L55.2821 30.4865L55.6827 31.1336C55.7389 31.2232 55.7609 31.3301 55.7447 31.4347C55.7286 31.5392 55.6753 31.6345 55.5946 31.703L55.0767 32.1432L55.5844 32.0272C55.692 32.002 55.8052 32.0182 55.9014 32.0726C55.9976 32.1269 56.0699 32.2155 56.1038 32.3207L56.2784 32.8548L56.39 32.287C56.4015 32.2264 56.4257 32.169 56.4609 32.1184C56.496 32.0678 56.5414 32.0251 56.5941 31.9932C56.6468 31.9612 56.7057 31.9407 56.7668 31.9329C56.8279 31.9251 56.89 31.9303 56.949 31.948L57.2909 32.0478L56.6556 31.5254Z" fill="#E6E6E6"/>
<path id="Vector_12" d="M56.4416 12.784H52.6014C52.4944 12.784 52.4077 12.8707 52.4077 12.9776V13.7245C52.4077 13.8315 52.4944 13.9182 52.6014 13.9182H56.4416C56.5485 13.9182 56.6352 13.8315 56.6352 13.7245V12.9776C56.6352 12.8707 56.5485 12.784 56.4416 12.784Z" fill="#F5F5F5"/>
<path id="Vector_13" d="M55.1501 14.1897H51.3099C51.2029 14.1897 51.1162 14.2764 51.1162 14.3834V15.1303C51.1162 15.2373 51.2029 15.324 51.3099 15.324H55.1501C55.257 15.324 55.3437 15.2373 55.3437 15.1303V14.3834C55.3437 14.2764 55.257 14.1897 55.1501 14.1897Z" fill="#F5F5F5"/>
<path id="Vector_14" d="M59.5744 14.1897H55.7342C55.6272 14.1897 55.5405 14.2764 55.5405 14.3834V15.1303C55.5405 15.2373 55.6272 15.324 55.7342 15.324H59.5744C59.6813 15.324 59.7681 15.2373 59.7681 15.1303V14.3834C59.7681 14.2764 59.6813 14.1897 59.5744 14.1897Z" fill="#F0F0F0"/>
<path id="Vector_15" d="M17.8097 20.611H13.7127C13.6058 20.611 13.519 20.6977 13.519 20.8047V21.6205C13.519 21.7275 13.6058 21.8142 13.7127 21.8142H17.8097C17.9167 21.8142 18.0034 21.7275 18.0034 21.6205V20.8047C18.0034 20.6977 17.9167 20.611 17.8097 20.611Z" fill="#F5F5F5"/>
<path id="Vector_16" d="M17.8097 23.5971H13.7127C13.6058 23.5971 13.519 23.6838 13.519 23.7908V24.6067C13.519 24.7137 13.6058 24.8004 13.7127 24.8004H17.8097C17.9167 24.8004 18.0034 24.7137 18.0034 24.6067V23.7908C18.0034 23.6838 17.9167 23.5971 17.8097 23.5971Z" fill="#F5F5F5"/>
<path id="Vector_17" d="M16.4405 22.1033H12.3436C12.2366 22.1033 12.1499 22.19 12.1499 22.297V23.1129C12.1499 23.2199 12.2366 23.3066 12.3436 23.3066H16.4405C16.5475 23.3066 16.6342 23.2199 16.6342 23.1129V22.297C16.6342 22.19 16.5475 22.1033 16.4405 22.1033Z" fill="#F5F5F5"/>
<path id="Vector_18" d="M21.1334 22.1033H17.0365C16.9295 22.1033 16.8428 22.19 16.8428 22.297V23.1129C16.8428 23.2199 16.9295 23.3066 17.0365 23.3066H21.1334C21.2404 23.3066 21.3271 23.2199 21.3271 23.1129V22.297C21.3271 22.19 21.2404 22.1033 21.1334 22.1033Z" fill="#F0F0F0"/>
<path id="Vector_19" d="M55.8253 23.6059H60.0675C60.1745 23.6059 60.2612 23.5192 60.2612 23.4122V22.5567C60.2612 22.4498 60.1745 22.3631 60.0675 22.3631H55.8253C55.7184 22.3631 55.6316 22.4498 55.6316 22.5567V23.4122C55.6316 23.5192 55.7184 23.6059 55.8253 23.6059Z" fill="#F5F5F5"/>
<path id="Vector_20" d="M57.2399 22.0666H61.4821C61.5891 22.0666 61.6758 21.9799 61.6758 21.8729V21.0175C61.6758 20.9105 61.5891 20.8238 61.4821 20.8238H57.2399C57.1329 20.8238 57.0462 20.9105 57.0462 21.0175V21.8729C57.0462 21.9799 57.1329 22.0666 57.2399 22.0666Z" fill="#F5F5F5"/>
<path id="Vector_21" d="M52.3932 22.0666H56.6354C56.7424 22.0666 56.8291 21.9799 56.8291 21.8729V21.0175C56.8291 20.9105 56.7424 20.8238 56.6354 20.8238H52.3932C52.2862 20.8238 52.1995 20.9105 52.1995 21.0175V21.8729C52.1995 21.9799 52.2862 22.0666 52.3932 22.0666Z" fill="#F0F0F0"/>
<path id="Vector_22" d="M12.1457 17.4634H16.63C16.737 17.4634 16.8237 17.3767 16.8237 17.2697V16.3497C16.8237 16.2427 16.737 16.156 16.63 16.156H12.1457C12.0387 16.156 11.952 16.2427 11.952 16.3497V17.2697C11.952 17.3767 12.0387 17.4634 12.1457 17.4634Z" fill="#F5F5F5"/>
<path id="Vector_23" d="M14.4201 15.8434H18.9044C19.0114 15.8434 19.0981 15.7567 19.0981 15.6498V14.7297C19.0981 14.6227 19.0114 14.536 18.9044 14.536H14.4201C14.3131 14.536 14.2264 14.6227 14.2264 14.7297V15.6498C14.2264 15.7567 14.3131 15.8434 14.4201 15.8434Z" fill="#F5F5F5"/>
<path id="Vector_24" d="M9.32247 15.8434H13.8068C13.9138 15.8434 14.0005 15.7567 14.0005 15.6498V14.7297C14.0005 14.6227 13.9138 14.536 13.8068 14.536H9.32247C9.21549 14.536 9.12877 14.6227 9.12877 14.7297V15.6498C9.12877 15.7567 9.21549 15.8434 9.32247 15.8434Z" fill="#F0F0F0"/>
<path id="Vector_25" d="M21.4237 1.93411H21.2256V7.80659H21.4237V1.93411Z" fill="#E6E6E6"/>
<path id="Vector_26" d="M15.0493 11.0686L21.3239 7.27686L27.5999 11.0686H15.0493Z" fill="#F0F0F0"/>
<path id="Vector_27" d="M21.7586 11.0686L21.3242 7.27686L24.146 11.0686H21.7586Z" fill="#F5F5F5"/>
<path id="Vector_28" d="M52.1434 1.93411H51.9453V7.80659H52.1434V1.93411Z" fill="#E6E6E6"/>
<path id="Vector_29" d="M45.7705 11.0686L52.045 7.27686L58.3196 11.0686H45.7705Z" fill="#F0F0F0"/>
<path id="Vector_30" d="M52.4783 11.0686L52.0454 7.27686L54.8657 11.0686H52.4783Z" fill="#F5F5F5"/>
</g>
<g id="Shadow">
<path id="path" d="M35.9775 55.052C51.6906 55.052 64.4286 54.3083 64.4286 53.3909C64.4286 52.4735 51.6906 51.7298 35.9775 51.7298C20.2644 51.7298 7.52637 52.4735 7.52637 53.3909C7.52637 54.3083 20.2644 55.052 35.9775 55.052Z" fill="#F5F5F5"/>
</g>
<g id="Board">
<path id="Vector_31" d="M27.8626 14.1178H27.1289V13.3841C27.1287 13.3359 27.1381 13.2881 27.1564 13.2435C27.1748 13.1989 27.2018 13.1584 27.2359 13.1243C27.27 13.0902 27.3105 13.0632 27.3551 13.0448C27.3997 13.0264 27.4475 13.0171 27.4958 13.0173C27.593 13.0173 27.6864 13.0559 27.7552 13.1247C27.824 13.1935 27.8626 13.2868 27.8626 13.3841V14.1178Z" fill="#263238"/>
<path id="Vector_32" d="M46.24 14.1178H45.5063V13.3841C45.5063 13.2868 45.545 13.1935 45.6138 13.1247C45.6826 13.0559 45.7759 13.0173 45.8732 13.0173C45.9214 13.0171 45.9692 13.0264 46.0138 13.0448C46.0584 13.0632 46.0989 13.0902 46.133 13.1243C46.1671 13.1584 46.1941 13.1989 46.2125 13.2435C46.2309 13.2881 46.2402 13.3359 46.24 13.3841V14.1178Z" fill="#263238"/>
<g id="Group" opacity="0.5">
<path id="Vector_33" d="M27.8626 14.1178H27.1289V13.3841C27.1287 13.3359 27.1381 13.2881 27.1564 13.2435C27.1748 13.1989 27.2018 13.1584 27.2359 13.1243C27.27 13.0902 27.3105 13.0632 27.3551 13.0448C27.3997 13.0264 27.4475 13.0171 27.4958 13.0173C27.593 13.0173 27.6864 13.0559 27.7552 13.1247C27.824 13.1935 27.8626 13.2868 27.8626 13.3841V14.1178Z" fill="#4B4CA0"/>
<path id="Vector_34" d="M46.24 14.1178H45.5063V13.3841C45.5063 13.2868 45.545 13.1935 45.6138 13.1247C45.6826 13.0559 45.7759 13.0173 45.8732 13.0173C45.9214 13.0171 45.9692 13.0264 46.0138 13.0448C46.0584 13.0632 46.0989 13.0902 46.133 13.1243C46.1671 13.1584 46.1941 13.1989 46.2125 13.2435C46.2309 13.2881 46.2402 13.3359 46.24 13.3841V14.1178Z" fill="#4B4CA0"/>
</g>
<path id="Vector_35" d="M48.5102 14.0356H24.8589C24.4018 14.0356 24.0312 14.4062 24.0312 14.8632V27.1232C24.0312 27.5803 24.4018 27.9509 24.8589 27.9509H48.5102C48.9672 27.9509 49.3378 27.5803 49.3378 27.1232V14.8632C49.3378 14.4062 48.9672 14.0356 48.5102 14.0356Z" fill="#4B4CA0"/>
<path id="Vector_36" opacity="0.8" d="M48.5102 14.0356H24.8589C24.4018 14.0356 24.0312 14.4062 24.0312 14.8632V27.1233C24.0312 27.5803 24.4018 27.9509 24.8589 27.9509H48.5102C48.9672 27.9509 49.3378 27.5803 49.3378 27.1233V14.8632C49.3378 14.4062 48.9672 14.0356 48.5102 14.0356Z" fill="white"/>
<path id="Vector_37" d="M48.5103 28.3177H24.859C24.5423 28.3173 24.2387 28.1913 24.0148 27.9674C23.7909 27.7435 23.6649 27.4399 23.6646 27.1232V14.8632C23.6649 14.5466 23.7909 14.243 24.0148 14.0191C24.2387 13.7951 24.5423 13.6692 24.859 13.6688H48.5103C48.827 13.6692 49.1306 13.7951 49.3545 14.0191C49.5784 14.243 49.7044 14.5466 49.7048 14.8632V27.1232C49.7044 27.4399 49.5784 27.7435 49.3545 27.9674C49.1306 28.1913 48.827 28.3173 48.5103 28.3177ZM24.859 14.4025C24.7369 14.4029 24.6199 14.4515 24.5336 14.5379C24.4473 14.6242 24.3986 14.7412 24.3982 14.8632V27.1232C24.3986 27.2453 24.4473 27.3623 24.5336 27.4486C24.6199 27.5349 24.7369 27.5836 24.859 27.584H48.5103C48.6324 27.5836 48.7494 27.5349 48.8357 27.4486C48.922 27.3623 48.9707 27.2453 48.9711 27.1232V14.8632C48.9707 14.7412 48.922 14.6242 48.8357 14.5379C48.7494 14.4515 48.6324 14.4029 48.5103 14.4025H24.859Z" fill="#4B4CA0"/>
<g id="Group_2" opacity="0.4">
<path id="Vector_38" d="M48.5103 28.3177H24.859C24.5423 28.3173 24.2387 28.1913 24.0148 27.9674C23.7909 27.7435 23.6649 27.4399 23.6646 27.1232V14.8632C23.6649 14.5466 23.7909 14.243 24.0148 14.0191C24.2387 13.7951 24.5423 13.6692 24.859 13.6688H48.5103C48.827 13.6692 49.1306 13.7951 49.3545 14.0191C49.5784 14.243 49.7044 14.5466 49.7048 14.8632V27.1232C49.7044 27.4399 49.5784 27.7435 49.3545 27.9674C49.1306 28.1913 48.827 28.3173 48.5103 28.3177ZM24.859 14.4025C24.7369 14.4029 24.6199 14.4515 24.5336 14.5379C24.4473 14.6242 24.3986 14.7412 24.3982 14.8632V27.1232C24.3986 27.2453 24.4473 27.3623 24.5336 27.4486C24.6199 27.5349 24.7369 27.5836 24.859 27.584H48.5103C48.6324 27.5836 48.7494 27.5349 48.8357 27.4486C48.922 27.3623 48.9707 27.2453 48.9711 27.1232V14.8632C48.9707 14.7412 48.922 14.6242 48.8357 14.5379C48.7494 14.4515 48.6324 14.4029 48.5103 14.4025H24.859Z" fill="white"/>
</g>
<g id="Logo">
<path id="Vector_39" d="M27.8517 20.4262H28.9078C29.0076 20.4262 29.0885 20.5071 29.0885 20.6069V21.5689C29.0885 21.9355 28.7912 22.2328 28.4245 22.2328H28.4214C28.0547 22.2329 27.7574 21.9357 27.7573 21.5689V20.5207C27.7573 20.5083 27.7598 20.496 27.7645 20.4845C27.7692 20.4731 27.7762 20.4627 27.785 20.4539C27.7937 20.4451 27.8041 20.4382 27.8156 20.4334C27.8271 20.4287 27.8393 20.4262 27.8517 20.4262Z" fill="#5059C9"/>
<path id="Vector_40" d="M28.5656 20.2361C28.8019 20.2361 28.9935 20.0445 28.9935 19.8082C28.9935 19.5719 28.8019 19.3803 28.5656 19.3803C28.3293 19.3803 28.1377 19.5719 28.1377 19.8082C28.1377 20.0445 28.3293 20.2361 28.5656 20.2361Z" fill="#5059C9"/>
<path id="Vector_41" d="M27.2343 20.2361C27.5756 20.2361 27.8523 19.9594 27.8523 19.618C27.8523 19.2767 27.5756 19 27.2343 19C26.8929 19 26.6162 19.2767 26.6162 19.618C26.6162 19.9594 26.8929 20.2361 27.2343 20.2361Z" fill="#7B83EB"/>
<path id="Vector_42" d="M28.0585 20.4262H26.3152C26.2166 20.4287 26.1386 20.5105 26.1409 20.6091V21.7063C26.1272 22.2979 26.5952 22.7888 27.1868 22.8033C27.7784 22.7888 28.2465 22.2979 28.2328 21.7063V20.6091C28.235 20.5105 28.1571 20.4287 28.0585 20.4262Z" fill="#7B83EB"/>
<path id="Vector_43" opacity="0.1" d="M27.2817 20.4262V21.9637C27.2815 21.9982 27.2711 22.0319 27.2518 22.0605C27.2325 22.089 27.2052 22.1113 27.1733 22.1244C27.1525 22.1332 27.1302 22.1377 27.1077 22.1377H26.2243C26.212 22.1064 26.2006 22.075 26.1911 22.0427C26.1578 21.9336 26.1408 21.8201 26.1407 21.7061V20.6088C26.1384 20.5104 26.2162 20.4287 26.3147 20.4263L27.2817 20.4262Z" fill="black"/>
<path id="Vector_44" opacity="0.2" d="M27.1866 20.4262V22.0588C27.1866 22.0814 27.182 22.1037 27.1733 22.1244C27.1601 22.1563 27.1379 22.1836 27.1093 22.2029C27.0807 22.2222 27.047 22.2326 27.0126 22.2328H26.269C26.2529 22.2014 26.2376 22.1701 26.2243 22.1377C26.2116 22.1067 26.2005 22.0749 26.1911 22.0427C26.1578 21.9336 26.1408 21.8201 26.1407 21.7061V20.6088C26.1384 20.5104 26.2162 20.4287 26.3147 20.4263L27.1866 20.4262Z" fill="black"/>
<path id="Vector_45" opacity="0.2" d="M27.1866 20.4262V21.8687C27.1859 21.9645 27.1084 22.0419 27.0126 22.0427H26.1911C26.1578 21.9336 26.1408 21.8201 26.1407 21.7061V20.6088C26.1384 20.5104 26.2162 20.4287 26.3147 20.4263L27.1866 20.4262Z" fill="black"/>
<path id="Vector_46" opacity="0.2" d="M27.0915 20.4262V21.8687C27.0908 21.9645 27.0133 22.0419 26.9175 22.0427H26.1911C26.1578 21.9336 26.1408 21.8201 26.1407 21.7061V20.6088C26.1384 20.5104 26.2162 20.4287 26.3147 20.4263L27.0915 20.4262Z" fill="black"/>
<path id="Vector_47" opacity="0.1" d="M27.2823 19.9347V20.2342C27.2661 20.2351 27.2509 20.2361 27.2347 20.2361C27.2186 20.2361 27.2033 20.2351 27.1872 20.2342C27.1551 20.232 27.1232 20.227 27.0921 20.219C26.9972 20.1965 26.9089 20.1519 26.8345 20.0887C26.7602 20.0256 26.7018 19.9458 26.6642 19.8558C26.6511 19.8251 26.6409 19.7933 26.6338 19.7607H27.1083C27.2042 19.761 27.2819 19.8387 27.2823 19.9347Z" fill="black"/>
<path id="Vector_48" opacity="0.2" d="M27.187 20.0297V20.2342C27.1549 20.232 27.1231 20.227 27.0919 20.219C26.997 20.1965 26.9088 20.1519 26.8344 20.0887C26.76 20.0256 26.7017 19.9458 26.6641 19.8558H27.013C27.109 19.8561 27.1866 19.9338 27.187 20.0297Z" fill="black"/>
<path id="Vector_49" opacity="0.2" d="M27.187 20.0297V20.2342C27.1549 20.232 27.1231 20.227 27.0919 20.219C26.997 20.1965 26.9088 20.1519 26.8344 20.0887C26.76 20.0256 26.7017 19.9458 26.6641 19.8558H27.013C27.109 19.8561 27.1866 19.9338 27.187 20.0297Z" fill="black"/>
<path id="Vector_50" opacity="0.2" d="M27.0919 20.0297V20.219C26.997 20.1965 26.9088 20.1518 26.8344 20.0887C26.76 20.0256 26.7017 19.9457 26.6641 19.8557H26.9179C27.0139 19.8561 27.0916 19.9338 27.0919 20.0297Z" fill="black"/>
<path id="Vector_51" d="M25.1743 19.8557H26.9175C27.0138 19.8557 27.0918 19.9338 27.0918 20.03V21.7733C27.0918 21.8695 27.0138 21.9476 26.9175 21.9476H25.1743C25.078 21.9476 25 21.8695 25 21.7733V20.0301C25 19.9338 25.078 19.8557 25.1743 19.8557Z" fill="url(#paint0_linear_18004_7826)"/>
<path id="Vector_52" d="M26.5043 20.5192H26.1558V21.4682H25.9338V20.5192H25.5869V20.3352H26.5043V20.5192Z" fill="white"/>
<g id="Microsoft Teams_2">
<path d="M30.3608 20.0852H30.606L31.1826 21.4934H31.2025L31.779 20.0852H32.0242V21.7816H31.832V20.4927H31.8154L31.2853 21.7816H31.0997L30.5696 20.4927H30.553V21.7816H30.3608V20.0852Z" fill="#585FBB"/>
<path d="M32.4096 21.7816V20.5093H32.6051V21.7816H32.4096ZM32.509 20.2972C32.4709 20.2972 32.438 20.2842 32.4104 20.2583C32.3833 20.2323 32.3698 20.2011 32.3698 20.1647C32.3698 20.1282 32.3833 20.097 32.4104 20.0711C32.438 20.0451 32.4709 20.0321 32.509 20.0321C32.5471 20.0321 32.5797 20.0451 32.6067 20.0711C32.6343 20.097 32.6481 20.1282 32.6481 20.1647C32.6481 20.2011 32.6343 20.2323 32.6067 20.2583C32.5797 20.2842 32.5471 20.2972 32.509 20.2972Z" fill="#585FBB"/>
<path d="M33.48 21.8081C33.3607 21.8081 33.258 21.78 33.1719 21.7236C33.0857 21.6673 33.0195 21.5897 32.9731 21.4909C32.9267 21.392 32.9035 21.2791 32.9035 21.1521C32.9035 21.0229 32.9272 20.9088 32.9747 20.81C33.0228 20.7106 33.0896 20.633 33.1752 20.5772C33.2613 20.5209 33.3618 20.4927 33.4767 20.4927C33.5662 20.4927 33.6468 20.5093 33.7186 20.5424C33.7904 20.5755 33.8492 20.6219 33.895 20.6816C33.9409 20.7412 33.9693 20.8108 33.9803 20.8903H33.7849C33.7699 20.8323 33.7368 20.781 33.6854 20.7362C33.6346 20.691 33.5662 20.6683 33.48 20.6683C33.4038 20.6683 33.337 20.6882 33.2796 20.728C33.2227 20.7672 33.1782 20.8227 33.1462 20.8945C33.1147 20.9657 33.099 21.0494 33.099 21.1454C33.099 21.2437 33.1144 21.3293 33.1454 21.4022C33.1768 21.4751 33.221 21.5317 33.2779 21.5721C33.3353 21.6124 33.4027 21.6325 33.48 21.6325C33.5308 21.6325 33.5769 21.6237 33.6184 21.606C33.6598 21.5883 33.6948 21.5629 33.7236 21.5298C33.7523 21.4967 33.7727 21.4569 33.7849 21.4105H33.9803C33.9693 21.4856 33.942 21.5533 33.8983 21.6135C33.8553 21.6731 33.7981 21.7206 33.7269 21.7559C33.6562 21.7907 33.5739 21.8081 33.48 21.8081Z" fill="#585FBB"/>
<path d="M34.2661 21.7816V20.5093H34.455V20.7015H34.4682C34.4914 20.6385 34.5334 20.5874 34.5942 20.5482C34.6549 20.509 34.7234 20.4894 34.7996 20.4894C34.8139 20.4894 34.8319 20.4897 34.8534 20.4902C34.875 20.4908 34.8913 20.4916 34.9023 20.4927V20.6915C34.8957 20.6899 34.8805 20.6874 34.8567 20.6841C34.8336 20.6802 34.809 20.6783 34.783 20.6783C34.7212 20.6783 34.6659 20.6912 34.6174 20.7172C34.5693 20.7426 34.5312 20.7779 34.503 20.8232C34.4754 20.8679 34.4616 20.919 34.4616 20.9765V21.7816H34.2661Z" fill="#585FBB"/>
<path d="M35.6122 21.8081C35.4973 21.8081 35.3966 21.7808 35.3099 21.7261C35.2237 21.6715 35.1563 21.595 35.1077 21.4967C35.0597 21.3984 35.0357 21.2835 35.0357 21.1521C35.0357 21.0195 35.0597 20.9038 35.1077 20.805C35.1563 20.7061 35.2237 20.6294 35.3099 20.5747C35.3966 20.52 35.4973 20.4927 35.6122 20.4927C35.7271 20.4927 35.8276 20.52 35.9137 20.5747C36.0004 20.6294 36.0678 20.7061 36.1158 20.805C36.1644 20.9038 36.1887 21.0195 36.1887 21.1521C36.1887 21.2835 36.1644 21.3984 36.1158 21.4967C36.0678 21.595 36.0004 21.6715 35.9137 21.7261C35.8276 21.7808 35.7271 21.8081 35.6122 21.8081ZM35.6122 21.6325C35.6995 21.6325 35.7713 21.6102 35.8276 21.5654C35.8839 21.5207 35.9256 21.4619 35.9527 21.389C35.9797 21.3161 35.9933 21.2371 35.9933 21.1521C35.9933 21.067 35.9797 20.9878 35.9527 20.9143C35.9256 20.8409 35.8839 20.7815 35.8276 20.7362C35.7713 20.691 35.6995 20.6683 35.6122 20.6683C35.525 20.6683 35.4532 20.691 35.3968 20.7362C35.3405 20.7815 35.2988 20.8409 35.2718 20.9143C35.2447 20.9878 35.2312 21.067 35.2312 21.1521C35.2312 21.2371 35.2447 21.3161 35.2718 21.389C35.2988 21.4619 35.3405 21.5207 35.3968 21.5654C35.4532 21.6102 35.525 21.6325 35.6122 21.6325Z" fill="#585FBB"/>
<path d="M37.3884 20.7942L37.2128 20.8439C37.2018 20.8147 37.1855 20.7862 37.1639 20.7586C37.1429 20.7304 37.1142 20.7072 37.0778 20.689C37.0413 20.6708 36.9947 20.6617 36.9378 20.6617C36.8599 20.6617 36.795 20.6796 36.7431 20.7155C36.6918 20.7509 36.6661 20.7959 36.6661 20.8506C36.6661 20.8992 36.6838 20.9375 36.7191 20.9657C36.7544 20.9939 36.8097 21.0173 36.8848 21.0361L37.0736 21.0825C37.1874 21.1101 37.2722 21.1524 37.3279 21.2092C37.3837 21.2656 37.4116 21.3382 37.4116 21.4271C37.4116 21.5 37.3906 21.5652 37.3487 21.6226C37.3072 21.68 37.2492 21.7253 37.1747 21.7584C37.1001 21.7916 37.0134 21.8081 36.9146 21.8081C36.7848 21.8081 36.6774 21.78 36.5924 21.7236C36.5073 21.6673 36.4535 21.585 36.4308 21.4768L36.6164 21.4304C36.6341 21.4989 36.6675 21.5502 36.7166 21.5845C36.7663 21.6187 36.8312 21.6358 36.9113 21.6358C37.0024 21.6358 37.0747 21.6165 37.1283 21.5779C37.1824 21.5386 37.2095 21.4917 37.2095 21.437C37.2095 21.3929 37.194 21.3559 37.1631 21.326C37.1322 21.2957 37.0847 21.273 37.0206 21.2581L36.8086 21.2084C36.692 21.1808 36.6064 21.138 36.5518 21.08C36.4977 21.0215 36.4706 20.9483 36.4706 20.8605C36.4706 20.7887 36.4907 20.7252 36.5311 20.67C36.5719 20.6147 36.6274 20.5714 36.6976 20.5399C36.7682 20.5084 36.8483 20.4927 36.9378 20.4927C37.0637 20.4927 37.1625 20.5203 37.2343 20.5755C37.3067 20.6308 37.358 20.7037 37.3884 20.7942Z" fill="#585FBB"/>
<path d="M38.2228 21.8081C38.1079 21.8081 38.0071 21.7808 37.9204 21.7261C37.8343 21.6715 37.7669 21.595 37.7183 21.4967C37.6703 21.3984 37.6462 21.2835 37.6462 21.1521C37.6462 21.0195 37.6703 20.9038 37.7183 20.805C37.7669 20.7061 37.8343 20.6294 37.9204 20.5747C38.0071 20.52 38.1079 20.4927 38.2228 20.4927C38.3376 20.4927 38.4381 20.52 38.5243 20.5747C38.611 20.6294 38.6784 20.7061 38.7264 20.805C38.775 20.9038 38.7993 21.0195 38.7993 21.1521C38.7993 21.2835 38.775 21.3984 38.7264 21.4967C38.6784 21.595 38.611 21.6715 38.5243 21.7261C38.4381 21.7808 38.3376 21.8081 38.2228 21.8081ZM38.2228 21.6325C38.31 21.6325 38.3818 21.6102 38.4381 21.5654C38.4945 21.5207 38.5362 21.4619 38.5632 21.389C38.5903 21.3161 38.6038 21.2371 38.6038 21.1521C38.6038 21.067 38.5903 20.9878 38.5632 20.9143C38.5362 20.8409 38.4945 20.7815 38.4381 20.7362C38.3818 20.691 38.31 20.6683 38.2228 20.6683C38.1355 20.6683 38.0637 20.691 38.0074 20.7362C37.9511 20.7815 37.9094 20.8409 37.8823 20.9143C37.8553 20.9878 37.8417 21.067 37.8417 21.1521C37.8417 21.2371 37.8553 21.3161 37.8823 21.389C37.9094 21.4619 37.9511 21.5207 38.0074 21.5654C38.0637 21.6102 38.1355 21.6325 38.2228 21.6325Z" fill="#585FBB"/>
<path d="M39.6643 20.5093V20.6749H38.9784V20.5093H39.6643ZM39.1839 21.7816V20.3337C39.1839 20.2608 39.201 20.2 39.2352 20.1514C39.2695 20.1028 39.3139 20.0664 39.3686 20.0421C39.4233 20.0178 39.481 20.0056 39.5417 20.0056C39.5898 20.0056 39.629 20.0095 39.6594 20.0172C39.6897 20.025 39.7124 20.0321 39.7273 20.0388L39.6709 20.2077C39.661 20.2044 39.6472 20.2003 39.6295 20.1953C39.6124 20.1904 39.5898 20.1879 39.5616 20.1879C39.497 20.1879 39.4503 20.2042 39.4216 20.2367C39.3934 20.2693 39.3794 20.3171 39.3794 20.38V21.7816H39.1839Z" fill="#585FBB"/>
<path d="M40.4916 20.5093V20.6749H39.8323V20.5093H40.4916ZM40.0244 20.2044H40.2199V21.4172C40.2199 21.4724 40.2279 21.5138 40.244 21.5414C40.2605 21.5685 40.2815 21.5867 40.3069 21.5961C40.3329 21.6049 40.3602 21.6093 40.3889 21.6093C40.4105 21.6093 40.4281 21.6082 40.4419 21.606C40.4557 21.6033 40.4668 21.601 40.4751 21.5994L40.5148 21.775C40.5016 21.78 40.4831 21.7849 40.4593 21.7899C40.4356 21.7954 40.4055 21.7982 40.369 21.7982C40.3138 21.7982 40.2597 21.7863 40.2067 21.7626C40.1542 21.7388 40.1106 21.7027 40.0758 21.6541C40.0416 21.6055 40.0244 21.5442 40.0244 21.4702V20.2044Z" fill="#585FBB"/>
<path d="M41.3755 20.2674V20.0852H42.6479V20.2674H42.1144V21.7816H41.909V20.2674H41.3755Z" fill="#585FBB"/>
<path d="M43.2873 21.8081C43.1648 21.8081 43.059 21.7811 42.9701 21.727C42.8817 21.6723 42.8135 21.5961 42.7655 21.4983C42.718 21.4 42.6942 21.2857 42.6942 21.1554C42.6942 21.0251 42.718 20.9102 42.7655 20.8108C42.8135 20.7108 42.8803 20.633 42.9659 20.5772C43.0521 20.5209 43.1526 20.4927 43.2675 20.4927C43.3337 20.4927 43.3992 20.5037 43.4638 20.5258C43.5284 20.5479 43.5872 20.5838 43.6402 20.6335C43.6932 20.6827 43.7355 20.7478 43.767 20.829C43.7984 20.9102 43.8142 21.0102 43.8142 21.1289V21.2117H42.8334V21.0427H43.6154C43.6154 20.9709 43.601 20.9069 43.5723 20.8506C43.5441 20.7942 43.5038 20.7498 43.4514 20.7172C43.3995 20.6846 43.3382 20.6683 43.2675 20.6683C43.1896 20.6683 43.1222 20.6876 43.0653 20.7263C43.009 20.7644 42.9657 20.8141 42.9353 20.8754C42.9049 20.9367 42.8897 21.0024 42.8897 21.0726V21.1852C42.8897 21.2813 42.9063 21.3628 42.9394 21.4296C42.9731 21.4958 43.0198 21.5464 43.0794 21.5812C43.1391 21.6154 43.2084 21.6325 43.2873 21.6325C43.3387 21.6325 43.3851 21.6253 43.4265 21.611C43.4685 21.5961 43.5047 21.574 43.535 21.5447C43.5654 21.5149 43.5889 21.4779 43.6054 21.4337L43.7943 21.4867C43.7744 21.5508 43.741 21.6071 43.6941 21.6557C43.6471 21.7038 43.5891 21.7413 43.5201 21.7684C43.4511 21.7949 43.3735 21.8081 43.2873 21.8081Z" fill="#585FBB"/>
<path d="M44.486 21.8114C44.4054 21.8114 44.3322 21.7963 44.2665 21.7659C44.2007 21.735 44.1486 21.6905 44.1099 21.6325C44.0712 21.574 44.0519 21.5033 44.0519 21.4205C44.0519 21.3476 44.0663 21.2885 44.095 21.2432C44.1237 21.1974 44.1621 21.1615 44.2101 21.1355C44.2582 21.1096 44.3112 21.0902 44.3692 21.0775C44.4277 21.0643 44.4865 21.0538 44.5456 21.046C44.6229 21.0361 44.6856 21.0287 44.7337 21.0237C44.7823 21.0182 44.8176 21.009 44.8397 20.9963C44.8623 20.9836 44.8736 20.9616 44.8736 20.9301V20.9234C44.8736 20.8417 44.8513 20.7782 44.8066 20.7329C44.7624 20.6876 44.6953 20.665 44.6053 20.665C44.5119 20.665 44.4388 20.6854 44.3857 20.7263C44.3327 20.7672 44.2955 20.8108 44.2739 20.8572L44.0884 20.7909C44.1215 20.7136 44.1657 20.6534 44.2209 20.6103C44.2767 20.5667 44.3374 20.5363 44.4031 20.5192C44.4694 20.5015 44.5346 20.4927 44.5986 20.4927C44.6395 20.4927 44.6864 20.4977 44.7395 20.5076C44.793 20.517 44.8447 20.5366 44.8944 20.5664C44.9446 20.5962 44.9863 20.6413 45.0194 20.7015C45.0526 20.7616 45.0691 20.8423 45.0691 20.9433V21.7816H44.8736V21.6093H44.8637C44.8505 21.6369 44.8284 21.6665 44.7974 21.698C44.7665 21.7294 44.7254 21.7562 44.674 21.7783C44.6227 21.8004 44.56 21.8114 44.486 21.8114ZM44.5158 21.6358C44.5931 21.6358 44.6583 21.6207 44.7113 21.5903C44.7649 21.5599 44.8052 21.5207 44.8322 21.4727C44.8598 21.4246 44.8736 21.3741 44.8736 21.3211V21.1421C44.8654 21.1521 44.8471 21.1612 44.819 21.1695C44.7914 21.1772 44.7593 21.1841 44.7229 21.1902C44.687 21.1957 44.6519 21.2007 44.6177 21.2051C44.584 21.209 44.5567 21.2123 44.5357 21.215C44.4849 21.2217 44.4374 21.2324 44.3932 21.2473C44.3496 21.2617 44.3142 21.2835 44.2872 21.3128C44.2607 21.3415 44.2474 21.3807 44.2474 21.4304C44.2474 21.4983 44.2725 21.5497 44.3228 21.5845C44.3736 21.6187 44.4379 21.6358 44.5158 21.6358Z" fill="#585FBB"/>
<path d="M45.426 21.7816V20.5093H45.6148V20.7081H45.6314C45.6579 20.6402 45.7007 20.5874 45.7598 20.5499C45.8189 20.5118 45.8898 20.4927 45.9727 20.4927C46.0566 20.4927 46.1265 20.5118 46.1822 20.5499C46.2386 20.5874 46.2825 20.6402 46.314 20.7081H46.3272C46.3598 20.6424 46.4087 20.5902 46.4738 20.5515C46.539 20.5123 46.6171 20.4927 46.7083 20.4927C46.822 20.4927 46.9151 20.5283 46.9874 20.5996C47.0598 20.6702 47.0959 20.7804 47.0959 20.9301V21.7816H46.9004V20.9301C46.9004 20.8362 46.8748 20.7691 46.8234 20.7288C46.772 20.6885 46.7116 20.6683 46.642 20.6683C46.5525 20.6683 46.4832 20.6954 46.4341 20.7495C46.3849 20.8031 46.3603 20.871 46.3603 20.9533V21.7816H46.1615V20.9102C46.1615 20.8379 46.1381 20.7796 46.0911 20.7354C46.0442 20.6907 45.9837 20.6683 45.9097 20.6683C45.8589 20.6683 45.8114 20.6818 45.7672 20.7089C45.7236 20.736 45.6883 20.7735 45.6612 20.8216C45.6347 20.8691 45.6214 20.924 45.6214 20.9864V21.7816H45.426Z" fill="#585FBB"/>
<path d="M48.3546 20.7942L48.179 20.8439C48.168 20.8147 48.1517 20.7862 48.1301 20.7586C48.1091 20.7304 48.0804 20.7072 48.044 20.689C48.0075 20.6708 47.9609 20.6617 47.904 20.6617C47.8261 20.6617 47.7612 20.6796 47.7093 20.7155C47.658 20.7509 47.6323 20.7959 47.6323 20.8506C47.6323 20.8992 47.65 20.9375 47.6853 20.9657C47.7206 20.9939 47.7759 21.0173 47.851 21.0361L48.0398 21.0825C48.1536 21.1101 48.2384 21.1524 48.2941 21.2092C48.3499 21.2656 48.3778 21.3382 48.3778 21.4271C48.3778 21.5 48.3568 21.5652 48.3149 21.6226C48.2734 21.68 48.2154 21.7253 48.1409 21.7584C48.0663 21.7916 47.9796 21.8081 47.8808 21.8081C47.751 21.8081 47.6436 21.78 47.5586 21.7236C47.4735 21.6673 47.4197 21.585 47.397 21.4768L47.5826 21.4304C47.6003 21.4989 47.6337 21.5502 47.6828 21.5845C47.7325 21.6187 47.7974 21.6358 47.8775 21.6358C47.9686 21.6358 48.0409 21.6165 48.0945 21.5779C48.1486 21.5386 48.1757 21.4917 48.1757 21.437C48.1757 21.3929 48.1602 21.3559 48.1293 21.326C48.0984 21.2957 48.0509 21.273 47.9868 21.2581L47.7748 21.2084C47.6582 21.1808 47.5726 21.138 47.518 21.08C47.4639 21.0215 47.4368 20.9483 47.4368 20.8605C47.4368 20.7887 47.4569 20.7252 47.4973 20.67C47.5381 20.6147 47.5936 20.5714 47.6638 20.5399C47.7344 20.5084 47.8145 20.4927 47.904 20.4927C48.0299 20.4927 48.1287 20.5203 48.2005 20.5755C48.2729 20.6308 48.3242 20.7037 48.3546 20.7942Z" fill="#585FBB"/>
</g>
</g>
</g>
<g id="character-3">
<path id="Vector_53" d="M44.481 49.6182C44.481 52.1964 48.8185 52.8259 54.1657 52.8259C59.5128 52.8259 61.6626 52.1964 61.6626 49.6182C61.6626 47.04 60.1629 43.9072 54.8055 43.9072C49.4481 43.9072 44.481 47.0415 44.481 49.6182Z" fill="#C1D600"/>
<path id="Vector_54" opacity="0.5" d="M44.481 49.6182C44.481 52.1964 48.8185 52.8259 54.1657 52.8259C59.5128 52.8259 61.6626 52.1964 61.6626 49.6182C61.6626 47.04 60.1629 43.9072 54.8055 43.9072C49.4481 43.9072 44.481 47.0415 44.481 49.6182Z" fill="white"/>
<path id="Vector_55" d="M43.7823 46.007C43.5842 49.5508 44.5644 51.4642 46.7992 51.5831C49.034 51.7019 51.0047 48.9345 51.2014 45.3907C51.398 41.847 49.147 39.1309 46.9137 39.0061C44.6803 38.8814 43.9789 42.4618 43.7823 46.007Z" fill="#C1D600"/>
<path id="Vector_56" opacity="0.5" d="M43.7823 46.007C43.5842 49.5508 44.5644 51.4642 46.7992 51.5831C49.034 51.7019 51.0047 48.9345 51.2014 45.3907C51.398 41.847 49.147 39.1309 46.9137 39.0061C44.6803 38.8814 43.9789 42.4618 43.7823 46.007Z" fill="white"/>
<path id="Vector_57" opacity="0.1" d="M54.695 44.2124C54.695 44.2124 56.7743 43.9483 56.9578 44.682C57.1412 45.4157 53.5285 45.0121 52.8036 45.7458C52.0787 46.4795 55.1602 46.8566 54.4896 47.2954C53.9628 47.6402 52.1623 46.076 49.8644 46.6629C47.5665 47.2499 47.2378 45.5169 47.4946 43.9072C47.7514 42.2975 47.9348 40.5674 48.6318 40.6995C49.3288 40.8315 51.5886 43.9982 54.695 44.2124Z" fill="black"/>
<path id="Vector_58" opacity="0.1" d="M48.2284 46.8405C48.2284 46.8405 46.0772 46.4619 45.9583 47.3629C45.8395 48.2639 45.6766 46.93 48.2284 46.8405Z" fill="black"/>
<path id="Vector_59" opacity="0.1" d="M44.7551 50.644C44.1506 49.9352 43.8219 48.8361 43.7632 47.3643C44.0391 50.1671 45.6708 51.9837 52.164 52.2757C58.6571 52.5677 60.1069 50.6249 60.8039 50.8582C61.0974 50.955 61.0974 51.2236 61.0006 51.5009C60.0086 52.5281 57.8427 52.8216 54.1625 52.8216C49.6136 52.826 45.797 52.3681 44.7551 50.644Z" fill="black"/>
<path id="Vector_60" d="M55.9382 38.651C55.7592 38.6822 55.5922 38.7618 55.4554 38.8814C55.2749 39.0634 54.7481 39.0443 54.7481 39.0443L54.6953 39.6415L55.8986 39.5711L55.9382 38.651Z" fill="#B25B52"/>
<path id="Vector_61" d="M51.0856 35.0823C51.2427 35.0735 51.8443 35.3875 52.2067 36.9753C52.5692 38.563 52.4885 39.0942 55.3029 38.9137L55.2119 39.7046C55.2119 39.7046 52.7731 39.9658 52.0453 39.3818C51.3175 38.7978 50.5046 35.1161 51.0856 35.0823Z" fill="#263238"/>
<path id="Vector_62" opacity="0.6" d="M51.8953 37.0354L52.0332 37.2775C52.0332 37.2775 51.8865 38.7728 52.1697 39.4625C52.1259 39.4392 52.0841 39.4122 52.0449 39.3818C51.8498 39.2248 51.6487 38.8418 51.4697 38.3678L51.8953 37.0354Z" fill="black"/>
<path id="Vector_63" d="M47.8775 32.1666C47.8775 32.1666 47.857 32.6303 47.6428 32.7242C47.4285 32.8182 47.7998 33.3493 47.6956 33.6736C47.5914 33.9979 47.3522 34.2899 47.609 34.7243C47.609 34.7243 47.5533 34.3618 47.7367 34.1461C47.7367 34.1461 47.6604 34.7536 47.857 34.7668C48.0536 34.7801 48.0918 34.6025 48.4146 34.6788C48.7374 34.7551 48.4528 34.1828 48.4528 34.1828C48.5661 34.2849 48.6424 34.4217 48.6699 34.5717C48.7565 34.8754 49.6105 34.5247 49.9583 34.6495C50.3061 34.7742 50.3985 34.1329 50.3985 34.1329C50.3985 34.1329 50.5541 34.5145 50.4279 34.6436C50.5172 34.6097 50.594 34.5494 50.6483 34.4708C50.7025 34.3921 50.7316 34.2989 50.7316 34.2034C50.79 34.3096 50.8043 34.4345 50.7712 34.5511C50.7712 34.5511 51.0354 34.5321 50.9693 34.0214C50.9033 33.5108 50.5056 33.364 50.4014 32.959C50.2973 32.554 49.025 31.7631 49.025 31.7631L47.8775 32.1666Z" fill="#263238"/>
<path id="Vector_64" d="M48.5703 33.7265L49.6591 34.4352C49.6591 35.1997 50.2064 35.1586 50.2064 35.1586C50.2064 35.1586 50.2152 35.4257 49.5505 35.524C49.2555 35.5793 48.9555 35.6034 48.6554 35.5959C48.9812 35.1983 48.7303 34.2459 48.5703 33.7265Z" fill="#B25B52"/>
<path id="Vector_65" opacity="0.1" d="M49.728 34.8446C49.6734 34.7137 49.6478 34.5725 49.6532 34.4308L48.6817 33.7984L48.6216 33.907C48.6216 33.907 48.9884 34.893 49.728 34.8446Z" fill="black"/>
<path id="Vector_66" d="M48.2505 32.5614C48.3606 33.4491 48.3885 33.8277 48.8668 34.2562C49.5859 34.9018 50.6512 34.5732 50.8097 33.6692C50.9564 32.8563 50.7466 31.5415 49.8529 31.2422C49.6559 31.1744 49.4449 31.1583 49.2399 31.1954C49.0349 31.2325 48.8428 31.3215 48.6821 31.454C48.5213 31.5865 48.3973 31.758 48.3217 31.9521C48.2461 32.1463 48.2216 32.3565 48.2505 32.5628V32.5614Z" fill="#B25B52"/>
<path id="Vector_67" d="M50.2124 33.0838C50.2896 33.2433 50.3883 33.3914 50.5059 33.524C50.4709 33.5532 50.4298 33.5743 50.3856 33.5857C50.3415 33.5971 50.2953 33.5986 50.2506 33.59L50.2124 33.0838Z" fill="#9D2724"/>
<path id="Vector_68" d="M49.43 32.6215C49.4247 32.623 49.4191 32.623 49.4138 32.6215C49.4104 32.6184 49.4076 32.6145 49.4057 32.6102C49.4038 32.6059 49.4028 32.6013 49.4028 32.5966C49.4028 32.5919 49.4038 32.5873 49.4057 32.583C49.4076 32.5787 49.4104 32.5748 49.4138 32.5716C49.4543 32.5187 49.5068 32.4763 49.5671 32.4479C49.6274 32.4196 49.6936 32.4062 49.7601 32.4088C49.7692 32.4099 49.7775 32.4145 49.7833 32.4216C49.789 32.4287 49.7918 32.4378 49.791 32.4469C49.7906 32.4516 49.7893 32.4561 49.7872 32.4602C49.7851 32.4643 49.7822 32.468 49.7786 32.471C49.7751 32.474 49.771 32.4763 49.7665 32.4777C49.7621 32.4791 49.7574 32.4796 49.7528 32.4792C49.6978 32.4778 49.6433 32.4896 49.5937 32.5136C49.5442 32.5376 49.5011 32.5731 49.4681 32.6171C49.4631 32.6219 49.4567 32.6248 49.4498 32.6256C49.4429 32.6264 49.436 32.625 49.43 32.6215Z" fill="#2E353A"/>
<path id="Vector_69" d="M50.7464 32.4807C50.7403 32.4804 50.7345 32.4778 50.7303 32.4733C50.6871 32.4396 50.6366 32.4164 50.5828 32.4057C50.529 32.395 50.4735 32.397 50.4207 32.4117C50.4163 32.4133 50.4117 32.4141 50.4071 32.414C50.4024 32.4138 50.3979 32.4128 50.3937 32.4109C50.3894 32.409 50.3856 32.4062 50.3824 32.4029C50.3793 32.3995 50.3768 32.3955 50.3752 32.3911C50.3736 32.3867 50.3729 32.382 50.3731 32.3773C50.3733 32.3726 50.3745 32.368 50.3766 32.3637C50.3786 32.3595 50.3815 32.3557 50.385 32.3526C50.3886 32.3495 50.3927 32.3471 50.3972 32.3457C50.461 32.3268 50.5284 32.3235 50.5937 32.336C50.6591 32.3485 50.7205 32.3765 50.7728 32.4176C50.7792 32.4222 50.7837 32.4289 50.7858 32.4365C50.7879 32.4441 50.7874 32.4522 50.7844 32.4595C50.7813 32.4667 50.7759 32.4728 50.7691 32.4766C50.7622 32.4805 50.7542 32.4819 50.7464 32.4807Z" fill="#2E353A"/>
<path id="Vector_70" d="M49.6928 32.9972C49.6928 33.0691 49.7397 33.1249 49.7867 33.1219C49.8336 33.119 49.8688 33.0588 49.8644 32.9854C49.86 32.9121 49.8175 32.8578 49.7705 32.8607C49.7236 32.8637 49.6884 32.9238 49.6928 32.9972Z" fill="#2E353A"/>
<path id="Vector_71" d="M50.5133 32.9458C50.5133 33.0177 50.5603 33.0735 50.6072 33.072C50.6542 33.0706 50.6894 33.0075 50.685 32.9341C50.6806 32.8607 50.638 32.8064 50.5911 32.8094C50.5441 32.8123 50.5074 32.8725 50.5133 32.9458Z" fill="#2E353A"/>
<path id="Vector_72" d="M50.5703 32.8138L50.7405 32.7536C50.7405 32.7536 50.6598 32.8945 50.5703 32.8138Z" fill="#2E353A"/>
<path id="Vector_73" d="M49.7441 32.8651L49.9144 32.8049C49.9144 32.8049 49.8395 32.9458 49.7441 32.8651Z" fill="#2E353A"/>
<path id="Vector_74" d="M49.7825 33.7235C49.7633 33.7017 49.7461 33.6781 49.7311 33.6531C49.7295 33.6516 49.7283 33.6498 49.7274 33.6478C49.7265 33.6457 49.7261 33.6436 49.7261 33.6414C49.7261 33.6392 49.7265 33.637 49.7274 33.635C49.7283 33.633 49.7295 33.6311 49.7311 33.6296C49.7326 33.628 49.7345 33.6267 49.7365 33.6259C49.7385 33.625 49.7407 33.6246 49.7429 33.6246C49.7451 33.6246 49.7473 33.625 49.7493 33.6259C49.7513 33.6267 49.7531 33.628 49.7546 33.6296C49.793 33.6925 49.8455 33.7456 49.9078 33.7848C49.9702 33.824 50.0408 33.8483 50.1141 33.8556C50.1187 33.8559 50.123 33.8579 50.1262 33.8611C50.1294 33.8644 50.1314 33.8687 50.1317 33.8732C50.1314 33.878 50.1292 33.8825 50.1257 33.8858C50.1221 33.889 50.1175 33.8908 50.1127 33.8908C49.9848 33.881 49.8661 33.8208 49.7825 33.7235Z" fill="#263238"/>
<path id="Vector_75" d="M49.869 31.3038C49.869 31.3038 50.3459 31.8321 49.8264 32.0375C49.307 32.2429 48.8389 32.5614 48.7626 33.0001C48.7436 33.1214 48.6835 33.2324 48.5924 33.3147C48.5013 33.397 48.3847 33.4455 48.2622 33.4521C48.2622 33.4521 47.5754 32.5804 48.0186 31.6663C48.4617 30.7521 49.6885 30.9839 49.869 31.3038Z" fill="#263238"/>
<path id="Vector_76" d="M48.4912 31.4403C48.4912 31.4403 49.065 30.5525 50.0261 30.9825C50.9872 31.4124 51.0298 32.1417 50.7891 32.0698C50.5485 31.9979 50.1626 31.923 49.8867 31.4285C49.6108 30.934 48.4912 31.4403 48.4912 31.4403Z" fill="#263238"/>
<path id="Vector_77" d="M48.6318 33.1131C48.6318 33.1131 49.1058 33.0852 48.8798 33.7089C48.8598 33.4896 48.7733 33.2818 48.6318 33.1131Z" fill="#263238"/>
<path id="Vector_78" d="M48.0831 33.2804C48.1433 33.4422 48.2652 33.5736 48.422 33.6458C48.6304 33.7411 48.7698 33.5621 48.7404 33.3523C48.714 33.1601 48.5746 32.8769 48.3501 32.8725C48.2723 32.8725 48.1976 32.9034 48.1426 32.9584C48.0876 33.0134 48.0566 33.0881 48.0566 33.1659C48.0573 33.2055 48.0663 33.2445 48.0831 33.2804Z" fill="#B25B52"/>
<path id="Vector_79" d="M54.8803 40.6965L52.3461 40.3458C52.3336 40.3442 52.3216 40.3395 52.3112 40.3323C52.3008 40.325 52.2923 40.3154 52.2864 40.3042C52.2805 40.293 52.2774 40.2805 52.2773 40.2678C52.2773 40.2552 52.2802 40.2427 52.2859 40.2314L53.8531 37.1675C53.8739 37.1261 53.9072 37.0924 53.9483 37.071C53.9894 37.0497 54.0362 37.0418 54.082 37.0486L56.6162 37.3993C56.6287 37.4008 56.6407 37.4052 56.6511 37.4123C56.6615 37.4194 56.67 37.4289 56.6759 37.44C56.6818 37.4512 56.685 37.4635 56.6851 37.4761C56.6851 37.4887 56.6821 37.5011 56.6764 37.5123L55.1019 40.5777C55.0815 40.6178 55.0493 40.6506 55.0097 40.6719C54.9701 40.6931 54.9249 40.7017 54.8803 40.6965Z" fill="#263238"/>
<path id="Vector_80" opacity="0.5" d="M54.8803 40.6965L52.3461 40.3458C52.3336 40.3442 52.3216 40.3395 52.3112 40.3323C52.3008 40.325 52.2923 40.3154 52.2864 40.3042C52.2805 40.293 52.2774 40.2805 52.2773 40.2678C52.2773 40.2552 52.2802 40.2427 52.2859 40.2314L53.8531 37.1675C53.8739 37.1261 53.9072 37.0924 53.9483 37.071C53.9894 37.0497 54.0362 37.0418 54.082 37.0486L56.6162 37.3993C56.6287 37.4008 56.6407 37.4052 56.6511 37.4123C56.6615 37.4194 56.67 37.4289 56.6759 37.44C56.6818 37.4512 56.685 37.4635 56.6851 37.4761C56.6851 37.4887 56.6821 37.5011 56.6764 37.5123L55.1019 40.5777C55.0815 40.6178 55.0493 40.6506 55.0097 40.6719C54.9701 40.6931 54.9249 40.7017 54.8803 40.6965Z" fill="white"/>
<path id="Vector_81" d="M54.9771 40.7142L52.4415 40.362C52.4291 40.3603 52.4173 40.3557 52.4071 40.3485C52.3969 40.3414 52.3885 40.3318 52.3828 40.3208C52.377 40.3097 52.374 40.2974 52.374 40.2849C52.374 40.2724 52.377 40.2601 52.3828 40.249L53.9558 37.1836C53.9774 37.1426 54.0111 37.1091 54.0523 37.0879C54.0935 37.0666 54.1403 37.0586 54.1862 37.0648L56.7204 37.4155C56.7328 37.4174 56.7446 37.4222 56.7548 37.4295C56.765 37.4368 56.7733 37.4465 56.7791 37.4577C56.7848 37.4688 56.7878 37.4812 56.7878 37.4938C56.7878 37.5064 56.7848 37.5187 56.7791 37.5299L55.2061 40.5938C55.185 40.635 55.1516 40.6687 55.1107 40.6903C55.0697 40.7118 55.0231 40.7202 54.9771 40.7142Z" fill="#263238"/>
<path id="Vector_82" opacity="0.7" d="M54.9771 40.7142L52.4415 40.362C52.4291 40.3603 52.4173 40.3557 52.4071 40.3485C52.3969 40.3414 52.3885 40.3318 52.3828 40.3208C52.377 40.3097 52.374 40.2974 52.374 40.2849C52.374 40.2724 52.377 40.2601 52.3828 40.249L53.9558 37.1836C53.9774 37.1426 54.0111 37.1091 54.0523 37.0879C54.0935 37.0666 54.1403 37.0586 54.1862 37.0648L56.7204 37.4155C56.7328 37.4174 56.7446 37.4222 56.7548 37.4295C56.765 37.4368 56.7733 37.4465 56.7791 37.4577C56.7848 37.4688 56.7878 37.4812 56.7878 37.4938C56.7878 37.5064 56.7848 37.5187 56.7791 37.5299L55.2061 40.5938C55.185 40.635 55.1516 40.6687 55.1107 40.6903C55.0697 40.7118 55.0231 40.7202 54.9771 40.7142Z" fill="white"/>
<path id="Vector_83" opacity="0.7" d="M56.3741 37.9437L56.0806 37.9027C56.0797 37.9018 56.0789 37.9008 56.0784 37.8997C56.0779 37.8985 56.0776 37.8973 56.0776 37.8961C56.0776 37.8948 56.0779 37.8936 56.0784 37.8924C56.0789 37.8913 56.0797 37.8903 56.0806 37.8894L56.2611 37.5358C56.2638 37.5314 56.2677 37.5278 56.2724 37.5254C56.2771 37.5231 56.2823 37.5221 56.2875 37.5226L56.581 37.5622C56.5819 37.563 56.5827 37.5641 56.5832 37.5652C56.5837 37.5663 56.584 37.5676 56.584 37.5688C56.584 37.5701 56.5837 37.5713 56.5832 37.5724C56.5827 37.5736 56.5819 37.5746 56.581 37.5754L56.4005 37.9261C56.3986 37.9315 56.395 37.9362 56.3902 37.9393C56.3855 37.9425 56.3798 37.9441 56.3741 37.9437Z" fill="#263238"/>
<path id="Vector_84" opacity="0.3" d="M56.3741 37.9437L56.0806 37.9027C56.0797 37.9018 56.0789 37.9008 56.0784 37.8997C56.0779 37.8985 56.0776 37.8973 56.0776 37.8961C56.0776 37.8948 56.0779 37.8936 56.0784 37.8924C56.0789 37.8913 56.0797 37.8903 56.0806 37.8894L56.2611 37.5358C56.2638 37.5314 56.2677 37.5278 56.2724 37.5254C56.2771 37.5231 56.2823 37.5221 56.2875 37.5226L56.581 37.5622C56.5819 37.563 56.5827 37.5641 56.5832 37.5652C56.5837 37.5663 56.584 37.5676 56.584 37.5688C56.584 37.5701 56.5837 37.5713 56.5832 37.5724C56.5827 37.5736 56.5819 37.5746 56.581 37.5754L56.4005 37.9261C56.3986 37.9315 56.395 37.9362 56.3902 37.9393C56.3855 37.9425 56.3798 37.9441 56.3741 37.9437Z" fill="white"/>
<path id="Vector_85" d="M54.7949 38.9166C54.7523 39.0355 54.6481 39.1235 54.5733 39.1132C54.4984 39.103 54.4662 38.9958 54.5087 38.877C54.5513 38.7581 54.6555 38.6686 54.7303 38.6789C54.8051 38.6892 54.8389 38.7963 54.7949 38.9166Z" fill="white"/>
<path id="Vector_86" d="M57.3613 50.3123L57.8426 52.286L58.5338 52.0409L58.3298 50.0365L57.3613 50.3123Z" fill="#B25B52"/>
<path id="Vector_87" d="M58.5894 51.9294L57.753 51.9455C57.7353 51.9455 57.7182 51.9517 57.7046 51.9629C57.6909 51.9742 57.6816 51.9898 57.6782 52.0071L57.5212 52.7922C57.5159 52.8248 57.5233 52.8581 57.5419 52.8854C57.5604 52.9127 57.5887 52.9319 57.621 52.9389H57.6488C57.9952 52.9257 58.3033 52.9008 58.7347 52.8934C59.2439 52.8846 59.1148 52.9477 59.7135 52.9448C60.0744 52.9448 60.1331 52.5325 59.9805 52.5149C59.2776 52.44 59.0766 52.2317 58.8066 51.9866C58.7438 51.9413 58.6664 51.9209 58.5894 51.9294Z" fill="#263238"/>
<path id="Vector_88" opacity="0.1" d="M58.4487 51.1986L58.3298 50.0365L57.3613 50.3123L57.6401 51.4539L58.4487 51.1986Z" fill="black"/>
<path id="Vector_89" d="M50.6582 40.7479L51.7631 40.3224C52.1364 40.7484 52.453 41.2209 52.7052 41.7281C53.0662 42.4912 51.3288 42.4912 51.3288 42.4912L50.7815 41.464L50.6582 40.7479Z" fill="#C1D600"/>
<path id="Vector_90" opacity="0.3" d="M50.6582 40.7479L51.7631 40.3224C52.1364 40.7484 52.453 41.2209 52.7052 41.7281C53.0662 42.4912 51.3288 42.4912 51.3288 42.4912L50.7815 41.464L50.6582 40.7479Z" fill="black"/>
<path id="Vector_91" opacity="0.2" d="M51.3009 40.5014C51.6135 42.2314 52.174 41.9218 52.174 41.9218L51.929 42.2828L51.2628 42.3679L50.7815 41.464L50.6582 40.7479L51.3009 40.5014Z" fill="black"/>
<path id="Vector_92" d="M48.4148 41.4948C48.4148 41.4948 48.0142 43.8118 48.8139 45.31C49.6136 46.8082 51.3877 47.0797 55.9469 42.2505C55.9469 42.2505 57.5493 42.9959 61.4085 47.3482L62.2669 46.6835C62.2669 46.6835 58.9081 41.2277 57.2851 39.9335C55.6622 38.6393 52.0583 42.2813 51.6019 42.0759C51.1955 41.8954 51.0032 40.6349 51.0032 40.6349L48.4148 41.4948Z" fill="#C1D600"/>
<path id="Vector_93" opacity="0.3" d="M48.4148 41.4948C48.4148 41.4948 48.0142 43.8118 48.8139 45.31C49.6136 46.8082 51.3877 47.0797 55.9469 42.2505C55.9469 42.2505 57.5493 42.9959 61.4085 47.3482L62.2669 46.6835C62.2669 46.6835 58.9081 41.2277 57.2851 39.9335C55.6622 38.6393 52.0583 42.2813 51.6019 42.0759C51.1955 41.8954 51.0032 40.6349 51.0032 40.6349L48.4148 41.4948Z" fill="black"/>
<path id="Vector_94" d="M52.5103 45.3467C53.4318 44.7113 54.5646 43.7164 55.9469 42.249C55.9469 42.249 57.2675 41.7604 57.7268 42.7025C58.1861 43.6445 58.4854 50.4532 58.4854 50.4532L57.3878 50.7701C57.3878 50.7701 55.4245 44.6247 55.4362 44.2197L52.5103 45.3467Z" fill="#C1D600"/>
<path id="Vector_95" opacity="0.4" d="M52.5103 45.3467C53.4318 44.7113 54.5646 43.7164 55.9469 42.249C55.9469 42.249 57.2675 41.7604 57.7268 42.7025C58.1861 43.6445 58.4854 50.4532 58.4854 50.4532L57.3878 50.7701C57.3878 50.7701 55.4245 44.6247 55.4362 44.2197L52.5103 45.3467Z" fill="black"/>
<path id="Vector_96" opacity="0.2" d="M57.7266 42.7025C57.6534 42.5477 57.5405 42.4151 57.3994 42.318C57.7912 42.5249 58.3415 43.0238 58.406 44.2124C58.2505 44.0657 58.1038 43.9292 57.9658 43.803C57.9321 43.4276 57.8517 43.058 57.7266 42.7025Z" fill="black"/>
<path id="Vector_97" opacity="0.2" d="M55.9469 42.249C56.1006 42.1963 56.2595 42.1599 56.4208 42.1405C55.9421 43.0214 55.3353 43.8264 54.6204 44.5294L52.5103 45.3423C53.4318 44.7113 54.5602 43.7164 55.9469 42.249Z" fill="black"/>
<path id="Vector_98" d="M57.1929 50.6454L57.3323 51.0915L58.6074 50.7129L58.6236 50.2301L57.1929 50.6454Z" fill="#C1D600"/>
<path id="Vector_99" d="M52.1007 40.6305C52.1007 40.6305 51.7721 41.1632 48.2988 41.6914C48.2988 41.6914 48.4528 40.6188 48.086 39.0839C47.7191 37.549 46.3691 36.1051 47.6898 35.7324C49.0104 35.3597 51.2996 34.5922 51.4962 35.4228C51.6928 36.2533 52.0509 36.6157 52.0362 37.2775C52.0215 37.9393 51.5358 38.4206 52.1007 40.6305Z" fill="#263238"/>
<path id="Vector_100" d="M56.365 38.9225C56.3839 38.8531 56.3755 38.779 56.3415 38.7156C56.2902 38.6143 56.1948 38.4837 56.0671 38.4969C55.8558 38.5175 55.8001 38.6686 55.7472 38.8638C55.6944 39.059 55.5271 39.4067 55.7179 39.527C55.9087 39.6474 56.1787 39.5799 56.365 38.9225Z" fill="#B25B52"/>
<path id="Vector_101" d="M48.4561 35.5167C48.4561 35.5167 50.3035 35.6223 50.1949 35.097C50.1949 35.097 49.8354 34.9312 49.9014 34.736C49.9675 34.5409 49.021 34.7434 48.6483 34.6905C48.5015 34.6685 48.5925 34.8666 48.5822 35.0779C48.5672 35.2306 48.5244 35.3793 48.4561 35.5167Z" fill="#263238"/>
<path id="Vector_102" opacity="0.6" d="M48.1641 39.4449L49.5155 39.4273L49.9748 39.1147L50.4943 38.8843L50.5632 39.0677C50.5632 39.0677 48.9491 40.9445 48.3255 40.7802C48.3061 40.3316 48.2521 39.8852 48.1641 39.4449Z" fill="black"/>
<path id="Vector_103" opacity="0.6" d="M49.3042 39.059C49.3042 39.059 48.7862 39.216 48.6981 38.8388C48.5705 38.2974 48.1919 36.7845 47.8074 36.2064C47.3966 35.5783 48.2183 38.6011 48.2183 38.6011L48.4017 39.238L48.6952 39.6298L49.3203 39.1895L49.3042 39.059Z" fill="black"/>
<path id="Vector_104" opacity="0.6" d="M50.2533 35.3347C50.2533 35.3347 50.3178 35.6884 48.9326 35.6561C48.9297 35.6561 50.5482 36.0435 50.2533 35.3347Z" fill="black"/>
<path id="Vector_105" d="M51.549 38.2856L51.53 38.136L51.4243 38.1991L51.549 38.2856Z" fill="#263238"/>
<path id="Vector_106" opacity="0.7" d="M51.549 38.2856L51.53 38.136L51.4243 38.1991L51.549 38.2856Z" fill="white"/>
<path id="Vector_107" d="M50.2842 36.4279L50.3018 36.3311L50.4133 36.265L50.5058 36.2944L51.5153 37.9775L51.5373 38.1404L51.4258 38.2079L51.2923 38.111L50.2842 36.4279Z" fill="#263238"/>
<path id="Vector_108" opacity="0.6" d="M50.2842 36.4279L50.3018 36.3311L50.4133 36.265L50.5058 36.2944L51.5153 37.9775L51.5373 38.1404L51.4258 38.2079L51.2923 38.111L50.2842 36.4279Z" fill="white"/>
<path id="Vector_109" opacity="0.5" d="M50.4174 36.3969L50.3066 36.4633L51.2889 38.102L51.3997 38.0356L50.4174 36.3969Z" fill="white"/>
<path id="Vector_110" d="M47.3671 35.8219C46.8961 35.9554 46.8653 36.5937 47.2952 38.1624C47.7251 39.731 48.0406 40.7303 48.8712 40.3532C49.7017 39.9761 50.6628 38.9665 50.6628 38.9665L50.2461 38.2886C50.2461 38.2886 48.8917 39.4537 48.6085 39.2306C48.3253 39.0076 48.0905 35.6194 47.3671 35.8219Z" fill="#263238"/>
<path id="Vector_111" d="M50.0684 38.5556L50.6406 38.0743C50.6406 38.0743 50.557 37.1117 50.8681 37.1C51.1234 37.0897 51.3274 37.3935 51.3729 37.8131C51.4184 38.2328 50.9473 38.4911 50.9473 38.4911L50.3941 39.1L50.0684 38.5556Z" fill="#B25B52"/>
</g>
<g id="character-2">
<path id="Vector_112" d="M38.3369 29.3008C38.3369 29.3008 39.6238 28.5084 40.2944 29.6457C40.7698 30.4527 40.5071 31.2598 40.8813 31.923C41.4683 32.9502 41.0779 33.4359 40.1975 33.6193C39.3171 33.8028 37.904 33.7778 38.0991 32.7506C38.2987 31.7 37.3185 29.2861 38.3369 29.3008Z" fill="#263238"/>
<path id="Vector_113" d="M39.7424 31.5929C39.7424 31.5929 39.8495 33.0999 40.1313 33.1263C39.9242 33.2216 39.6989 33.271 39.4709 33.271C39.243 33.271 39.0177 33.2216 38.8106 33.1263L38.7651 32.4322L39.7424 31.5929Z" fill="#EBB376"/>
<path id="Vector_114" d="M33.5268 52.8978H33.0088L33.1731 44.8522H33.8643L33.5268 52.8978Z" fill="#C1D600"/>
<path id="Vector_115" opacity="0.7" d="M33.5268 52.8978H33.0088L33.1731 44.8522H33.8643L33.5268 52.8978Z" fill="white"/>
<g id="Group_3" opacity="0.4">
<path id="Vector_116" d="M37.7763 52.8978H37.2583L37.4226 44.8522H38.1138L37.7763 52.8978Z" fill="#C1D600"/>
</g>
<path id="Vector_117" d="M42.0245 52.8978H42.5425L42.3781 44.8522H41.687L42.0245 52.8978Z" fill="#C1D600"/>
<g id="Group_4" opacity="0.4">
<path id="Vector_118" d="M42.0245 52.8978H42.5425L42.3781 44.8522H41.687L42.0245 52.8978Z" fill="white"/>
</g>
<path id="Vector_119" d="M42.0596 44.8522H33.5576V45.6049H42.0596V44.8522Z" fill="#C1D600"/>
<path id="Vector_120" opacity="0.5" d="M42.0596 44.8522H33.5576V45.6049H42.0596V44.8522Z" fill="white"/>
<path id="Vector_121" d="M37.775 52.8978H38.293L38.1286 44.8522H37.4375L37.775 52.8978Z" fill="#C1D600"/>
<path id="Vector_122" opacity="0.7" d="M37.775 52.8978H38.293L38.1286 44.8522H37.4375L37.775 52.8978Z" fill="white"/>
<path id="Vector_123" d="M42.5761 35.323H41.1674C40.4337 35.323 39.6428 35.706 39.4344 36.4147C38.8474 38.4221 38.4072 44.7142 38.4072 44.7142H42.1784C42.3995 44.7141 42.6127 44.6325 42.7774 44.4849C42.942 44.3373 43.0464 44.1342 43.0706 43.9145L43.86 36.7537C43.8801 36.5733 43.8618 36.3907 43.8064 36.2179C43.7509 36.0451 43.6596 35.8859 43.5384 35.7508C43.4172 35.6157 43.2688 35.5078 43.103 35.4341C42.9371 35.3603 42.7576 35.3225 42.5761 35.323Z" fill="#263238"/>
<path id="Vector_124" opacity="0.6" d="M42.5761 35.323H41.1674C40.4337 35.323 39.6428 35.706 39.4344 36.4147C38.8474 38.4221 38.4072 44.7142 38.4072 44.7142H42.1784C42.3995 44.7141 42.6127 44.6325 42.7774 44.4849C42.942 44.3373 43.0464 44.1342 43.0706 43.9145L43.86 36.7537C43.8801 36.5733 43.8618 36.3907 43.8064 36.2179C43.7509 36.0451 43.6596 35.8859 43.5384 35.7508C43.4172 35.6157 43.2688 35.5078 43.103 35.4341C42.9371 35.3603 42.7576 35.3225 42.5761 35.323Z" fill="white"/>
<path id="Vector_125" d="M41.7162 35.323H40.3075C39.5738 35.323 38.7844 35.706 38.576 36.4147C37.989 38.4221 37.5488 44.7142 37.5488 44.7142H41.1879C41.4451 44.7143 41.6933 44.6194 41.8847 44.4477C42.0762 44.276 42.1975 44.0396 42.2254 43.7839L42.9943 36.7522C43.0138 36.5725 42.9954 36.3906 42.9401 36.2185C42.8848 36.0464 42.794 35.8878 42.6735 35.753C42.553 35.6182 42.4055 35.5103 42.2406 35.4362C42.0756 35.3621 41.897 35.3236 41.7162 35.323Z" fill="#263238"/>
<path id="Vector_126" opacity="0.5" d="M41.7162 35.323H40.3075C39.5738 35.323 38.7844 35.706 38.576 36.4147C37.989 38.4221 37.5488 44.7142 37.5488 44.7142H41.1879C41.4451 44.7143 41.6933 44.6194 41.8847 44.4477C42.0762 44.276 42.1975 44.0396 42.2254 43.7839L42.9943 36.7522C43.0138 36.5725 42.9954 36.3906 42.9401 36.2185C42.8848 36.0464 42.794 35.8878 42.6735 35.753C42.553 35.6182 42.4055 35.5103 42.2406 35.4362C42.0756 35.3621 41.897 35.3236 41.7162 35.323Z" fill="white"/>
<path id="Vector_127" d="M38.8666 44.8522H33.3551C33.1111 44.8522 32.8771 44.7552 32.7045 44.5827C32.532 44.4101 32.4351 44.1761 32.4351 43.9321C32.4351 43.6881 32.532 43.4541 32.7045 43.2815C32.8771 43.109 33.1111 43.0121 33.3551 43.0121H38.8666V44.8522Z" fill="#263238"/>
<path id="Vector_128" opacity="0.5" d="M38.8666 44.8522H33.3551C33.1111 44.8522 32.8771 44.7552 32.7045 44.5827C32.532 44.4101 32.4351 44.1761 32.4351 43.9321C32.4351 43.6881 32.532 43.4541 32.7045 43.2815C32.8771 43.109 33.1111 43.0121 33.3551 43.0121H38.8666V44.8522Z" fill="white"/>
<path id="Vector_129" d="M42.2342 44.8522H38.6758C38.4423 44.8522 38.2184 44.7594 38.0533 44.5943C37.8882 44.4292 37.7954 44.2052 37.7954 43.9717V43.8925C37.7954 43.659 37.8882 43.4351 38.0533 43.2699C38.2184 43.1048 38.4423 43.0121 38.6758 43.0121H42.2342C42.4783 43.0121 42.7123 43.109 42.8848 43.2815C43.0574 43.4541 43.1543 43.6881 43.1543 43.9321C43.1543 44.1761 43.0574 44.4101 42.8848 44.5827C42.7123 44.7552 42.4783 44.8522 42.2342 44.8522Z" fill="#263238"/>
<path id="Vector_130" opacity="0.6" d="M42.2342 44.8522H38.6758C38.4423 44.8522 38.2184 44.7594 38.0533 44.5943C37.8882 44.4292 37.7954 44.2052 37.7954 43.9717V43.8925C37.7954 43.659 37.8882 43.4351 38.0533 43.2699C38.2184 43.1048 38.4423 43.0121 38.6758 43.0121H42.2342C42.4783 43.0121 42.7123 43.109 42.8848 43.2815C43.0574 43.4541 43.1543 43.6881 43.1543 43.9321C43.1543 44.1761 43.0574 44.4101 42.8848 44.5827C42.7123 44.7552 42.4783 44.8522 42.2342 44.8522Z" fill="white"/>
<path id="Vector_131" d="M37.0676 35.1381C37.0676 35.1381 37.1908 36.4778 36.5584 37.0457C35.9832 37.5622 35.0543 37.8161 35.0543 37.8161L34.2355 37.5769C34.198 37.5657 34.158 37.5657 34.1205 37.5769C34.0829 37.5881 34.0495 37.61 34.0242 37.64L33.6588 38.0802C33.6255 38.1246 33.611 38.1804 33.6187 38.2354C33.6264 38.2904 33.6556 38.3401 33.6999 38.3737C33.7219 38.391 33.7471 38.4038 33.7741 38.4113C33.801 38.4189 33.8292 38.421 33.8569 38.4177L34.281 38.3663C34.4514 38.3999 34.6241 38.4209 34.7975 38.4294C34.9287 38.4027 35.0577 38.3664 35.1835 38.3208C35.1835 38.3208 36.6435 38.1946 37.2657 37.5725C37.8878 36.9503 38.0449 35.6575 38.0449 35.6575L37.0676 35.1381Z" fill="#EBB376"/>
<path id="Vector_132" d="M32.7666 49.4025L32.862 52.3314H33.5179L33.8246 49.3497L32.7666 49.4025Z" fill="#EBB376"/>
<path id="Vector_133" d="M32.8518 52.0306H33.5987C33.6145 52.0303 33.6299 52.0356 33.6423 52.0455C33.6546 52.0554 33.6631 52.0694 33.6662 52.0849L33.8217 52.7878C33.8283 52.8177 33.8227 52.8491 33.8062 52.8749C33.7897 52.9008 33.7636 52.919 33.7337 52.9257H33.7102C33.3991 52.9257 33.1232 52.9022 32.7344 52.9022C32.2766 52.9022 32.3925 52.9551 31.854 52.9624C31.5297 52.9624 31.471 52.597 31.6089 52.5794C32.2384 52.5016 32.4189 52.3109 32.6625 52.0864C32.7165 52.0451 32.784 52.0252 32.8518 52.0306Z" fill="#263238"/>
<path id="Vector_134" opacity="0.1" d="M33.5838 51.6887L33.6572 50.9712H32.8179L32.8413 51.6887H33.5838Z" fill="#263238"/>
<path id="Vector_135" d="M40.4396 38.3957C40.4396 38.3957 42.4822 43.037 40.5203 43.037H34.8591C34.8591 43.037 34.6141 44.2711 33.7322 51.0548H32.7857C32.7857 51.0548 32.6272 43.1089 33.1511 41.9247C33.5605 40.9959 36.19 40.3312 37.4344 40.0876C37.5975 40.0558 37.7466 39.9737 37.8608 39.8529C37.975 39.7322 38.0486 39.5787 38.0712 39.414L38.3471 38.2739L40.4396 38.3957Z" fill="#263238"/>
<path id="Vector_136" opacity="0.2" d="M40.4396 38.3957C40.4396 38.3957 42.4822 43.037 40.5203 43.037H34.8591C34.8591 43.037 34.6141 44.2711 33.7322 51.0548H32.7857C32.7857 51.0548 32.6272 43.1089 33.1511 41.9247C33.5605 40.9959 36.19 40.3312 37.4344 40.0876C37.5975 40.0558 37.7466 39.9737 37.8608 39.8529C37.975 39.7322 38.0486 39.5787 38.0712 39.414L38.3471 38.2739L40.4396 38.3957Z" fill="black"/>
<path id="Vector_137" d="M32.604 50.8919L32.6803 51.407H33.8058L33.91 50.8919H32.604Z" fill="#263238"/>
<path id="Vector_138" opacity="0.2" d="M32.604 50.8919L32.6803 51.407H33.8058L33.91 50.8919H32.604Z" fill="white"/>
<path id="Vector_139" d="M34.7358 49.404L34.8459 52.2933L35.4725 52.2918L35.923 49.3512L34.7358 49.404Z" fill="#EBB376"/>
<path id="Vector_140" opacity="0.1" d="M35.5648 51.6887L35.6749 50.9712H34.7944L34.8223 51.6887H35.5648Z" fill="#263238"/>
<path id="Vector_141" d="M34.8591 52.0306H35.6075C35.6232 52.0306 35.6385 52.036 35.6508 52.0458C35.6631 52.0557 35.6716 52.0695 35.675 52.0849L35.8217 52.7878C35.8252 52.8025 35.8257 52.8178 35.8232 52.8328C35.8207 52.8477 35.8153 52.862 35.8072 52.8748C35.7992 52.8877 35.7887 52.8988 35.7763 52.9075C35.7639 52.9162 35.7499 52.9224 35.7351 52.9257H35.7102C35.3991 52.9257 35.1232 52.9022 34.7359 52.9022C34.278 52.9022 34.394 52.9551 33.8554 52.9624C33.5326 52.9624 33.4739 52.597 33.6104 52.5794C34.2399 52.5016 34.4218 52.3109 34.6654 52.0864C34.7204 52.0436 34.7898 52.0236 34.8591 52.0306Z" fill="#263238"/>
<path id="Vector_142" d="M41.4726 38.4764C41.4726 38.4764 41.6193 38.4764 41.8395 39.5725C42.1197 40.9651 42.5262 43.037 41.1894 43.037H36.8562C36.8562 43.037 36.6449 43.5403 35.7234 51.0548H34.7769C34.7769 51.0548 34.2516 43.0135 34.7769 41.8294C35.1805 40.9166 37.1849 40.4984 38.2884 40.3546C38.4428 40.3392 38.5867 40.2693 38.6942 40.1575C38.8018 40.0456 38.866 39.8991 38.8753 39.7442C38.8841 39.4126 38.8357 38.4236 38.8357 38.4236L41.4726 38.4764Z" fill="#263238"/>
<path id="Vector_143" d="M34.5879 50.8919L34.6965 51.407H35.7882L35.8924 50.8919H34.5879Z" fill="#263238"/>
<path id="Vector_144" opacity="0.2" d="M34.5879 50.8919L34.6965 51.407H35.7882L35.8924 50.8919H34.5879Z" fill="white"/>
<path id="Vector_145" d="M37.7647 33.1336C37.2364 33.0544 36.9385 34.3545 36.9106 35.5812L38.1638 35.8747C38.1638 35.8747 38.7522 33.2833 37.7647 33.1336Z" fill="#C1D600"/>
<path id="Vector_146" opacity="0.1" d="M37.7647 33.1336C37.2364 33.0544 36.9385 34.3545 36.9106 35.5812L38.1638 35.8747C38.1638 35.8747 38.7522 33.2833 37.7647 33.1336Z" fill="black"/>
<path id="Vector_147" d="M38.0993 39.0589C38.068 38.3988 38.0004 37.7409 37.8968 37.0882C37.6987 35.8263 37.3583 34.4073 37.4742 33.5093C37.4881 33.3935 37.545 33.2872 37.6336 33.2113C37.7222 33.1355 37.836 33.0957 37.9525 33.0999H41.3804C41.4331 33.1009 41.4851 33.1127 41.5332 33.1345C41.5812 33.1563 41.6243 33.1876 41.6599 33.2266C41.6954 33.2656 41.7227 33.3114 41.74 33.3613C41.7572 33.4111 41.7642 33.464 41.7604 33.5166C41.643 34.4792 41.3451 36.874 41.7986 39.1352C41.7971 39.1352 39.1793 39.3436 38.0993 39.0589Z" fill="#C1D600"/>
<path id="Vector_148" d="M41.0723 34.8152C41.0723 34.8152 41.2997 36.3736 40.613 36.8124C39.9263 37.2511 38.4237 37.706 38.4237 37.706L37.4948 37.5094C37.4715 37.5042 37.4471 37.5063 37.425 37.5155C37.403 37.5247 37.3843 37.5405 37.3716 37.5607L36.9988 38.1624C36.9852 38.185 36.9791 38.2115 36.9815 38.2379C36.9838 38.2643 36.9945 38.2892 37.012 38.3091C37.0255 38.3252 37.0427 38.3377 37.0622 38.3456C37.0816 38.3536 37.1027 38.3566 37.1236 38.3546L37.6856 38.2974C37.8139 38.3285 37.9444 38.3501 38.0759 38.3619C38.2396 38.3372 38.401 38.2994 38.5587 38.2489C38.5587 38.2489 40.7054 38.0391 41.3614 37.3846C42.0173 36.7302 42.0951 35.3685 42.0951 35.3685L41.0723 34.8152Z" fill="#EBB376"/>
<path id="Vector_149" d="M41.5005 33.1292C40.8343 33.05 41.0104 34.5379 40.9297 35.5812L42.174 35.728C42.174 35.728 42.491 33.2466 41.5005 33.1292Z" fill="#C1D600"/>
<path id="Vector_150" opacity="0.1" d="M41.5005 33.1292C40.8343 33.05 41.0104 34.5379 40.9297 35.5812L42.174 35.728C42.174 35.728 42.491 33.2466 41.5005 33.1292Z" fill="black"/>
<path id="Vector_151" d="M38.7068 33.1967C38.7068 33.1967 38.5776 34.3075 40.0465 33.3171C40.0916 33.2866 40.1244 33.2411 40.1392 33.1888C40.154 33.1364 40.1497 33.0805 40.1272 33.0309C40.061 32.8933 40.0245 32.7433 40.0201 32.5907C40.0191 32.5685 40.0122 32.5469 40.0001 32.5282C39.9881 32.5095 39.9713 32.4943 39.9515 32.4842C39.9317 32.474 39.9095 32.4693 39.8873 32.4705C39.8651 32.4717 39.8435 32.4787 39.8249 32.4909C39.532 32.6894 39.1794 32.7801 38.8271 32.7477C38.8064 32.7459 38.7856 32.7492 38.7665 32.7573C38.7474 32.7653 38.7306 32.7779 38.7174 32.794C38.7043 32.81 38.6952 32.829 38.6911 32.8493C38.6869 32.8697 38.6878 32.8907 38.6936 32.9106C38.722 33.0033 38.7266 33.1018 38.7068 33.1967Z" fill="#C1D600"/>
<path id="Vector_152" opacity="0.1" d="M38.7068 33.1967C38.7068 33.1967 38.5776 34.3075 40.0465 33.3171C40.0916 33.2866 40.1244 33.2411 40.1392 33.1888C40.154 33.1364 40.1497 33.0805 40.1272 33.0309C40.061 32.8933 40.0245 32.7433 40.0201 32.5907C40.0191 32.5685 40.0122 32.5469 40.0001 32.5282C39.9881 32.5095 39.9713 32.4943 39.9515 32.4842C39.9317 32.474 39.9095 32.4693 39.8873 32.4705C39.8651 32.4717 39.8435 32.4787 39.8249 32.4909C39.532 32.6894 39.1794 32.7801 38.8271 32.7477C38.8064 32.7459 38.7856 32.7492 38.7665 32.7573C38.7474 32.7653 38.7306 32.7779 38.7174 32.794C38.7043 32.81 38.6952 32.829 38.6911 32.8493C38.6869 32.8697 38.6878 32.8907 38.6936 32.9106C38.722 33.0033 38.7266 33.1018 38.7068 33.1967Z" fill="black"/>
<path id="Vector_153" opacity="0.1" d="M39.7664 31.8101C39.7532 31.6795 39.7473 31.5929 39.7473 31.5929L38.7759 32.4322L38.7994 32.7991C39.0752 32.7771 39.4861 32.5966 39.7664 31.8101Z" fill="black"/>
<path id="Vector_154" d="M39.8216 30.3823C39.8994 31.2407 39.9508 31.6031 39.5883 32.105C39.0439 32.8607 37.9742 32.7697 37.6396 31.9583C37.3462 31.2246 37.2611 29.9435 38.0402 29.4769C38.2116 29.3724 38.4069 29.3136 38.6075 29.3062C38.8081 29.2987 39.0072 29.3427 39.1859 29.4341C39.3646 29.5255 39.5168 29.6612 39.6281 29.8283C39.7394 29.9953 39.8061 30.1881 39.8216 30.3882V30.3823Z" fill="#EBB376"/>
<path id="Vector_155" d="M38.014 31.1938C37.9804 31.3625 37.9241 31.5258 37.8467 31.6795C37.8864 31.698 37.9298 31.7076 37.9736 31.7076C38.0175 31.7076 38.0608 31.698 38.1005 31.6795L38.014 31.1938Z" fill="#D58745"/>
<path id="Vector_156" d="M38.5484 30.6538C38.5537 30.651 38.5582 30.647 38.5616 30.642C38.5677 30.6357 38.5711 30.6273 38.5711 30.6185C38.5711 30.6098 38.5677 30.6014 38.5616 30.5951C38.5117 30.5548 38.4528 30.5272 38.39 30.5144C38.3272 30.5017 38.2623 30.5041 38.2006 30.5217C38.1922 30.525 38.1853 30.5314 38.1815 30.5396C38.1777 30.5478 38.1772 30.5571 38.1801 30.5657C38.1831 30.574 38.1892 30.5808 38.1971 30.5847C38.2051 30.5885 38.2142 30.5891 38.2226 30.5863C38.2732 30.5731 38.3261 30.5722 38.3771 30.5834C38.4281 30.5946 38.4757 30.6177 38.5161 30.6508C38.521 30.6536 38.5264 30.6552 38.5319 30.6557C38.5375 30.6562 38.5431 30.6556 38.5484 30.6538Z" fill="#2E353A"/>
<path id="Vector_157" d="M37.3565 30.8342C37.3507 30.8355 37.3447 30.8355 37.3389 30.8342C37.3318 30.829 37.3269 30.8212 37.3253 30.8125C37.3237 30.8038 37.3254 30.7948 37.3301 30.7873C37.365 30.7336 37.4122 30.6891 37.4679 30.6574C37.5236 30.6257 37.586 30.6079 37.65 30.6053C37.6579 30.607 37.665 30.6113 37.6701 30.6176C37.6753 30.6239 37.678 30.6317 37.678 30.6398C37.678 30.6479 37.6753 30.6558 37.6701 30.662C37.665 30.6683 37.6579 30.6727 37.65 30.6743C37.5976 30.6767 37.5465 30.6912 37.5007 30.7166C37.4548 30.7421 37.4155 30.7778 37.3858 30.821C37.3828 30.8259 37.3784 30.8297 37.3731 30.832C37.3679 30.8344 37.3621 30.8351 37.3565 30.8342Z" fill="#2E353A"/>
<path id="Vector_158" d="M38.4807 30.9927C38.4924 31.0617 38.466 31.1233 38.4205 31.1321C38.3751 31.1409 38.3296 31.091 38.3178 31.0221C38.3061 30.9531 38.331 30.8915 38.3765 30.8827C38.422 30.8739 38.4675 30.9237 38.4807 30.9927Z" fill="#2E353A"/>
<path id="Vector_159" d="M37.6999 31.1336C37.7131 31.2011 37.6867 31.2642 37.6412 31.2715C37.5957 31.2789 37.5502 31.2319 37.537 31.1615C37.5238 31.091 37.5517 31.0309 37.5971 31.0235C37.6426 31.0162 37.6881 31.0632 37.6999 31.1336Z" fill="#2E353A"/>
<path id="Vector_160" d="M37.6165 31.0294L37.4434 31.0118C37.4434 31.0118 37.5519 31.1189 37.6165 31.0294Z" fill="#2E353A"/>
<path id="Vector_161" d="M38.3973 30.8827L38.2227 30.8651C38.2227 30.8651 38.3312 30.9795 38.3973 30.8827Z" fill="#2E353A"/>
<path id="Vector_162" d="M40.1257 31.0294C40.1145 31.1113 40.0872 31.1901 40.0454 31.2614C40.0036 31.3326 39.9481 31.3949 39.8821 31.4447C39.7046 31.5767 39.5373 31.4373 39.5212 31.229C39.505 31.0206 39.5799 30.7462 39.7897 30.6963C39.8356 30.6866 39.8832 30.6885 39.9282 30.7018C39.9732 30.715 40.0142 30.7393 40.0475 30.7723C40.0808 30.8053 40.1054 30.8461 40.119 30.891C40.1327 30.9359 40.135 30.9834 40.1257 31.0294Z" fill="#EBB376"/>
<path id="Vector_163" d="M38.3385 32.0316C38.3136 32.0392 38.2881 32.0446 38.2622 32.0478C38.2603 32.0482 38.2583 32.0482 38.2564 32.0479C38.2544 32.0475 38.2526 32.0467 38.2509 32.0456C38.2493 32.0445 38.2479 32.0431 38.2468 32.0415C38.2457 32.0398 38.245 32.038 38.2446 32.036C38.2446 32.0318 38.246 32.0277 38.2487 32.0245C38.2514 32.0213 38.2552 32.0191 38.2593 32.0184C38.3239 32.0099 38.3855 31.9864 38.4393 31.9497C38.4931 31.913 38.5375 31.8641 38.5689 31.8071C38.5705 31.8033 38.5736 31.8002 38.5774 31.7986C38.5813 31.7969 38.5856 31.7968 38.5895 31.7983C38.5919 31.8012 38.5932 31.8048 38.5932 31.8086C38.5932 31.8123 38.5919 31.816 38.5895 31.8189C38.5365 31.9195 38.4465 31.9958 38.3385 32.0316Z" fill="#263238"/>
<path id="Vector_164" d="M38.6521 29.7792C38.6521 29.7792 38.4173 30.146 38.5978 30.4028C38.7783 30.6596 37.5443 30.1226 37.2273 30.6846C37.2273 30.6846 36.8238 28.9486 38.6521 29.1805V29.7792Z" fill="#263238"/>
<path id="Vector_165" d="M38.592 29.6691C38.592 29.6691 38.4555 30.3661 38.9089 30.5804C39.3624 30.7946 39.3492 31.3698 39.7556 31.273C40.3426 31.1263 39.9229 29.3522 38.972 29.16C38.2721 29.0162 38.592 29.6691 38.592 29.6691Z" fill="#263238"/>
<path id="Vector_166" d="M25.7762 53.0196H25.2699L25.0483 39.6283H25.9977L25.7762 53.0196Z" fill="#C1D600"/>
<path id="Vector_167" opacity="0.7" d="M25.7762 53.0196H25.2699L25.0483 39.6283H25.9977L25.7762 53.0196Z" fill="white"/>
<path id="Vector_168" d="M31.3611 53.0196H30.8549L30.6333 39.6283H31.5827L31.3611 53.0196Z" fill="#C1D600"/>
<path id="Vector_169" opacity="0.4" d="M31.3611 53.0196H30.8549L30.6333 39.6283H31.5827L31.3611 53.0196Z" fill="white"/>
<path id="Vector_170" d="M35.0707 39.4038H25.5225V40.4515H35.0707V39.4038Z" fill="#C1D600"/>
<path id="Vector_171" opacity="0.3" d="M35.0707 39.4038H25.5225V40.4515H35.0707V39.4038Z" fill="white"/>
<path id="Vector_172" d="M40.6699 39.4038H35.0703V40.4515H40.6699V39.4038Z" fill="#C1D600"/>
<path id="Vector_173" opacity="0.5" d="M40.6699 39.4038H35.0703V40.4515H40.6699V39.4038Z" fill="white"/>
<path id="Vector_174" d="M40.909 53.0196H40.4027L40.1812 39.6283H41.1306L40.909 53.0196Z" fill="#C1D600"/>
<path id="Vector_175" opacity="0.4" d="M40.909 53.0196H40.4027L40.1812 39.6283H41.1306L40.909 53.0196Z" fill="white"/>
<path id="Vector_176" d="M41.3218 38.7302H34.0832C33.8684 38.7302 33.6943 38.9043 33.6943 39.1191V39.2394C33.6943 39.4542 33.8684 39.6283 34.0832 39.6283H41.3218C41.5366 39.6283 41.7107 39.4542 41.7107 39.2394V39.1191C41.7107 38.9043 41.5366 38.7302 41.3218 38.7302Z" fill="#263238"/>
<path id="Vector_177" opacity="0.6" d="M41.3218 38.7302H34.0832C33.8684 38.7302 33.6943 38.9043 33.6943 39.1191V39.2394C33.6943 39.4542 33.8684 39.6283 34.0832 39.6283H41.3218C41.5366 39.6283 41.7107 39.4542 41.7107 39.2394V39.1191C41.7107 38.9043 41.5366 38.7302 41.3218 38.7302Z" fill="white"/>
<path id="Vector_178" d="M34.554 38.7302H24.6506C24.4358 38.7302 24.2617 38.9043 24.2617 39.1191V39.2394C24.2617 39.4542 24.4358 39.6283 24.6506 39.6283H34.554C34.7687 39.6283 34.9428 39.4542 34.9428 39.2394V39.1191C34.9428 38.9043 34.7687 38.7302 34.554 38.7302Z" fill="#263238"/>
<path id="Vector_179" opacity="0.5" d="M34.554 38.7302H24.6506C24.4358 38.7302 24.2617 38.9043 24.2617 39.1191V39.2394C24.2617 39.4542 24.4358 39.6283 24.6506 39.6283H34.554C34.7687 39.6283 34.9428 39.4542 34.9428 39.2394V39.1191C34.9428 38.9043 34.7687 38.7302 34.554 38.7302Z" fill="white"/>
<path id="Vector_180" d="M35.3245 53.0196H34.8183L34.5967 39.6283H35.5461L35.3245 53.0196Z" fill="#C1D600"/>
<path id="Vector_181" opacity="0.7" d="M35.3245 53.0196H34.8183L34.5967 39.6283H35.5461L35.3245 53.0196Z" fill="white"/>
<path id="Vector_182" d="M34.2722 38.7302C34.2333 38.7302 34.196 38.7148 34.1685 38.6873C34.1409 38.6597 34.1255 38.6224 34.1255 38.5835C34.1255 38.5446 34.1409 38.5073 34.1685 38.4797C34.196 38.4522 34.2333 38.4368 34.2722 38.4368H38.3369C38.3758 38.4368 38.4131 38.4522 38.4406 38.4797C38.4682 38.5073 38.4836 38.5446 38.4836 38.5835C38.4836 38.6224 38.4682 38.6597 38.4406 38.6873C38.4131 38.7148 38.3758 38.7302 38.3369 38.7302H34.2722Z" fill="#C1D600"/>
<path id="Vector_183" opacity="0.2" d="M34.2722 38.7302C34.2333 38.7302 34.196 38.7148 34.1685 38.6873C34.1409 38.6597 34.1255 38.6224 34.1255 38.5835C34.1255 38.5446 34.1409 38.5073 34.1685 38.4797C34.196 38.4522 34.2333 38.4368 34.2722 38.4368H38.3369C38.3758 38.4368 38.4131 38.4522 38.4406 38.4797C38.4682 38.5073 38.4836 38.5446 38.4836 38.5835C38.4836 38.6224 38.4682 38.6597 38.4406 38.6873C38.4131 38.7148 38.3758 38.7302 38.3369 38.7302H34.2722Z" fill="black"/>
<path id="Vector_184" d="M34.6171 38.472L34.0771 34.6216C34.0658 34.5512 34.0303 34.4871 33.9767 34.4402C33.9231 34.3933 33.8548 34.3666 33.7836 34.3648H33.2656V38.7288H34.397C34.4294 38.7297 34.4616 38.7235 34.4913 38.7103C34.521 38.6972 34.5474 38.6777 34.5685 38.653C34.5896 38.6284 34.6049 38.5993 34.6133 38.568C34.6217 38.5367 34.623 38.5039 34.6171 38.472Z" fill="#C1D600"/>
<path id="Vector_185" d="M34.1737 38.7288H29.5779C29.5068 38.7266 29.4386 38.6999 29.3851 38.653C29.3315 38.6062 29.2959 38.5422 29.2844 38.472L28.7444 34.6216C28.7385 34.5897 28.7397 34.5568 28.7482 34.5255C28.7566 34.4942 28.7719 34.4651 28.793 34.4405C28.8141 34.4159 28.8405 34.3963 28.8702 34.3832C28.8998 34.3701 28.9321 34.3638 28.9645 34.3648H33.5603C33.6315 34.3666 33.6998 34.3933 33.7534 34.4402C33.807 34.4871 33.8425 34.5512 33.8538 34.6216L34.3953 38.472C34.401 38.504 34.3995 38.5368 34.3908 38.5681C34.3822 38.5995 34.3668 38.6285 34.3455 38.6531C34.3243 38.6776 34.2979 38.6972 34.2682 38.7103C34.2384 38.7234 34.2062 38.7297 34.1737 38.7288Z" fill="#263238"/>
<path id="Vector_186" opacity="0.7" d="M34.1737 38.7288H29.5779C29.5068 38.7266 29.4386 38.6999 29.3851 38.653C29.3315 38.6062 29.2959 38.5422 29.2844 38.472L28.7444 34.6216C28.7385 34.5897 28.7397 34.5568 28.7482 34.5255C28.7566 34.4942 28.7719 34.4651 28.793 34.4405C28.8141 34.4159 28.8405 34.3963 28.8702 34.3832C28.8998 34.3701 28.9321 34.3638 28.9645 34.3648H33.5603C33.6315 34.3666 33.6998 34.3933 33.7534 34.4402C33.807 34.4871 33.8425 34.5512 33.8538 34.6216L34.3953 38.472C34.401 38.504 34.3995 38.5368 34.3908 38.5681C34.3822 38.5995 34.3668 38.6285 34.3455 38.6531C34.3243 38.6776 34.2979 38.6972 34.2682 38.7103C34.2384 38.7234 34.2062 38.7297 34.1737 38.7288Z" fill="white"/>
<path id="Vector_187" opacity="0.7" d="M31.794 36.4411C31.7993 36.4702 31.798 36.5001 31.7902 36.5287C31.7824 36.5572 31.7684 36.5837 31.7492 36.6062C31.73 36.6287 31.706 36.6466 31.6789 36.6586C31.6519 36.6707 31.6226 36.6766 31.593 36.6759C31.5279 36.6743 31.4653 36.65 31.4163 36.6071C31.3672 36.5642 31.3347 36.5055 31.3245 36.4411C31.3192 36.4119 31.3205 36.382 31.3283 36.3534C31.3362 36.3248 31.3503 36.2983 31.3698 36.2759C31.3892 36.2535 31.4134 36.2358 31.4406 36.224C31.4678 36.2122 31.4973 36.2067 31.527 36.2078C31.5916 36.2097 31.6537 36.234 31.7024 36.2765C31.7511 36.3191 31.7835 36.3773 31.794 36.4411Z" fill="white"/>
</g>
<g id="character-1">
<path id="Vector_188" d="M18.0004 37.6136C17.4486 40.8345 21.2946 39.1455 22.8281 39.1837C22.9284 39.1859 23.0277 39.2052 23.1215 39.2409L23.594 41.285L23.1347 43.4009L22.0621 45.0958H15.3796L10.5534 41.8308L9.32812 37.9995L9.67296 31.7939L9.8197 30.7976C9.8197 30.7976 9.96644 32.0243 13.3414 31.7176C16.7164 31.4109 19.3577 30.3251 20.1207 31.4109C21.0496 32.714 18.3657 35.4829 18.0004 37.6136Z" fill="#C1D600"/>
<path id="Vector_189" opacity="0.2" d="M23.0131 42.8844V44.0906L21.0879 44.8669L17.2962 44.6658L16.2983 43.4009L16.7209 42.7406H19.1627L23.0131 42.8844Z" fill="black"/>
<path id="Vector_190" d="M16.8775 46.8288H15.7183V52.1055H16.8775V46.8288Z" fill="#263238"/>
<path id="Vector_191" opacity="0.5" d="M16.8775 46.8288H15.7183V52.1055H16.8775V46.8288Z" fill="white"/>
<path id="Vector_192" d="M17.1787 51.6256H15.4193L11.8271 52.305V52.9037H12.5667L15.4193 52.3652H17.1787L20.0313 52.9037H20.7709V52.305L17.1787 51.6256Z" fill="#263238"/>
<path id="Vector_193" opacity="0.3" d="M17.1787 51.6256H15.4193L11.8271 52.305V52.9037H12.5667L15.4193 52.3652H17.1787L20.0313 52.9037H20.7709V52.305L17.1787 51.6256Z" fill="white"/>
<path id="Vector_194" d="M20.0311 53.1649H20.7648C20.8126 53.1649 20.8585 53.1459 20.8924 53.1121C20.9262 53.0782 20.9453 53.0323 20.9453 52.9844C20.9453 52.9366 20.9262 52.8906 20.8924 52.8568C20.8585 52.823 20.8126 52.8039 20.7648 52.8039H20.0311C19.9832 52.8039 19.9373 52.823 19.9034 52.8568C19.8696 52.8906 19.8506 52.9366 19.8506 52.9844C19.8506 53.0323 19.8696 53.0782 19.9034 53.1121C19.9373 53.1459 19.9832 53.1649 20.0311 53.1649Z" fill="#C1D600"/>
<path id="Vector_195" d="M11.827 53.1649H12.5607C12.6085 53.1649 12.6544 53.1459 12.6883 53.1121C12.7221 53.0782 12.7412 53.0323 12.7412 52.9844C12.7412 52.9366 12.7221 52.8906 12.6883 52.8568C12.6544 52.823 12.6085 52.8039 12.5607 52.8039H11.827C11.7791 52.8039 11.7332 52.823 11.6993 52.8568C11.6655 52.8906 11.6465 52.9366 11.6465 52.9844C11.6465 53.0323 11.6655 53.0782 11.6993 53.1121C11.7332 53.1459 11.7791 53.1649 11.827 53.1649Z" fill="#C1D600"/>
<path id="Vector_196" opacity="0.2" d="M16.8775 46.8288H15.7183V48.0232H16.8775V46.8288Z" fill="black"/>
<path id="Vector_197" d="M22.5652 43.6328H15.6289V42.1375H22.5652C22.7635 42.1375 22.9536 42.2162 23.0939 42.3562C23.2342 42.4962 23.3132 42.6862 23.3136 42.8844C23.3136 43.0829 23.2348 43.2732 23.0944 43.4136C22.9541 43.5539 22.7637 43.6328 22.5652 43.6328Z" fill="#C1D600"/>
<path id="Vector_198" opacity="0.1" d="M22.5652 43.6328H15.6289V42.1375H22.5652C22.7635 42.1375 22.9536 42.2162 23.0939 42.3562C23.2342 42.4962 23.3132 42.6862 23.3136 42.8844C23.3136 43.0829 23.2348 43.2732 23.0944 43.4136C22.9541 43.5539 22.7637 43.6328 22.5652 43.6328Z" fill="black"/>
<path id="Vector_199" d="M16.7532 32.8196C16.7532 32.8196 17.6336 35.3142 18.3673 35.367C19.101 35.4198 19.9814 34.0874 19.9814 34.0874L20.3438 33.1454L21.0775 33.0838V34.2665L20.3277 34.6421C20.3277 34.6421 19.1817 36.5248 18.2924 36.4778C17.4032 36.4309 16.5052 35.0545 16.3232 34.353C16.222 33.9642 16.288 33.1645 16.7532 32.8196Z" fill="#FFC3BD"/>
<path id="Vector_200" d="M21.2313 34.871L21.494 32.6964L20.4874 32.6274L20.4565 34.8182L21.2313 34.871Z" fill="#263238"/>
<path id="Vector_201" opacity="0.5" d="M21.2313 34.871L21.494 32.6964L20.4874 32.6274L20.4565 34.8182L21.2313 34.871Z" fill="white"/>
<path id="Vector_202" d="M21.5112 32.3842L20.5054 32.3166L20.4843 32.6299L21.4901 32.6976L21.5112 32.3842Z" fill="#C1D600"/>
<path id="Vector_203" d="M20.5113 32.2522L21.405 32.3148C21.4202 32.3158 21.4343 32.3229 21.4443 32.3344C21.4543 32.3459 21.4593 32.3608 21.4582 32.376L21.4471 32.5345L20.439 32.4639L20.45 32.3069C20.4504 32.2993 20.4522 32.2918 20.4555 32.2848C20.4588 32.2779 20.4634 32.2717 20.4691 32.2666C20.4749 32.2615 20.4815 32.2576 20.4888 32.2552C20.496 32.2527 20.5037 32.2517 20.5113 32.2522Z" fill="#263238"/>
<path id="Vector_204" d="M16.5195 35.0134C16.5195 35.0134 15.5671 33.4403 16.1761 32.6949C16.785 31.9495 17.7139 34.4044 17.7139 34.4044L16.5195 35.0134Z" fill="#C1D600"/>
<path id="Vector_205" opacity="0.3" d="M16.5195 35.0134C16.5195 35.0134 15.5671 33.4403 16.1761 32.6949C16.785 31.9495 17.7139 34.4044 17.7139 34.4044L16.5195 35.0134Z" fill="white"/>
<path id="Vector_206" d="M16.335 34.9018L16.5154 35.1674L17.8508 34.4778L17.726 34.199L16.335 34.9018Z" fill="#C1D600"/>
<path id="Vector_207" opacity="0.1" d="M16.335 34.9018L16.5154 35.1674L17.8508 34.4778L17.726 34.199L16.335 34.9018Z" fill="white"/>
<path id="Vector_208" d="M11.7478 41.0252C11.7478 41.0252 10.5548 36.8491 11.9547 32.6949C11.9547 32.6949 13.7698 31.8497 16.3568 32.4704C16.4273 32.487 16.4938 32.5176 16.5523 32.5603C16.6108 32.603 16.6602 32.657 16.6975 32.719C16.7349 32.7811 16.7594 32.85 16.7697 32.9217C16.78 32.9935 16.7758 33.0665 16.7574 33.1366C16.4992 34.1447 16.0986 36.5468 17.0656 39.5828C15.4339 40.4821 13.6102 40.9767 11.7478 41.0252Z" fill="#C1D600"/>
<path id="Vector_209" opacity="0.5" d="M11.7478 41.0252C11.7478 41.0252 10.5548 36.8491 11.9547 32.6949C11.9547 32.6949 13.7698 31.8497 16.3568 32.4704C16.4273 32.487 16.4938 32.5176 16.5523 32.5603C16.6108 32.603 16.6602 32.657 16.6975 32.719C16.7349 32.7811 16.7594 32.85 16.7697 32.9217C16.78 32.9935 16.7758 33.0665 16.7574 33.1366C16.4992 34.1447 16.0986 36.5468 17.0656 39.5828C15.4339 40.4821 13.6102 40.9767 11.7478 41.0252Z" fill="white"/>
<path id="Vector_210" d="M14.019 32.262L14.8995 33.0206L15.4072 32.5702C15.215 32.4234 15.2605 32.1035 15.3749 31.7543L14.132 30.7726C14.1922 31.2334 14.2333 31.8658 14.019 32.262Z" fill="#FFC3BD"/>
<path id="Vector_211" d="M20.4009 42.0656L22.0165 42.723L21.8345 43.4068L20.1089 43.0517L20.4009 42.0656Z" fill="#FFC3BD"/>
<path id="Vector_212" d="M14.8819 39.7325C14.8819 39.7325 22.6165 37.053 23.2548 39.5153C23.8931 41.9776 18.0309 43.6753 14.9597 43.5726C11.8884 43.4699 14.8819 39.7325 14.8819 39.7325Z" fill="#263238"/>
<path id="Vector_213" opacity="0.3" d="M14.8819 39.7325C14.8819 39.7325 22.6165 37.053 23.2548 39.5153C23.8931 41.9776 18.0309 43.6753 14.9597 43.5726C11.8884 43.4699 14.8819 39.7325 14.8819 39.7325Z" fill="black"/>
<path id="Vector_214" opacity="0.7" d="M20.6329 39.9805L16.875 42.3752L17.4737 43.3584C17.4737 43.3584 17.1112 43.4787 16.6094 42.2769L18.9322 40.742C18.9322 40.742 18.1986 40.6687 18.2235 40.5557C18.2543 40.3693 19.8508 40.0127 20.5787 39.8601C20.5937 39.8569 20.6095 39.8589 20.6233 39.8658C20.6371 39.8728 20.6481 39.8843 20.6544 39.8984C20.6608 39.9124 20.6621 39.9283 20.6582 39.9432C20.6543 39.9582 20.6454 39.9713 20.6329 39.9805Z" fill="black"/>
<path id="Vector_215" opacity="0.7" d="M16.7426 42.2696L17.3927 43.3731C16.5927 43.5194 15.7802 43.5862 14.9671 43.5726C14.6987 43.571 14.4329 43.5213 14.182 43.4259L13.9531 42.9857L14.4462 41.9482L16.7426 42.2696Z" fill="black"/>
<path id="Vector_216" d="M16.8089 42.4383L16.0781 43.0517L16.4142 43.5726L17.5264 43.398L16.8089 42.4383Z" fill="#FFC3BD"/>
<path id="Vector_217" d="M17.7216 43.4171L16.9586 42.2138L16.6138 42.4603L17.2741 43.4993L17.7216 43.4171Z" fill="#263238"/>
<path id="Vector_218" opacity="0.3" d="M17.7216 43.4171L16.9586 42.2138L16.6138 42.4603L17.2741 43.4993L17.7216 43.4171Z" fill="white"/>
<path id="Vector_219" d="M12.163 42.296C11.7477 41.5946 10.945 39.4669 12.8747 39.1C14.8043 38.7332 21.1463 42.2975 21.1463 42.2975L20.8528 43.2248L14.8483 42.2344C14.8483 42.2344 16.5182 43.7458 14.6913 43.555C13.2415 43.4068 12.568 42.9813 12.163 42.296Z" fill="#263238"/>
<path id="Vector_220" d="M20.9909 42.0656L20.6152 43.2777L20.9909 43.329L21.3284 42.2828L20.9909 42.0656Z" fill="#263238"/>
<path id="Vector_221" opacity="0.3" d="M20.9909 42.0656L20.6152 43.2777L20.9909 43.329L21.3284 42.2828L20.9909 42.0656Z" fill="white"/>
<path id="Vector_222" d="M16.6285 43.5462L16.3658 42.7435C16.3606 42.729 16.3507 42.7166 16.3377 42.7084C16.3247 42.7001 16.3092 42.6965 16.2939 42.6981L15.5954 42.767C15.5806 42.7683 15.5661 42.7725 15.5529 42.7794C15.5396 42.7863 15.5279 42.7958 15.5184 42.8073C15.5088 42.8187 15.5016 42.832 15.4972 42.8462C15.4928 42.8605 15.4913 42.8754 15.4927 42.8903C15.4921 42.8981 15.4921 42.9059 15.4927 42.9138C15.5925 43.1999 15.6937 43.4523 15.8111 43.8118C15.9579 44.2359 15.8639 44.1449 16.021 44.6467C16.1163 44.949 16.4758 44.8918 16.4509 44.7583C16.332 44.1508 16.489 44.0319 16.6226 43.7384C16.6486 43.6774 16.6507 43.6087 16.6285 43.5462Z" fill="#263238"/>
<path id="Vector_223" d="M21.8728 42.679L21.6013 43.5022C21.5967 43.5174 21.5971 43.5337 21.6027 43.5485C21.6083 43.5634 21.6186 43.576 21.6321 43.5844L22.2528 43.9541C22.2659 43.9621 22.2804 43.9674 22.2956 43.9697C22.3107 43.9721 22.3262 43.9714 22.3411 43.9677C22.3559 43.964 22.3699 43.9574 22.3822 43.9483C22.3945 43.9392 22.4049 43.9277 22.4128 43.9145L22.423 43.8925C22.5155 43.599 22.5859 43.3246 22.7092 42.9548C22.8559 42.5146 22.8677 42.6467 23.0452 42.1375C23.1509 41.8294 22.8178 41.6577 22.7517 41.7824C22.4788 42.3576 22.2778 42.3591 21.9858 42.5161C21.9295 42.5548 21.8893 42.6127 21.8728 42.679Z" fill="#263238"/>
<path id="Vector_224" d="M20.8132 39.9438H17.3325C17.2547 39.9438 17.1801 39.9129 17.125 39.8578C17.07 39.8028 17.0391 39.7281 17.0391 39.6503H21.114C21.114 39.6895 21.1062 39.7282 21.091 39.7643C21.0758 39.8004 21.0535 39.8331 21.0255 39.8605C20.9974 39.8878 20.9642 39.9093 20.9277 39.9236C20.8913 39.9379 20.8523 39.9448 20.8132 39.9438Z" fill="#263238"/>
<path id="Vector_225" opacity="0.2" d="M20.8132 39.9438H17.3325C17.2547 39.9438 17.1801 39.9129 17.125 39.8578C17.07 39.8028 17.0391 39.7281 17.0391 39.6503H21.114C21.114 39.6895 21.1062 39.7282 21.091 39.7643C21.0758 39.8004 21.0535 39.8331 21.0255 39.8605C20.9974 39.8878 20.9642 39.9093 20.9277 39.9236C20.8913 39.9379 20.8523 39.9448 20.8132 39.9438Z" fill="white"/>
<path id="Vector_226" d="M18.251 39.9438H15.7227C15.6448 39.9438 15.5702 39.9129 15.5152 39.8578C15.4601 39.8028 15.4292 39.7281 15.4292 39.6503H18.5518C18.5518 39.6895 18.544 39.7282 18.5288 39.7643C18.5136 39.8004 18.4913 39.8331 18.4633 39.8605C18.4352 39.8878 18.402 39.9093 18.3655 39.9236C18.3291 39.9379 18.2901 39.9448 18.251 39.9438Z" fill="#263238"/>
<path id="Vector_227" opacity="0.5" d="M18.251 39.9438H15.7227C15.6448 39.9438 15.5702 39.9129 15.5152 39.8578C15.4601 39.8028 15.4292 39.7281 15.4292 39.6503H18.5518C18.5518 39.6895 18.544 39.7282 18.5288 39.7643C18.5136 39.8004 18.4913 39.8331 18.4633 39.8605C18.4352 39.8878 18.402 39.9093 18.3655 39.9236C18.3291 39.9379 18.2901 39.9448 18.251 39.9438Z" fill="white"/>
<path id="Vector_228" d="M20.8367 39.8528H18.5476C18.5364 39.8527 18.5253 39.85 18.5153 39.8448C18.5054 39.8396 18.4968 39.8321 18.4904 39.8229C18.4839 39.8137 18.4797 39.8031 18.4782 39.792C18.4767 39.7808 18.4778 39.7695 18.4816 39.7589L19.4999 36.8476C19.5139 36.8085 19.5395 36.7747 19.5734 36.7508C19.6073 36.7269 19.6478 36.7141 19.6892 36.7141H21.9798C21.991 36.7141 22.0021 36.7169 22.0121 36.7221C22.022 36.7273 22.0306 36.7348 22.0371 36.744C22.0435 36.7532 22.0477 36.7638 22.0492 36.7749C22.0507 36.7861 22.0496 36.7974 22.0458 36.808L21.0275 39.7193C21.0133 39.7585 20.9874 39.7923 20.9532 39.8162C20.9191 39.8401 20.8784 39.8529 20.8367 39.8528Z" fill="#263238"/>
<path id="Vector_229" opacity="0.5" d="M20.8367 39.8528H18.5476C18.5364 39.8527 18.5253 39.85 18.5153 39.8448C18.5054 39.8396 18.4968 39.8321 18.4904 39.8229C18.4839 39.8137 18.4797 39.8031 18.4782 39.792C18.4767 39.7808 18.4778 39.7695 18.4816 39.7589L19.4999 36.8476C19.5139 36.8085 19.5395 36.7747 19.5734 36.7508C19.6073 36.7269 19.6478 36.7141 19.6892 36.7141H21.9798C21.991 36.7141 22.0021 36.7169 22.0121 36.7221C22.022 36.7273 22.0306 36.7348 22.0371 36.744C22.0435 36.7532 22.0477 36.7638 22.0492 36.7749C22.0507 36.7861 22.0496 36.7974 22.0458 36.808L21.0275 39.7193C21.0133 39.7585 20.9874 39.7923 20.9532 39.8162C20.9191 39.8401 20.8784 39.8529 20.8367 39.8528Z" fill="white"/>
<path id="Vector_230" d="M20.9275 39.8528H18.6355C18.6243 39.8527 18.6132 39.85 18.6032 39.8448C18.5933 39.8396 18.5847 39.8321 18.5782 39.8229C18.5718 39.8137 18.5676 39.8031 18.5661 39.792C18.5646 39.7808 18.5657 39.7695 18.5695 39.7589L19.5878 36.8476C19.6017 36.8085 19.6274 36.7747 19.6613 36.7508C19.6952 36.7269 19.7356 36.7141 19.7771 36.7141H22.0692C22.0804 36.7141 22.0915 36.7169 22.1014 36.7221C22.1114 36.7273 22.12 36.7348 22.1264 36.744C22.1329 36.7532 22.137 36.7638 22.1386 36.7749C22.1401 36.7861 22.1389 36.7974 22.1352 36.808L21.1168 39.7193C21.1029 39.7583 21.0772 39.7921 21.0434 39.816C21.0095 39.8399 20.969 39.8528 20.9275 39.8528Z" fill="#263238"/>
<path id="Vector_231" opacity="0.7" d="M20.9275 39.8528H18.6355C18.6243 39.8527 18.6132 39.85 18.6032 39.8448C18.5933 39.8396 18.5847 39.8321 18.5782 39.8229C18.5718 39.8137 18.5676 39.8031 18.5661 39.792C18.5646 39.7808 18.5657 39.7695 18.5695 39.7589L19.5878 36.8476C19.6017 36.8085 19.6274 36.7747 19.6613 36.7508C19.6952 36.7269 19.7356 36.7141 19.7771 36.7141H22.0692C22.0804 36.7141 22.0915 36.7169 22.1014 36.7221C22.1114 36.7273 22.12 36.7348 22.1264 36.744C22.1329 36.7532 22.137 36.7638 22.1386 36.7749C22.1401 36.7861 22.1389 36.7974 22.1352 36.808L21.1168 39.7193C21.1029 39.7583 21.0772 39.7921 21.0434 39.816C21.0095 39.8399 20.969 39.8528 20.9275 39.8528Z" fill="white"/>
<path id="Vector_232" d="M20.5435 38.2842C20.5186 38.3957 20.4422 38.4852 20.3703 38.4852C20.2984 38.4852 20.2603 38.3957 20.2838 38.2842C20.3072 38.1726 20.385 38.0817 20.4569 38.0817C20.5288 38.0817 20.5714 38.1726 20.5435 38.2842Z" fill="white"/>
<path id="Vector_233" d="M12.8922 33.948C12.8922 33.948 13.4513 36.7009 13.8284 37.1572C14.2055 37.6136 15.8475 38.8418 15.8475 38.8418L16.8248 38.6378L17.5247 39.2248L17.0669 39.5857L16.5255 39.3818C16.23 39.4341 15.9304 39.4601 15.6304 39.4595C15.1256 39.4595 13.0756 38.2533 12.6692 37.5754C12.2627 36.8975 11.6934 34.3472 11.6934 34.3472L12.8922 33.948Z" fill="#FFC3BD"/>
<path id="Vector_234" d="M13.6948 32.2811L14.0441 32.0786L14.8951 33.0206C14.8951 33.0206 14.427 32.8299 14.295 32.9077C14.1629 32.9854 14.2598 33.2789 14.1218 33.2818C13.8151 33.2862 13.6948 32.2811 13.6948 32.2811Z" fill="#C1D600"/>
<path id="Vector_235" d="M14.8955 33.0207L15.3357 32.1402L15.6996 32.3354C15.6996 32.3354 16.0371 33.1879 15.7789 33.2775C15.6219 33.3317 15.5617 32.9341 15.4062 32.8754C15.2858 32.8343 14.8955 33.0207 14.8955 33.0207Z" fill="#C1D600"/>
<g id="Group_5" opacity="0.2">
<path id="Vector_236" d="M13.6948 32.2811L14.0441 32.0786L14.8951 33.0206C14.8951 33.0206 14.427 32.8299 14.295 32.9077C14.1629 32.9854 14.2598 33.2789 14.1218 33.2818C13.8151 33.2862 13.6948 32.2811 13.6948 32.2811Z" fill="white"/>
<path id="Vector_237" d="M14.895 33.0207L15.3352 32.1402L15.6991 32.3354C15.6991 32.3354 16.0366 33.1879 15.7784 33.2775C15.6214 33.3317 15.5612 32.9341 15.4057 32.8754C15.2853 32.8343 14.895 33.0207 14.895 33.0207Z" fill="white"/>
</g>
<path id="Vector_238" d="M11.7476 35.3171C11.7476 35.3171 11.1005 33.3582 11.9545 32.6949C12.8085 32.0316 13.2062 34.9547 13.2062 34.9547L11.7476 35.3171Z" fill="#C1D600"/>
<path id="Vector_239" opacity="0.3" d="M11.7476 35.3171C11.7476 35.3171 11.1005 33.3582 11.9545 32.6949C12.8085 32.0316 13.2062 34.9547 13.2062 34.9547L11.7476 35.3171Z" fill="white"/>
<path id="Vector_240" d="M11.5747 35.1498L11.7053 35.4859L13.3385 35.0647L13.2725 34.7287L11.5747 35.1498Z" fill="#C1D600"/>
<path id="Vector_241" opacity="0.1" d="M11.5747 35.1498L11.7053 35.4859L13.3385 35.0647L13.2725 34.7287L11.5747 35.1498Z" fill="white"/>
<path id="Vector_242" opacity="0.1" d="M14.1499 30.9355C14.1499 30.8797 14.1367 30.8254 14.1294 30.7726L15.3723 31.7543C15.3273 31.8916 15.2968 32.0332 15.2813 32.1769C14.5271 32.1828 14.2453 31.3522 14.1499 30.9355Z" fill="black"/>
<path id="Vector_243" d="M14.3642 29.3405C14.1045 30.2209 13.9754 30.5863 14.2498 31.1776C14.6607 32.0771 15.7949 32.2048 16.3041 31.4212C16.7649 30.7154 17.12 29.4006 16.3995 28.7535C16.2421 28.6102 16.0506 28.5095 15.8433 28.4611C15.6359 28.4127 15.4197 28.4182 15.215 28.477C15.0104 28.5359 14.8243 28.6461 14.6743 28.7972C14.5244 28.9484 14.4156 29.1354 14.3584 29.3405H14.3642Z" fill="#FFC3BD"/>
<path id="Vector_244" d="M15.3515 30.2209C15.3266 30.2899 15.3427 30.3603 15.3897 30.3764C15.4366 30.3926 15.4924 30.35 15.5173 30.281C15.5423 30.2121 15.5261 30.1343 15.4806 30.124C15.4351 30.1138 15.3779 30.149 15.3515 30.2209Z" fill="#263238"/>
<path id="Vector_245" d="M16.1413 30.507C16.1149 30.5775 16.1325 30.6538 16.1765 30.664C16.2206 30.6743 16.2807 30.6376 16.3057 30.5672C16.3306 30.4967 16.3145 30.4204 16.269 30.4102C16.2235 30.3999 16.1677 30.4425 16.1413 30.507Z" fill="#263238"/>
<path id="Vector_246" d="M15.8771 30.5276C15.9211 30.7036 15.9887 30.8729 16.0781 31.0309C16.0373 31.0533 15.9921 31.0664 15.9457 31.0692C15.8992 31.0719 15.8527 31.0644 15.8096 31.047L15.8771 30.5276Z" fill="#ED893E"/>
<path id="Vector_247" d="M15.3208 29.832C15.3273 29.8388 15.3358 29.8433 15.345 29.8448C15.3542 29.8464 15.3637 29.845 15.3721 29.8408C15.4402 29.8182 15.5123 29.81 15.5837 29.8165C15.6552 29.8231 15.7245 29.8444 15.7874 29.879C15.7924 29.8818 15.7979 29.8836 15.8036 29.8842C15.8092 29.8848 15.815 29.8843 15.8205 29.8826C15.826 29.881 15.831 29.8783 15.8354 29.8746C15.8398 29.871 15.8435 29.8665 15.8461 29.8614C15.8489 29.8565 15.8508 29.8511 15.8515 29.8454C15.8523 29.8398 15.8519 29.8341 15.8504 29.8286C15.8489 29.8232 15.8463 29.818 15.8428 29.8136C15.8393 29.8091 15.8349 29.8054 15.8299 29.8027C15.7548 29.7615 15.6718 29.7364 15.5864 29.7291C15.501 29.7218 15.415 29.7323 15.334 29.7601C15.3235 29.7652 15.3154 29.7742 15.3116 29.7852C15.3077 29.7962 15.3084 29.8083 15.3134 29.8188C15.3146 29.8238 15.3171 29.8284 15.3208 29.832Z" fill="#263238"/>
<path id="Vector_248" d="M16.606 30.3559C16.6128 30.3595 16.6204 30.3614 16.628 30.3614C16.6357 30.3614 16.6433 30.3595 16.65 30.3559C16.6602 30.3508 16.6681 30.3421 16.6721 30.3315C16.6762 30.3209 16.6762 30.3092 16.6721 30.2987C16.6459 30.2339 16.6047 30.1763 16.5519 30.1307C16.4991 30.085 16.4361 30.0526 16.3683 30.036C16.3577 30.036 16.3473 30.0397 16.3391 30.0465C16.331 30.0533 16.3254 30.0628 16.3235 30.0733C16.3216 30.0838 16.3234 30.0946 16.3286 30.1039C16.3339 30.1131 16.3422 30.1203 16.3522 30.124C16.4057 30.1373 16.4553 30.1631 16.4969 30.1994C16.5385 30.2356 16.5709 30.2812 16.5914 30.3324C16.5944 30.3413 16.5994 30.3493 16.606 30.3559Z" fill="#263238"/>
<path id="Vector_249" d="M14.1924 29.8555C14.2382 29.854 14.2831 29.8422 14.3236 29.8209C14.3642 29.7996 14.3994 29.7694 14.4267 29.7325C14.4539 29.6957 14.4724 29.6532 14.4809 29.6081C14.4894 29.5631 14.4876 29.5167 14.4756 29.4725C14.4756 29.4725 15.02 29.4578 15.0435 29.0587C15.0435 29.0587 15.5189 29.4799 15.6862 29.1512C15.6862 29.1512 16.2732 29.6721 16.3465 29.3272C16.3465 29.3272 16.9511 30.0785 16.9203 29.6207C16.9203 29.6207 17.6026 29.5518 16.9892 28.9619C16.9892 28.9619 17.5498 28.4718 16.6444 28.2722C16.6444 28.2722 16.7236 27.6852 16.0868 27.9464C16.0868 27.9464 15.9401 27.314 15.3883 27.6823C15.3883 27.6823 15.0948 27.2421 14.7632 27.8291C14.7632 27.8291 14.2819 27.5546 14.1293 28.1754C14.1293 28.1754 13.2591 28.281 13.6172 28.8533C13.6172 28.8533 13.8857 30.7741 14.1293 30.7741C14.2951 30.7726 14.1924 29.8555 14.1924 29.8555Z" fill="#263238"/>
<path id="Vector_250" d="M13.893 29.9421C13.8987 30.1188 13.9742 30.286 14.1028 30.4072C14.273 30.5672 14.4682 30.4395 14.5093 30.2224C14.5504 30.0052 14.5093 29.7058 14.2877 29.6354C14.2504 29.6219 14.2107 29.6161 14.1711 29.6184C14.1315 29.6207 14.0927 29.631 14.0572 29.6487C14.0217 29.6664 13.9901 29.6911 13.9644 29.7214C13.9387 29.7516 13.9194 29.7868 13.9077 29.8247C13.8949 29.8624 13.8899 29.9024 13.893 29.9421Z" fill="#FFC3BD"/>
<path id="Vector_251" d="M15.5453 31.2833C15.5759 31.2926 15.6073 31.299 15.6392 31.3023C15.644 31.3032 15.649 31.3022 15.6531 31.2994C15.6572 31.2967 15.6601 31.2925 15.6612 31.2877C15.6614 31.2852 15.6611 31.2826 15.6603 31.2803C15.6595 31.2779 15.6583 31.2756 15.6566 31.2737C15.655 31.2718 15.653 31.2703 15.6508 31.2691C15.6485 31.268 15.6461 31.2673 15.6436 31.2671C15.5629 31.2585 15.4854 31.2311 15.4174 31.187C15.3493 31.1429 15.2926 31.0834 15.2518 31.0133C15.2507 31.0109 15.2491 31.0088 15.2472 31.007C15.2452 31.0053 15.2429 31.004 15.2405 31.0031C15.238 31.0023 15.2354 31.002 15.2328 31.0022C15.2302 31.0025 15.2277 31.0032 15.2254 31.0045C15.221 31.0067 15.2176 31.0105 15.2159 31.0152C15.2143 31.0198 15.2145 31.0249 15.2166 31.0294C15.2516 31.0916 15.2987 31.1461 15.3551 31.1897C15.4116 31.2333 15.4763 31.2651 15.5453 31.2833Z" fill="#263238"/>
<path id="Vector_252" d="M9.24444 30.8827C9.24444 30.8827 6.12038 46.9373 16.4522 47.2323C25.8758 47.4993 23.7686 39.8 23.1567 39.2644C22.5448 38.7288 24.8413 44.2051 21.0496 44.2828C16.4772 44.3753 15.6481 40.0274 14.1162 39.9922C12.5842 39.957 10.2716 41.9834 10.0368 38.3062C9.80205 34.6289 11.0126 28.3881 9.24444 30.8827Z" fill="#C1D600"/>
<path id="Vector_253" opacity="0.5" d="M9.24444 30.8827C9.24444 30.8827 6.12038 46.9373 16.4522 47.2323C25.8758 47.4993 23.7686 39.8 23.1567 39.2644C22.5448 38.7288 24.8413 44.2051 21.0496 44.2828C16.4772 44.3753 15.6481 40.0274 14.1162 39.9922C12.5842 39.957 10.2716 41.9834 10.0368 38.3062C9.80205 34.6289 11.0126 28.3881 9.24444 30.8827Z" fill="white"/>
</g>
</g>
<defs>
<linearGradient id="paint0_linear_18004_7826" x1="61.3393" y1="6.23779" x2="197.846" y2="242.658" gradientUnits="userSpaceOnUse">
<stop stop-color="#5A62C3"/>
<stop offset="0.5" stop-color="#4D55BD"/>
<stop offset="1" stop-color="#3940AB"/>
</linearGradient>
</defs>
</svg>
