<svg width="20" height="20" viewBox="0 0 20 20" fill="none" xmlns="http://www.w3.org/2000/svg">
<g id="tabler:bell">
<path id="Vector" d="M7.375 13.875V14.75C7.375 15.4462 7.65156 16.1139 8.14384 16.6062C8.63613 17.0984 9.30381 17.375 10 17.375C10.6962 17.375 11.3639 17.0984 11.8562 16.6062C12.3484 16.1139 12.625 15.4462 12.625 14.75V13.875M8.25 3.375C8.25 2.91087 8.43437 2.46575 8.76256 2.13756C9.09075 1.80937 9.53587 1.625 10 1.625C10.4641 1.625 10.9092 1.80937 11.2374 2.13756C11.5656 2.46575 11.75 2.91087 11.75 3.375C12.7549 3.85015 13.6115 4.58979 14.228 5.51464C14.8446 6.43949 15.1979 7.51469 15.25 8.625V11.25C15.3158 11.794 15.5085 12.3149 15.8125 12.7709C16.1164 13.2268 16.5232 13.605 17 13.875H3C3.47682 13.605 3.88358 13.2268 4.18754 12.7709C4.49149 12.3149 4.68415 11.794 4.75 11.25V8.625C4.80212 7.51469 5.15539 6.43949 5.77196 5.51464C6.38852 4.58979 7.24514 3.85015 8.25 3.375Z" stroke="#003057" stroke-linecap="round" stroke-linejoin="round"/>
</g>
</svg>
