<svg width="20" height="20" viewBox="0 0 20 20" fill="none" xmlns="http://www.w3.org/2000/svg">
<g id="Profile">
<g id="Group">
<path id="Vector" d="M10 2C5.5816 2 2 5.5816 2 10C2 14.4184 5.5816 18 10 18C14.4184 18 18 14.4184 18 10C18 5.5816 14.4184 2 10 2Z" stroke="#003057" stroke-linecap="round" stroke-linejoin="round"/>
<path id="Vector_2" d="M3.81689 15.0768C3.81689 15.0768 5.60009 12.8 10.0001 12.8C14.4001 12.8 16.1841 15.0768 16.1841 15.0768M10.0001 10C10.6366 10 11.2471 9.74716 11.6972 9.29707C12.1472 8.84698 12.4001 8.23653 12.4001 7.60001C12.4001 6.96349 12.1472 6.35304 11.6972 5.90296C11.2471 5.45287 10.6366 5.20001 10.0001 5.20001C9.36358 5.20001 8.75313 5.45287 8.30304 5.90296C7.85295 6.35304 7.60009 6.96349 7.60009 7.60001C7.60009 8.23653 7.85295 8.84698 8.30304 9.29707C8.75313 9.74716 9.36358 10 10.0001 10Z" stroke="#003057" stroke-linecap="round" stroke-linejoin="round"/>
</g>
</g>
</svg>
