<svg width="20" height="20" viewBox="0 0 20 20" fill="none" xmlns="http://www.w3.org/2000/svg">
<g id="Serach">
<path id="Vector" d="M18 18L14.1905 14.1905M2 9.11111C2 10.045 2.18393 10.9697 2.5413 11.8324C2.89867 12.6952 3.42247 13.4791 4.0828 14.1394C4.74312 14.7998 5.52705 15.3236 6.38981 15.6809C7.25257 16.0383 8.17727 16.2222 9.11111 16.2222C10.045 16.2222 10.9697 16.0383 11.8324 15.6809C12.6952 15.3236 13.4791 14.7998 14.1394 14.1394C14.7998 13.4791 15.3236 12.6952 15.6809 11.8324C16.0383 10.9697 16.2222 10.045 16.2222 9.11111C16.2222 8.17727 16.0383 7.25257 15.6809 6.38981C15.3236 5.52705 14.7998 4.74312 14.1394 4.0828C13.4791 3.42247 12.6952 2.89867 11.8324 2.5413C10.9697 2.18393 10.045 2 9.11111 2C8.17727 2 7.25257 2.18393 6.38981 2.5413C5.52705 2.89867 4.74312 3.42247 4.0828 4.0828C3.42247 4.74312 2.89867 5.52705 2.5413 6.38981C2.18393 7.25257 2 8.17727 2 9.11111Z" stroke="#6B7280" stroke-linecap="round" stroke-linejoin="round"/>
</g>
</svg>
