<svg width="58" height="58" viewBox="0 0 58 58" fill="none" xmlns="http://www.w3.org/2000/svg">
<g id="login/rafiki">
<g id="background-complete">
<path id="Vector" d="M77.8398 50.9695H0V51.0084H77.8398V50.9695Z" fill="#EBEBEB"/>
<path id="Vector_2" d="M53.6584 52.668H48.3481V52.7069H53.6584V52.668Z" fill="#EBEBEB"/>
<path id="Vector_3" d="M26.9354 52.8143H25.2012V52.8532H26.9354V52.8143Z" fill="#EBEBEB"/>
<path id="Vector_4" d="M23.8144 52.8143H17.8379V52.8532H23.8144V52.8143Z" fill="#EBEBEB"/>
<path id="Vector_5" d="M14.6356 52.1573H10.3232V52.1963H14.6356V52.1573Z" fill="#EBEBEB"/>
<path id="Vector_6" d="M36.8963 44.0262H6.8361C6.60062 44.0258 6.37491 43.9319 6.20854 43.7653C6.04217 43.5986 5.94873 43.3728 5.94873 43.1373V0.881147C5.95078 0.647008 6.04513 0.423134 6.21128 0.258151C6.37742 0.0931677 6.60196 0.000401091 6.8361 0H36.8963C37.132 0 37.3581 0.093655 37.5249 0.260362C37.6916 0.427069 37.7852 0.653171 37.7852 0.88893V43.1373C37.7852 43.373 37.6916 43.5991 37.5249 43.7658C37.3581 43.9325 37.132 44.0262 36.8963 44.0262ZM6.8361 0.031136C6.61094 0.0315484 6.39513 0.121285 6.23606 0.280648C6.07699 0.440011 5.98765 0.655979 5.98765 0.881147V43.1373C5.98765 43.3624 6.07699 43.5784 6.23606 43.7378C6.39513 43.8971 6.61094 43.9869 6.8361 43.9873H36.8963C37.1216 43.9869 37.3376 43.8972 37.4969 43.7379C37.6562 43.5785 37.7459 43.3626 37.7463 43.1373V0.881147C37.7459 0.655836 37.6562 0.439872 37.4969 0.280553C37.3376 0.121234 37.1216 0.0315476 36.8963 0.031136H6.8361Z" fill="#EBEBEB"/>
<path id="Vector_7" d="M70.5713 44.0262H40.5095C40.2739 44.0258 40.048 43.932 39.8814 43.7654C39.7148 43.5988 39.621 43.3729 39.6206 43.1373V0.881147C39.6231 0.646866 39.7178 0.422993 39.8842 0.258053C40.0505 0.0931133 40.2752 0.000396717 40.5095 0H70.5713C70.8051 0.000810234 71.0293 0.0937579 71.1951 0.258697C71.3609 0.423636 71.455 0.647277 71.4571 0.881147V43.1373C71.4571 43.3725 71.3639 43.5981 71.1978 43.7647C71.0318 43.9314 70.8065 44.0254 70.5713 44.0262ZM40.5095 0.031136C40.2842 0.0315476 40.0683 0.121234 39.9089 0.280553C39.7496 0.439872 39.6599 0.655836 39.6595 0.881147V43.1373C39.6599 43.3626 39.7496 43.5785 39.9089 43.7379C40.0683 43.8972 40.2842 43.9869 40.5095 43.9873H70.5713C70.7966 43.9869 71.0125 43.8972 71.1719 43.7379C71.3312 43.5785 71.4209 43.3626 71.4213 43.1373V0.881147C71.4209 0.655836 71.3312 0.439872 71.1719 0.280553C71.0125 0.121234 70.7966 0.0315476 70.5713 0.031136H40.5095Z" fill="#EBEBEB"/>
<path id="Vector_8" d="M17.903 18.6239C18.7664 18.6239 19.5944 18.281 20.2048 17.6705C20.8153 17.06 21.1583 16.232 21.1583 15.3687C21.1583 14.5053 20.8153 13.6773 20.2048 13.0668C19.5944 12.4564 18.7664 12.1134 17.903 12.1134H17.5029V18.6239H17.903Z" fill="#E0E0E0"/>
<path id="Vector_9" d="M17.4999 18.6239C19.2977 18.6239 20.7552 17.1665 20.7552 15.3687C20.7552 13.5708 19.2977 12.1134 17.4999 12.1134C15.7021 12.1134 14.2446 13.5708 14.2446 15.3687C14.2446 17.1665 15.7021 18.6239 17.4999 18.6239Z" fill="#F5F5F5"/>
<path id="Vector_10" d="M17.3507 15.7766C16.1946 15.7766 15.0859 15.3174 14.2684 14.4999C13.451 13.6824 12.9917 12.5737 12.9917 11.4176V8.81618C12.9917 8.70759 13.0348 8.60344 13.1116 8.52666C13.1884 8.44988 13.2925 8.40674 13.4011 8.40674C13.5097 8.40674 13.6139 8.44988 13.6907 8.52666C13.7674 8.60344 13.8106 8.70759 13.8106 8.81618V11.4191C13.8114 12.3575 14.1844 13.2573 14.8478 13.9209C15.5112 14.5846 16.4108 14.9581 17.3492 14.9593C17.405 14.9558 17.4609 14.9639 17.5134 14.9828C17.566 15.0018 17.6141 15.0314 17.6549 15.0696C17.6956 15.1079 17.728 15.1542 17.7502 15.2055C17.7724 15.2568 17.7838 15.3121 17.7838 15.368C17.7838 15.4238 17.7724 15.4791 17.7502 15.5305C17.728 15.5818 17.6956 15.628 17.6549 15.6663C17.6141 15.7045 17.566 15.7341 17.5134 15.7531C17.4609 15.772 17.405 15.7801 17.3492 15.7766H17.3507Z" fill="#E0E0E0"/>
<path id="Vector_11" d="M9.7816 11.1077H17.0238C17.1396 11.1077 17.2539 11.0812 17.3579 11.0301C17.4618 10.9789 17.5526 10.9046 17.6233 10.8129C17.694 10.7212 17.7427 10.6144 17.7656 10.5009C17.7885 10.3873 17.7851 10.2701 17.7555 10.1581L17.125 7.78396C17.0824 7.62268 16.9878 7.47998 16.8557 7.37806C16.7237 7.27614 16.5617 7.22071 16.3949 7.2204H10.4105C10.2435 7.22063 10.0813 7.276 9.94898 7.37791C9.81668 7.47981 9.72172 7.62255 9.67885 7.78396L9.05613 10.155C9.02582 10.2667 9.0216 10.3838 9.04379 10.4974C9.06598 10.611 9.11399 10.718 9.18411 10.8101C9.25423 10.9022 9.34458 10.9769 9.44818 11.0285C9.55178 11.0801 9.66586 11.1072 9.7816 11.1077Z" fill="#F5F5F5"/>
<path id="Vector_12" d="M55.7534 11.1077H62.9956C63.1115 11.1078 63.2257 11.0812 63.3297 11.0301C63.4336 10.979 63.5244 10.9047 63.5951 10.8129C63.6658 10.7212 63.7145 10.6144 63.7374 10.5009C63.7603 10.3874 63.7569 10.2701 63.7273 10.1581L63.1046 7.7871C63.0621 7.62582 62.9674 7.48312 62.8353 7.3812C62.7033 7.27928 62.5413 7.22386 62.3745 7.22354H56.3824C56.2154 7.22378 56.0531 7.27915 55.9208 7.38105C55.7885 7.48295 55.6935 7.62569 55.6507 7.7871L55.028 10.1581C54.9982 10.2696 54.9944 10.3864 55.0169 10.4996C55.0393 10.6128 55.0874 10.7194 55.1575 10.8111C55.2275 10.9028 55.3177 10.9772 55.421 11.0286C55.5243 11.0801 55.638 11.1071 55.7534 11.1077Z" fill="#F5F5F5"/>
<path id="Vector_13" d="M20.8582 40.6106H23.2261V31.4364H20.8582V40.6106Z" fill="#E6E6E6"/>
<path id="Vector_14" d="M14.4395 40.609H22.2966L23.4829 29.8718H15.6257L14.4395 40.609Z" fill="#F0F0F0"/>
<path id="Vector_15" d="M13.5879 40.609H21.705L22.8913 29.8718H14.7757L13.5879 40.609Z" fill="#F5F5F5"/>
<path id="Vector_16" d="M21.1178 39.7637L22.1173 30.7187H15.3608L14.3613 39.7637H21.1178Z" fill="white"/>
<path id="Vector_17" d="M19.7231 37.5702L19.7714 37.2074C20.022 34.9376 18.6053 32.9153 16.7652 32.9153L16.7231 33.2843C16.4725 35.5526 17.8892 37.5748 19.7309 37.5748L19.7231 37.5702Z" fill="#F5F5F5"/>
<path id="Vector_18" d="M9.19901 50.9695H16.1797V40.609H9.19901V50.9695Z" fill="#E6E6E6"/>
<path id="Vector_19" d="M9.89987 50.9695H9.19775V48.9722H10.6362L9.89987 50.9695Z" fill="#F0F0F0"/>
<path id="Vector_20" d="M28.7635 50.9695H35.7441V40.609H28.7635V50.9695Z" fill="#E6E6E6"/>
<path id="Vector_21" d="M9.19736 49.7443H29.375V40.6106H9.19736V49.7443Z" fill="#F0F0F0"/>
<path id="Vector_22" d="M28.6729 50.9695H29.375V48.9722H27.9365L28.6729 50.9695Z" fill="#F0F0F0"/>
<path id="Vector_23" d="M9.74269 44.8669H28.8306V41.1804H9.74269V44.8669Z" fill="#E6E6E6"/>
<path id="Vector_24" d="M18.014 43.5903H20.5594C21.1066 43.5905 21.6482 43.4791 22.1509 43.2628C22.6536 43.0465 23.1069 42.7299 23.483 42.3324H15.0903C15.4666 42.7297 15.92 43.0461 16.4226 43.2624C16.9253 43.4787 17.4668 43.5902 18.014 43.5903Z" fill="#F0F0F0"/>
<path id="Vector_25" d="M9.74269 49.148H28.8306V45.4615H9.74269V49.148Z" fill="#E6E6E6"/>
<path id="Vector_26" d="M18.014 47.8653H20.5594C21.1066 47.8655 21.6482 47.754 22.1509 47.5377C22.6536 47.3215 23.1069 47.0049 23.483 46.6074H15.0903C15.4666 47.0047 15.92 47.3211 16.4226 47.5374C16.9253 47.7536 17.4668 47.8652 18.014 47.8653Z" fill="#F0F0F0"/>
<path id="Vector_27" d="M28.0971 40.1872H28.2777C28.2777 39.8151 28.2777 38.8732 28.2964 36.714C28.329 32.7986 28.3913 32.5604 28.3913 32.5604L27.9616 34.3679C27.6892 36.3684 28.041 38.3797 28.0971 40.1872Z" fill="#E6E6E6"/>
<path id="Vector_28" d="M27.7404 34.0938C27.1177 33.3575 25.8022 33.1426 24.4509 32.9589C23.92 32.8873 25.8442 34.1001 26.7861 34.961C27.5178 35.6304 27.9848 35.8157 28.1872 36.482C28.2899 35.6506 28.2728 34.7337 27.7404 34.0938Z" fill="#E6E6E6"/>
<path id="Vector_29" d="M28.5609 35.414C29.1836 34.6777 30.4991 34.4644 31.8504 34.2807C32.3813 34.2091 30.4493 35.4218 29.5152 36.2827C28.7835 36.9521 28.3165 37.1374 28.1141 37.8037C28.0114 36.9724 28.0223 36.0492 28.5609 35.414Z" fill="#E6E6E6"/>
<path id="Vector_30" d="M28.2963 32.3813C28.7634 31.5002 29.9248 30.6689 31.234 30.3575C31.7478 30.2345 30.0431 31.9828 29.3954 33.1115C28.8926 33.9864 28.2263 35.017 28.122 35.758C27.9663 34.2978 27.8324 33.2672 28.2963 32.3813Z" fill="#E6E6E6"/>
<path id="Vector_31" d="M28.2402 40.6091C27.6891 40.6091 27.2329 40.3335 27.2002 39.9785L27.1084 39.3745H29.3735L29.2801 39.9785C29.249 40.3335 28.8006 40.6091 28.2402 40.6091Z" fill="#F0F0F0"/>
<path id="Vector_32" d="M29.5201 39.6064H26.9623L26.8892 38.9323H29.5933L29.5201 39.6064Z" fill="#F0F0F0"/>
<path id="Vector_33" d="M26.394 26.7333L51.3354 26.7333V3.98384L26.394 3.98384L26.394 26.7333Z" fill="#E6E6E6"/>
<path id="Vector_34" d="M25.8334 26.7333L51.0908 26.7333V3.98384L25.8334 3.98384L25.8334 26.7333Z" fill="#F5F5F5"/>
<path id="Vector_35" d="M50.082 25.7152V5.00354L26.8391 5.00354V25.7152H50.082Z" fill="#FAFAFA"/>
<path id="Vector_36" d="M47.2317 25.7152L38.0839 5.00354H34.9766L44.1243 25.7152H47.2317Z" fill="white"/>
<path id="Vector_37" d="M43.2433 25.7152L34.0956 5.00354H31.9565L41.1043 25.7152H43.2433Z" fill="white"/>
<path id="Vector_38" d="M35.4702 25.7136V5.00201H34.2684V25.7136H35.4702Z" fill="#E6E6E6"/>
<path id="Vector_39" d="M43.4595 25.7136V5.00201H42.2576V25.7136H43.4595Z" fill="#E6E6E6"/>
<path id="Vector_40" d="M35.2539 26.3612V4.24536H33.7345V26.3612H35.2539Z" fill="#F5F5F5"/>
<path id="Vector_41" d="M43.2432 26.3612V4.24536H41.7237V26.3612H43.2432Z" fill="#F5F5F5"/>
<path id="Vector_42" d="M26.9482 25.7152V5.00354H26.8408V25.7152H26.9482Z" fill="#E6E6E6"/>
<path id="Vector_43" d="M25.4101 2.673H52.4298C52.4644 2.67341 52.4974 2.68732 52.5218 2.71175C52.5463 2.73619 52.5602 2.76922 52.5606 2.80378C52.5602 2.83819 52.5462 2.87105 52.5217 2.89524C52.4973 2.91943 52.4642 2.93299 52.4298 2.93299H25.4101C25.3757 2.93299 25.3426 2.91943 25.3181 2.89524C25.2937 2.87105 25.2797 2.83819 25.2793 2.80378C25.2797 2.76922 25.2936 2.73619 25.318 2.71175C25.3425 2.68732 25.3755 2.67341 25.4101 2.673Z" fill="#E6E6E6"/>
<path id="Vector_44" d="M51.3356 3.53083C51.382 3.53042 51.4263 3.5117 51.459 3.47875C51.4916 3.44581 51.5099 3.4013 51.5099 3.35491V2.97816C51.5102 2.95514 51.5058 2.9323 51.4971 2.91096C51.4885 2.88963 51.4756 2.87022 51.4594 2.85386C51.4432 2.83751 51.4239 2.82453 51.4027 2.81567C51.3814 2.80681 51.3586 2.80225 51.3356 2.80225C51.2892 2.80224 51.2447 2.82056 51.2117 2.85322C51.1788 2.88587 51.1601 2.93022 51.1597 2.97661V3.35335C51.1597 3.40015 51.1782 3.44506 51.2111 3.4783C51.244 3.51154 51.2888 3.53042 51.3356 3.53083Z" fill="#E6E6E6"/>
<path id="Vector_45" d="M27.3687 3.53083C27.4152 3.53042 27.4597 3.51176 27.4926 3.47885C27.5256 3.44595 27.5442 3.40144 27.5446 3.35491V2.97816C27.5446 2.93151 27.5261 2.88676 27.4931 2.85377C27.4601 2.82078 27.4154 2.80225 27.3687 2.80225C27.3225 2.80225 27.2781 2.82062 27.2454 2.85332C27.2127 2.88601 27.1943 2.93036 27.1943 2.97661V3.35335C27.1941 3.37645 27.1985 3.39937 27.2071 3.42079C27.2158 3.44221 27.2286 3.46172 27.2448 3.4782C27.261 3.49468 27.2802 3.50781 27.3015 3.51684C27.3228 3.52587 27.3456 3.53062 27.3687 3.53083Z" fill="#E6E6E6"/>
<path id="Vector_46" opacity="0.6" d="M25.4506 20.6182L50.6909 20.6182V2.80222L25.4506 2.80222L25.4506 20.6182Z" fill="#E0E0E0"/>
<path id="Vector_47" d="M52.9765 31.9096H48.6237C48.1611 31.9096 47.7861 32.2846 47.7861 32.7472V34.7617C47.7861 35.2243 48.1611 35.5992 48.6237 35.5992H52.9765C53.4391 35.5992 53.814 35.2243 53.814 34.7617V32.7472C53.814 32.2846 53.4391 31.9096 52.9765 31.9096Z" fill="#FAFAFA"/>
<path id="Vector_48" d="M53.5323 31.2278H48.0679C47.9123 31.2278 47.7861 31.3539 47.7861 31.5095V31.7368C47.7861 31.8924 47.9123 32.0186 48.0679 32.0186H53.5323C53.6879 32.0186 53.814 31.8924 53.814 31.7368V31.5095C53.814 31.3539 53.6879 31.2278 53.5323 31.2278Z" fill="#E6E6E6"/>
<path id="Vector_49" d="M47.8745 39.6983C47.8745 39.6983 47.9539 42.2935 50.9772 42.2935C54.0005 42.2935 54.0799 39.6983 54.0799 39.6983H47.8745Z" fill="#F0F0F0"/>
<path id="Vector_50" d="M54.7681 39.6983C54.7681 39.6983 54.8475 42.2935 57.8708 42.2935C60.8941 42.2935 60.9735 39.6983 60.9735 39.6983H54.7681Z" fill="#F0F0F0"/>
<path id="Vector_51" d="M59.4758 30.2392H53.4977C52.8615 30.2392 52.3457 30.755 52.3457 31.3913V34.4488C52.3457 35.0851 52.8615 35.6008 53.4977 35.6008H59.4758C60.1121 35.6008 60.6279 35.0851 60.6279 34.4488V31.3913C60.6279 30.755 60.1121 30.2392 59.4758 30.2392Z" fill="#F0F0F0"/>
<path id="Vector_52" d="M60.2418 29.302H52.7318C52.5186 29.302 52.3457 29.4749 52.3457 29.6881V30.0026C52.3457 30.2158 52.5186 30.3887 52.7318 30.3887H60.2418C60.455 30.3887 60.6279 30.2158 60.6279 30.0026V29.6881C60.6279 29.4749 60.455 29.302 60.2418 29.302Z" fill="#F5F5F5"/>
<path id="Vector_53" d="M45.5972 50.9695H46.3818V38.1041H45.5972V50.9695Z" fill="#E6E6E6"/>
<path id="Vector_54" d="M42.8803 38.1041H64.0029V35.6008H42.8803V38.1041Z" fill="#F5F5F5"/>
<path id="Vector_55" d="M42.8803 44.789H64.0029V42.2857H42.8803V44.789Z" fill="#F5F5F5"/>
<path id="Vector_56" d="M42.8804 50.9695H43.665V38.1041H42.8804V50.9695Z" fill="#F5F5F5"/>
</g>
<g id="Shadow">
<path id="path" d="M38.9201 58C55.5906 58 69.1048 57.211 69.1048 56.2377C69.1048 55.2644 55.5906 54.4754 38.9201 54.4754C22.2495 54.4754 8.73535 55.2644 8.73535 56.2377C8.73535 57.211 22.2495 58 38.9201 58Z" fill="#F5F5F5"/>
</g>
<g id="Login">
<path id="Vector_57" d="M40.5406 48.3386H20.6806C20.3612 48.334 20.0554 48.2089 19.8244 47.9883C19.5934 47.7677 19.4544 47.468 19.4351 47.1492L17.6542 12.6583C17.6443 12.5049 17.6662 12.3511 17.7186 12.2066C17.7709 12.062 17.8525 11.9298 17.9584 11.8183C18.0642 11.7068 18.1919 11.6183 18.3335 11.5585C18.4751 11.4986 18.6276 11.4687 18.7813 11.4705H38.6413C38.9606 11.4746 39.2664 11.5994 39.4974 11.8198C39.7284 12.0401 39.8675 12.3397 39.8868 12.6583L41.6646 47.1492C41.6745 47.3024 41.6526 47.456 41.6005 47.6004C41.5484 47.7448 41.467 47.877 41.3616 47.9886C41.2561 48.1001 41.1288 48.1888 40.9875 48.249C40.8463 48.3093 40.6942 48.3397 40.5406 48.3386Z" fill="#D6E927"/>
<path id="Vector_58" opacity="0.8" d="M40.5406 48.3386H20.6806C20.3612 48.334 20.0554 48.2089 19.8244 47.9883C19.5934 47.7677 19.4544 47.468 19.4351 47.1492L17.6542 12.6583C17.6443 12.5049 17.6662 12.3511 17.7186 12.2066C17.7709 12.062 17.8525 11.9298 17.9584 11.8183C18.0642 11.7068 18.1919 11.6183 18.3335 11.5585C18.4751 11.4986 18.6276 11.4687 18.7813 11.4705H38.6413C38.9606 11.4746 39.2664 11.5994 39.4974 11.8198C39.7284 12.0401 39.8675 12.3397 39.8868 12.6583L41.6646 47.1492C41.6745 47.3024 41.6526 47.456 41.6005 47.6004C41.5484 47.7448 41.467 47.877 41.3616 47.9886C41.2561 48.1001 41.1288 48.1888 40.9875 48.249C40.8463 48.3093 40.6942 48.3397 40.5406 48.3386Z" fill="white"/>
<path id="Vector_59" d="M36.6815 10.3465H34.4849V10.5022H36.6815V10.3465Z" fill="#D6E927"/>
<path id="Vector_60" d="M33.7233 10.3465H32.9185V10.5022H33.7233V10.3465Z" fill="#D6E927"/>
<path id="Vector_61" d="M41.3952 46.1497H22.4022C22.0964 46.1467 21.803 46.028 21.5812 45.8175C21.3593 45.6069 21.2255 45.3201 21.2066 45.0148L19.5066 12.0263C19.4972 11.8795 19.5181 11.7323 19.5683 11.5939C19.6184 11.4556 19.6965 11.3291 19.7978 11.2224C19.8991 11.1157 20.0214 11.0311 20.1569 10.9739C20.2924 10.9166 20.4383 10.888 20.5855 10.8898H39.5784C39.8842 10.8932 40.1774 11.0123 40.399 11.2232C40.6205 11.434 40.754 11.721 40.7724 12.0263L42.4725 45.0148C42.4819 45.1614 42.461 45.3084 42.4109 45.4465C42.3609 45.5847 42.2828 45.711 42.1817 45.8176C42.0805 45.9241 41.9585 46.0086 41.8231 46.0658C41.6878 46.1229 41.5421 46.1515 41.3952 46.1497Z" fill="#D6E927"/>
<path id="Vector_62" d="M41.3954 45.3916H22.4024C22.2911 45.3877 22.185 45.3431 22.1043 45.2662C22.0237 45.1893 21.9741 45.0854 21.965 44.9743L20.2634 11.9874C20.2595 11.9435 20.265 11.8993 20.2795 11.8577C20.294 11.8161 20.3172 11.7781 20.3475 11.7461C20.3778 11.7142 20.4146 11.6891 20.4554 11.6724C20.4962 11.6558 20.5401 11.648 20.5841 11.6496H39.577C39.6881 11.6538 39.7938 11.6985 39.8742 11.7754C39.9545 11.8523 40.0039 11.9559 40.0129 12.0668L41.7223 45.0537C41.726 45.0974 41.7205 45.1415 41.706 45.1829C41.6916 45.2243 41.6685 45.2622 41.6384 45.2941C41.6083 45.326 41.5717 45.3512 41.5312 45.368C41.4906 45.3848 41.447 45.3928 41.4031 45.3916H41.3954ZM20.5841 11.6885C20.5454 11.6872 20.5069 11.694 20.4709 11.7085C20.435 11.723 20.4025 11.7448 20.3755 11.7725C20.3495 11.8013 20.3296 11.835 20.317 11.8717C20.3045 11.9083 20.2995 11.9472 20.3023 11.9858L22.0023 44.9728C22.011 45.0738 22.0563 45.1682 22.1297 45.2382C22.2031 45.3081 22.2996 45.3488 22.4009 45.3526H41.3938C41.4323 45.3542 41.4707 45.3474 41.5064 45.3329C41.5421 45.3184 41.5743 45.2965 41.6009 45.2686C41.6275 45.2402 41.6478 45.2066 41.6604 45.1698C41.673 45.133 41.6777 45.094 41.674 45.0553L39.9756 12.0683C39.9673 11.9674 39.9223 11.8731 39.8491 11.8031C39.776 11.7331 39.6797 11.6923 39.5786 11.6885H20.5841Z" fill="white"/>
<path id="Vector_63" d="M38.6726 33.3155H23.8006C23.671 33.3141 23.5468 33.2638 23.4529 33.1745C23.359 33.0853 23.3025 32.9637 23.2946 32.8344L23.1825 30.6549C23.1787 30.5929 23.1876 30.5308 23.2089 30.4724C23.2301 30.414 23.2632 30.3607 23.306 30.3157C23.3488 30.2707 23.4005 30.235 23.4577 30.2109C23.5149 30.1867 23.5765 30.1747 23.6387 30.1754H38.5107C38.64 30.1767 38.764 30.2269 38.8579 30.3158C38.9517 30.4047 39.0084 30.5259 39.0167 30.6549L39.1288 32.8344C39.1329 32.8966 39.1241 32.9588 39.1029 33.0174C39.0818 33.076 39.0487 33.1295 39.0059 33.1747C38.963 33.2199 38.9113 33.2557 38.854 33.2799C38.7966 33.3041 38.7349 33.3163 38.6726 33.3155Z" fill="white"/>
<path id="Vector_64" opacity="0.3" d="M34.1189 28.972H27.9073C27.7773 28.971 27.6524 28.9206 27.5582 28.831C27.4639 28.7414 27.4073 28.6192 27.3998 28.4894L27.3765 28.0223C27.3724 27.9602 27.3812 27.8979 27.4023 27.8394C27.4235 27.7808 27.4565 27.7273 27.4994 27.6821C27.5422 27.6369 27.5939 27.6011 27.6513 27.5769C27.7086 27.5526 27.7703 27.5405 27.8326 27.5413H34.0427C34.1722 27.5426 34.2964 27.593 34.3903 27.6823C34.4842 27.7715 34.5408 27.893 34.5486 28.0223L34.5735 28.4894C34.5774 28.5514 34.5684 28.6135 34.5473 28.672C34.5262 28.7304 34.4933 28.7839 34.4507 28.8291C34.4081 28.8743 34.3567 28.9103 34.2996 28.9349C34.2426 28.9595 34.1811 28.9721 34.1189 28.972Z" fill="black"/>
<path id="Vector_65" opacity="0.3" d="M36.4294 43.7942H27.1245C26.9041 43.7915 26.693 43.7056 26.5333 43.5538C26.3736 43.4019 26.2773 43.1953 26.2635 42.9754L26.2091 41.9012C26.2036 41.7956 26.2196 41.69 26.2563 41.5909C26.2929 41.4917 26.3494 41.401 26.4222 41.3244C26.4951 41.2478 26.5827 41.1868 26.6799 41.1452C26.7771 41.1036 26.8817 41.0822 26.9875 41.0823H36.2893C36.5097 41.085 36.7208 41.1709 36.8805 41.3228C37.0401 41.4747 37.1365 41.6813 37.1502 41.9012L37.2047 42.9754C37.2102 43.0807 37.1942 43.186 37.1578 43.285C37.1213 43.3839 37.0651 43.4744 36.9926 43.551C36.9201 43.6276 36.8328 43.6886 36.736 43.7304C36.6392 43.7723 36.5349 43.794 36.4294 43.7942Z" fill="black"/>
<path id="Vector_66" d="M38.9452 38.5868H24.0716C23.9421 38.5851 23.8181 38.5346 23.7243 38.4454C23.6305 38.3562 23.5738 38.2349 23.5656 38.1057L23.4535 35.9262C23.4497 35.8642 23.4586 35.802 23.4799 35.7435C23.5011 35.6851 23.5341 35.6316 23.5769 35.5865C23.6197 35.5413 23.6713 35.5055 23.7286 35.4812C23.7858 35.4569 23.8475 35.4446 23.9096 35.4452H38.7817C38.9113 35.4465 39.0355 35.4969 39.1294 35.5861C39.2232 35.6754 39.2798 35.7969 39.2877 35.9262L39.4013 38.1057C39.4049 38.1678 39.3958 38.2299 39.3745 38.2882C39.3532 38.3466 39.3201 38.3999 39.2774 38.445C39.2346 38.4901 39.1831 38.5259 39.126 38.5503C39.0688 38.5747 39.0073 38.5871 38.9452 38.5868Z" fill="white"/>
<path id="Vector_67" d="M25.6875 31.7447C25.6918 31.8135 25.6818 31.8824 25.6583 31.9472C25.6347 32.012 25.598 32.0712 25.5506 32.1212C25.5031 32.1711 25.4458 32.2108 25.3823 32.2376C25.3188 32.2644 25.2505 32.2779 25.1815 32.2771C25.0384 32.2754 24.9011 32.2195 24.7974 32.1208C24.6937 32.022 24.6313 31.8876 24.6227 31.7447C24.6181 31.676 24.6279 31.6071 24.6513 31.5423C24.6747 31.4775 24.7112 31.4183 24.7585 31.3683C24.8059 31.3183 24.8631 31.2786 24.9265 31.2518C24.9899 31.2249 25.0582 31.2115 25.1271 31.2123C25.2704 31.2139 25.4078 31.2697 25.5118 31.3685C25.6157 31.4672 25.6785 31.6016 25.6875 31.7447Z" fill="#263238"/>
<path id="Vector_68" d="M27.3266 31.7447C27.3311 31.8134 27.3213 31.8823 27.298 31.9471C27.2746 32.0119 27.2381 32.0711 27.1907 32.1211C27.1433 32.1711 27.0861 32.2107 27.0227 32.2376C26.9593 32.2644 26.891 32.2779 26.8222 32.2771C26.6789 32.2758 26.5414 32.22 26.4377 32.1212C26.3339 32.0223 26.2716 31.8877 26.2633 31.7447C26.2588 31.676 26.2685 31.6071 26.2919 31.5423C26.3153 31.4775 26.3518 31.4183 26.3992 31.3683C26.4465 31.3183 26.5037 31.2786 26.5671 31.2518C26.6305 31.2249 26.6988 31.2115 26.7677 31.2123C26.911 31.2136 27.0484 31.2693 27.1522 31.3682C27.256 31.467 27.3183 31.6016 27.3266 31.7447Z" fill="#263238"/>
<path id="Vector_69" d="M28.9564 31.7447C28.961 31.8134 28.9512 31.8823 28.9278 31.9471C28.9044 32.0119 28.8679 32.0711 28.8206 32.1211C28.7732 32.1711 28.716 32.2107 28.6526 32.2376C28.5892 32.2644 28.5209 32.2779 28.452 32.2771C28.3087 32.2754 28.1713 32.2196 28.0673 32.1209C27.9634 32.0221 27.9006 31.8878 27.8916 31.7447C27.8873 31.6759 27.8973 31.6069 27.9208 31.5422C27.9444 31.4774 27.981 31.4182 28.0285 31.3682C28.076 31.3182 28.1333 31.2786 28.1968 31.2518C28.2603 31.2249 28.3286 31.2115 28.3976 31.2123C28.5407 31.214 28.678 31.2698 28.7817 31.3686C28.8854 31.4674 28.9478 31.6017 28.9564 31.7447Z" fill="#263238"/>
<path id="Vector_70" d="M30.599 31.7447C30.6033 31.8133 30.5934 31.8821 30.5699 31.9468C30.5465 32.0115 30.5099 32.0706 30.4626 32.1206C30.4153 32.1705 30.3582 32.2102 30.2949 32.2371C30.2316 32.264 30.1634 32.2776 30.0946 32.2771C29.9513 32.2754 29.8138 32.2196 29.7099 32.1209C29.606 32.0221 29.5432 31.8877 29.5342 31.7447C29.5299 31.676 29.5398 31.6072 29.5633 31.5425C29.5867 31.4778 29.6233 31.4187 29.6706 31.3687C29.7179 31.3188 29.775 31.2791 29.8383 31.2522C29.9016 31.2253 29.9698 31.2117 30.0386 31.2122C30.1819 31.2139 30.3193 31.2697 30.4233 31.3685C30.5272 31.4672 30.59 31.6016 30.599 31.7447Z" fill="#263238"/>
<path id="Vector_71" d="M25.9628 37.0129C25.9673 37.0816 25.9576 37.1505 25.9342 37.2153C25.9108 37.28 25.8743 37.3393 25.8269 37.3893C25.7796 37.4393 25.7224 37.4789 25.659 37.5058C25.5955 37.5326 25.5273 37.5461 25.4584 37.5453C25.315 37.5436 25.1776 37.4878 25.0737 37.3891C24.9697 37.2903 24.907 37.1559 24.8979 37.0129C24.8937 36.9441 24.9036 36.8751 24.9272 36.8104C24.9507 36.7456 24.9874 36.6863 25.0349 36.6364C25.0824 36.5864 25.1396 36.5468 25.2031 36.5199C25.2666 36.4931 25.335 36.4797 25.4039 36.4804C25.5471 36.4821 25.6843 36.538 25.788 36.6368C25.8917 36.7356 25.9541 36.8699 25.9628 37.0129Z" fill="#263238"/>
<path id="Vector_72" d="M27.5991 37.0129C27.6034 37.0815 27.5935 37.1503 27.57 37.215C27.5466 37.2797 27.51 37.3388 27.4627 37.3888C27.4154 37.4387 27.3583 37.4784 27.295 37.5053C27.2317 37.5322 27.1635 37.5459 27.0947 37.5453C26.9514 37.5436 26.8139 37.4878 26.71 37.3891C26.6061 37.2903 26.5433 37.1559 26.5343 37.0129C26.5298 36.9441 26.5395 36.8752 26.5629 36.8105C26.5863 36.7457 26.6228 36.6864 26.6702 36.6365C26.7175 36.5865 26.7747 36.5468 26.8381 36.5199C26.9015 36.4931 26.9698 36.4796 27.0387 36.4804C27.182 36.4821 27.3195 36.5379 27.4234 36.6367C27.5273 36.7354 27.5901 36.8698 27.5991 37.0129Z" fill="#263238"/>
<path id="Vector_73" d="M29.2354 37.0129C29.2396 37.0817 29.2297 37.1506 29.2061 37.2154C29.1826 37.2802 29.1459 37.3394 29.0984 37.3894C29.0509 37.4393 28.9937 37.479 28.9302 37.5058C28.8667 37.5326 28.7983 37.5461 28.7294 37.5453C28.5861 37.544 28.4486 37.4882 28.3449 37.3894C28.2411 37.2905 28.1788 37.1559 28.1705 37.0129C28.166 36.9441 28.1757 36.8752 28.1991 36.8105C28.2225 36.7457 28.259 36.6864 28.3064 36.6365C28.3537 36.5865 28.4109 36.5468 28.4743 36.5199C28.5378 36.4931 28.606 36.4796 28.6749 36.4804C28.8183 36.4821 28.9557 36.5379 29.0596 36.6367C29.1636 36.7354 29.2263 36.8698 29.2354 37.0129Z" fill="#263238"/>
<path id="Vector_74" d="M30.87 37.0129C30.8745 37.0816 30.8648 37.1505 30.8414 37.2153C30.818 37.28 30.7815 37.3393 30.7341 37.3893C30.6868 37.4393 30.6296 37.4789 30.5662 37.5058C30.5028 37.5326 30.4345 37.5461 30.3656 37.5453C30.2223 37.5436 30.0848 37.4878 29.9809 37.3891C29.877 37.2903 29.8142 37.1559 29.8052 37.0129C29.8009 36.9441 29.8108 36.8751 29.8344 36.8104C29.858 36.7456 29.8946 36.6863 29.9421 36.6364C29.9896 36.5864 30.0469 36.5468 30.1104 36.5199C30.1739 36.4931 30.2422 36.4797 30.3111 36.4804C30.4544 36.4818 30.5919 36.5375 30.6956 36.6364C30.7994 36.7352 30.8617 36.8698 30.87 37.0129Z" fill="#263238"/>
<path id="Vector_75" d="M32.5062 37.0129C32.5108 37.0816 32.501 37.1505 32.4776 37.2153C32.4542 37.28 32.4177 37.3393 32.3704 37.3893C32.323 37.4393 32.2658 37.4789 32.2024 37.5058C32.139 37.5326 32.0707 37.5461 32.0018 37.5453C31.8585 37.5436 31.7211 37.4878 31.6171 37.3891C31.5132 37.2903 31.4504 37.1559 31.4414 37.0129C31.4371 36.9442 31.447 36.8754 31.4705 36.8107C31.494 36.746 31.5305 36.6869 31.5778 36.6369C31.6251 36.587 31.6822 36.5473 31.7455 36.5204C31.8088 36.4935 31.877 36.4799 31.9458 36.4804C32.0892 36.4821 32.2266 36.5379 32.3305 36.6367C32.4344 36.7354 32.4972 36.8698 32.5062 37.0129Z" fill="#263238"/>
<path id="Vector_76" d="M34.1421 37.0129C34.1464 37.0817 34.1364 37.1506 34.1129 37.2154C34.0893 37.2802 34.0526 37.3394 34.0052 37.3894C33.9577 37.4393 33.9004 37.479 33.8369 37.5058C33.7734 37.5326 33.7051 37.5461 33.6361 37.5453C33.4929 37.5436 33.3557 37.4877 33.252 37.389C33.1483 37.2902 33.0859 37.1558 33.0772 37.0129C33.0727 36.9441 33.0825 36.8752 33.1059 36.8105C33.1292 36.7457 33.1658 36.6864 33.2131 36.6365C33.2605 36.5865 33.3177 36.5468 33.3811 36.5199C33.4445 36.4931 33.5128 36.4796 33.5816 36.4804C33.725 36.4821 33.8624 36.5379 33.9664 36.6367C34.0703 36.7354 34.1331 36.8698 34.1421 37.0129Z" fill="#263238"/>
</g>
<g id="Character">
<path id="Vector_77" d="M51.8416 18.9337C51.8806 18.9929 51.9008 19.024 51.9257 19.0661L51.9958 19.1813C52.0409 19.2591 52.0814 19.337 52.1203 19.4132C52.1981 19.5689 52.276 19.7246 52.3383 19.8803C52.4688 20.1895 52.581 20.506 52.6745 20.8284C52.863 21.4651 52.9871 22.1191 53.045 22.7806L53.0559 22.9036C53.0572 22.9285 53.0572 22.9534 53.0559 22.9783V23.0608C53.0585 23.1691 53.0523 23.2774 53.0373 23.3846C53.0074 23.5834 52.9552 23.7782 52.8816 23.9653C52.7448 24.2995 52.5636 24.6136 52.3429 24.8994C51.9312 25.4266 51.4426 25.8889 50.8935 26.2709L50.4639 25.7681C50.8548 25.3265 51.2011 24.8473 51.4976 24.3374C51.631 24.1061 51.7356 23.8593 51.8089 23.6026C51.8387 23.4938 51.8559 23.3821 51.8603 23.2694C51.8651 23.2213 51.8651 23.1728 51.8603 23.1246V23.0919C51.8619 23.0775 51.8619 23.0628 51.8603 23.0484L51.8416 22.9394C51.7415 22.3592 51.6 21.7869 51.4182 21.2269C51.3279 20.9482 51.2174 20.6789 51.1068 20.4158C51.0523 20.2835 50.9901 20.1543 50.9278 20.0297L50.8313 19.846L50.783 19.7604L50.7425 19.6919L51.8416 18.9337Z" fill="#803E3C"/>
<path id="Vector_78" d="M50.3936 26.2741L50.9571 27.465L51.4039 26.4578C51.4039 26.4578 51.0069 25.586 50.4698 25.6669L50.3936 26.2741Z" fill="#7F3E3B"/>
<path id="Vector_79" d="M51.3602 27.5241L51.8086 26.7893L51.4038 26.4577L50.957 27.4649L51.3602 27.5241Z" fill="#7F3E3B"/>
<path id="Vector_80" d="M48.8257 54.9892C48.9423 54.9863 49.0582 54.9706 49.1713 54.9425C49.1771 54.9407 49.1822 54.9375 49.1863 54.9331C49.1904 54.9288 49.1933 54.9234 49.1947 54.9176C49.1956 54.9116 49.1948 54.9054 49.1923 54.8999C49.1899 54.8944 49.1858 54.8897 49.1807 54.8864C49.1355 54.8569 48.7401 54.6015 48.5875 54.67C48.5706 54.6779 48.5561 54.6902 48.5455 54.7055C48.5348 54.7208 48.5284 54.7386 48.5268 54.7572C48.5221 54.7854 48.5243 54.8143 48.5333 54.8414C48.5422 54.8685 48.5576 54.8931 48.5782 54.9129C48.6488 54.9674 48.7367 54.9945 48.8257 54.9892ZM49.0826 54.8973C48.8569 54.944 48.6856 54.9363 48.6156 54.8755C48.6013 54.8613 48.5908 54.8438 48.5851 54.8245C48.5794 54.8051 48.5786 54.7847 48.5829 54.765C48.5829 54.7385 48.5984 54.7308 48.6093 54.7261C48.6934 54.6887 48.9223 54.7993 49.0826 54.8973Z" fill="#C1D600"/>
<path id="Vector_81" d="M49.1637 54.9425H49.1792C49.1839 54.9394 49.1878 54.9353 49.1905 54.9304C49.1932 54.9255 49.1947 54.92 49.1948 54.9145C49.1948 54.8989 49.1948 54.5237 49.0516 54.3976C49.034 54.3818 49.0132 54.37 48.9906 54.363C48.9681 54.356 48.9442 54.354 48.9208 54.3571C48.8962 54.3573 48.8725 54.3659 48.8535 54.3815C48.8345 54.3971 48.8215 54.4187 48.8165 54.4428C48.7869 54.5906 49.0236 54.8709 49.1481 54.9425H49.1637ZM48.941 54.4147C48.9536 54.4144 48.9662 54.4165 48.978 54.4211C48.9897 54.4256 49.0005 54.4325 49.0095 54.4412C49.0917 54.5623 49.1341 54.7059 49.131 54.8522C49.0064 54.7526 48.8585 54.5408 48.8772 54.4521C48.8772 54.4381 48.8881 54.4194 48.927 54.4147H48.941Z" fill="#C1D600"/>
<path id="Vector_82" d="M47.3565 54.354C47.3602 54.3494 47.3625 54.344 47.3634 54.3382C47.3642 54.3324 47.3635 54.3265 47.3612 54.3211C47.359 54.3157 47.3554 54.311 47.3507 54.3074C47.3461 54.3039 47.3405 54.3017 47.3347 54.301C47.2709 54.301 46.712 54.2746 46.5843 54.4116V54.4209C46.5738 54.4344 46.567 54.4504 46.5645 54.4673C46.562 54.4842 46.5641 54.5015 46.5703 54.5174C46.5787 54.5442 46.5933 54.5685 46.6131 54.5883C46.6329 54.6081 46.6572 54.6228 46.684 54.6311C46.8646 54.6871 47.1837 54.4832 47.3581 54.3571L47.3565 54.354ZM46.6311 54.452C46.7011 54.3773 47.0094 54.3571 47.2398 54.3602C46.9985 54.5252 46.7976 54.6031 46.6964 54.5719C46.6788 54.5666 46.6627 54.5569 46.6497 54.5439C46.6367 54.5309 46.6271 54.5148 46.6217 54.4972C46.6186 54.4912 46.6169 54.4845 46.6169 54.4777C46.6169 54.471 46.6186 54.4643 46.6217 54.4583L46.6311 54.452Z" fill="#C1D600"/>
<path id="Vector_83" d="M47.3565 54.354C47.3588 54.3491 47.3601 54.3438 47.3601 54.3384C47.3601 54.333 47.3588 54.3277 47.3565 54.3229C47.3487 54.3104 47.1743 54.0115 46.9688 53.9492C46.9393 53.9406 46.9084 53.9381 46.8779 53.9418C46.8473 53.9456 46.8179 53.9555 46.7914 53.971C46.7166 54.0146 46.712 54.066 46.7213 54.0987C46.7618 54.2435 47.1588 54.3711 47.33 54.3696C47.3354 54.3695 47.3407 54.368 47.3453 54.3653C47.3499 54.3625 47.3538 54.3587 47.3565 54.354ZM46.7976 54.0426C46.8064 54.034 46.8163 54.0267 46.8272 54.0208C46.8464 54.0086 46.8681 54.0007 46.8907 53.9977C46.9133 53.9948 46.9362 53.9968 46.9579 54.0037C47.0934 54.0395 47.2195 54.2139 47.2771 54.2995C47.0918 54.2793 46.8101 54.1656 46.7867 54.0784C46.7847 54.0718 46.7847 54.0648 46.7866 54.0582C46.7886 54.0515 46.7924 54.0456 46.7976 54.0411V54.0426Z" fill="#C1D600"/>
<path id="Vector_84" d="M49.0704 14.3739C48.9147 15.1523 48.5784 16.8352 49.1186 17.3521C49.1186 17.3521 48.9069 18.1305 47.47 18.1305C45.8883 18.1305 46.7149 17.3521 46.7149 17.3521C47.5774 17.1466 47.5556 16.5052 47.4046 15.9042L49.0704 14.3739Z" fill="#7F3E3B"/>
<path id="Vector_85" d="M46.4364 12.5493C46.4451 12.5508 46.4541 12.5508 46.4628 12.5493C46.4702 12.5457 46.4768 12.5406 46.4822 12.5344C46.4877 12.5282 46.4918 12.521 46.4944 12.5132C46.497 12.5053 46.498 12.4971 46.4974 12.4889C46.4968 12.4806 46.4946 12.4726 46.4908 12.4653C46.449 12.3765 46.3864 12.299 46.3084 12.2394C46.2304 12.1798 46.1392 12.1398 46.0425 12.1228C46.0263 12.1214 46.0102 12.1263 45.9974 12.1364C45.9847 12.1466 45.9763 12.1612 45.974 12.1773C45.9722 12.1936 45.977 12.2099 45.9872 12.2227C45.9974 12.2355 46.0122 12.2438 46.0285 12.2458C46.1048 12.2604 46.1765 12.2931 46.2377 12.341C46.2989 12.3889 46.3478 12.4507 46.3803 12.5213C46.3863 12.5305 46.3947 12.538 46.4046 12.5429C46.4144 12.5478 46.4254 12.55 46.4364 12.5493Z" fill="#263238"/>
<path id="Vector_86" d="M45.9644 13.2328C45.8418 13.46 45.6889 13.6695 45.5098 13.8555C45.5583 13.8999 45.6158 13.9332 45.6784 13.953C45.7411 13.9729 45.8073 13.979 45.8725 13.9707L45.9644 13.2328Z" fill="#630F0F"/>
<path id="Vector_87" d="M46.0816 13.0568C46.0691 13.1611 46.0022 13.239 45.9352 13.2312C45.8683 13.2234 45.8216 13.1316 45.834 13.0273C45.8465 12.9229 45.9134 12.8451 45.9897 12.8529C46.066 12.8607 46.0925 12.9525 46.0816 13.0568Z" fill="#263238"/>
<path id="Vector_88" d="M46.0098 12.8622L45.77 12.7657C45.77 12.7657 45.8712 12.9712 46.0098 12.8622Z" fill="#263238"/>
<path id="Vector_89" d="M48.731 54.0582L47.4606 54.354L46.6885 51.4335L47.9588 51.1377L48.731 54.0582Z" fill="#7F3E3B"/>
<path id="Vector_90" d="M50.68 54.9113H49.377L49.4781 51.8927H50.7827L50.68 54.9113Z" fill="#7F3E3B"/>
<path id="Vector_91" d="M49.2726 54.7603H50.7375C50.7629 54.7601 50.7875 54.7691 50.8067 54.7858C50.8259 54.8024 50.8384 54.8254 50.8418 54.8506L51.0084 56.0089C51.0117 56.0382 51.0087 56.0678 50.9997 56.0959C50.9907 56.124 50.9759 56.1498 50.9562 56.1717C50.9365 56.1936 50.9123 56.2111 50.8854 56.223C50.8584 56.235 50.8292 56.241 50.7998 56.2408C50.2891 56.233 50.0432 56.2019 49.3987 56.2019C49.0017 56.2019 48.4225 56.2439 47.8761 56.2439C47.3297 56.2439 47.2985 55.7022 47.5274 55.6539C48.5486 55.4329 48.7106 55.1308 49.0546 54.8413C49.1154 54.7893 49.1926 54.7607 49.2726 54.7603Z" fill="#263238"/>
<path id="Vector_92" d="M47.3485 54.1594L48.6796 53.5475C48.7022 53.5368 48.7279 53.5346 48.752 53.5415C48.7761 53.5484 48.7968 53.5638 48.8103 53.5849L49.4471 54.5688C49.4619 54.5941 49.4713 54.6223 49.4746 54.6515C49.478 54.6806 49.4751 54.7102 49.4663 54.7382C49.4575 54.7662 49.443 54.7921 49.4235 54.8141C49.4041 54.8362 49.3803 54.8539 49.3536 54.8661C48.8866 55.0716 48.65 55.1479 48.0646 55.4173C47.705 55.5823 46.9749 55.9621 46.4798 56.1957C45.9847 56.4292 45.7294 55.945 45.9162 55.8049C46.7522 55.1822 46.992 54.7354 47.1835 54.3291C47.2159 54.2542 47.2746 54.1938 47.3485 54.1594Z" fill="#263238"/>
<path id="Vector_93" opacity="0.2" d="M46.6885 51.4335L47.1026 52.9996L48.3574 52.6431L47.9604 51.1377L46.6885 51.4335Z" fill="black"/>
<path id="Vector_94" opacity="0.2" d="M50.7827 51.8927H49.4781L49.4268 53.4495H50.7314L50.7827 51.8927Z" fill="black"/>
<path id="Vector_95" d="M51.3745 17.6478C51.9162 17.7677 52.4954 19.7153 52.4954 19.7153L50.9635 21.3452C50.9635 21.3452 49.6916 19.5144 49.9515 18.8419C50.2146 18.1398 50.7284 17.5077 51.3745 17.6478Z" fill="#263238"/>
<path id="Vector_96" opacity="0.4" d="M50.509 18.8886C50.2351 18.638 50.0498 18.7127 49.9237 18.912C49.7991 19.4911 50.5371 20.7039 50.8344 21.1631C50.9714 20.6151 51.1287 19.46 50.509 18.8886Z" fill="black"/>
<path id="Vector_97" d="M44.5107 17.6868C44.5107 17.6868 43.8879 17.9048 45.1334 25.5564H50.4265C50.3377 23.4018 50.3346 22.0723 51.3606 17.6479C50.6189 17.4949 49.867 17.396 49.111 17.3521C48.3108 17.2945 47.5075 17.2945 46.7073 17.3521C45.6814 17.4471 44.5107 17.6868 44.5107 17.6868Z" fill="#263238"/>
<path id="Vector_98" opacity="0.4" d="M44.4624 20.6229C44.4967 20.995 44.5418 21.4137 44.601 21.887C45.0353 21.4962 45.3903 20.3847 45.2595 19.7371C44.9492 19.9889 44.6802 20.2878 44.4624 20.6229Z" fill="black"/>
<path id="Vector_99" d="M45.0292 19.46C44.7436 20.1788 44.422 20.8829 44.0655 21.5694C43.7132 22.2808 43.2963 22.9582 42.8201 23.5933L42.7205 23.7162L42.6707 23.777C42.6535 23.7972 42.6395 23.8159 42.6131 23.8439C42.5194 23.9461 42.415 24.038 42.3017 24.1179C42.1014 24.2565 41.8823 24.3656 41.651 24.4417C41.2475 24.5706 40.8287 24.6449 40.4055 24.6628C39.6131 24.6943 38.8198 24.6237 38.0454 24.4526L38.131 23.7988C38.4891 23.7988 38.8643 23.7988 39.2208 23.7692C39.5789 23.7516 39.9355 23.7121 40.2888 23.6509C40.6168 23.5997 40.9377 23.5098 41.2446 23.3831C41.3686 23.3301 41.4844 23.2599 41.5887 23.1745C41.6285 23.1411 41.6645 23.1036 41.6961 23.0624C41.6961 23.0624 41.7148 23.0375 41.7272 23.0204L41.763 22.969L41.8362 22.8662C42.2269 22.2628 42.5749 21.6329 42.8777 20.981C43.1891 20.3193 43.5004 19.6328 43.7853 18.9571L45.0292 19.46Z" fill="#803E3C"/>
<path id="Vector_100" d="M44.5107 17.6868C43.8615 17.8425 43.0645 19.6234 43.0645 19.6234L44.4095 21.6006C44.4095 21.6006 46.2014 19.3448 45.9881 18.6567C45.7702 17.939 45.3031 17.4937 44.5107 17.6868Z" fill="#263238"/>
<path id="Vector_101" d="M38.5046 23.8984L37.3821 23.3799L37.27 24.4962C37.27 24.4962 38.2041 24.7717 38.6711 24.4962L38.5046 23.8984Z" fill="#7F3E3B"/>
<path id="Vector_102" d="M36.7109 23.2679L36.6035 24.1179L37.2698 24.4962L37.3819 23.38L36.7109 23.2679Z" fill="#7F3E3B"/>
<path id="Vector_103" d="M49.6339 13.1331C49.3957 14.405 49.3225 14.9499 48.5939 15.5275C47.5042 16.3962 45.9863 15.8264 45.84 14.5093C45.7061 13.3231 46.1171 11.4425 47.4357 11.0844C47.7261 11.0043 48.0323 10.9999 48.3249 11.0716C48.6176 11.1434 48.8869 11.289 49.1074 11.4944C49.3278 11.6998 49.4919 11.9583 49.5841 12.2452C49.6762 12.5321 49.6934 12.8378 49.6339 13.1331Z" fill="#7F3E3B"/>
<path id="Vector_104" d="M46.8396 13.4009C46.7664 14.0501 46.7384 15.7361 48.1644 15.789C49.9096 15.8529 50.4327 14.3615 50.277 13.7652C51.1862 13.0257 51.3169 11.7538 50.2957 10.7808C49.2744 9.80783 47.0264 10.3512 46.4037 11.2992C45.6144 12.4746 46.8396 13.4009 46.8396 13.4009Z" fill="#263238"/>
<path id="Vector_105" d="M48.5879 11.1591C48.5038 10.4741 48.5692 10.0024 49.2106 10.0024C49.852 10.0024 50.7269 10.2344 51.0476 10.8898C51.3683 11.5452 51.3948 12.5711 50.4996 12.4668C49.6044 12.3625 48.689 11.978 48.5879 11.1591Z" fill="#C1D600"/>
<path id="Vector_106" d="M49.581 10.9941C49.4253 10.1783 50.1554 7.88051 51.9286 7.72483C52.7506 7.65478 53.1305 8.53904 52.707 8.68537C53.4854 8.67603 53.9836 9.70508 53.2581 9.8592C53.831 10.2266 53.6893 10.9801 52.872 11.3506C52.2633 11.6308 49.7911 12.1243 49.581 10.9941Z" fill="#263238"/>
<path id="Vector_107" d="M51.4758 11.8706C50.9044 11.8706 50.3082 11.7865 49.9377 11.539C49.8341 11.4765 49.7468 11.3903 49.6832 11.2874C49.6196 11.1845 49.5814 11.068 49.5718 10.9474C49.5714 10.9372 49.5748 10.9271 49.5814 10.9193C49.5881 10.9115 49.5974 10.9065 49.6076 10.9054C49.6128 10.9047 49.618 10.9052 49.623 10.9066C49.628 10.9081 49.6326 10.9106 49.6365 10.914C49.6405 10.9174 49.6437 10.9215 49.646 10.9262C49.6482 10.9309 49.6495 10.936 49.6497 10.9412C49.659 11.05 49.694 11.1551 49.7516 11.2478C49.8092 11.3406 49.8879 11.4185 49.9813 11.4752C50.6865 11.9422 52.3164 11.7865 52.824 11.6308C53.263 11.4876 53.5603 11.209 53.6195 10.8883C53.6379 10.7706 53.6234 10.6501 53.5775 10.5401C53.5316 10.4302 53.4562 10.3352 53.3595 10.2655C53.3558 10.262 53.3528 10.2578 53.3508 10.2531C53.3488 10.2484 53.3477 10.2434 53.3477 10.2383C53.3477 10.2332 53.3488 10.2281 53.3508 10.2234C53.3528 10.2188 53.3558 10.2145 53.3595 10.211C53.3668 10.2039 53.3766 10.1999 53.3867 10.1999C53.3969 10.1999 53.4067 10.2039 53.414 10.211C53.5227 10.2903 53.6071 10.3983 53.658 10.5228C53.7089 10.6474 53.7241 10.7836 53.702 10.9163C53.6382 11.2666 53.3221 11.5655 52.8551 11.718C52.4045 11.8316 51.9404 11.883 51.4758 11.8706Z" fill="#263238"/>
<path id="Vector_108" d="M46.4425 13.2328C46.2975 13.4361 46.2377 13.6881 46.2759 13.9349C46.3273 14.2618 46.6449 14.2836 46.8753 14.075C47.1057 13.8664 47.3065 13.4896 47.1368 13.2188C47.0991 13.1602 47.047 13.1124 46.9856 13.0796C46.9241 13.0469 46.8553 13.0305 46.7857 13.0319C46.7161 13.0333 46.6481 13.0525 46.588 13.0877C46.5279 13.1228 46.4778 13.1728 46.4425 13.2328Z" fill="#7F3E3B"/>
<path id="Vector_109" d="M46.5312 25.5564C46.5312 25.5564 47.2878 34.5064 48.074 39.5504C48.7076 43.6246 49.2089 53.1475 49.2089 53.1475H50.9868C50.9868 53.1475 51.6189 43.9095 51.2982 39.8805C50.484 29.6835 52.3007 28.8521 50.431 25.558L46.5312 25.5564Z" fill="#C1D600"/>
<path id="Vector_110" opacity="0.4" d="M48.7701 28.9393C48.0655 29.6788 47.4969 30.5367 47.0903 31.4737C47.2974 33.4851 47.5434 35.7176 47.8049 37.6729C48.8781 34.8945 49.2107 31.8849 48.7701 28.9393Z" fill="black"/>
<path id="Vector_111" d="M45.2876 25.5003C45.2876 25.5003 43.6451 35.2754 43.3867 39.6812C44.0312 43.7553 46.6684 52.3675 46.6684 52.3675L48.286 51.7806C48.286 51.7806 47.3908 42.39 46.4178 39.8197C48.6082 32.4452 50.2179 30.5801 49.7493 25.5563C48.6269 25.5563 45.2876 25.5003 45.2876 25.5003Z" fill="#C1D600"/>
<path id="Vector_112" d="M46.452 52.7972L48.6378 52.204L48.5132 51.3322L46.1733 51.9659L46.452 52.7972Z" fill="#263238"/>
<path id="Vector_113" d="M48.9646 53.1833H51.2297L51.3481 52.3893L48.9521 52.3083L48.9646 53.1833Z" fill="#263238"/>
<path id="Vector_114" d="M50.5089 25.245L50.7471 25.7198C50.7658 25.7572 50.7222 25.7946 50.6615 25.7946H45.1068C45.0601 25.7946 45.0196 25.7712 45.0165 25.7401L44.9683 25.273C44.9683 25.2404 45.0072 25.2123 45.0586 25.2123H50.4217C50.4378 25.2101 50.4542 25.212 50.4694 25.2177C50.4847 25.2234 50.4982 25.2328 50.5089 25.245Z" fill="#C1D600"/>
<path id="Vector_115" opacity="0.5" d="M50.5089 25.245L50.7471 25.7198C50.7658 25.7572 50.7222 25.7946 50.6615 25.7946H45.1068C45.0601 25.7946 45.0196 25.7712 45.0165 25.7401L44.9683 25.273C44.9683 25.2404 45.0072 25.2123 45.0586 25.2123H50.4217C50.4378 25.2101 50.4542 25.212 50.4694 25.2177C50.4847 25.2234 50.4982 25.2328 50.5089 25.245Z" fill="black"/>
<path id="Vector_116" d="M49.7881 25.8428H49.9313C49.9609 25.8428 49.9827 25.8273 49.9811 25.8101L49.9126 25.1874C49.9126 25.1687 49.8862 25.1547 49.8582 25.1547H49.7134C49.6854 25.1547 49.6636 25.1687 49.6651 25.1874L49.7321 25.8101C49.7352 25.8304 49.7601 25.8428 49.7881 25.8428Z" fill="#C1D600"/>
<path id="Vector_117" d="M47.8608 21.3094C47.8436 21.3091 47.8269 21.3034 47.8132 21.2931C47.7995 21.2827 47.7895 21.2683 47.7845 21.2518C47.277 19.3743 46.2277 17.8268 45.7186 17.5933C45.6791 17.569 45.6316 17.5612 45.5863 17.5715C45.5769 17.5765 45.5666 17.5795 45.556 17.5803C45.5454 17.5811 45.5347 17.5797 45.5247 17.5763C45.5146 17.5728 45.5054 17.5673 45.4976 17.5602C45.4897 17.553 45.4834 17.5443 45.479 17.5346C45.4747 17.525 45.4723 17.5145 45.4722 17.5038C45.472 17.4932 45.474 17.4827 45.4781 17.4729C45.4822 17.463 45.4882 17.4542 45.4958 17.4468C45.5035 17.4394 45.5125 17.4336 45.5225 17.4299C45.565 17.4142 45.6105 17.4081 45.6556 17.4119C45.7008 17.4156 45.7446 17.4292 45.784 17.4517C46.3227 17.707 47.3875 19.2326 47.9199 21.1522C48.3014 21.1522 48.8898 21.1008 49.033 21.0883C49.2105 20.8766 50.5151 19.2451 50.0278 17.4594C50.025 17.4496 50.0242 17.4393 50.0254 17.4292C50.0267 17.4191 50.0299 17.4093 50.035 17.4004C50.0401 17.3916 50.0469 17.3838 50.055 17.3777C50.0631 17.3715 50.0724 17.367 50.0823 17.3645C50.1021 17.3592 50.1232 17.362 50.141 17.3722C50.1588 17.3824 50.1718 17.3992 50.1773 17.419C50.7206 19.4054 49.1451 21.1973 49.128 21.2144C49.1219 21.222 49.1144 21.2282 49.1058 21.2328C49.0973 21.2373 49.0879 21.2401 49.0782 21.2409C49.0704 21.2409 48.2936 21.3094 47.8608 21.3094Z" fill="#C1D600"/>
<path id="Vector_118" d="M50.4401 22.4086C49.5917 20.8191 49.2445 20.707 49.0935 20.1964C49.2079 19.9108 49.3712 19.6474 49.5761 19.418C49.4734 19.3884 49.2523 19.3448 49.1091 19.3183C49.1247 19.2483 49.1418 19.1798 49.1573 19.1128C49.0015 19.0954 48.8439 19.1027 48.6903 19.1346V18.9789C48.4926 18.9359 48.2895 18.9228 48.0878 18.94C48.1055 19.0137 48.1226 19.0884 48.1392 19.1642C47.9835 19.1938 47.7469 19.242 47.6332 19.2747C47.8541 19.5248 48.0163 19.8211 48.1081 20.1419C47.6504 20.928 45.8725 25.9814 48.765 26.3691C51.6576 26.7567 51.287 23.9996 50.4401 22.4086Z" fill="#C1D600"/>
<path id="Vector_119" opacity="0.4" d="M50.4401 22.4086C49.5917 20.8191 49.2445 20.707 49.0935 20.1964C49.2079 19.9108 49.3712 19.6474 49.5761 19.418C49.4734 19.3884 49.2523 19.3448 49.1091 19.3183C49.1247 19.2483 49.1418 19.1798 49.1573 19.1128C49.0015 19.0954 48.8439 19.1027 48.6903 19.1346V18.9789C48.4926 18.9359 48.2895 18.9228 48.0878 18.94C48.1055 19.0137 48.1226 19.0884 48.1392 19.1642C47.9835 19.1938 47.7469 19.242 47.6332 19.2747C47.8541 19.5248 48.0163 19.8211 48.1081 20.1419C47.6504 20.928 45.8725 25.9814 48.765 26.3691C51.6576 26.7567 51.287 23.9996 50.4401 22.4086Z" fill="white"/>
<path id="Vector_120" d="M47.9901 19.9908C47.9721 20.071 47.9643 20.1531 47.9668 20.2352C47.9668 20.2928 48.1224 20.3318 48.2952 20.3489C48.4681 20.366 49.1935 20.394 49.1702 20.3131C49.1468 20.2321 49.206 20.1216 49.2091 20.0531C49.2122 19.9846 48.9211 19.9815 48.6767 19.9908C48.4322 20.0002 48.0384 19.9036 47.9901 19.9908Z" fill="#C1D600"/>
<path id="Vector_121" d="M46.3074 25.8428H46.4506C46.4786 25.8428 46.5004 25.8273 46.4988 25.8101L46.4319 25.1874C46.4319 25.1687 46.4054 25.1547 46.3759 25.1547H46.2373C46.2093 25.1547 46.1875 25.1687 46.189 25.1874L46.256 25.8101C46.2529 25.8304 46.2778 25.8428 46.3074 25.8428Z" fill="#C1D600"/>
</g>
<g id="Logo">
<path id="Vector_122" fill-rule="evenodd" clip-rule="evenodd" d="M31.6516 18.0727C31.6458 18.0876 31.6438 18.2115 31.647 18.3481L31.6529 18.5963L31.8694 18.6022C32.0012 18.6058 32.0944 18.5996 32.1077 18.5863C32.138 18.5559 32.1502 18.1729 32.123 18.1026L32.1008 18.0455H31.8814C31.7199 18.0455 31.6593 18.0526 31.6516 18.0727ZM25.1058 18.1102C24.6307 18.1465 24.2354 18.3751 24.0713 18.7086C24.0099 18.8332 24.0042 18.8617 24.0042 19.0431C24.0042 19.2271 24.0094 19.252 24.0756 19.3865C24.1984 19.6359 24.4573 19.8491 24.8855 20.0535C25.3317 20.2665 25.4385 20.3254 25.5357 20.4124C25.6991 20.5585 25.7453 20.6963 25.6977 20.8949C25.6622 21.0427 25.5093 21.2004 25.3344 21.2695C25.2248 21.3128 25.1757 21.3187 24.9291 21.3185C24.5396 21.3181 24.3364 21.2605 24.1423 21.0952C24.104 21.0626 24.0691 21.0393 24.0649 21.0436C24.0607 21.0478 24.0474 21.1442 24.0353 21.2579C24.0232 21.3715 24.0083 21.4896 24.0022 21.5203C23.9889 21.5871 24.0326 21.6215 24.2104 21.684C24.5295 21.7961 25.0936 21.8249 25.3859 21.7439C26.1039 21.5449 26.4326 20.9596 26.1688 20.3499C26.1212 20.2398 25.9442 20.0556 25.7834 19.9487C25.7063 19.8974 25.4989 19.7855 25.3225 19.7C24.9357 19.5124 24.6986 19.3596 24.6141 19.2437C24.5564 19.1644 24.5519 19.1463 24.559 19.0183C24.5689 18.8376 24.6341 18.75 24.8337 18.6493C24.9667 18.5821 24.9912 18.577 25.2175 18.5695C25.4917 18.5602 25.693 18.5935 25.8796 18.6789C25.9433 18.7081 25.9998 18.7276 26.0051 18.7223C26.0227 18.7047 26.0916 18.3896 26.0923 18.3234C26.093 18.263 26.0846 18.2553 25.9735 18.2147C25.7307 18.1258 25.4086 18.087 25.1058 18.1102ZM27.3864 19.0332C27.1618 19.082 26.9531 19.1972 26.7887 19.3632C26.542 19.6124 26.4341 19.8836 26.4116 20.3111C26.3736 21.0332 26.7347 21.5947 27.3411 21.756C27.4939 21.7967 27.8779 21.7959 28.0372 21.7546C28.2655 21.6954 28.4478 21.5887 28.6068 21.4214C28.8227 21.1941 28.9273 20.9551 28.9676 20.5968C29.0234 20.1013 28.8931 19.6668 28.5983 19.3648C28.435 19.1975 28.2417 19.0898 28.0049 19.0339C27.8408 18.9953 27.5625 18.9949 27.3864 19.0332ZM30.1149 19.0312C29.9754 19.0661 29.8741 19.1112 29.7632 19.1875C29.7124 19.2224 29.6656 19.251 29.6591 19.251C29.6525 19.251 29.6472 19.2089 29.6472 19.1574C29.6472 19.0977 29.6378 19.0631 29.6212 19.0617C29.4969 19.0513 29.3127 19.0494 29.2574 19.0581L29.1896 19.0686L29.195 20.4017L29.2003 21.7347L29.3874 21.7409C29.4903 21.7442 29.5948 21.7419 29.6196 21.7357L29.6648 21.7244L29.6734 20.867C29.6825 19.958 29.6842 19.9417 29.7894 19.7355C29.8356 19.645 29.9628 19.521 30.0622 19.4696C30.0975 19.4514 30.178 19.4269 30.2412 19.4152C30.4559 19.3755 30.6541 19.4518 30.7688 19.6182C30.8745 19.7716 30.8797 19.8215 30.8926 20.8098L30.9047 21.7347L31.071 21.7397C31.1624 21.7425 31.2682 21.7396 31.3061 21.7333L31.3749 21.722L31.3682 20.7411C31.3616 19.7757 31.3607 19.7581 31.3132 19.6251C31.1925 19.2876 31.0012 19.1083 30.6816 19.0329C30.5254 18.9961 30.2581 18.9952 30.1149 19.0312ZM33.3157 19.0115C33.3043 19.0152 33.2253 19.0342 33.1403 19.0538C32.967 19.0937 32.6055 19.2352 32.5596 19.2811C32.5336 19.3071 32.5401 19.3314 32.6105 19.4681C32.6549 19.5544 32.7008 19.625 32.7125 19.6249C32.7242 19.6247 32.7756 19.6007 32.8267 19.5715C32.9869 19.4799 33.2441 19.4173 33.4598 19.4173C33.6274 19.4173 33.6652 19.4244 33.764 19.4744C33.8494 19.5177 33.8895 19.5543 33.9288 19.6251L33.9808 19.7186L33.9806 20.3006C33.9803 20.8579 33.9783 20.8876 33.9329 21.0005C33.8767 21.1403 33.7508 21.2773 33.6307 21.3294C33.45 21.4079 33.1324 21.3986 33.0143 21.3115C32.8864 21.2171 32.8337 20.991 32.8994 20.8188C32.9619 20.6552 33.1785 20.5373 33.5028 20.4903L33.669 20.4662L33.675 20.2608L33.681 20.0555L33.4937 20.0696C32.9636 20.1097 32.5648 20.3202 32.4155 20.6386C32.3659 20.7444 32.3596 20.7826 32.3596 20.9765C32.3596 21.1807 32.364 21.2042 32.4262 21.3299C32.5831 21.6474 32.8502 21.7949 33.264 21.7925C33.4998 21.7912 33.6944 21.7398 33.8744 21.6314C33.9414 21.5911 33.9992 21.5581 34.0029 21.5581C34.0066 21.5581 34.0125 21.5978 34.016 21.6464L34.0224 21.7347L34.2198 21.74C34.3284 21.7429 34.4313 21.7362 34.4485 21.7251C34.4755 21.7076 34.4792 21.5759 34.4763 20.7265C34.4739 20.0373 34.4654 19.716 34.4475 19.6398C34.3508 19.2294 34.0157 19.0014 33.5132 19.004C33.416 19.0044 33.3271 19.0078 33.3157 19.0115ZM31.6515 19.0663C31.6466 19.0741 31.6406 19.6713 31.6382 20.3933C31.6343 21.5259 31.6379 21.7087 31.6641 21.7253C31.6978 21.7466 32.0359 21.7524 32.0877 21.7325C32.1172 21.7212 32.1206 21.5838 32.1206 20.3933C32.1206 19.1479 32.1184 19.0661 32.0842 19.0559C32.032 19.0405 31.662 19.0493 31.6515 19.0663ZM27.4306 19.4606C27.2927 19.5136 27.1154 19.684 27.0426 19.8333C26.8387 20.2515 26.911 20.8932 27.1941 21.1781C27.242 21.2263 27.3342 21.2918 27.399 21.3236C27.5015 21.3739 27.5398 21.3811 27.6935 21.3792C27.923 21.3765 28.0476 21.3246 28.1924 21.1715C28.6462 20.6916 28.5031 19.6663 27.9536 19.4607C27.8011 19.4037 27.5786 19.4036 27.4306 19.4606Z" fill="#9AC53A"/>
<path id="Vector_123" fill-rule="evenodd" clip-rule="evenodd" d="M37.6823 17.5289C37.5119 17.5833 37.3633 17.6371 37.352 17.6484C37.3305 17.6699 37.2809 17.9215 37.0556 19.1533C36.9299 19.8409 36.906 19.9577 36.8909 19.9577C36.8819 19.9577 35.9252 19.41 35.0095 18.8807C34.8209 18.7716 34.6291 18.6608 34.5834 18.6344C34.5377 18.608 34.4923 18.5863 34.4825 18.5861C34.4727 18.586 34.5335 18.6629 34.6176 18.7571C34.7017 18.8513 34.8032 18.9655 34.8432 19.011C34.8832 19.0566 34.9636 19.1455 35.0219 19.2087C35.124 19.3194 35.8259 20.1021 36.2764 20.6076C36.396 20.7417 36.4999 20.8514 36.5074 20.8514C36.5213 20.8514 36.5393 20.8129 36.7408 20.3526C36.8034 20.2097 37.0696 19.6017 37.3325 19.0016C37.998 17.4824 38.0061 17.4635 37.9987 17.4457C37.9951 17.437 37.8527 17.4745 37.6823 17.5289Z" fill="#58A98F"/>
<path id="Vector_124" fill-rule="evenodd" clip-rule="evenodd" d="M36.7037 16.8484C36.5453 16.9367 36.4343 17.0112 36.4356 17.0286C36.4367 17.0449 36.5016 17.3222 36.5798 17.6449C36.658 17.9676 36.7173 18.2363 36.7115 18.2421C36.7021 18.2515 36.5422 18.2409 35.6437 18.171C35.4951 18.1594 35.2379 18.1406 35.0721 18.1292C34.9063 18.1178 34.6959 18.1025 34.6045 18.0951C34.513 18.0878 34.4429 18.0866 34.4486 18.0925C34.4543 18.0984 34.6413 18.2037 34.8643 18.3265C35.0872 18.4492 35.4005 18.6223 35.5605 18.711C36.1918 19.0611 36.5063 19.2302 36.5262 19.2302C36.5529 19.2302 36.5462 19.2608 36.7136 18.3781C36.7602 18.1323 36.8072 17.8891 36.818 17.8377C36.85 17.6862 37.0026 16.879 37.0175 16.7828C37.028 16.7147 37.0246 16.6949 37.0025 16.6962C36.9868 16.6971 36.8523 16.7656 36.7037 16.8484Z" fill="#1A9558"/>
<path id="Vector_125" fill-rule="evenodd" clip-rule="evenodd" d="M35.5383 16.2601C35.4248 16.4031 35.2365 16.6412 35.1198 16.7892C35.0032 16.9371 34.8046 17.1885 34.6786 17.3478C34.5525 17.5072 34.453 17.6411 34.4573 17.6454C34.4617 17.6498 34.7714 17.6855 35.1455 17.7248C35.5197 17.7641 35.9062 17.8053 36.0043 17.8165C36.1025 17.8276 36.1891 17.8299 36.1967 17.8216C36.2076 17.8097 35.9185 16.6377 35.7728 16.103L35.7447 16L35.5383 16.2601Z" fill="#9AC53A"/>
</g>
</g>
</svg>
