<svg width="20" height="20" viewBox="0 0 20 20" fill="none" xmlns="http://www.w3.org/2000/svg">
<g id="Study">
<g id="Group">
<g id="Vector">
<path d="M10 6.90828C9.4504 6.33068 7.8576 4.95948 5.184 4.47948C3.8304 4.23548 3.1536 4.11388 2.576 4.58028C2 5.04748 2 5.80428 2 7.32028V12.7675C2 14.1531 2 14.8459 2.3704 15.2787C2.74 15.7107 3.5544 15.8579 5.1848 16.1507C6.6368 16.4115 7.7704 16.8283 8.5912 17.2467C9.3992 17.6579 9.8024 17.8635 10 17.8635C10.1976 17.8635 10.6016 17.6579 11.408 17.2467C12.2296 16.8283 13.3632 16.4115 14.816 16.1507C16.4448 15.8579 17.26 15.7107 17.6296 15.2787C18 14.8459 18 14.1531 18 12.7667V7.32108C18 5.80588 18 5.04828 17.424 4.58108C16.8456 4.11388 15.6 4.47948 14.8 5.06348" fill="#003057"/>
<path d="M10 6.90828C9.4504 6.33068 7.8576 4.95948 5.184 4.47948C3.8304 4.23548 3.1536 4.11388 2.576 4.58028C2 5.04748 2 5.80428 2 7.32028V12.7675C2 14.1531 2 14.8459 2.3704 15.2787C2.74 15.7107 3.5544 15.8579 5.1848 16.1507C6.6368 16.4115 7.7704 16.8283 8.5912 17.2467C9.3992 17.6579 9.8024 17.8635 10 17.8635C10.1976 17.8635 10.6016 17.6579 11.408 17.2467C12.2296 16.8283 13.3632 16.4115 14.816 16.1507C16.4448 15.8579 17.26 15.7107 17.6296 15.2787C18 14.8459 18 14.1531 18 12.7667V7.32108C18 5.80588 18 5.04828 17.424 4.58108C16.8456 4.11388 15.6 4.47948 14.8 5.06348" stroke="#003057" stroke-linecap="round" stroke-linejoin="round"/>
</g>
<path id="Vector_2" d="M13.6904 13.5315C11.584 14.7179 10.3816 17.1755 10 17.8635V7.06349C10.332 6.46669 11.2816 4.75629 12.9056 3.59469C13.5896 3.10509 13.9312 2.86029 14.3656 3.08269C14.8 3.30669 14.8 3.79949 14.8 4.78429V8.32029V11.8563C14.8 12.3891 14.8 12.6555 14.6904 12.8419C14.5816 13.0291 14.284 13.1963 13.6904 13.5315Z" fill="#C1D600" stroke="#003057" stroke-linecap="round" stroke-linejoin="round"/>
</g>
</g>
</svg>
