<svg width="20" height="20" viewBox="0 0 20 20" fill="none" xmlns="http://www.w3.org/2000/svg">
<g id="iconoir:privacy-policy">
<g id="Group">
<path id="Vector" d="M15.1267 9.03771V4.43007C15.1267 4.37189 15.1153 4.31427 15.093 4.26051C15.0708 4.20676 15.0381 4.15792 14.9969 4.11681L12.6765 1.7964C12.5937 1.71344 12.4813 1.66677 12.364 1.66667H3.77527C3.65797 1.66667 3.54548 1.71327 3.46254 1.79621C3.3796 1.87915 3.33301 1.99164 3.33301 2.10893V15.9665C3.33301 16.0838 3.3796 16.1963 3.46254 16.2792C3.54548 16.3622 3.65797 16.4088 3.77527 16.4088H9.96694M6.28142 7.5635H12.1783M6.28142 4.61509H9.22984M6.28142 10.5119H8.49274" stroke="#003057" stroke-linecap="round" stroke-linejoin="round"/>
<path id="Vector_2" d="M12.1782 1.66667V4.17283C12.1782 4.29012 12.2248 4.40261 12.3078 4.48555C12.3907 4.56849 12.5032 4.61509 12.6205 4.61509H15.1266M15.1207 11.3412L17.0048 11.8195C17.2008 11.8697 17.3387 12.048 17.3328 12.25C17.206 16.4943 14.7581 17.1459 14.7581 17.1459C14.7581 17.1459 12.3102 16.4943 12.1834 12.25C12.1814 12.1518 12.2127 12.0557 12.2723 11.9775C12.3318 11.8994 12.4161 11.8437 12.5114 11.8195L14.3954 11.3412C14.6335 11.2807 14.8827 11.2807 15.1207 11.3412Z" stroke="#003057" stroke-linecap="round" stroke-linejoin="round"/>
</g>
</g>
</svg>
